%TF.GenerationSoftware,KiCad,Pcbnew,(5.1.6-0)*%
%TF.CreationDate,2020-10-27T20:15:33-07:00*%
%TF.ProjectId,panel_board,70616e65-6c5f-4626-9f61-72642e6b6963,rev?*%
%TF.SameCoordinates,Original*%
%TF.FileFunction,Copper,L1,Top*%
%TF.FilePolarity,Positive*%
%FSLAX46Y46*%
G04 Gerber Fmt 4.6, Leading zero omitted, Abs format (unit mm)*
G04 Created by KiCad (PCBNEW (5.1.6-0)) date 2020-10-27 20:15:33*
%MOMM*%
%LPD*%
G01*
G04 APERTURE LIST*
%TA.AperFunction,ComponentPad*%
%ADD10C,4.200000*%
%TD*%
%TA.AperFunction,Conductor*%
%ADD11C,0.254000*%
%TD*%
G04 APERTURE END LIST*
D10*
%TO.P,H1,1*%
%TO.N,GND*%
X107020000Y-35920000D03*
%TD*%
%TO.P,H2,1*%
%TO.N,GND*%
X107000000Y-158430000D03*
%TD*%
D11*
%TO.N,GND*%
G36*
X118735699Y-160660284D02*
G01*
X100282402Y-160660284D01*
X100282402Y-144362640D01*
X105819351Y-144362640D01*
X105819430Y-144372902D01*
X105822601Y-144588297D01*
X105825032Y-144609824D01*
X105824508Y-144631482D01*
X105825333Y-144641711D01*
X105844115Y-144855806D01*
X105848093Y-144877032D01*
X105849137Y-144898597D01*
X105850702Y-144908740D01*
X105884923Y-145120667D01*
X105890422Y-145141522D01*
X105893023Y-145162926D01*
X105895318Y-145172929D01*
X105944803Y-145381818D01*
X105951807Y-145402244D01*
X105955959Y-145423432D01*
X105958974Y-145433241D01*
X106023552Y-145638228D01*
X106032049Y-145658162D01*
X106037748Y-145679056D01*
X106041468Y-145688620D01*
X106120966Y-145888833D01*
X106130942Y-145908197D01*
X106138191Y-145928731D01*
X106142600Y-145937998D01*
X106236846Y-146132569D01*
X106248283Y-146151273D01*
X106257079Y-146171354D01*
X106262156Y-146180272D01*
X106370975Y-146368334D01*
X106383858Y-146386292D01*
X106394195Y-146405821D01*
X106399917Y-146414340D01*
X106523140Y-146595024D01*
X106537424Y-146612111D01*
X106549279Y-146630968D01*
X106555619Y-146639038D01*
X106693069Y-146811477D01*
X106708715Y-146827589D01*
X106722046Y-146845638D01*
X106728972Y-146853211D01*
X106880480Y-147016535D01*
X106897314Y-147031454D01*
X106911992Y-147048489D01*
X106919466Y-147055521D01*
X107082789Y-147207026D01*
X107100658Y-147220615D01*
X107116540Y-147236473D01*
X107124519Y-147242926D01*
X107296959Y-147380377D01*
X107315650Y-147392495D01*
X107332539Y-147407019D01*
X107340977Y-147412860D01*
X107521661Y-147536081D01*
X107541045Y-147546690D01*
X107558815Y-147559818D01*
X107567661Y-147565020D01*
X107755724Y-147673841D01*
X107775688Y-147682920D01*
X107794227Y-147694615D01*
X107803431Y-147699154D01*
X107998002Y-147793399D01*
X108018440Y-147800937D01*
X108037654Y-147811177D01*
X108047165Y-147815031D01*
X108247378Y-147894529D01*
X108268200Y-147900522D01*
X108288004Y-147909292D01*
X108297770Y-147912444D01*
X108502755Y-147977023D01*
X108523890Y-147981471D01*
X108544207Y-147988757D01*
X108554176Y-147991193D01*
X108763067Y-148040679D01*
X108784440Y-148043579D01*
X108805215Y-148049369D01*
X108815334Y-148051076D01*
X109027260Y-148085296D01*
X109048818Y-148086642D01*
X109069975Y-148090913D01*
X109080191Y-148091882D01*
X109294286Y-148110664D01*
X109315952Y-148110442D01*
X109337436Y-148113173D01*
X109347696Y-148113396D01*
X109563091Y-148116568D01*
X109584796Y-148114762D01*
X109606542Y-148115923D01*
X109616791Y-148115396D01*
X109832618Y-148102784D01*
X109854278Y-148099375D01*
X109876198Y-148098933D01*
X109886381Y-148097655D01*
X110101770Y-148069087D01*
X110123288Y-148064058D01*
X110145286Y-148061981D01*
X110155346Y-148059954D01*
X110369431Y-148015257D01*
X110390690Y-148008598D01*
X110412648Y-148004861D01*
X110422530Y-148002091D01*
X110634443Y-147941092D01*
X110655301Y-147932809D01*
X110677085Y-147927398D01*
X110686731Y-147923897D01*
X110895602Y-147846424D01*
X110915827Y-147836581D01*
X110937190Y-147829537D01*
X110946546Y-147825323D01*
X111149022Y-147732409D01*
X111168410Y-147721102D01*
X111189140Y-147712498D01*
X111198155Y-147707595D01*
X111391132Y-147600883D01*
X111409484Y-147588250D01*
X111429364Y-147578205D01*
X111437989Y-147572645D01*
X111620975Y-147452870D01*
X111638195Y-147439021D01*
X111657123Y-147427628D01*
X111665314Y-147421446D01*
X111837819Y-147289343D01*
X111853845Y-147274375D01*
X111871748Y-147261720D01*
X111879463Y-147254953D01*
X112040993Y-147111259D01*
X112055777Y-147095263D01*
X112072591Y-147081430D01*
X112079791Y-147074118D01*
X112229857Y-146919568D01*
X112243365Y-146902620D01*
X112259043Y-146887683D01*
X112265693Y-146879867D01*
X112403800Y-146715198D01*
X112415995Y-146697379D01*
X112430504Y-146681393D01*
X112436569Y-146673115D01*
X112562227Y-146499062D01*
X112573084Y-146480428D01*
X112586386Y-146463447D01*
X112591836Y-146454751D01*
X112704551Y-146272051D01*
X112714039Y-146252659D01*
X112726087Y-146234740D01*
X112730891Y-146225672D01*
X112830174Y-146035061D01*
X112838258Y-146014966D01*
X112849007Y-145996154D01*
X112853139Y-145986760D01*
X112938497Y-145788975D01*
X112945136Y-145768227D01*
X112954528Y-145748585D01*
X112957964Y-145738915D01*
X113028905Y-145534691D01*
X113034045Y-145513371D01*
X113042023Y-145492956D01*
X113044739Y-145483060D01*
X113100772Y-145273133D01*
X113104360Y-145251327D01*
X113110860Y-145230209D01*
X113112838Y-145220139D01*
X113153470Y-145005244D01*
X113155453Y-144983053D01*
X113160402Y-144961344D01*
X113161625Y-144951155D01*
X113186366Y-144732031D01*
X113186696Y-144709585D01*
X113190033Y-144687388D01*
X113190490Y-144677136D01*
X113198846Y-144454517D01*
X113197206Y-144427318D01*
X113198873Y-144400133D01*
X113198428Y-144389881D01*
X113183170Y-144087717D01*
X113178441Y-144056042D01*
X113177169Y-144024048D01*
X113175692Y-144013893D01*
X113130908Y-143720457D01*
X113123079Y-143689692D01*
X113118652Y-143658272D01*
X113116166Y-143648316D01*
X113043343Y-143365095D01*
X113032606Y-143335627D01*
X113025178Y-143305163D01*
X113021719Y-143295501D01*
X112922340Y-143023980D01*
X112908917Y-142996093D01*
X112898681Y-142966898D01*
X112894292Y-142957621D01*
X112769845Y-142699285D01*
X112753960Y-142673181D01*
X112741105Y-142645460D01*
X112735838Y-142636653D01*
X112587808Y-142392987D01*
X112569655Y-142368791D01*
X112554355Y-142342701D01*
X112548267Y-142334439D01*
X112378138Y-142106929D01*
X112357881Y-142084736D01*
X112340280Y-142060391D01*
X112333431Y-142052749D01*
X112142690Y-141842881D01*
X112120461Y-141822772D01*
X112100664Y-141800264D01*
X112093118Y-141793309D01*
X111883249Y-141602567D01*
X111859145Y-141584623D01*
X111837243Y-141564063D01*
X111829068Y-141557860D01*
X111601559Y-141387732D01*
X111575686Y-141372069D01*
X111551748Y-141353582D01*
X111543015Y-141348192D01*
X111299348Y-141200161D01*
X111271803Y-141186917D01*
X111245926Y-141170671D01*
X111236712Y-141166152D01*
X110978376Y-141041705D01*
X110949313Y-141031058D01*
X110921627Y-141017252D01*
X110912015Y-141013657D01*
X110640494Y-140914279D01*
X110610133Y-140906426D01*
X110580826Y-140895281D01*
X110570905Y-140892656D01*
X110287684Y-140819832D01*
X110256314Y-140814964D01*
X110225674Y-140806710D01*
X110215541Y-140805090D01*
X109922106Y-140760306D01*
X109890117Y-140758586D01*
X109858524Y-140753418D01*
X109848279Y-140752828D01*
X109563626Y-140738455D01*
X109545156Y-140736636D01*
X109472946Y-140736636D01*
X109459207Y-140737989D01*
X109258866Y-140745508D01*
X109236618Y-140748536D01*
X109214172Y-140748552D01*
X109203967Y-140749632D01*
X108984843Y-140774373D01*
X108963063Y-140779019D01*
X108940850Y-140780692D01*
X108930754Y-140782528D01*
X108715859Y-140823160D01*
X108694644Y-140829367D01*
X108672798Y-140832649D01*
X108662865Y-140835226D01*
X108452938Y-140891259D01*
X108432407Y-140898954D01*
X108411025Y-140903794D01*
X108401307Y-140907093D01*
X108197083Y-140978034D01*
X108177304Y-140987155D01*
X108156473Y-140993501D01*
X108147023Y-140997501D01*
X107949238Y-141082859D01*
X107930278Y-141093344D01*
X107910071Y-141101147D01*
X107900937Y-141105824D01*
X107710326Y-141205107D01*
X107692238Y-141216904D01*
X107672716Y-141226121D01*
X107663945Y-141231448D01*
X107481245Y-141344165D01*
X107464080Y-141357228D01*
X107445300Y-141367822D01*
X107436937Y-141373770D01*
X107262886Y-141499427D01*
X107246694Y-141513716D01*
X107228709Y-141525659D01*
X107220800Y-141532198D01*
X107056131Y-141670305D01*
X107040969Y-141685781D01*
X107023843Y-141699044D01*
X107016430Y-141706141D01*
X106861880Y-141856207D01*
X106847811Y-141872830D01*
X106831613Y-141887386D01*
X106824739Y-141895005D01*
X106681045Y-142056535D01*
X106668138Y-142074264D01*
X106652952Y-142090075D01*
X106646655Y-142098179D01*
X106514552Y-142270684D01*
X106502892Y-142289457D01*
X106488809Y-142306476D01*
X106483128Y-142315023D01*
X106363353Y-142498009D01*
X106353030Y-142517748D01*
X106340144Y-142535920D01*
X106335115Y-142544866D01*
X106228403Y-142737843D01*
X106219508Y-142758457D01*
X106207932Y-142777684D01*
X106203586Y-142786981D01*
X106110675Y-142989457D01*
X106103335Y-143010713D01*
X106093212Y-143030797D01*
X106089576Y-143040393D01*
X106012103Y-143249263D01*
X106006387Y-143270972D01*
X105997814Y-143291712D01*
X105994906Y-143301554D01*
X105933907Y-143513466D01*
X105929863Y-143535373D01*
X105922908Y-143556536D01*
X105920741Y-143566566D01*
X105876044Y-143780652D01*
X105873660Y-143802624D01*
X105868332Y-143824064D01*
X105866911Y-143834228D01*
X105838343Y-144049617D01*
X105837595Y-144071531D01*
X105833884Y-144093140D01*
X105833214Y-144103380D01*
X105820602Y-144319206D01*
X105821459Y-144340968D01*
X105819351Y-144362640D01*
X100282402Y-144362640D01*
X100282402Y-130697270D01*
X105819351Y-130697270D01*
X105819430Y-130707532D01*
X105822601Y-130922927D01*
X105825032Y-130944454D01*
X105824508Y-130966112D01*
X105825333Y-130976341D01*
X105844115Y-131190436D01*
X105848093Y-131211662D01*
X105849137Y-131233227D01*
X105850702Y-131243370D01*
X105884923Y-131455297D01*
X105890422Y-131476152D01*
X105893023Y-131497556D01*
X105895318Y-131507559D01*
X105944803Y-131716448D01*
X105951807Y-131736874D01*
X105955959Y-131758062D01*
X105958974Y-131767871D01*
X106023552Y-131972858D01*
X106032049Y-131992792D01*
X106037748Y-132013686D01*
X106041468Y-132023250D01*
X106120966Y-132223463D01*
X106130942Y-132242827D01*
X106138191Y-132263361D01*
X106142600Y-132272628D01*
X106236846Y-132467199D01*
X106248283Y-132485903D01*
X106257079Y-132505984D01*
X106262156Y-132514902D01*
X106370975Y-132702964D01*
X106383858Y-132720922D01*
X106394195Y-132740451D01*
X106399917Y-132748970D01*
X106523140Y-132929654D01*
X106537424Y-132946741D01*
X106549279Y-132965598D01*
X106555619Y-132973668D01*
X106693069Y-133146107D01*
X106708715Y-133162219D01*
X106722046Y-133180268D01*
X106728972Y-133187841D01*
X106880480Y-133351165D01*
X106897314Y-133366084D01*
X106911992Y-133383119D01*
X106919466Y-133390151D01*
X107082789Y-133541656D01*
X107100658Y-133555245D01*
X107116540Y-133571103D01*
X107124519Y-133577556D01*
X107296959Y-133715007D01*
X107315650Y-133727125D01*
X107332539Y-133741649D01*
X107340977Y-133747490D01*
X107521661Y-133870711D01*
X107541045Y-133881320D01*
X107558815Y-133894448D01*
X107567661Y-133899650D01*
X107755724Y-134008471D01*
X107775688Y-134017550D01*
X107794227Y-134029245D01*
X107803431Y-134033784D01*
X107998002Y-134128029D01*
X108018440Y-134135567D01*
X108037654Y-134145807D01*
X108047165Y-134149661D01*
X108247378Y-134229159D01*
X108268200Y-134235152D01*
X108288004Y-134243922D01*
X108297770Y-134247074D01*
X108502755Y-134311653D01*
X108523890Y-134316101D01*
X108544207Y-134323387D01*
X108554176Y-134325823D01*
X108763067Y-134375309D01*
X108784440Y-134378209D01*
X108805215Y-134383999D01*
X108815334Y-134385706D01*
X109027260Y-134419926D01*
X109048818Y-134421272D01*
X109069975Y-134425543D01*
X109080191Y-134426512D01*
X109294286Y-134445294D01*
X109315952Y-134445072D01*
X109337436Y-134447803D01*
X109347696Y-134448026D01*
X109563091Y-134451198D01*
X109584796Y-134449392D01*
X109606542Y-134450553D01*
X109616791Y-134450026D01*
X109832618Y-134437414D01*
X109854278Y-134434005D01*
X109876198Y-134433563D01*
X109886381Y-134432285D01*
X110101770Y-134403717D01*
X110123288Y-134398688D01*
X110145286Y-134396611D01*
X110155346Y-134394584D01*
X110369431Y-134349887D01*
X110390690Y-134343228D01*
X110412648Y-134339491D01*
X110422530Y-134336721D01*
X110634443Y-134275722D01*
X110655301Y-134267439D01*
X110677085Y-134262028D01*
X110686731Y-134258527D01*
X110895602Y-134181054D01*
X110915827Y-134171211D01*
X110937190Y-134164167D01*
X110946546Y-134159953D01*
X111149022Y-134067039D01*
X111168410Y-134055732D01*
X111189140Y-134047128D01*
X111198155Y-134042225D01*
X111391132Y-133935513D01*
X111409484Y-133922880D01*
X111429364Y-133912835D01*
X111437989Y-133907275D01*
X111620975Y-133787500D01*
X111638195Y-133773651D01*
X111657123Y-133762258D01*
X111665314Y-133756076D01*
X111837819Y-133623973D01*
X111853845Y-133609005D01*
X111871748Y-133596350D01*
X111879463Y-133589583D01*
X112040993Y-133445889D01*
X112055777Y-133429893D01*
X112072591Y-133416060D01*
X112079791Y-133408748D01*
X112229857Y-133254198D01*
X112243365Y-133237250D01*
X112259043Y-133222313D01*
X112265693Y-133214497D01*
X112403800Y-133049828D01*
X112415995Y-133032009D01*
X112430504Y-133016023D01*
X112436569Y-133007745D01*
X112562227Y-132833692D01*
X112573084Y-132815058D01*
X112586386Y-132798077D01*
X112591836Y-132789381D01*
X112704551Y-132606681D01*
X112714039Y-132587289D01*
X112726087Y-132569370D01*
X112730891Y-132560302D01*
X112830174Y-132369691D01*
X112838258Y-132349596D01*
X112849007Y-132330784D01*
X112853139Y-132321390D01*
X112938497Y-132123605D01*
X112945136Y-132102857D01*
X112954528Y-132083215D01*
X112957964Y-132073545D01*
X113028905Y-131869321D01*
X113034045Y-131848001D01*
X113042023Y-131827586D01*
X113044739Y-131817690D01*
X113100772Y-131607763D01*
X113104360Y-131585957D01*
X113110860Y-131564839D01*
X113112838Y-131554769D01*
X113153470Y-131339874D01*
X113155453Y-131317683D01*
X113160402Y-131295974D01*
X113161625Y-131285785D01*
X113186366Y-131066661D01*
X113186696Y-131044215D01*
X113190033Y-131022018D01*
X113190490Y-131011766D01*
X113198846Y-130789147D01*
X113197206Y-130761948D01*
X113198873Y-130734763D01*
X113198428Y-130724511D01*
X113183170Y-130422347D01*
X113178441Y-130390672D01*
X113177169Y-130358678D01*
X113175692Y-130348523D01*
X113130908Y-130055087D01*
X113123079Y-130024322D01*
X113118652Y-129992902D01*
X113116166Y-129982946D01*
X113043343Y-129699725D01*
X113032606Y-129670257D01*
X113025178Y-129639793D01*
X113021719Y-129630131D01*
X112922340Y-129358610D01*
X112908917Y-129330723D01*
X112898681Y-129301528D01*
X112894292Y-129292251D01*
X112769845Y-129033915D01*
X112753960Y-129007811D01*
X112741105Y-128980090D01*
X112735838Y-128971283D01*
X112587808Y-128727617D01*
X112569655Y-128703421D01*
X112554355Y-128677331D01*
X112548267Y-128669069D01*
X112378138Y-128441559D01*
X112357881Y-128419366D01*
X112340280Y-128395021D01*
X112333431Y-128387379D01*
X112142690Y-128177511D01*
X112120461Y-128157402D01*
X112100664Y-128134894D01*
X112093118Y-128127939D01*
X111883249Y-127937197D01*
X111859145Y-127919253D01*
X111837243Y-127898693D01*
X111829068Y-127892490D01*
X111601559Y-127722362D01*
X111575686Y-127706699D01*
X111551748Y-127688212D01*
X111543015Y-127682822D01*
X111299348Y-127534791D01*
X111271803Y-127521547D01*
X111245926Y-127505301D01*
X111236712Y-127500782D01*
X110978376Y-127376335D01*
X110949313Y-127365688D01*
X110921627Y-127351882D01*
X110912015Y-127348287D01*
X110640494Y-127248909D01*
X110610133Y-127241056D01*
X110580826Y-127229911D01*
X110570905Y-127227286D01*
X110287684Y-127154462D01*
X110256314Y-127149594D01*
X110225674Y-127141340D01*
X110215541Y-127139720D01*
X109922106Y-127094936D01*
X109890117Y-127093216D01*
X109858524Y-127088048D01*
X109848279Y-127087458D01*
X109563626Y-127073085D01*
X109545156Y-127071266D01*
X109472946Y-127071266D01*
X109459207Y-127072619D01*
X109258866Y-127080138D01*
X109236618Y-127083166D01*
X109214172Y-127083182D01*
X109203967Y-127084262D01*
X108984843Y-127109003D01*
X108963063Y-127113649D01*
X108940850Y-127115322D01*
X108930754Y-127117158D01*
X108715859Y-127157790D01*
X108694644Y-127163997D01*
X108672798Y-127167279D01*
X108662865Y-127169856D01*
X108452938Y-127225889D01*
X108432407Y-127233584D01*
X108411025Y-127238424D01*
X108401307Y-127241723D01*
X108197083Y-127312664D01*
X108177304Y-127321785D01*
X108156473Y-127328131D01*
X108147023Y-127332131D01*
X107949238Y-127417489D01*
X107930278Y-127427974D01*
X107910071Y-127435777D01*
X107900937Y-127440454D01*
X107710326Y-127539737D01*
X107692238Y-127551534D01*
X107672716Y-127560751D01*
X107663945Y-127566078D01*
X107481245Y-127678795D01*
X107464080Y-127691858D01*
X107445300Y-127702452D01*
X107436937Y-127708400D01*
X107262886Y-127834057D01*
X107246694Y-127848346D01*
X107228709Y-127860289D01*
X107220800Y-127866828D01*
X107056131Y-128004935D01*
X107040969Y-128020411D01*
X107023843Y-128033674D01*
X107016430Y-128040771D01*
X106861880Y-128190837D01*
X106847811Y-128207460D01*
X106831613Y-128222016D01*
X106824739Y-128229635D01*
X106681045Y-128391165D01*
X106668138Y-128408894D01*
X106652952Y-128424705D01*
X106646655Y-128432809D01*
X106514552Y-128605314D01*
X106502892Y-128624087D01*
X106488809Y-128641106D01*
X106483128Y-128649653D01*
X106363353Y-128832639D01*
X106353030Y-128852378D01*
X106340144Y-128870550D01*
X106335115Y-128879496D01*
X106228403Y-129072473D01*
X106219508Y-129093087D01*
X106207932Y-129112314D01*
X106203586Y-129121611D01*
X106110675Y-129324087D01*
X106103335Y-129345343D01*
X106093212Y-129365427D01*
X106089576Y-129375023D01*
X106012103Y-129583893D01*
X106006387Y-129605602D01*
X105997814Y-129626342D01*
X105994906Y-129636184D01*
X105933907Y-129848096D01*
X105929863Y-129870003D01*
X105922908Y-129891166D01*
X105920741Y-129901196D01*
X105876044Y-130115282D01*
X105873660Y-130137254D01*
X105868332Y-130158694D01*
X105866911Y-130168858D01*
X105838343Y-130384247D01*
X105837595Y-130406161D01*
X105833884Y-130427770D01*
X105833214Y-130438010D01*
X105820602Y-130653836D01*
X105821459Y-130675598D01*
X105819351Y-130697270D01*
X100282402Y-130697270D01*
X100282402Y-117031950D01*
X105819351Y-117031950D01*
X105819430Y-117042212D01*
X105822601Y-117257607D01*
X105825032Y-117279134D01*
X105824508Y-117300792D01*
X105825333Y-117311021D01*
X105844115Y-117525116D01*
X105848093Y-117546342D01*
X105849137Y-117567907D01*
X105850702Y-117578050D01*
X105884923Y-117789977D01*
X105890422Y-117810832D01*
X105893023Y-117832236D01*
X105895318Y-117842239D01*
X105944803Y-118051128D01*
X105951807Y-118071554D01*
X105955959Y-118092742D01*
X105958974Y-118102551D01*
X106023552Y-118307538D01*
X106032049Y-118327472D01*
X106037748Y-118348366D01*
X106041468Y-118357930D01*
X106120966Y-118558143D01*
X106130942Y-118577507D01*
X106138191Y-118598041D01*
X106142600Y-118607308D01*
X106236846Y-118801879D01*
X106248283Y-118820583D01*
X106257079Y-118840664D01*
X106262156Y-118849582D01*
X106370975Y-119037644D01*
X106383858Y-119055602D01*
X106394195Y-119075131D01*
X106399917Y-119083650D01*
X106523140Y-119264334D01*
X106537424Y-119281421D01*
X106549279Y-119300278D01*
X106555619Y-119308348D01*
X106693069Y-119480787D01*
X106708715Y-119496899D01*
X106722046Y-119514948D01*
X106728972Y-119522521D01*
X106880480Y-119685845D01*
X106897314Y-119700764D01*
X106911992Y-119717799D01*
X106919466Y-119724831D01*
X107082789Y-119876336D01*
X107100658Y-119889925D01*
X107116540Y-119905783D01*
X107124519Y-119912236D01*
X107296959Y-120049687D01*
X107315650Y-120061805D01*
X107332539Y-120076329D01*
X107340977Y-120082170D01*
X107521661Y-120205391D01*
X107541045Y-120216000D01*
X107558815Y-120229128D01*
X107567661Y-120234330D01*
X107755724Y-120343151D01*
X107775688Y-120352230D01*
X107794227Y-120363925D01*
X107803431Y-120368464D01*
X107998002Y-120462709D01*
X108018440Y-120470247D01*
X108037654Y-120480487D01*
X108047165Y-120484341D01*
X108247378Y-120563839D01*
X108268200Y-120569832D01*
X108288004Y-120578602D01*
X108297770Y-120581754D01*
X108502755Y-120646333D01*
X108523890Y-120650781D01*
X108544207Y-120658067D01*
X108554176Y-120660503D01*
X108763067Y-120709989D01*
X108784440Y-120712889D01*
X108805215Y-120718679D01*
X108815334Y-120720386D01*
X109027260Y-120754606D01*
X109048818Y-120755952D01*
X109069975Y-120760223D01*
X109080191Y-120761192D01*
X109294286Y-120779974D01*
X109315952Y-120779752D01*
X109337436Y-120782483D01*
X109347696Y-120782706D01*
X109563091Y-120785878D01*
X109584796Y-120784072D01*
X109606542Y-120785233D01*
X109616791Y-120784706D01*
X109832618Y-120772094D01*
X109854278Y-120768685D01*
X109876198Y-120768243D01*
X109886381Y-120766965D01*
X110101770Y-120738397D01*
X110123288Y-120733368D01*
X110145286Y-120731291D01*
X110155346Y-120729264D01*
X110369431Y-120684567D01*
X110390690Y-120677908D01*
X110412648Y-120674171D01*
X110422530Y-120671401D01*
X110634443Y-120610402D01*
X110655301Y-120602119D01*
X110677085Y-120596708D01*
X110686731Y-120593207D01*
X110895602Y-120515734D01*
X110915827Y-120505891D01*
X110937190Y-120498847D01*
X110946546Y-120494633D01*
X111149022Y-120401719D01*
X111168410Y-120390412D01*
X111189140Y-120381808D01*
X111198155Y-120376905D01*
X111391132Y-120270193D01*
X111409484Y-120257560D01*
X111429364Y-120247515D01*
X111437989Y-120241955D01*
X111620975Y-120122180D01*
X111638195Y-120108331D01*
X111657123Y-120096938D01*
X111665314Y-120090756D01*
X111837819Y-119958653D01*
X111853845Y-119943685D01*
X111871748Y-119931030D01*
X111879463Y-119924263D01*
X112040993Y-119780569D01*
X112055777Y-119764573D01*
X112072591Y-119750740D01*
X112079791Y-119743428D01*
X112229857Y-119588878D01*
X112243365Y-119571930D01*
X112259043Y-119556993D01*
X112265693Y-119549177D01*
X112403800Y-119384508D01*
X112415995Y-119366689D01*
X112430504Y-119350703D01*
X112436569Y-119342425D01*
X112562227Y-119168372D01*
X112573084Y-119149738D01*
X112586386Y-119132757D01*
X112591836Y-119124061D01*
X112704551Y-118941361D01*
X112714039Y-118921969D01*
X112726087Y-118904050D01*
X112730891Y-118894982D01*
X112830174Y-118704371D01*
X112838258Y-118684276D01*
X112849007Y-118665464D01*
X112853139Y-118656070D01*
X112938497Y-118458285D01*
X112945136Y-118437537D01*
X112954528Y-118417895D01*
X112957964Y-118408225D01*
X113028905Y-118204001D01*
X113034045Y-118182681D01*
X113042023Y-118162266D01*
X113044739Y-118152370D01*
X113100772Y-117942443D01*
X113104360Y-117920637D01*
X113110860Y-117899519D01*
X113112838Y-117889449D01*
X113153470Y-117674554D01*
X113155453Y-117652363D01*
X113160402Y-117630654D01*
X113161625Y-117620465D01*
X113186366Y-117401341D01*
X113186696Y-117378895D01*
X113190033Y-117356698D01*
X113190490Y-117346446D01*
X113198846Y-117123827D01*
X113197206Y-117096628D01*
X113198873Y-117069443D01*
X113198428Y-117059191D01*
X113183170Y-116757027D01*
X113178441Y-116725352D01*
X113177169Y-116693358D01*
X113175692Y-116683203D01*
X113130908Y-116389767D01*
X113123079Y-116359002D01*
X113118652Y-116327582D01*
X113116166Y-116317626D01*
X113043343Y-116034405D01*
X113032606Y-116004937D01*
X113025178Y-115974473D01*
X113021719Y-115964811D01*
X112922340Y-115693290D01*
X112908917Y-115665403D01*
X112898681Y-115636208D01*
X112894292Y-115626931D01*
X112769845Y-115368595D01*
X112753960Y-115342491D01*
X112741105Y-115314770D01*
X112735838Y-115305963D01*
X112587808Y-115062297D01*
X112569655Y-115038101D01*
X112554355Y-115012011D01*
X112548267Y-115003749D01*
X112378138Y-114776239D01*
X112357881Y-114754046D01*
X112340280Y-114729701D01*
X112333431Y-114722059D01*
X112142690Y-114512191D01*
X112120461Y-114492082D01*
X112100664Y-114469574D01*
X112093118Y-114462619D01*
X111883249Y-114271877D01*
X111859145Y-114253933D01*
X111837243Y-114233373D01*
X111829068Y-114227170D01*
X111601559Y-114057042D01*
X111575686Y-114041379D01*
X111551748Y-114022892D01*
X111543015Y-114017502D01*
X111299348Y-113869471D01*
X111271803Y-113856227D01*
X111245926Y-113839981D01*
X111236712Y-113835462D01*
X110978376Y-113711015D01*
X110949313Y-113700368D01*
X110921627Y-113686562D01*
X110912015Y-113682967D01*
X110640494Y-113583589D01*
X110610133Y-113575736D01*
X110580826Y-113564591D01*
X110570905Y-113561966D01*
X110287684Y-113489142D01*
X110256314Y-113484274D01*
X110225674Y-113476020D01*
X110215541Y-113474400D01*
X109922106Y-113429616D01*
X109890117Y-113427896D01*
X109858524Y-113422728D01*
X109848279Y-113422138D01*
X109563626Y-113407765D01*
X109545156Y-113405946D01*
X109472946Y-113405946D01*
X109459207Y-113407299D01*
X109258866Y-113414818D01*
X109236618Y-113417846D01*
X109214172Y-113417862D01*
X109203967Y-113418942D01*
X108984843Y-113443683D01*
X108963063Y-113448329D01*
X108940850Y-113450002D01*
X108930754Y-113451838D01*
X108715859Y-113492470D01*
X108694644Y-113498677D01*
X108672798Y-113501959D01*
X108662865Y-113504536D01*
X108452938Y-113560569D01*
X108432407Y-113568264D01*
X108411025Y-113573104D01*
X108401307Y-113576403D01*
X108197083Y-113647344D01*
X108177304Y-113656465D01*
X108156473Y-113662811D01*
X108147023Y-113666811D01*
X107949238Y-113752169D01*
X107930278Y-113762654D01*
X107910071Y-113770457D01*
X107900937Y-113775134D01*
X107710326Y-113874417D01*
X107692238Y-113886214D01*
X107672716Y-113895431D01*
X107663945Y-113900758D01*
X107481245Y-114013475D01*
X107464080Y-114026538D01*
X107445300Y-114037132D01*
X107436937Y-114043080D01*
X107262886Y-114168737D01*
X107246694Y-114183026D01*
X107228709Y-114194969D01*
X107220800Y-114201508D01*
X107056131Y-114339615D01*
X107040969Y-114355091D01*
X107023843Y-114368354D01*
X107016430Y-114375451D01*
X106861880Y-114525517D01*
X106847811Y-114542140D01*
X106831613Y-114556696D01*
X106824739Y-114564315D01*
X106681045Y-114725845D01*
X106668138Y-114743574D01*
X106652952Y-114759385D01*
X106646655Y-114767489D01*
X106514552Y-114939994D01*
X106502892Y-114958767D01*
X106488809Y-114975786D01*
X106483128Y-114984333D01*
X106363353Y-115167319D01*
X106353030Y-115187058D01*
X106340144Y-115205230D01*
X106335115Y-115214176D01*
X106228403Y-115407153D01*
X106219508Y-115427767D01*
X106207932Y-115446994D01*
X106203586Y-115456291D01*
X106110675Y-115658767D01*
X106103335Y-115680023D01*
X106093212Y-115700107D01*
X106089576Y-115709703D01*
X106012103Y-115918573D01*
X106006387Y-115940282D01*
X105997814Y-115961022D01*
X105994906Y-115970864D01*
X105933907Y-116182776D01*
X105929863Y-116204683D01*
X105922908Y-116225846D01*
X105920741Y-116235876D01*
X105876044Y-116449962D01*
X105873660Y-116471934D01*
X105868332Y-116493374D01*
X105866911Y-116503538D01*
X105838343Y-116718927D01*
X105837595Y-116740841D01*
X105833884Y-116762450D01*
X105833214Y-116772690D01*
X105820602Y-116988516D01*
X105821459Y-117010278D01*
X105819351Y-117031950D01*
X100282402Y-117031950D01*
X100282402Y-103366640D01*
X105819351Y-103366640D01*
X105819430Y-103376902D01*
X105822601Y-103592297D01*
X105825032Y-103613824D01*
X105824508Y-103635482D01*
X105825333Y-103645711D01*
X105844115Y-103859806D01*
X105848093Y-103881032D01*
X105849137Y-103902597D01*
X105850702Y-103912740D01*
X105884923Y-104124667D01*
X105890422Y-104145522D01*
X105893023Y-104166926D01*
X105895318Y-104176929D01*
X105944803Y-104385818D01*
X105951807Y-104406244D01*
X105955959Y-104427432D01*
X105958974Y-104437241D01*
X106023552Y-104642228D01*
X106032049Y-104662162D01*
X106037748Y-104683056D01*
X106041468Y-104692620D01*
X106120966Y-104892833D01*
X106130942Y-104912197D01*
X106138191Y-104932731D01*
X106142600Y-104941998D01*
X106236846Y-105136569D01*
X106248283Y-105155273D01*
X106257079Y-105175354D01*
X106262156Y-105184272D01*
X106370975Y-105372334D01*
X106383858Y-105390292D01*
X106394195Y-105409821D01*
X106399917Y-105418340D01*
X106523140Y-105599024D01*
X106537424Y-105616111D01*
X106549279Y-105634968D01*
X106555619Y-105643038D01*
X106693069Y-105815477D01*
X106708715Y-105831589D01*
X106722046Y-105849638D01*
X106728972Y-105857211D01*
X106880480Y-106020535D01*
X106897314Y-106035454D01*
X106911992Y-106052489D01*
X106919466Y-106059521D01*
X107082789Y-106211026D01*
X107100658Y-106224615D01*
X107116540Y-106240473D01*
X107124519Y-106246926D01*
X107296959Y-106384377D01*
X107315650Y-106396495D01*
X107332539Y-106411019D01*
X107340977Y-106416860D01*
X107521661Y-106540081D01*
X107541045Y-106550690D01*
X107558815Y-106563818D01*
X107567661Y-106569020D01*
X107755724Y-106677841D01*
X107775688Y-106686920D01*
X107794227Y-106698615D01*
X107803431Y-106703154D01*
X107998002Y-106797399D01*
X108018440Y-106804937D01*
X108037654Y-106815177D01*
X108047165Y-106819031D01*
X108247378Y-106898529D01*
X108268200Y-106904522D01*
X108288004Y-106913292D01*
X108297770Y-106916444D01*
X108502755Y-106981023D01*
X108523890Y-106985471D01*
X108544207Y-106992757D01*
X108554176Y-106995193D01*
X108763067Y-107044679D01*
X108784440Y-107047579D01*
X108805215Y-107053369D01*
X108815334Y-107055076D01*
X109027260Y-107089296D01*
X109048818Y-107090642D01*
X109069975Y-107094913D01*
X109080191Y-107095882D01*
X109294286Y-107114664D01*
X109315952Y-107114442D01*
X109337436Y-107117173D01*
X109347696Y-107117396D01*
X109563091Y-107120568D01*
X109584796Y-107118762D01*
X109606542Y-107119923D01*
X109616791Y-107119396D01*
X109832618Y-107106784D01*
X109854278Y-107103375D01*
X109876198Y-107102933D01*
X109886381Y-107101655D01*
X110101770Y-107073087D01*
X110123288Y-107068058D01*
X110145286Y-107065981D01*
X110155346Y-107063954D01*
X110369431Y-107019257D01*
X110390690Y-107012598D01*
X110412648Y-107008861D01*
X110422530Y-107006091D01*
X110634443Y-106945092D01*
X110655301Y-106936809D01*
X110677085Y-106931398D01*
X110686731Y-106927897D01*
X110895602Y-106850424D01*
X110915827Y-106840581D01*
X110937190Y-106833537D01*
X110946546Y-106829323D01*
X111149022Y-106736409D01*
X111168410Y-106725102D01*
X111189140Y-106716498D01*
X111198155Y-106711595D01*
X111391132Y-106604883D01*
X111409484Y-106592250D01*
X111429364Y-106582205D01*
X111437989Y-106576645D01*
X111620975Y-106456870D01*
X111638195Y-106443021D01*
X111657123Y-106431628D01*
X111665314Y-106425446D01*
X111837819Y-106293343D01*
X111853845Y-106278375D01*
X111871748Y-106265720D01*
X111879463Y-106258953D01*
X112040993Y-106115259D01*
X112055777Y-106099263D01*
X112072591Y-106085430D01*
X112079791Y-106078118D01*
X112229857Y-105923568D01*
X112243365Y-105906620D01*
X112259043Y-105891683D01*
X112265693Y-105883867D01*
X112403800Y-105719198D01*
X112415995Y-105701379D01*
X112430504Y-105685393D01*
X112436569Y-105677115D01*
X112562227Y-105503062D01*
X112573084Y-105484428D01*
X112586386Y-105467447D01*
X112591836Y-105458751D01*
X112704551Y-105276051D01*
X112714039Y-105256659D01*
X112726087Y-105238740D01*
X112730891Y-105229672D01*
X112830174Y-105039061D01*
X112838258Y-105018966D01*
X112849007Y-105000154D01*
X112853139Y-104990760D01*
X112938497Y-104792975D01*
X112945136Y-104772227D01*
X112954528Y-104752585D01*
X112957964Y-104742915D01*
X113028905Y-104538691D01*
X113034045Y-104517371D01*
X113042023Y-104496956D01*
X113044739Y-104487060D01*
X113100772Y-104277133D01*
X113104360Y-104255327D01*
X113110860Y-104234209D01*
X113112838Y-104224139D01*
X113153470Y-104009244D01*
X113155453Y-103987053D01*
X113160402Y-103965344D01*
X113161625Y-103955155D01*
X113186366Y-103736031D01*
X113186696Y-103713585D01*
X113190033Y-103691388D01*
X113190490Y-103681136D01*
X113198846Y-103458517D01*
X113197206Y-103431318D01*
X113198873Y-103404133D01*
X113198428Y-103393881D01*
X113183170Y-103091717D01*
X113178441Y-103060042D01*
X113177169Y-103028048D01*
X113175692Y-103017893D01*
X113130908Y-102724457D01*
X113123079Y-102693692D01*
X113118652Y-102662272D01*
X113116166Y-102652316D01*
X113043343Y-102369095D01*
X113032606Y-102339627D01*
X113025178Y-102309163D01*
X113021719Y-102299501D01*
X112922340Y-102027980D01*
X112908917Y-102000093D01*
X112898681Y-101970898D01*
X112894292Y-101961621D01*
X112769845Y-101703285D01*
X112753960Y-101677181D01*
X112741105Y-101649460D01*
X112735838Y-101640653D01*
X112587808Y-101396987D01*
X112569655Y-101372791D01*
X112554355Y-101346701D01*
X112548267Y-101338439D01*
X112378138Y-101110929D01*
X112357881Y-101088736D01*
X112340280Y-101064391D01*
X112333431Y-101056749D01*
X112142690Y-100846881D01*
X112120461Y-100826772D01*
X112100664Y-100804264D01*
X112093118Y-100797309D01*
X111883249Y-100606567D01*
X111859145Y-100588623D01*
X111837243Y-100568063D01*
X111829068Y-100561860D01*
X111601559Y-100391732D01*
X111575686Y-100376069D01*
X111551748Y-100357582D01*
X111543015Y-100352192D01*
X111299348Y-100204161D01*
X111271803Y-100190917D01*
X111245926Y-100174671D01*
X111236712Y-100170152D01*
X110978376Y-100045705D01*
X110949313Y-100035058D01*
X110921627Y-100021252D01*
X110912015Y-100017657D01*
X110640494Y-99918279D01*
X110610133Y-99910426D01*
X110580826Y-99899281D01*
X110570905Y-99896656D01*
X110287684Y-99823832D01*
X110256314Y-99818964D01*
X110225674Y-99810710D01*
X110215541Y-99809090D01*
X109922106Y-99764306D01*
X109890117Y-99762586D01*
X109858524Y-99757418D01*
X109848279Y-99756828D01*
X109563626Y-99742455D01*
X109545156Y-99740636D01*
X109472946Y-99740636D01*
X109459207Y-99741989D01*
X109258866Y-99749508D01*
X109236618Y-99752536D01*
X109214172Y-99752552D01*
X109203967Y-99753632D01*
X108984843Y-99778373D01*
X108963063Y-99783019D01*
X108940850Y-99784692D01*
X108930754Y-99786528D01*
X108715859Y-99827160D01*
X108694644Y-99833367D01*
X108672798Y-99836649D01*
X108662865Y-99839226D01*
X108452938Y-99895259D01*
X108432407Y-99902954D01*
X108411025Y-99907794D01*
X108401307Y-99911093D01*
X108197083Y-99982034D01*
X108177304Y-99991155D01*
X108156473Y-99997501D01*
X108147023Y-100001501D01*
X107949238Y-100086859D01*
X107930278Y-100097344D01*
X107910071Y-100105147D01*
X107900937Y-100109824D01*
X107710326Y-100209107D01*
X107692238Y-100220904D01*
X107672716Y-100230121D01*
X107663945Y-100235448D01*
X107481245Y-100348165D01*
X107464080Y-100361228D01*
X107445300Y-100371822D01*
X107436937Y-100377770D01*
X107262886Y-100503427D01*
X107246694Y-100517716D01*
X107228709Y-100529659D01*
X107220800Y-100536198D01*
X107056131Y-100674305D01*
X107040969Y-100689781D01*
X107023843Y-100703044D01*
X107016430Y-100710141D01*
X106861880Y-100860207D01*
X106847811Y-100876830D01*
X106831613Y-100891386D01*
X106824739Y-100899005D01*
X106681045Y-101060535D01*
X106668138Y-101078264D01*
X106652952Y-101094075D01*
X106646655Y-101102179D01*
X106514552Y-101274684D01*
X106502892Y-101293457D01*
X106488809Y-101310476D01*
X106483128Y-101319023D01*
X106363353Y-101502009D01*
X106353030Y-101521748D01*
X106340144Y-101539920D01*
X106335115Y-101548866D01*
X106228403Y-101741843D01*
X106219508Y-101762457D01*
X106207932Y-101781684D01*
X106203586Y-101790981D01*
X106110675Y-101993457D01*
X106103335Y-102014713D01*
X106093212Y-102034797D01*
X106089576Y-102044393D01*
X106012103Y-102253263D01*
X106006387Y-102274972D01*
X105997814Y-102295712D01*
X105994906Y-102305554D01*
X105933907Y-102517466D01*
X105929863Y-102539373D01*
X105922908Y-102560536D01*
X105920741Y-102570566D01*
X105876044Y-102784652D01*
X105873660Y-102806624D01*
X105868332Y-102828064D01*
X105866911Y-102838228D01*
X105838343Y-103053617D01*
X105837595Y-103075531D01*
X105833884Y-103097140D01*
X105833214Y-103107380D01*
X105820602Y-103323206D01*
X105821459Y-103344968D01*
X105819351Y-103366640D01*
X100282402Y-103366640D01*
X100282402Y-89701340D01*
X105819351Y-89701340D01*
X105819430Y-89711602D01*
X105822601Y-89926997D01*
X105825032Y-89948524D01*
X105824508Y-89970182D01*
X105825333Y-89980411D01*
X105844115Y-90194506D01*
X105848093Y-90215732D01*
X105849137Y-90237297D01*
X105850702Y-90247440D01*
X105884923Y-90459367D01*
X105890422Y-90480222D01*
X105893023Y-90501626D01*
X105895318Y-90511629D01*
X105944803Y-90720518D01*
X105951807Y-90740944D01*
X105955959Y-90762132D01*
X105958974Y-90771941D01*
X106023552Y-90976928D01*
X106032049Y-90996862D01*
X106037748Y-91017756D01*
X106041468Y-91027320D01*
X106120966Y-91227533D01*
X106130942Y-91246897D01*
X106138191Y-91267431D01*
X106142600Y-91276698D01*
X106236846Y-91471269D01*
X106248283Y-91489973D01*
X106257079Y-91510054D01*
X106262156Y-91518972D01*
X106370975Y-91707034D01*
X106383858Y-91724992D01*
X106394195Y-91744521D01*
X106399917Y-91753040D01*
X106523140Y-91933724D01*
X106537424Y-91950811D01*
X106549279Y-91969668D01*
X106555619Y-91977738D01*
X106693069Y-92150177D01*
X106708715Y-92166289D01*
X106722046Y-92184338D01*
X106728972Y-92191911D01*
X106880480Y-92355235D01*
X106897314Y-92370154D01*
X106911992Y-92387189D01*
X106919466Y-92394221D01*
X107082789Y-92545726D01*
X107100658Y-92559315D01*
X107116540Y-92575173D01*
X107124519Y-92581626D01*
X107296959Y-92719077D01*
X107315650Y-92731195D01*
X107332539Y-92745719D01*
X107340977Y-92751560D01*
X107521661Y-92874781D01*
X107541045Y-92885390D01*
X107558815Y-92898518D01*
X107567661Y-92903720D01*
X107755724Y-93012541D01*
X107775688Y-93021620D01*
X107794227Y-93033315D01*
X107803431Y-93037854D01*
X107998002Y-93132099D01*
X108018440Y-93139637D01*
X108037654Y-93149877D01*
X108047165Y-93153731D01*
X108247378Y-93233229D01*
X108268200Y-93239222D01*
X108288004Y-93247992D01*
X108297770Y-93251144D01*
X108502755Y-93315723D01*
X108523890Y-93320171D01*
X108544207Y-93327457D01*
X108554176Y-93329893D01*
X108763067Y-93379379D01*
X108784440Y-93382279D01*
X108805215Y-93388069D01*
X108815334Y-93389776D01*
X109027260Y-93423996D01*
X109048818Y-93425342D01*
X109069975Y-93429613D01*
X109080191Y-93430582D01*
X109294286Y-93449364D01*
X109315952Y-93449142D01*
X109337436Y-93451873D01*
X109347696Y-93452096D01*
X109563091Y-93455268D01*
X109584796Y-93453462D01*
X109606542Y-93454623D01*
X109616791Y-93454096D01*
X109832618Y-93441484D01*
X109854278Y-93438075D01*
X109876198Y-93437633D01*
X109886381Y-93436355D01*
X110101770Y-93407787D01*
X110123288Y-93402758D01*
X110145286Y-93400681D01*
X110155346Y-93398654D01*
X110369431Y-93353957D01*
X110390690Y-93347298D01*
X110412648Y-93343561D01*
X110422530Y-93340791D01*
X110634443Y-93279792D01*
X110655301Y-93271509D01*
X110677085Y-93266098D01*
X110686731Y-93262597D01*
X110895602Y-93185124D01*
X110915827Y-93175281D01*
X110937190Y-93168237D01*
X110946546Y-93164023D01*
X111149022Y-93071109D01*
X111168410Y-93059802D01*
X111189140Y-93051198D01*
X111198155Y-93046295D01*
X111391132Y-92939583D01*
X111409484Y-92926950D01*
X111429364Y-92916905D01*
X111437989Y-92911345D01*
X111620975Y-92791570D01*
X111638195Y-92777721D01*
X111657123Y-92766328D01*
X111665314Y-92760146D01*
X111837819Y-92628043D01*
X111853845Y-92613075D01*
X111871748Y-92600420D01*
X111879463Y-92593653D01*
X112040993Y-92449959D01*
X112055777Y-92433963D01*
X112072591Y-92420130D01*
X112079791Y-92412818D01*
X112229857Y-92258268D01*
X112243365Y-92241320D01*
X112259043Y-92226383D01*
X112265693Y-92218567D01*
X112403800Y-92053898D01*
X112415995Y-92036079D01*
X112430504Y-92020093D01*
X112436569Y-92011815D01*
X112562227Y-91837762D01*
X112573084Y-91819128D01*
X112586386Y-91802147D01*
X112591836Y-91793451D01*
X112704551Y-91610751D01*
X112714039Y-91591359D01*
X112726087Y-91573440D01*
X112730891Y-91564372D01*
X112830174Y-91373761D01*
X112838258Y-91353666D01*
X112849007Y-91334854D01*
X112853139Y-91325460D01*
X112938497Y-91127675D01*
X112945136Y-91106927D01*
X112954528Y-91087285D01*
X112957964Y-91077615D01*
X113028905Y-90873391D01*
X113034045Y-90852071D01*
X113042023Y-90831656D01*
X113044739Y-90821760D01*
X113100772Y-90611833D01*
X113104360Y-90590027D01*
X113110860Y-90568909D01*
X113112838Y-90558839D01*
X113153470Y-90343944D01*
X113155453Y-90321753D01*
X113160402Y-90300044D01*
X113161625Y-90289855D01*
X113186366Y-90070731D01*
X113186696Y-90048285D01*
X113190033Y-90026088D01*
X113190490Y-90015836D01*
X113198846Y-89793217D01*
X113197206Y-89766018D01*
X113198873Y-89738833D01*
X113198428Y-89728581D01*
X113183170Y-89426417D01*
X113178441Y-89394742D01*
X113177169Y-89362748D01*
X113175692Y-89352593D01*
X113130908Y-89059157D01*
X113123079Y-89028392D01*
X113118652Y-88996972D01*
X113116166Y-88987016D01*
X113043343Y-88703795D01*
X113032606Y-88674327D01*
X113025178Y-88643863D01*
X113021719Y-88634201D01*
X112922340Y-88362680D01*
X112908917Y-88334793D01*
X112898681Y-88305598D01*
X112894292Y-88296321D01*
X112769845Y-88037985D01*
X112753960Y-88011881D01*
X112741105Y-87984160D01*
X112735838Y-87975353D01*
X112587808Y-87731687D01*
X112569655Y-87707491D01*
X112554355Y-87681401D01*
X112548267Y-87673139D01*
X112378138Y-87445629D01*
X112357881Y-87423436D01*
X112340280Y-87399091D01*
X112333431Y-87391449D01*
X112142690Y-87181581D01*
X112120461Y-87161472D01*
X112100664Y-87138964D01*
X112093118Y-87132009D01*
X111883249Y-86941267D01*
X111859145Y-86923323D01*
X111837243Y-86902763D01*
X111829068Y-86896560D01*
X111601559Y-86726432D01*
X111575686Y-86710769D01*
X111551748Y-86692282D01*
X111543015Y-86686892D01*
X111299348Y-86538861D01*
X111271803Y-86525617D01*
X111245926Y-86509371D01*
X111236712Y-86504852D01*
X110978376Y-86380405D01*
X110949313Y-86369758D01*
X110921627Y-86355952D01*
X110912015Y-86352357D01*
X110640494Y-86252979D01*
X110610133Y-86245126D01*
X110580826Y-86233981D01*
X110570905Y-86231356D01*
X110287684Y-86158532D01*
X110256314Y-86153664D01*
X110225674Y-86145410D01*
X110215541Y-86143790D01*
X109922106Y-86099006D01*
X109890117Y-86097286D01*
X109858524Y-86092118D01*
X109848279Y-86091528D01*
X109563626Y-86077155D01*
X109545156Y-86075336D01*
X109472946Y-86075336D01*
X109459207Y-86076689D01*
X109258866Y-86084208D01*
X109236618Y-86087236D01*
X109214172Y-86087252D01*
X109203967Y-86088332D01*
X108984843Y-86113073D01*
X108963063Y-86117719D01*
X108940850Y-86119392D01*
X108930754Y-86121228D01*
X108715859Y-86161860D01*
X108694644Y-86168067D01*
X108672798Y-86171349D01*
X108662865Y-86173926D01*
X108452938Y-86229959D01*
X108432407Y-86237654D01*
X108411025Y-86242494D01*
X108401307Y-86245793D01*
X108197083Y-86316734D01*
X108177304Y-86325855D01*
X108156473Y-86332201D01*
X108147023Y-86336201D01*
X107949238Y-86421559D01*
X107930278Y-86432044D01*
X107910071Y-86439847D01*
X107900937Y-86444524D01*
X107710326Y-86543807D01*
X107692238Y-86555604D01*
X107672716Y-86564821D01*
X107663945Y-86570148D01*
X107481245Y-86682865D01*
X107464080Y-86695928D01*
X107445300Y-86706522D01*
X107436937Y-86712470D01*
X107262886Y-86838127D01*
X107246694Y-86852416D01*
X107228709Y-86864359D01*
X107220800Y-86870898D01*
X107056131Y-87009005D01*
X107040969Y-87024481D01*
X107023843Y-87037744D01*
X107016430Y-87044841D01*
X106861880Y-87194907D01*
X106847811Y-87211530D01*
X106831613Y-87226086D01*
X106824739Y-87233705D01*
X106681045Y-87395235D01*
X106668138Y-87412964D01*
X106652952Y-87428775D01*
X106646655Y-87436879D01*
X106514552Y-87609384D01*
X106502892Y-87628157D01*
X106488809Y-87645176D01*
X106483128Y-87653723D01*
X106363353Y-87836709D01*
X106353030Y-87856448D01*
X106340144Y-87874620D01*
X106335115Y-87883566D01*
X106228403Y-88076543D01*
X106219508Y-88097157D01*
X106207932Y-88116384D01*
X106203586Y-88125681D01*
X106110675Y-88328157D01*
X106103335Y-88349413D01*
X106093212Y-88369497D01*
X106089576Y-88379093D01*
X106012103Y-88587963D01*
X106006387Y-88609672D01*
X105997814Y-88630412D01*
X105994906Y-88640254D01*
X105933907Y-88852166D01*
X105929863Y-88874073D01*
X105922908Y-88895236D01*
X105920741Y-88905266D01*
X105876044Y-89119352D01*
X105873660Y-89141324D01*
X105868332Y-89162764D01*
X105866911Y-89172928D01*
X105838343Y-89388317D01*
X105837595Y-89410231D01*
X105833884Y-89431840D01*
X105833214Y-89442080D01*
X105820602Y-89657906D01*
X105821459Y-89679668D01*
X105819351Y-89701340D01*
X100282402Y-89701340D01*
X100282402Y-76035940D01*
X105819351Y-76035940D01*
X105819430Y-76046202D01*
X105822601Y-76261597D01*
X105825032Y-76283124D01*
X105824508Y-76304782D01*
X105825333Y-76315011D01*
X105844115Y-76529106D01*
X105848093Y-76550332D01*
X105849137Y-76571897D01*
X105850702Y-76582040D01*
X105884923Y-76793967D01*
X105890422Y-76814822D01*
X105893023Y-76836226D01*
X105895318Y-76846229D01*
X105944803Y-77055118D01*
X105951807Y-77075544D01*
X105955959Y-77096732D01*
X105958974Y-77106541D01*
X106023552Y-77311528D01*
X106032049Y-77331462D01*
X106037748Y-77352356D01*
X106041468Y-77361920D01*
X106120966Y-77562133D01*
X106130942Y-77581497D01*
X106138191Y-77602031D01*
X106142600Y-77611298D01*
X106236846Y-77805869D01*
X106248283Y-77824573D01*
X106257079Y-77844654D01*
X106262156Y-77853572D01*
X106370975Y-78041634D01*
X106383858Y-78059592D01*
X106394195Y-78079121D01*
X106399917Y-78087640D01*
X106523140Y-78268324D01*
X106537424Y-78285411D01*
X106549279Y-78304268D01*
X106555619Y-78312338D01*
X106693069Y-78484777D01*
X106708715Y-78500889D01*
X106722046Y-78518938D01*
X106728972Y-78526511D01*
X106880480Y-78689835D01*
X106897314Y-78704754D01*
X106911992Y-78721789D01*
X106919466Y-78728821D01*
X107082789Y-78880326D01*
X107100658Y-78893915D01*
X107116540Y-78909773D01*
X107124519Y-78916226D01*
X107296959Y-79053677D01*
X107315650Y-79065795D01*
X107332539Y-79080319D01*
X107340977Y-79086160D01*
X107521661Y-79209381D01*
X107541045Y-79219990D01*
X107558815Y-79233118D01*
X107567661Y-79238320D01*
X107755724Y-79347141D01*
X107775688Y-79356220D01*
X107794227Y-79367915D01*
X107803431Y-79372454D01*
X107998002Y-79466699D01*
X108018440Y-79474237D01*
X108037654Y-79484477D01*
X108047165Y-79488331D01*
X108247378Y-79567829D01*
X108268200Y-79573822D01*
X108288004Y-79582592D01*
X108297770Y-79585744D01*
X108502755Y-79650323D01*
X108523890Y-79654771D01*
X108544207Y-79662057D01*
X108554176Y-79664493D01*
X108763067Y-79713979D01*
X108784440Y-79716879D01*
X108805215Y-79722669D01*
X108815334Y-79724376D01*
X109027260Y-79758596D01*
X109048818Y-79759942D01*
X109069975Y-79764213D01*
X109080191Y-79765182D01*
X109294286Y-79783964D01*
X109315952Y-79783742D01*
X109337436Y-79786473D01*
X109347696Y-79786696D01*
X109563091Y-79789868D01*
X109584796Y-79788062D01*
X109606542Y-79789223D01*
X109616791Y-79788696D01*
X109832618Y-79776084D01*
X109854278Y-79772675D01*
X109876198Y-79772233D01*
X109886381Y-79770955D01*
X110101770Y-79742387D01*
X110123288Y-79737358D01*
X110145286Y-79735281D01*
X110155346Y-79733254D01*
X110369431Y-79688557D01*
X110390690Y-79681898D01*
X110412648Y-79678161D01*
X110422530Y-79675391D01*
X110634443Y-79614392D01*
X110655301Y-79606109D01*
X110677085Y-79600698D01*
X110686731Y-79597197D01*
X110895602Y-79519724D01*
X110915827Y-79509881D01*
X110937190Y-79502837D01*
X110946546Y-79498623D01*
X111149022Y-79405709D01*
X111168410Y-79394402D01*
X111189140Y-79385798D01*
X111198155Y-79380895D01*
X111391132Y-79274183D01*
X111409484Y-79261550D01*
X111429364Y-79251505D01*
X111437989Y-79245945D01*
X111620975Y-79126170D01*
X111638195Y-79112321D01*
X111657123Y-79100928D01*
X111665314Y-79094746D01*
X111837819Y-78962643D01*
X111853845Y-78947675D01*
X111871748Y-78935020D01*
X111879463Y-78928253D01*
X112040993Y-78784559D01*
X112055777Y-78768563D01*
X112072591Y-78754730D01*
X112079791Y-78747418D01*
X112229857Y-78592868D01*
X112243365Y-78575920D01*
X112259043Y-78560983D01*
X112265693Y-78553167D01*
X112403800Y-78388498D01*
X112415995Y-78370679D01*
X112430504Y-78354693D01*
X112436569Y-78346415D01*
X112562227Y-78172362D01*
X112573084Y-78153728D01*
X112586386Y-78136747D01*
X112591836Y-78128051D01*
X112704551Y-77945351D01*
X112714039Y-77925959D01*
X112726087Y-77908040D01*
X112730891Y-77898972D01*
X112830174Y-77708361D01*
X112838258Y-77688266D01*
X112849007Y-77669454D01*
X112853139Y-77660060D01*
X112938497Y-77462275D01*
X112945136Y-77441527D01*
X112954528Y-77421885D01*
X112957964Y-77412215D01*
X113028905Y-77207991D01*
X113034045Y-77186671D01*
X113042023Y-77166256D01*
X113044739Y-77156360D01*
X113100772Y-76946433D01*
X113104360Y-76924627D01*
X113110860Y-76903509D01*
X113112838Y-76893439D01*
X113153470Y-76678544D01*
X113155453Y-76656353D01*
X113160402Y-76634644D01*
X113161625Y-76624455D01*
X113186366Y-76405331D01*
X113186696Y-76382885D01*
X113190033Y-76360688D01*
X113190490Y-76350436D01*
X113198846Y-76127817D01*
X113197206Y-76100618D01*
X113198873Y-76073433D01*
X113198428Y-76063181D01*
X113183170Y-75761017D01*
X113178441Y-75729342D01*
X113177169Y-75697348D01*
X113175692Y-75687193D01*
X113130908Y-75393757D01*
X113123079Y-75362992D01*
X113118652Y-75331572D01*
X113116166Y-75321616D01*
X113043343Y-75038395D01*
X113032606Y-75008927D01*
X113025178Y-74978463D01*
X113021719Y-74968801D01*
X112922340Y-74697280D01*
X112908917Y-74669393D01*
X112898681Y-74640198D01*
X112894292Y-74630921D01*
X112769845Y-74372585D01*
X112753960Y-74346481D01*
X112741105Y-74318760D01*
X112735838Y-74309953D01*
X112587808Y-74066287D01*
X112569655Y-74042091D01*
X112554355Y-74016001D01*
X112548267Y-74007739D01*
X112378138Y-73780229D01*
X112357881Y-73758036D01*
X112340280Y-73733691D01*
X112333431Y-73726049D01*
X112142690Y-73516181D01*
X112120460Y-73496071D01*
X112100663Y-73473563D01*
X112093117Y-73466608D01*
X111883248Y-73275867D01*
X111859145Y-73257923D01*
X111837245Y-73237366D01*
X111829070Y-73231162D01*
X111601561Y-73061033D01*
X111575680Y-73045366D01*
X111551745Y-73026881D01*
X111543012Y-73021491D01*
X111299346Y-72873461D01*
X111271802Y-72860218D01*
X111245926Y-72843972D01*
X111236712Y-72839453D01*
X110978376Y-72715006D01*
X110949312Y-72704358D01*
X110921629Y-72690554D01*
X110912017Y-72686959D01*
X110640497Y-72587580D01*
X110610128Y-72579724D01*
X110580823Y-72568581D01*
X110570902Y-72565955D01*
X110287682Y-72493133D01*
X110256317Y-72488266D01*
X110225674Y-72480011D01*
X110215541Y-72478391D01*
X109922106Y-72433607D01*
X109890117Y-72431887D01*
X109858524Y-72426719D01*
X109848279Y-72426129D01*
X109563626Y-72411756D01*
X109545156Y-72409937D01*
X109472946Y-72409937D01*
X109459207Y-72411290D01*
X109258866Y-72418809D01*
X109236618Y-72421837D01*
X109214172Y-72421853D01*
X109203967Y-72422933D01*
X108984843Y-72447674D01*
X108963063Y-72452320D01*
X108940850Y-72453993D01*
X108930754Y-72455829D01*
X108715859Y-72496461D01*
X108694644Y-72502668D01*
X108672798Y-72505950D01*
X108662865Y-72508527D01*
X108452938Y-72564560D01*
X108432407Y-72572255D01*
X108411025Y-72577095D01*
X108401307Y-72580394D01*
X108197083Y-72651335D01*
X108177304Y-72660456D01*
X108156473Y-72666802D01*
X108147023Y-72670802D01*
X107949238Y-72756160D01*
X107930278Y-72766645D01*
X107910071Y-72774448D01*
X107900937Y-72779125D01*
X107710326Y-72878408D01*
X107692239Y-72890205D01*
X107672718Y-72899421D01*
X107663947Y-72904748D01*
X107481247Y-73017463D01*
X107464078Y-73030529D01*
X107445300Y-73041122D01*
X107436937Y-73047070D01*
X107262886Y-73172727D01*
X107246694Y-73187016D01*
X107228709Y-73198959D01*
X107220800Y-73205498D01*
X107056131Y-73343605D01*
X107040969Y-73359081D01*
X107023843Y-73372344D01*
X107016430Y-73379441D01*
X106861880Y-73529507D01*
X106847811Y-73546130D01*
X106831613Y-73560686D01*
X106824739Y-73568305D01*
X106681045Y-73729835D01*
X106668138Y-73747564D01*
X106652952Y-73763375D01*
X106646655Y-73771479D01*
X106514552Y-73943984D01*
X106502892Y-73962757D01*
X106488809Y-73979776D01*
X106483128Y-73988323D01*
X106363353Y-74171309D01*
X106353030Y-74191048D01*
X106340144Y-74209220D01*
X106335115Y-74218166D01*
X106228403Y-74411143D01*
X106219508Y-74431757D01*
X106207932Y-74450984D01*
X106203586Y-74460281D01*
X106110675Y-74662757D01*
X106103335Y-74684013D01*
X106093212Y-74704097D01*
X106089576Y-74713693D01*
X106012103Y-74922563D01*
X106006387Y-74944272D01*
X105997814Y-74965012D01*
X105994906Y-74974854D01*
X105933907Y-75186766D01*
X105929863Y-75208673D01*
X105922908Y-75229836D01*
X105920741Y-75239866D01*
X105876044Y-75453952D01*
X105873660Y-75475924D01*
X105868332Y-75497364D01*
X105866911Y-75507528D01*
X105838343Y-75722917D01*
X105837595Y-75744831D01*
X105833884Y-75766440D01*
X105833214Y-75776680D01*
X105820602Y-75992506D01*
X105821459Y-76014268D01*
X105819351Y-76035940D01*
X100282402Y-76035940D01*
X100282402Y-62370640D01*
X105819351Y-62370640D01*
X105819430Y-62380902D01*
X105822601Y-62596297D01*
X105825032Y-62617824D01*
X105824508Y-62639482D01*
X105825333Y-62649711D01*
X105844115Y-62863806D01*
X105848093Y-62885032D01*
X105849137Y-62906597D01*
X105850702Y-62916740D01*
X105884923Y-63128667D01*
X105890422Y-63149522D01*
X105893023Y-63170926D01*
X105895318Y-63180929D01*
X105944803Y-63389818D01*
X105951807Y-63410244D01*
X105955959Y-63431432D01*
X105958974Y-63441241D01*
X106023552Y-63646228D01*
X106032049Y-63666162D01*
X106037748Y-63687056D01*
X106041468Y-63696620D01*
X106120966Y-63896833D01*
X106130942Y-63916197D01*
X106138191Y-63936731D01*
X106142600Y-63945998D01*
X106236846Y-64140569D01*
X106248283Y-64159273D01*
X106257079Y-64179354D01*
X106262156Y-64188272D01*
X106370975Y-64376334D01*
X106383858Y-64394292D01*
X106394195Y-64413821D01*
X106399917Y-64422340D01*
X106523140Y-64603024D01*
X106537424Y-64620111D01*
X106549279Y-64638968D01*
X106555619Y-64647038D01*
X106693069Y-64819477D01*
X106708715Y-64835589D01*
X106722046Y-64853638D01*
X106728972Y-64861211D01*
X106880480Y-65024535D01*
X106897314Y-65039454D01*
X106911992Y-65056489D01*
X106919466Y-65063521D01*
X107082789Y-65215026D01*
X107100658Y-65228615D01*
X107116540Y-65244473D01*
X107124519Y-65250926D01*
X107296959Y-65388377D01*
X107315650Y-65400495D01*
X107332539Y-65415019D01*
X107340977Y-65420860D01*
X107521661Y-65544081D01*
X107541045Y-65554690D01*
X107558815Y-65567818D01*
X107567661Y-65573020D01*
X107755724Y-65681841D01*
X107775688Y-65690920D01*
X107794227Y-65702615D01*
X107803431Y-65707154D01*
X107998002Y-65801399D01*
X108018440Y-65808937D01*
X108037654Y-65819177D01*
X108047165Y-65823031D01*
X108247378Y-65902529D01*
X108268200Y-65908522D01*
X108288004Y-65917292D01*
X108297770Y-65920444D01*
X108502755Y-65985023D01*
X108523890Y-65989471D01*
X108544207Y-65996757D01*
X108554176Y-65999193D01*
X108763067Y-66048679D01*
X108784440Y-66051579D01*
X108805215Y-66057369D01*
X108815334Y-66059076D01*
X109027260Y-66093296D01*
X109048818Y-66094642D01*
X109069975Y-66098913D01*
X109080191Y-66099882D01*
X109294286Y-66118664D01*
X109315952Y-66118442D01*
X109337436Y-66121173D01*
X109347696Y-66121396D01*
X109563091Y-66124568D01*
X109584796Y-66122762D01*
X109606542Y-66123923D01*
X109616791Y-66123396D01*
X109832618Y-66110784D01*
X109854278Y-66107375D01*
X109876198Y-66106933D01*
X109886381Y-66105655D01*
X110101770Y-66077087D01*
X110123288Y-66072058D01*
X110145286Y-66069981D01*
X110155346Y-66067954D01*
X110369431Y-66023257D01*
X110390690Y-66016598D01*
X110412648Y-66012861D01*
X110422530Y-66010091D01*
X110634443Y-65949092D01*
X110655301Y-65940809D01*
X110677085Y-65935398D01*
X110686731Y-65931897D01*
X110895602Y-65854424D01*
X110915827Y-65844581D01*
X110937190Y-65837537D01*
X110946546Y-65833323D01*
X111149022Y-65740409D01*
X111168410Y-65729102D01*
X111189140Y-65720498D01*
X111198155Y-65715595D01*
X111391132Y-65608883D01*
X111409484Y-65596250D01*
X111429364Y-65586205D01*
X111437989Y-65580645D01*
X111620975Y-65460870D01*
X111638195Y-65447021D01*
X111657123Y-65435628D01*
X111665314Y-65429446D01*
X111837819Y-65297343D01*
X111853845Y-65282375D01*
X111871748Y-65269720D01*
X111879463Y-65262953D01*
X112040993Y-65119259D01*
X112055777Y-65103263D01*
X112072591Y-65089430D01*
X112079791Y-65082118D01*
X112229857Y-64927568D01*
X112243365Y-64910620D01*
X112259043Y-64895683D01*
X112265693Y-64887867D01*
X112403800Y-64723198D01*
X112415995Y-64705379D01*
X112430504Y-64689393D01*
X112436569Y-64681115D01*
X112562227Y-64507062D01*
X112573084Y-64488428D01*
X112586386Y-64471447D01*
X112591836Y-64462751D01*
X112704551Y-64280051D01*
X112714039Y-64260659D01*
X112726087Y-64242740D01*
X112730891Y-64233672D01*
X112830174Y-64043061D01*
X112838258Y-64022966D01*
X112849007Y-64004154D01*
X112853139Y-63994760D01*
X112938497Y-63796975D01*
X112945136Y-63776227D01*
X112954528Y-63756585D01*
X112957964Y-63746915D01*
X113028905Y-63542691D01*
X113034045Y-63521371D01*
X113042023Y-63500956D01*
X113044739Y-63491060D01*
X113100772Y-63281133D01*
X113104360Y-63259327D01*
X113110860Y-63238209D01*
X113112838Y-63228139D01*
X113153470Y-63013244D01*
X113155453Y-62991053D01*
X113160402Y-62969344D01*
X113161625Y-62959155D01*
X113186366Y-62740031D01*
X113186696Y-62717585D01*
X113190033Y-62695388D01*
X113190490Y-62685136D01*
X113198846Y-62462517D01*
X113197206Y-62435318D01*
X113198873Y-62408133D01*
X113198428Y-62397881D01*
X113183170Y-62095717D01*
X113178441Y-62064042D01*
X113177169Y-62032048D01*
X113175692Y-62021893D01*
X113130908Y-61728457D01*
X113123079Y-61697692D01*
X113118652Y-61666272D01*
X113116166Y-61656316D01*
X113043343Y-61373095D01*
X113032606Y-61343627D01*
X113025178Y-61313163D01*
X113021719Y-61303501D01*
X112922340Y-61031980D01*
X112908917Y-61004093D01*
X112898681Y-60974898D01*
X112894292Y-60965621D01*
X112769845Y-60707285D01*
X112753960Y-60681181D01*
X112741105Y-60653460D01*
X112735838Y-60644653D01*
X112587808Y-60400987D01*
X112569655Y-60376791D01*
X112554355Y-60350701D01*
X112548267Y-60342439D01*
X112378138Y-60114929D01*
X112357881Y-60092736D01*
X112340280Y-60068391D01*
X112333431Y-60060749D01*
X112142690Y-59850881D01*
X112120460Y-59830771D01*
X112100663Y-59808263D01*
X112093117Y-59801308D01*
X111883248Y-59610567D01*
X111859145Y-59592623D01*
X111837245Y-59572066D01*
X111829070Y-59565862D01*
X111601561Y-59395733D01*
X111575680Y-59380066D01*
X111551745Y-59361581D01*
X111543012Y-59356191D01*
X111299346Y-59208161D01*
X111271802Y-59194918D01*
X111245926Y-59178672D01*
X111236712Y-59174153D01*
X110978376Y-59049706D01*
X110949312Y-59039058D01*
X110921629Y-59025254D01*
X110912017Y-59021659D01*
X110640497Y-58922280D01*
X110610128Y-58914424D01*
X110580823Y-58903281D01*
X110570902Y-58900655D01*
X110287682Y-58827833D01*
X110256317Y-58822966D01*
X110225674Y-58814711D01*
X110215541Y-58813091D01*
X109922106Y-58768307D01*
X109890117Y-58766587D01*
X109858524Y-58761419D01*
X109848279Y-58760829D01*
X109563626Y-58746456D01*
X109545156Y-58744637D01*
X109472946Y-58744637D01*
X109459207Y-58745990D01*
X109258866Y-58753509D01*
X109236618Y-58756537D01*
X109214172Y-58756553D01*
X109203967Y-58757633D01*
X108984843Y-58782374D01*
X108963063Y-58787020D01*
X108940850Y-58788693D01*
X108930754Y-58790529D01*
X108715859Y-58831161D01*
X108694644Y-58837368D01*
X108672798Y-58840650D01*
X108662865Y-58843227D01*
X108452938Y-58899260D01*
X108432407Y-58906955D01*
X108411025Y-58911795D01*
X108401307Y-58915094D01*
X108197083Y-58986035D01*
X108177304Y-58995156D01*
X108156473Y-59001502D01*
X108147023Y-59005502D01*
X107949238Y-59090860D01*
X107930278Y-59101345D01*
X107910071Y-59109148D01*
X107900937Y-59113825D01*
X107710326Y-59213108D01*
X107692239Y-59224905D01*
X107672718Y-59234121D01*
X107663947Y-59239448D01*
X107481247Y-59352163D01*
X107464078Y-59365229D01*
X107445300Y-59375822D01*
X107436937Y-59381770D01*
X107262886Y-59507427D01*
X107246694Y-59521716D01*
X107228709Y-59533659D01*
X107220800Y-59540198D01*
X107056131Y-59678305D01*
X107040969Y-59693781D01*
X107023843Y-59707044D01*
X107016430Y-59714141D01*
X106861880Y-59864207D01*
X106847811Y-59880830D01*
X106831613Y-59895386D01*
X106824739Y-59903005D01*
X106681045Y-60064535D01*
X106668138Y-60082264D01*
X106652952Y-60098075D01*
X106646655Y-60106179D01*
X106514552Y-60278684D01*
X106502892Y-60297457D01*
X106488809Y-60314476D01*
X106483128Y-60323023D01*
X106363353Y-60506009D01*
X106353030Y-60525748D01*
X106340144Y-60543920D01*
X106335115Y-60552866D01*
X106228403Y-60745843D01*
X106219508Y-60766457D01*
X106207932Y-60785684D01*
X106203586Y-60794981D01*
X106110675Y-60997457D01*
X106103335Y-61018713D01*
X106093212Y-61038797D01*
X106089576Y-61048393D01*
X106012103Y-61257263D01*
X106006387Y-61278972D01*
X105997814Y-61299712D01*
X105994906Y-61309554D01*
X105933907Y-61521466D01*
X105929863Y-61543373D01*
X105922908Y-61564536D01*
X105920741Y-61574566D01*
X105876044Y-61788652D01*
X105873660Y-61810624D01*
X105868332Y-61832064D01*
X105866911Y-61842228D01*
X105838343Y-62057617D01*
X105837595Y-62079531D01*
X105833884Y-62101140D01*
X105833214Y-62111380D01*
X105820602Y-62327206D01*
X105821459Y-62348968D01*
X105819351Y-62370640D01*
X100282402Y-62370640D01*
X100282402Y-48705340D01*
X105819351Y-48705340D01*
X105819430Y-48715602D01*
X105822601Y-48930997D01*
X105825032Y-48952524D01*
X105824508Y-48974182D01*
X105825333Y-48984411D01*
X105844115Y-49198506D01*
X105848093Y-49219732D01*
X105849137Y-49241297D01*
X105850702Y-49251440D01*
X105884923Y-49463367D01*
X105890422Y-49484222D01*
X105893023Y-49505626D01*
X105895318Y-49515629D01*
X105944803Y-49724518D01*
X105951807Y-49744944D01*
X105955959Y-49766132D01*
X105958974Y-49775941D01*
X106023552Y-49980928D01*
X106032049Y-50000862D01*
X106037748Y-50021756D01*
X106041468Y-50031320D01*
X106120966Y-50231533D01*
X106130942Y-50250897D01*
X106138191Y-50271431D01*
X106142600Y-50280698D01*
X106236846Y-50475269D01*
X106248283Y-50493973D01*
X106257079Y-50514054D01*
X106262156Y-50522972D01*
X106370975Y-50711034D01*
X106383858Y-50728992D01*
X106394195Y-50748521D01*
X106399917Y-50757040D01*
X106523140Y-50937724D01*
X106537424Y-50954811D01*
X106549279Y-50973668D01*
X106555619Y-50981738D01*
X106693069Y-51154177D01*
X106708715Y-51170289D01*
X106722046Y-51188338D01*
X106728972Y-51195911D01*
X106880480Y-51359235D01*
X106897314Y-51374154D01*
X106911992Y-51391189D01*
X106919466Y-51398221D01*
X107082789Y-51549726D01*
X107100658Y-51563315D01*
X107116540Y-51579173D01*
X107124519Y-51585626D01*
X107296959Y-51723077D01*
X107315650Y-51735195D01*
X107332539Y-51749719D01*
X107340977Y-51755560D01*
X107521661Y-51878781D01*
X107541045Y-51889390D01*
X107558815Y-51902518D01*
X107567661Y-51907720D01*
X107755724Y-52016541D01*
X107775688Y-52025620D01*
X107794227Y-52037315D01*
X107803431Y-52041854D01*
X107998002Y-52136099D01*
X108018440Y-52143637D01*
X108037654Y-52153877D01*
X108047165Y-52157731D01*
X108247378Y-52237229D01*
X108268200Y-52243222D01*
X108288004Y-52251992D01*
X108297770Y-52255144D01*
X108502755Y-52319723D01*
X108523890Y-52324171D01*
X108544207Y-52331457D01*
X108554176Y-52333893D01*
X108763067Y-52383379D01*
X108784440Y-52386279D01*
X108805215Y-52392069D01*
X108815334Y-52393776D01*
X109027260Y-52427996D01*
X109048818Y-52429342D01*
X109069975Y-52433613D01*
X109080191Y-52434582D01*
X109294286Y-52453364D01*
X109315952Y-52453142D01*
X109337436Y-52455873D01*
X109347696Y-52456096D01*
X109563091Y-52459268D01*
X109584796Y-52457462D01*
X109606542Y-52458623D01*
X109616791Y-52458096D01*
X109832618Y-52445484D01*
X109854278Y-52442075D01*
X109876198Y-52441633D01*
X109886381Y-52440355D01*
X110101770Y-52411787D01*
X110123288Y-52406758D01*
X110145286Y-52404681D01*
X110155346Y-52402654D01*
X110369431Y-52357957D01*
X110390690Y-52351298D01*
X110412648Y-52347561D01*
X110422530Y-52344791D01*
X110634443Y-52283792D01*
X110655301Y-52275509D01*
X110677085Y-52270098D01*
X110686731Y-52266597D01*
X110895602Y-52189124D01*
X110915827Y-52179281D01*
X110937190Y-52172237D01*
X110946546Y-52168023D01*
X111149022Y-52075109D01*
X111168410Y-52063802D01*
X111189140Y-52055198D01*
X111198155Y-52050295D01*
X111391132Y-51943583D01*
X111409484Y-51930950D01*
X111429364Y-51920905D01*
X111437989Y-51915345D01*
X111620975Y-51795570D01*
X111638195Y-51781721D01*
X111657123Y-51770328D01*
X111665314Y-51764146D01*
X111837819Y-51632043D01*
X111853845Y-51617075D01*
X111871748Y-51604420D01*
X111879463Y-51597653D01*
X112040993Y-51453959D01*
X112055777Y-51437963D01*
X112072591Y-51424130D01*
X112079791Y-51416818D01*
X112229857Y-51262268D01*
X112243365Y-51245320D01*
X112259043Y-51230383D01*
X112265693Y-51222567D01*
X112403800Y-51057898D01*
X112415995Y-51040079D01*
X112430504Y-51024093D01*
X112436569Y-51015815D01*
X112562227Y-50841762D01*
X112573084Y-50823128D01*
X112586386Y-50806147D01*
X112591836Y-50797451D01*
X112704551Y-50614751D01*
X112714039Y-50595359D01*
X112726087Y-50577440D01*
X112730891Y-50568372D01*
X112830174Y-50377761D01*
X112838258Y-50357666D01*
X112849007Y-50338854D01*
X112853139Y-50329460D01*
X112938497Y-50131675D01*
X112945136Y-50110927D01*
X112954528Y-50091285D01*
X112957964Y-50081615D01*
X113028905Y-49877391D01*
X113034045Y-49856071D01*
X113042023Y-49835656D01*
X113044739Y-49825760D01*
X113100772Y-49615833D01*
X113104360Y-49594027D01*
X113110860Y-49572909D01*
X113112838Y-49562839D01*
X113153470Y-49347944D01*
X113155453Y-49325753D01*
X113160402Y-49304044D01*
X113161625Y-49293855D01*
X113186366Y-49074731D01*
X113186696Y-49052285D01*
X113190033Y-49030088D01*
X113190490Y-49019836D01*
X113198846Y-48797217D01*
X113197206Y-48770018D01*
X113198873Y-48742833D01*
X113198428Y-48732581D01*
X113183170Y-48430417D01*
X113178441Y-48398742D01*
X113177169Y-48366748D01*
X113175692Y-48356593D01*
X113130908Y-48063157D01*
X113123079Y-48032392D01*
X113118652Y-48000972D01*
X113116166Y-47991016D01*
X113043343Y-47707795D01*
X113032606Y-47678327D01*
X113025178Y-47647863D01*
X113021719Y-47638201D01*
X112922340Y-47366680D01*
X112908917Y-47338793D01*
X112898681Y-47309598D01*
X112894292Y-47300321D01*
X112769845Y-47041985D01*
X112753960Y-47015881D01*
X112741105Y-46988160D01*
X112735838Y-46979353D01*
X112587808Y-46735687D01*
X112569655Y-46711491D01*
X112554355Y-46685401D01*
X112548267Y-46677139D01*
X112378138Y-46449629D01*
X112357881Y-46427436D01*
X112340280Y-46403091D01*
X112333431Y-46395449D01*
X112142690Y-46185581D01*
X112120460Y-46165471D01*
X112100663Y-46142963D01*
X112093117Y-46136008D01*
X111883248Y-45945267D01*
X111859145Y-45927323D01*
X111837245Y-45906766D01*
X111829070Y-45900562D01*
X111601561Y-45730433D01*
X111575680Y-45714766D01*
X111551745Y-45696281D01*
X111543012Y-45690891D01*
X111299346Y-45542861D01*
X111271802Y-45529618D01*
X111245926Y-45513372D01*
X111236712Y-45508853D01*
X110978376Y-45384406D01*
X110949312Y-45373758D01*
X110921629Y-45359954D01*
X110912017Y-45356359D01*
X110640497Y-45256980D01*
X110610128Y-45249124D01*
X110580823Y-45237981D01*
X110570902Y-45235355D01*
X110287682Y-45162533D01*
X110256317Y-45157666D01*
X110225674Y-45149411D01*
X110215541Y-45147791D01*
X109922106Y-45103007D01*
X109890117Y-45101287D01*
X109858524Y-45096119D01*
X109848279Y-45095529D01*
X109563626Y-45081156D01*
X109545156Y-45079337D01*
X109472946Y-45079337D01*
X109459207Y-45080690D01*
X109258866Y-45088209D01*
X109236618Y-45091237D01*
X109214172Y-45091253D01*
X109203967Y-45092333D01*
X108984843Y-45117074D01*
X108963063Y-45121720D01*
X108940850Y-45123393D01*
X108930754Y-45125229D01*
X108715859Y-45165861D01*
X108694644Y-45172068D01*
X108672798Y-45175350D01*
X108662865Y-45177927D01*
X108452938Y-45233960D01*
X108432407Y-45241655D01*
X108411025Y-45246495D01*
X108401307Y-45249794D01*
X108197083Y-45320735D01*
X108177304Y-45329856D01*
X108156473Y-45336202D01*
X108147023Y-45340202D01*
X107949238Y-45425560D01*
X107930278Y-45436045D01*
X107910071Y-45443848D01*
X107900937Y-45448525D01*
X107710326Y-45547808D01*
X107692239Y-45559605D01*
X107672718Y-45568821D01*
X107663947Y-45574148D01*
X107481247Y-45686863D01*
X107464078Y-45699929D01*
X107445300Y-45710522D01*
X107436937Y-45716470D01*
X107262886Y-45842127D01*
X107246694Y-45856416D01*
X107228709Y-45868359D01*
X107220800Y-45874898D01*
X107056131Y-46013005D01*
X107040969Y-46028481D01*
X107023843Y-46041744D01*
X107016430Y-46048841D01*
X106861880Y-46198907D01*
X106847811Y-46215530D01*
X106831613Y-46230086D01*
X106824739Y-46237705D01*
X106681045Y-46399235D01*
X106668138Y-46416964D01*
X106652952Y-46432775D01*
X106646655Y-46440879D01*
X106514552Y-46613384D01*
X106502892Y-46632157D01*
X106488809Y-46649176D01*
X106483128Y-46657723D01*
X106363353Y-46840709D01*
X106353030Y-46860448D01*
X106340144Y-46878620D01*
X106335115Y-46887566D01*
X106228403Y-47080543D01*
X106219508Y-47101157D01*
X106207932Y-47120384D01*
X106203586Y-47129681D01*
X106110675Y-47332157D01*
X106103335Y-47353413D01*
X106093212Y-47373497D01*
X106089576Y-47383093D01*
X106012103Y-47591963D01*
X106006387Y-47613672D01*
X105997814Y-47634412D01*
X105994906Y-47644254D01*
X105933907Y-47856166D01*
X105929863Y-47878073D01*
X105922908Y-47899236D01*
X105920741Y-47909266D01*
X105876044Y-48123352D01*
X105873660Y-48145324D01*
X105868332Y-48166764D01*
X105866911Y-48176928D01*
X105838343Y-48392317D01*
X105837595Y-48414231D01*
X105833884Y-48435840D01*
X105833214Y-48446080D01*
X105820602Y-48661906D01*
X105821459Y-48683668D01*
X105819351Y-48705340D01*
X100282402Y-48705340D01*
X100282402Y-33706994D01*
X118735698Y-33706994D01*
X118735699Y-160660284D01*
G37*
X118735699Y-160660284D02*
X100282402Y-160660284D01*
X100282402Y-144362640D01*
X105819351Y-144362640D01*
X105819430Y-144372902D01*
X105822601Y-144588297D01*
X105825032Y-144609824D01*
X105824508Y-144631482D01*
X105825333Y-144641711D01*
X105844115Y-144855806D01*
X105848093Y-144877032D01*
X105849137Y-144898597D01*
X105850702Y-144908740D01*
X105884923Y-145120667D01*
X105890422Y-145141522D01*
X105893023Y-145162926D01*
X105895318Y-145172929D01*
X105944803Y-145381818D01*
X105951807Y-145402244D01*
X105955959Y-145423432D01*
X105958974Y-145433241D01*
X106023552Y-145638228D01*
X106032049Y-145658162D01*
X106037748Y-145679056D01*
X106041468Y-145688620D01*
X106120966Y-145888833D01*
X106130942Y-145908197D01*
X106138191Y-145928731D01*
X106142600Y-145937998D01*
X106236846Y-146132569D01*
X106248283Y-146151273D01*
X106257079Y-146171354D01*
X106262156Y-146180272D01*
X106370975Y-146368334D01*
X106383858Y-146386292D01*
X106394195Y-146405821D01*
X106399917Y-146414340D01*
X106523140Y-146595024D01*
X106537424Y-146612111D01*
X106549279Y-146630968D01*
X106555619Y-146639038D01*
X106693069Y-146811477D01*
X106708715Y-146827589D01*
X106722046Y-146845638D01*
X106728972Y-146853211D01*
X106880480Y-147016535D01*
X106897314Y-147031454D01*
X106911992Y-147048489D01*
X106919466Y-147055521D01*
X107082789Y-147207026D01*
X107100658Y-147220615D01*
X107116540Y-147236473D01*
X107124519Y-147242926D01*
X107296959Y-147380377D01*
X107315650Y-147392495D01*
X107332539Y-147407019D01*
X107340977Y-147412860D01*
X107521661Y-147536081D01*
X107541045Y-147546690D01*
X107558815Y-147559818D01*
X107567661Y-147565020D01*
X107755724Y-147673841D01*
X107775688Y-147682920D01*
X107794227Y-147694615D01*
X107803431Y-147699154D01*
X107998002Y-147793399D01*
X108018440Y-147800937D01*
X108037654Y-147811177D01*
X108047165Y-147815031D01*
X108247378Y-147894529D01*
X108268200Y-147900522D01*
X108288004Y-147909292D01*
X108297770Y-147912444D01*
X108502755Y-147977023D01*
X108523890Y-147981471D01*
X108544207Y-147988757D01*
X108554176Y-147991193D01*
X108763067Y-148040679D01*
X108784440Y-148043579D01*
X108805215Y-148049369D01*
X108815334Y-148051076D01*
X109027260Y-148085296D01*
X109048818Y-148086642D01*
X109069975Y-148090913D01*
X109080191Y-148091882D01*
X109294286Y-148110664D01*
X109315952Y-148110442D01*
X109337436Y-148113173D01*
X109347696Y-148113396D01*
X109563091Y-148116568D01*
X109584796Y-148114762D01*
X109606542Y-148115923D01*
X109616791Y-148115396D01*
X109832618Y-148102784D01*
X109854278Y-148099375D01*
X109876198Y-148098933D01*
X109886381Y-148097655D01*
X110101770Y-148069087D01*
X110123288Y-148064058D01*
X110145286Y-148061981D01*
X110155346Y-148059954D01*
X110369431Y-148015257D01*
X110390690Y-148008598D01*
X110412648Y-148004861D01*
X110422530Y-148002091D01*
X110634443Y-147941092D01*
X110655301Y-147932809D01*
X110677085Y-147927398D01*
X110686731Y-147923897D01*
X110895602Y-147846424D01*
X110915827Y-147836581D01*
X110937190Y-147829537D01*
X110946546Y-147825323D01*
X111149022Y-147732409D01*
X111168410Y-147721102D01*
X111189140Y-147712498D01*
X111198155Y-147707595D01*
X111391132Y-147600883D01*
X111409484Y-147588250D01*
X111429364Y-147578205D01*
X111437989Y-147572645D01*
X111620975Y-147452870D01*
X111638195Y-147439021D01*
X111657123Y-147427628D01*
X111665314Y-147421446D01*
X111837819Y-147289343D01*
X111853845Y-147274375D01*
X111871748Y-147261720D01*
X111879463Y-147254953D01*
X112040993Y-147111259D01*
X112055777Y-147095263D01*
X112072591Y-147081430D01*
X112079791Y-147074118D01*
X112229857Y-146919568D01*
X112243365Y-146902620D01*
X112259043Y-146887683D01*
X112265693Y-146879867D01*
X112403800Y-146715198D01*
X112415995Y-146697379D01*
X112430504Y-146681393D01*
X112436569Y-146673115D01*
X112562227Y-146499062D01*
X112573084Y-146480428D01*
X112586386Y-146463447D01*
X112591836Y-146454751D01*
X112704551Y-146272051D01*
X112714039Y-146252659D01*
X112726087Y-146234740D01*
X112730891Y-146225672D01*
X112830174Y-146035061D01*
X112838258Y-146014966D01*
X112849007Y-145996154D01*
X112853139Y-145986760D01*
X112938497Y-145788975D01*
X112945136Y-145768227D01*
X112954528Y-145748585D01*
X112957964Y-145738915D01*
X113028905Y-145534691D01*
X113034045Y-145513371D01*
X113042023Y-145492956D01*
X113044739Y-145483060D01*
X113100772Y-145273133D01*
X113104360Y-145251327D01*
X113110860Y-145230209D01*
X113112838Y-145220139D01*
X113153470Y-145005244D01*
X113155453Y-144983053D01*
X113160402Y-144961344D01*
X113161625Y-144951155D01*
X113186366Y-144732031D01*
X113186696Y-144709585D01*
X113190033Y-144687388D01*
X113190490Y-144677136D01*
X113198846Y-144454517D01*
X113197206Y-144427318D01*
X113198873Y-144400133D01*
X113198428Y-144389881D01*
X113183170Y-144087717D01*
X113178441Y-144056042D01*
X113177169Y-144024048D01*
X113175692Y-144013893D01*
X113130908Y-143720457D01*
X113123079Y-143689692D01*
X113118652Y-143658272D01*
X113116166Y-143648316D01*
X113043343Y-143365095D01*
X113032606Y-143335627D01*
X113025178Y-143305163D01*
X113021719Y-143295501D01*
X112922340Y-143023980D01*
X112908917Y-142996093D01*
X112898681Y-142966898D01*
X112894292Y-142957621D01*
X112769845Y-142699285D01*
X112753960Y-142673181D01*
X112741105Y-142645460D01*
X112735838Y-142636653D01*
X112587808Y-142392987D01*
X112569655Y-142368791D01*
X112554355Y-142342701D01*
X112548267Y-142334439D01*
X112378138Y-142106929D01*
X112357881Y-142084736D01*
X112340280Y-142060391D01*
X112333431Y-142052749D01*
X112142690Y-141842881D01*
X112120461Y-141822772D01*
X112100664Y-141800264D01*
X112093118Y-141793309D01*
X111883249Y-141602567D01*
X111859145Y-141584623D01*
X111837243Y-141564063D01*
X111829068Y-141557860D01*
X111601559Y-141387732D01*
X111575686Y-141372069D01*
X111551748Y-141353582D01*
X111543015Y-141348192D01*
X111299348Y-141200161D01*
X111271803Y-141186917D01*
X111245926Y-141170671D01*
X111236712Y-141166152D01*
X110978376Y-141041705D01*
X110949313Y-141031058D01*
X110921627Y-141017252D01*
X110912015Y-141013657D01*
X110640494Y-140914279D01*
X110610133Y-140906426D01*
X110580826Y-140895281D01*
X110570905Y-140892656D01*
X110287684Y-140819832D01*
X110256314Y-140814964D01*
X110225674Y-140806710D01*
X110215541Y-140805090D01*
X109922106Y-140760306D01*
X109890117Y-140758586D01*
X109858524Y-140753418D01*
X109848279Y-140752828D01*
X109563626Y-140738455D01*
X109545156Y-140736636D01*
X109472946Y-140736636D01*
X109459207Y-140737989D01*
X109258866Y-140745508D01*
X109236618Y-140748536D01*
X109214172Y-140748552D01*
X109203967Y-140749632D01*
X108984843Y-140774373D01*
X108963063Y-140779019D01*
X108940850Y-140780692D01*
X108930754Y-140782528D01*
X108715859Y-140823160D01*
X108694644Y-140829367D01*
X108672798Y-140832649D01*
X108662865Y-140835226D01*
X108452938Y-140891259D01*
X108432407Y-140898954D01*
X108411025Y-140903794D01*
X108401307Y-140907093D01*
X108197083Y-140978034D01*
X108177304Y-140987155D01*
X108156473Y-140993501D01*
X108147023Y-140997501D01*
X107949238Y-141082859D01*
X107930278Y-141093344D01*
X107910071Y-141101147D01*
X107900937Y-141105824D01*
X107710326Y-141205107D01*
X107692238Y-141216904D01*
X107672716Y-141226121D01*
X107663945Y-141231448D01*
X107481245Y-141344165D01*
X107464080Y-141357228D01*
X107445300Y-141367822D01*
X107436937Y-141373770D01*
X107262886Y-141499427D01*
X107246694Y-141513716D01*
X107228709Y-141525659D01*
X107220800Y-141532198D01*
X107056131Y-141670305D01*
X107040969Y-141685781D01*
X107023843Y-141699044D01*
X107016430Y-141706141D01*
X106861880Y-141856207D01*
X106847811Y-141872830D01*
X106831613Y-141887386D01*
X106824739Y-141895005D01*
X106681045Y-142056535D01*
X106668138Y-142074264D01*
X106652952Y-142090075D01*
X106646655Y-142098179D01*
X106514552Y-142270684D01*
X106502892Y-142289457D01*
X106488809Y-142306476D01*
X106483128Y-142315023D01*
X106363353Y-142498009D01*
X106353030Y-142517748D01*
X106340144Y-142535920D01*
X106335115Y-142544866D01*
X106228403Y-142737843D01*
X106219508Y-142758457D01*
X106207932Y-142777684D01*
X106203586Y-142786981D01*
X106110675Y-142989457D01*
X106103335Y-143010713D01*
X106093212Y-143030797D01*
X106089576Y-143040393D01*
X106012103Y-143249263D01*
X106006387Y-143270972D01*
X105997814Y-143291712D01*
X105994906Y-143301554D01*
X105933907Y-143513466D01*
X105929863Y-143535373D01*
X105922908Y-143556536D01*
X105920741Y-143566566D01*
X105876044Y-143780652D01*
X105873660Y-143802624D01*
X105868332Y-143824064D01*
X105866911Y-143834228D01*
X105838343Y-144049617D01*
X105837595Y-144071531D01*
X105833884Y-144093140D01*
X105833214Y-144103380D01*
X105820602Y-144319206D01*
X105821459Y-144340968D01*
X105819351Y-144362640D01*
X100282402Y-144362640D01*
X100282402Y-130697270D01*
X105819351Y-130697270D01*
X105819430Y-130707532D01*
X105822601Y-130922927D01*
X105825032Y-130944454D01*
X105824508Y-130966112D01*
X105825333Y-130976341D01*
X105844115Y-131190436D01*
X105848093Y-131211662D01*
X105849137Y-131233227D01*
X105850702Y-131243370D01*
X105884923Y-131455297D01*
X105890422Y-131476152D01*
X105893023Y-131497556D01*
X105895318Y-131507559D01*
X105944803Y-131716448D01*
X105951807Y-131736874D01*
X105955959Y-131758062D01*
X105958974Y-131767871D01*
X106023552Y-131972858D01*
X106032049Y-131992792D01*
X106037748Y-132013686D01*
X106041468Y-132023250D01*
X106120966Y-132223463D01*
X106130942Y-132242827D01*
X106138191Y-132263361D01*
X106142600Y-132272628D01*
X106236846Y-132467199D01*
X106248283Y-132485903D01*
X106257079Y-132505984D01*
X106262156Y-132514902D01*
X106370975Y-132702964D01*
X106383858Y-132720922D01*
X106394195Y-132740451D01*
X106399917Y-132748970D01*
X106523140Y-132929654D01*
X106537424Y-132946741D01*
X106549279Y-132965598D01*
X106555619Y-132973668D01*
X106693069Y-133146107D01*
X106708715Y-133162219D01*
X106722046Y-133180268D01*
X106728972Y-133187841D01*
X106880480Y-133351165D01*
X106897314Y-133366084D01*
X106911992Y-133383119D01*
X106919466Y-133390151D01*
X107082789Y-133541656D01*
X107100658Y-133555245D01*
X107116540Y-133571103D01*
X107124519Y-133577556D01*
X107296959Y-133715007D01*
X107315650Y-133727125D01*
X107332539Y-133741649D01*
X107340977Y-133747490D01*
X107521661Y-133870711D01*
X107541045Y-133881320D01*
X107558815Y-133894448D01*
X107567661Y-133899650D01*
X107755724Y-134008471D01*
X107775688Y-134017550D01*
X107794227Y-134029245D01*
X107803431Y-134033784D01*
X107998002Y-134128029D01*
X108018440Y-134135567D01*
X108037654Y-134145807D01*
X108047165Y-134149661D01*
X108247378Y-134229159D01*
X108268200Y-134235152D01*
X108288004Y-134243922D01*
X108297770Y-134247074D01*
X108502755Y-134311653D01*
X108523890Y-134316101D01*
X108544207Y-134323387D01*
X108554176Y-134325823D01*
X108763067Y-134375309D01*
X108784440Y-134378209D01*
X108805215Y-134383999D01*
X108815334Y-134385706D01*
X109027260Y-134419926D01*
X109048818Y-134421272D01*
X109069975Y-134425543D01*
X109080191Y-134426512D01*
X109294286Y-134445294D01*
X109315952Y-134445072D01*
X109337436Y-134447803D01*
X109347696Y-134448026D01*
X109563091Y-134451198D01*
X109584796Y-134449392D01*
X109606542Y-134450553D01*
X109616791Y-134450026D01*
X109832618Y-134437414D01*
X109854278Y-134434005D01*
X109876198Y-134433563D01*
X109886381Y-134432285D01*
X110101770Y-134403717D01*
X110123288Y-134398688D01*
X110145286Y-134396611D01*
X110155346Y-134394584D01*
X110369431Y-134349887D01*
X110390690Y-134343228D01*
X110412648Y-134339491D01*
X110422530Y-134336721D01*
X110634443Y-134275722D01*
X110655301Y-134267439D01*
X110677085Y-134262028D01*
X110686731Y-134258527D01*
X110895602Y-134181054D01*
X110915827Y-134171211D01*
X110937190Y-134164167D01*
X110946546Y-134159953D01*
X111149022Y-134067039D01*
X111168410Y-134055732D01*
X111189140Y-134047128D01*
X111198155Y-134042225D01*
X111391132Y-133935513D01*
X111409484Y-133922880D01*
X111429364Y-133912835D01*
X111437989Y-133907275D01*
X111620975Y-133787500D01*
X111638195Y-133773651D01*
X111657123Y-133762258D01*
X111665314Y-133756076D01*
X111837819Y-133623973D01*
X111853845Y-133609005D01*
X111871748Y-133596350D01*
X111879463Y-133589583D01*
X112040993Y-133445889D01*
X112055777Y-133429893D01*
X112072591Y-133416060D01*
X112079791Y-133408748D01*
X112229857Y-133254198D01*
X112243365Y-133237250D01*
X112259043Y-133222313D01*
X112265693Y-133214497D01*
X112403800Y-133049828D01*
X112415995Y-133032009D01*
X112430504Y-133016023D01*
X112436569Y-133007745D01*
X112562227Y-132833692D01*
X112573084Y-132815058D01*
X112586386Y-132798077D01*
X112591836Y-132789381D01*
X112704551Y-132606681D01*
X112714039Y-132587289D01*
X112726087Y-132569370D01*
X112730891Y-132560302D01*
X112830174Y-132369691D01*
X112838258Y-132349596D01*
X112849007Y-132330784D01*
X112853139Y-132321390D01*
X112938497Y-132123605D01*
X112945136Y-132102857D01*
X112954528Y-132083215D01*
X112957964Y-132073545D01*
X113028905Y-131869321D01*
X113034045Y-131848001D01*
X113042023Y-131827586D01*
X113044739Y-131817690D01*
X113100772Y-131607763D01*
X113104360Y-131585957D01*
X113110860Y-131564839D01*
X113112838Y-131554769D01*
X113153470Y-131339874D01*
X113155453Y-131317683D01*
X113160402Y-131295974D01*
X113161625Y-131285785D01*
X113186366Y-131066661D01*
X113186696Y-131044215D01*
X113190033Y-131022018D01*
X113190490Y-131011766D01*
X113198846Y-130789147D01*
X113197206Y-130761948D01*
X113198873Y-130734763D01*
X113198428Y-130724511D01*
X113183170Y-130422347D01*
X113178441Y-130390672D01*
X113177169Y-130358678D01*
X113175692Y-130348523D01*
X113130908Y-130055087D01*
X113123079Y-130024322D01*
X113118652Y-129992902D01*
X113116166Y-129982946D01*
X113043343Y-129699725D01*
X113032606Y-129670257D01*
X113025178Y-129639793D01*
X113021719Y-129630131D01*
X112922340Y-129358610D01*
X112908917Y-129330723D01*
X112898681Y-129301528D01*
X112894292Y-129292251D01*
X112769845Y-129033915D01*
X112753960Y-129007811D01*
X112741105Y-128980090D01*
X112735838Y-128971283D01*
X112587808Y-128727617D01*
X112569655Y-128703421D01*
X112554355Y-128677331D01*
X112548267Y-128669069D01*
X112378138Y-128441559D01*
X112357881Y-128419366D01*
X112340280Y-128395021D01*
X112333431Y-128387379D01*
X112142690Y-128177511D01*
X112120461Y-128157402D01*
X112100664Y-128134894D01*
X112093118Y-128127939D01*
X111883249Y-127937197D01*
X111859145Y-127919253D01*
X111837243Y-127898693D01*
X111829068Y-127892490D01*
X111601559Y-127722362D01*
X111575686Y-127706699D01*
X111551748Y-127688212D01*
X111543015Y-127682822D01*
X111299348Y-127534791D01*
X111271803Y-127521547D01*
X111245926Y-127505301D01*
X111236712Y-127500782D01*
X110978376Y-127376335D01*
X110949313Y-127365688D01*
X110921627Y-127351882D01*
X110912015Y-127348287D01*
X110640494Y-127248909D01*
X110610133Y-127241056D01*
X110580826Y-127229911D01*
X110570905Y-127227286D01*
X110287684Y-127154462D01*
X110256314Y-127149594D01*
X110225674Y-127141340D01*
X110215541Y-127139720D01*
X109922106Y-127094936D01*
X109890117Y-127093216D01*
X109858524Y-127088048D01*
X109848279Y-127087458D01*
X109563626Y-127073085D01*
X109545156Y-127071266D01*
X109472946Y-127071266D01*
X109459207Y-127072619D01*
X109258866Y-127080138D01*
X109236618Y-127083166D01*
X109214172Y-127083182D01*
X109203967Y-127084262D01*
X108984843Y-127109003D01*
X108963063Y-127113649D01*
X108940850Y-127115322D01*
X108930754Y-127117158D01*
X108715859Y-127157790D01*
X108694644Y-127163997D01*
X108672798Y-127167279D01*
X108662865Y-127169856D01*
X108452938Y-127225889D01*
X108432407Y-127233584D01*
X108411025Y-127238424D01*
X108401307Y-127241723D01*
X108197083Y-127312664D01*
X108177304Y-127321785D01*
X108156473Y-127328131D01*
X108147023Y-127332131D01*
X107949238Y-127417489D01*
X107930278Y-127427974D01*
X107910071Y-127435777D01*
X107900937Y-127440454D01*
X107710326Y-127539737D01*
X107692238Y-127551534D01*
X107672716Y-127560751D01*
X107663945Y-127566078D01*
X107481245Y-127678795D01*
X107464080Y-127691858D01*
X107445300Y-127702452D01*
X107436937Y-127708400D01*
X107262886Y-127834057D01*
X107246694Y-127848346D01*
X107228709Y-127860289D01*
X107220800Y-127866828D01*
X107056131Y-128004935D01*
X107040969Y-128020411D01*
X107023843Y-128033674D01*
X107016430Y-128040771D01*
X106861880Y-128190837D01*
X106847811Y-128207460D01*
X106831613Y-128222016D01*
X106824739Y-128229635D01*
X106681045Y-128391165D01*
X106668138Y-128408894D01*
X106652952Y-128424705D01*
X106646655Y-128432809D01*
X106514552Y-128605314D01*
X106502892Y-128624087D01*
X106488809Y-128641106D01*
X106483128Y-128649653D01*
X106363353Y-128832639D01*
X106353030Y-128852378D01*
X106340144Y-128870550D01*
X106335115Y-128879496D01*
X106228403Y-129072473D01*
X106219508Y-129093087D01*
X106207932Y-129112314D01*
X106203586Y-129121611D01*
X106110675Y-129324087D01*
X106103335Y-129345343D01*
X106093212Y-129365427D01*
X106089576Y-129375023D01*
X106012103Y-129583893D01*
X106006387Y-129605602D01*
X105997814Y-129626342D01*
X105994906Y-129636184D01*
X105933907Y-129848096D01*
X105929863Y-129870003D01*
X105922908Y-129891166D01*
X105920741Y-129901196D01*
X105876044Y-130115282D01*
X105873660Y-130137254D01*
X105868332Y-130158694D01*
X105866911Y-130168858D01*
X105838343Y-130384247D01*
X105837595Y-130406161D01*
X105833884Y-130427770D01*
X105833214Y-130438010D01*
X105820602Y-130653836D01*
X105821459Y-130675598D01*
X105819351Y-130697270D01*
X100282402Y-130697270D01*
X100282402Y-117031950D01*
X105819351Y-117031950D01*
X105819430Y-117042212D01*
X105822601Y-117257607D01*
X105825032Y-117279134D01*
X105824508Y-117300792D01*
X105825333Y-117311021D01*
X105844115Y-117525116D01*
X105848093Y-117546342D01*
X105849137Y-117567907D01*
X105850702Y-117578050D01*
X105884923Y-117789977D01*
X105890422Y-117810832D01*
X105893023Y-117832236D01*
X105895318Y-117842239D01*
X105944803Y-118051128D01*
X105951807Y-118071554D01*
X105955959Y-118092742D01*
X105958974Y-118102551D01*
X106023552Y-118307538D01*
X106032049Y-118327472D01*
X106037748Y-118348366D01*
X106041468Y-118357930D01*
X106120966Y-118558143D01*
X106130942Y-118577507D01*
X106138191Y-118598041D01*
X106142600Y-118607308D01*
X106236846Y-118801879D01*
X106248283Y-118820583D01*
X106257079Y-118840664D01*
X106262156Y-118849582D01*
X106370975Y-119037644D01*
X106383858Y-119055602D01*
X106394195Y-119075131D01*
X106399917Y-119083650D01*
X106523140Y-119264334D01*
X106537424Y-119281421D01*
X106549279Y-119300278D01*
X106555619Y-119308348D01*
X106693069Y-119480787D01*
X106708715Y-119496899D01*
X106722046Y-119514948D01*
X106728972Y-119522521D01*
X106880480Y-119685845D01*
X106897314Y-119700764D01*
X106911992Y-119717799D01*
X106919466Y-119724831D01*
X107082789Y-119876336D01*
X107100658Y-119889925D01*
X107116540Y-119905783D01*
X107124519Y-119912236D01*
X107296959Y-120049687D01*
X107315650Y-120061805D01*
X107332539Y-120076329D01*
X107340977Y-120082170D01*
X107521661Y-120205391D01*
X107541045Y-120216000D01*
X107558815Y-120229128D01*
X107567661Y-120234330D01*
X107755724Y-120343151D01*
X107775688Y-120352230D01*
X107794227Y-120363925D01*
X107803431Y-120368464D01*
X107998002Y-120462709D01*
X108018440Y-120470247D01*
X108037654Y-120480487D01*
X108047165Y-120484341D01*
X108247378Y-120563839D01*
X108268200Y-120569832D01*
X108288004Y-120578602D01*
X108297770Y-120581754D01*
X108502755Y-120646333D01*
X108523890Y-120650781D01*
X108544207Y-120658067D01*
X108554176Y-120660503D01*
X108763067Y-120709989D01*
X108784440Y-120712889D01*
X108805215Y-120718679D01*
X108815334Y-120720386D01*
X109027260Y-120754606D01*
X109048818Y-120755952D01*
X109069975Y-120760223D01*
X109080191Y-120761192D01*
X109294286Y-120779974D01*
X109315952Y-120779752D01*
X109337436Y-120782483D01*
X109347696Y-120782706D01*
X109563091Y-120785878D01*
X109584796Y-120784072D01*
X109606542Y-120785233D01*
X109616791Y-120784706D01*
X109832618Y-120772094D01*
X109854278Y-120768685D01*
X109876198Y-120768243D01*
X109886381Y-120766965D01*
X110101770Y-120738397D01*
X110123288Y-120733368D01*
X110145286Y-120731291D01*
X110155346Y-120729264D01*
X110369431Y-120684567D01*
X110390690Y-120677908D01*
X110412648Y-120674171D01*
X110422530Y-120671401D01*
X110634443Y-120610402D01*
X110655301Y-120602119D01*
X110677085Y-120596708D01*
X110686731Y-120593207D01*
X110895602Y-120515734D01*
X110915827Y-120505891D01*
X110937190Y-120498847D01*
X110946546Y-120494633D01*
X111149022Y-120401719D01*
X111168410Y-120390412D01*
X111189140Y-120381808D01*
X111198155Y-120376905D01*
X111391132Y-120270193D01*
X111409484Y-120257560D01*
X111429364Y-120247515D01*
X111437989Y-120241955D01*
X111620975Y-120122180D01*
X111638195Y-120108331D01*
X111657123Y-120096938D01*
X111665314Y-120090756D01*
X111837819Y-119958653D01*
X111853845Y-119943685D01*
X111871748Y-119931030D01*
X111879463Y-119924263D01*
X112040993Y-119780569D01*
X112055777Y-119764573D01*
X112072591Y-119750740D01*
X112079791Y-119743428D01*
X112229857Y-119588878D01*
X112243365Y-119571930D01*
X112259043Y-119556993D01*
X112265693Y-119549177D01*
X112403800Y-119384508D01*
X112415995Y-119366689D01*
X112430504Y-119350703D01*
X112436569Y-119342425D01*
X112562227Y-119168372D01*
X112573084Y-119149738D01*
X112586386Y-119132757D01*
X112591836Y-119124061D01*
X112704551Y-118941361D01*
X112714039Y-118921969D01*
X112726087Y-118904050D01*
X112730891Y-118894982D01*
X112830174Y-118704371D01*
X112838258Y-118684276D01*
X112849007Y-118665464D01*
X112853139Y-118656070D01*
X112938497Y-118458285D01*
X112945136Y-118437537D01*
X112954528Y-118417895D01*
X112957964Y-118408225D01*
X113028905Y-118204001D01*
X113034045Y-118182681D01*
X113042023Y-118162266D01*
X113044739Y-118152370D01*
X113100772Y-117942443D01*
X113104360Y-117920637D01*
X113110860Y-117899519D01*
X113112838Y-117889449D01*
X113153470Y-117674554D01*
X113155453Y-117652363D01*
X113160402Y-117630654D01*
X113161625Y-117620465D01*
X113186366Y-117401341D01*
X113186696Y-117378895D01*
X113190033Y-117356698D01*
X113190490Y-117346446D01*
X113198846Y-117123827D01*
X113197206Y-117096628D01*
X113198873Y-117069443D01*
X113198428Y-117059191D01*
X113183170Y-116757027D01*
X113178441Y-116725352D01*
X113177169Y-116693358D01*
X113175692Y-116683203D01*
X113130908Y-116389767D01*
X113123079Y-116359002D01*
X113118652Y-116327582D01*
X113116166Y-116317626D01*
X113043343Y-116034405D01*
X113032606Y-116004937D01*
X113025178Y-115974473D01*
X113021719Y-115964811D01*
X112922340Y-115693290D01*
X112908917Y-115665403D01*
X112898681Y-115636208D01*
X112894292Y-115626931D01*
X112769845Y-115368595D01*
X112753960Y-115342491D01*
X112741105Y-115314770D01*
X112735838Y-115305963D01*
X112587808Y-115062297D01*
X112569655Y-115038101D01*
X112554355Y-115012011D01*
X112548267Y-115003749D01*
X112378138Y-114776239D01*
X112357881Y-114754046D01*
X112340280Y-114729701D01*
X112333431Y-114722059D01*
X112142690Y-114512191D01*
X112120461Y-114492082D01*
X112100664Y-114469574D01*
X112093118Y-114462619D01*
X111883249Y-114271877D01*
X111859145Y-114253933D01*
X111837243Y-114233373D01*
X111829068Y-114227170D01*
X111601559Y-114057042D01*
X111575686Y-114041379D01*
X111551748Y-114022892D01*
X111543015Y-114017502D01*
X111299348Y-113869471D01*
X111271803Y-113856227D01*
X111245926Y-113839981D01*
X111236712Y-113835462D01*
X110978376Y-113711015D01*
X110949313Y-113700368D01*
X110921627Y-113686562D01*
X110912015Y-113682967D01*
X110640494Y-113583589D01*
X110610133Y-113575736D01*
X110580826Y-113564591D01*
X110570905Y-113561966D01*
X110287684Y-113489142D01*
X110256314Y-113484274D01*
X110225674Y-113476020D01*
X110215541Y-113474400D01*
X109922106Y-113429616D01*
X109890117Y-113427896D01*
X109858524Y-113422728D01*
X109848279Y-113422138D01*
X109563626Y-113407765D01*
X109545156Y-113405946D01*
X109472946Y-113405946D01*
X109459207Y-113407299D01*
X109258866Y-113414818D01*
X109236618Y-113417846D01*
X109214172Y-113417862D01*
X109203967Y-113418942D01*
X108984843Y-113443683D01*
X108963063Y-113448329D01*
X108940850Y-113450002D01*
X108930754Y-113451838D01*
X108715859Y-113492470D01*
X108694644Y-113498677D01*
X108672798Y-113501959D01*
X108662865Y-113504536D01*
X108452938Y-113560569D01*
X108432407Y-113568264D01*
X108411025Y-113573104D01*
X108401307Y-113576403D01*
X108197083Y-113647344D01*
X108177304Y-113656465D01*
X108156473Y-113662811D01*
X108147023Y-113666811D01*
X107949238Y-113752169D01*
X107930278Y-113762654D01*
X107910071Y-113770457D01*
X107900937Y-113775134D01*
X107710326Y-113874417D01*
X107692238Y-113886214D01*
X107672716Y-113895431D01*
X107663945Y-113900758D01*
X107481245Y-114013475D01*
X107464080Y-114026538D01*
X107445300Y-114037132D01*
X107436937Y-114043080D01*
X107262886Y-114168737D01*
X107246694Y-114183026D01*
X107228709Y-114194969D01*
X107220800Y-114201508D01*
X107056131Y-114339615D01*
X107040969Y-114355091D01*
X107023843Y-114368354D01*
X107016430Y-114375451D01*
X106861880Y-114525517D01*
X106847811Y-114542140D01*
X106831613Y-114556696D01*
X106824739Y-114564315D01*
X106681045Y-114725845D01*
X106668138Y-114743574D01*
X106652952Y-114759385D01*
X106646655Y-114767489D01*
X106514552Y-114939994D01*
X106502892Y-114958767D01*
X106488809Y-114975786D01*
X106483128Y-114984333D01*
X106363353Y-115167319D01*
X106353030Y-115187058D01*
X106340144Y-115205230D01*
X106335115Y-115214176D01*
X106228403Y-115407153D01*
X106219508Y-115427767D01*
X106207932Y-115446994D01*
X106203586Y-115456291D01*
X106110675Y-115658767D01*
X106103335Y-115680023D01*
X106093212Y-115700107D01*
X106089576Y-115709703D01*
X106012103Y-115918573D01*
X106006387Y-115940282D01*
X105997814Y-115961022D01*
X105994906Y-115970864D01*
X105933907Y-116182776D01*
X105929863Y-116204683D01*
X105922908Y-116225846D01*
X105920741Y-116235876D01*
X105876044Y-116449962D01*
X105873660Y-116471934D01*
X105868332Y-116493374D01*
X105866911Y-116503538D01*
X105838343Y-116718927D01*
X105837595Y-116740841D01*
X105833884Y-116762450D01*
X105833214Y-116772690D01*
X105820602Y-116988516D01*
X105821459Y-117010278D01*
X105819351Y-117031950D01*
X100282402Y-117031950D01*
X100282402Y-103366640D01*
X105819351Y-103366640D01*
X105819430Y-103376902D01*
X105822601Y-103592297D01*
X105825032Y-103613824D01*
X105824508Y-103635482D01*
X105825333Y-103645711D01*
X105844115Y-103859806D01*
X105848093Y-103881032D01*
X105849137Y-103902597D01*
X105850702Y-103912740D01*
X105884923Y-104124667D01*
X105890422Y-104145522D01*
X105893023Y-104166926D01*
X105895318Y-104176929D01*
X105944803Y-104385818D01*
X105951807Y-104406244D01*
X105955959Y-104427432D01*
X105958974Y-104437241D01*
X106023552Y-104642228D01*
X106032049Y-104662162D01*
X106037748Y-104683056D01*
X106041468Y-104692620D01*
X106120966Y-104892833D01*
X106130942Y-104912197D01*
X106138191Y-104932731D01*
X106142600Y-104941998D01*
X106236846Y-105136569D01*
X106248283Y-105155273D01*
X106257079Y-105175354D01*
X106262156Y-105184272D01*
X106370975Y-105372334D01*
X106383858Y-105390292D01*
X106394195Y-105409821D01*
X106399917Y-105418340D01*
X106523140Y-105599024D01*
X106537424Y-105616111D01*
X106549279Y-105634968D01*
X106555619Y-105643038D01*
X106693069Y-105815477D01*
X106708715Y-105831589D01*
X106722046Y-105849638D01*
X106728972Y-105857211D01*
X106880480Y-106020535D01*
X106897314Y-106035454D01*
X106911992Y-106052489D01*
X106919466Y-106059521D01*
X107082789Y-106211026D01*
X107100658Y-106224615D01*
X107116540Y-106240473D01*
X107124519Y-106246926D01*
X107296959Y-106384377D01*
X107315650Y-106396495D01*
X107332539Y-106411019D01*
X107340977Y-106416860D01*
X107521661Y-106540081D01*
X107541045Y-106550690D01*
X107558815Y-106563818D01*
X107567661Y-106569020D01*
X107755724Y-106677841D01*
X107775688Y-106686920D01*
X107794227Y-106698615D01*
X107803431Y-106703154D01*
X107998002Y-106797399D01*
X108018440Y-106804937D01*
X108037654Y-106815177D01*
X108047165Y-106819031D01*
X108247378Y-106898529D01*
X108268200Y-106904522D01*
X108288004Y-106913292D01*
X108297770Y-106916444D01*
X108502755Y-106981023D01*
X108523890Y-106985471D01*
X108544207Y-106992757D01*
X108554176Y-106995193D01*
X108763067Y-107044679D01*
X108784440Y-107047579D01*
X108805215Y-107053369D01*
X108815334Y-107055076D01*
X109027260Y-107089296D01*
X109048818Y-107090642D01*
X109069975Y-107094913D01*
X109080191Y-107095882D01*
X109294286Y-107114664D01*
X109315952Y-107114442D01*
X109337436Y-107117173D01*
X109347696Y-107117396D01*
X109563091Y-107120568D01*
X109584796Y-107118762D01*
X109606542Y-107119923D01*
X109616791Y-107119396D01*
X109832618Y-107106784D01*
X109854278Y-107103375D01*
X109876198Y-107102933D01*
X109886381Y-107101655D01*
X110101770Y-107073087D01*
X110123288Y-107068058D01*
X110145286Y-107065981D01*
X110155346Y-107063954D01*
X110369431Y-107019257D01*
X110390690Y-107012598D01*
X110412648Y-107008861D01*
X110422530Y-107006091D01*
X110634443Y-106945092D01*
X110655301Y-106936809D01*
X110677085Y-106931398D01*
X110686731Y-106927897D01*
X110895602Y-106850424D01*
X110915827Y-106840581D01*
X110937190Y-106833537D01*
X110946546Y-106829323D01*
X111149022Y-106736409D01*
X111168410Y-106725102D01*
X111189140Y-106716498D01*
X111198155Y-106711595D01*
X111391132Y-106604883D01*
X111409484Y-106592250D01*
X111429364Y-106582205D01*
X111437989Y-106576645D01*
X111620975Y-106456870D01*
X111638195Y-106443021D01*
X111657123Y-106431628D01*
X111665314Y-106425446D01*
X111837819Y-106293343D01*
X111853845Y-106278375D01*
X111871748Y-106265720D01*
X111879463Y-106258953D01*
X112040993Y-106115259D01*
X112055777Y-106099263D01*
X112072591Y-106085430D01*
X112079791Y-106078118D01*
X112229857Y-105923568D01*
X112243365Y-105906620D01*
X112259043Y-105891683D01*
X112265693Y-105883867D01*
X112403800Y-105719198D01*
X112415995Y-105701379D01*
X112430504Y-105685393D01*
X112436569Y-105677115D01*
X112562227Y-105503062D01*
X112573084Y-105484428D01*
X112586386Y-105467447D01*
X112591836Y-105458751D01*
X112704551Y-105276051D01*
X112714039Y-105256659D01*
X112726087Y-105238740D01*
X112730891Y-105229672D01*
X112830174Y-105039061D01*
X112838258Y-105018966D01*
X112849007Y-105000154D01*
X112853139Y-104990760D01*
X112938497Y-104792975D01*
X112945136Y-104772227D01*
X112954528Y-104752585D01*
X112957964Y-104742915D01*
X113028905Y-104538691D01*
X113034045Y-104517371D01*
X113042023Y-104496956D01*
X113044739Y-104487060D01*
X113100772Y-104277133D01*
X113104360Y-104255327D01*
X113110860Y-104234209D01*
X113112838Y-104224139D01*
X113153470Y-104009244D01*
X113155453Y-103987053D01*
X113160402Y-103965344D01*
X113161625Y-103955155D01*
X113186366Y-103736031D01*
X113186696Y-103713585D01*
X113190033Y-103691388D01*
X113190490Y-103681136D01*
X113198846Y-103458517D01*
X113197206Y-103431318D01*
X113198873Y-103404133D01*
X113198428Y-103393881D01*
X113183170Y-103091717D01*
X113178441Y-103060042D01*
X113177169Y-103028048D01*
X113175692Y-103017893D01*
X113130908Y-102724457D01*
X113123079Y-102693692D01*
X113118652Y-102662272D01*
X113116166Y-102652316D01*
X113043343Y-102369095D01*
X113032606Y-102339627D01*
X113025178Y-102309163D01*
X113021719Y-102299501D01*
X112922340Y-102027980D01*
X112908917Y-102000093D01*
X112898681Y-101970898D01*
X112894292Y-101961621D01*
X112769845Y-101703285D01*
X112753960Y-101677181D01*
X112741105Y-101649460D01*
X112735838Y-101640653D01*
X112587808Y-101396987D01*
X112569655Y-101372791D01*
X112554355Y-101346701D01*
X112548267Y-101338439D01*
X112378138Y-101110929D01*
X112357881Y-101088736D01*
X112340280Y-101064391D01*
X112333431Y-101056749D01*
X112142690Y-100846881D01*
X112120461Y-100826772D01*
X112100664Y-100804264D01*
X112093118Y-100797309D01*
X111883249Y-100606567D01*
X111859145Y-100588623D01*
X111837243Y-100568063D01*
X111829068Y-100561860D01*
X111601559Y-100391732D01*
X111575686Y-100376069D01*
X111551748Y-100357582D01*
X111543015Y-100352192D01*
X111299348Y-100204161D01*
X111271803Y-100190917D01*
X111245926Y-100174671D01*
X111236712Y-100170152D01*
X110978376Y-100045705D01*
X110949313Y-100035058D01*
X110921627Y-100021252D01*
X110912015Y-100017657D01*
X110640494Y-99918279D01*
X110610133Y-99910426D01*
X110580826Y-99899281D01*
X110570905Y-99896656D01*
X110287684Y-99823832D01*
X110256314Y-99818964D01*
X110225674Y-99810710D01*
X110215541Y-99809090D01*
X109922106Y-99764306D01*
X109890117Y-99762586D01*
X109858524Y-99757418D01*
X109848279Y-99756828D01*
X109563626Y-99742455D01*
X109545156Y-99740636D01*
X109472946Y-99740636D01*
X109459207Y-99741989D01*
X109258866Y-99749508D01*
X109236618Y-99752536D01*
X109214172Y-99752552D01*
X109203967Y-99753632D01*
X108984843Y-99778373D01*
X108963063Y-99783019D01*
X108940850Y-99784692D01*
X108930754Y-99786528D01*
X108715859Y-99827160D01*
X108694644Y-99833367D01*
X108672798Y-99836649D01*
X108662865Y-99839226D01*
X108452938Y-99895259D01*
X108432407Y-99902954D01*
X108411025Y-99907794D01*
X108401307Y-99911093D01*
X108197083Y-99982034D01*
X108177304Y-99991155D01*
X108156473Y-99997501D01*
X108147023Y-100001501D01*
X107949238Y-100086859D01*
X107930278Y-100097344D01*
X107910071Y-100105147D01*
X107900937Y-100109824D01*
X107710326Y-100209107D01*
X107692238Y-100220904D01*
X107672716Y-100230121D01*
X107663945Y-100235448D01*
X107481245Y-100348165D01*
X107464080Y-100361228D01*
X107445300Y-100371822D01*
X107436937Y-100377770D01*
X107262886Y-100503427D01*
X107246694Y-100517716D01*
X107228709Y-100529659D01*
X107220800Y-100536198D01*
X107056131Y-100674305D01*
X107040969Y-100689781D01*
X107023843Y-100703044D01*
X107016430Y-100710141D01*
X106861880Y-100860207D01*
X106847811Y-100876830D01*
X106831613Y-100891386D01*
X106824739Y-100899005D01*
X106681045Y-101060535D01*
X106668138Y-101078264D01*
X106652952Y-101094075D01*
X106646655Y-101102179D01*
X106514552Y-101274684D01*
X106502892Y-101293457D01*
X106488809Y-101310476D01*
X106483128Y-101319023D01*
X106363353Y-101502009D01*
X106353030Y-101521748D01*
X106340144Y-101539920D01*
X106335115Y-101548866D01*
X106228403Y-101741843D01*
X106219508Y-101762457D01*
X106207932Y-101781684D01*
X106203586Y-101790981D01*
X106110675Y-101993457D01*
X106103335Y-102014713D01*
X106093212Y-102034797D01*
X106089576Y-102044393D01*
X106012103Y-102253263D01*
X106006387Y-102274972D01*
X105997814Y-102295712D01*
X105994906Y-102305554D01*
X105933907Y-102517466D01*
X105929863Y-102539373D01*
X105922908Y-102560536D01*
X105920741Y-102570566D01*
X105876044Y-102784652D01*
X105873660Y-102806624D01*
X105868332Y-102828064D01*
X105866911Y-102838228D01*
X105838343Y-103053617D01*
X105837595Y-103075531D01*
X105833884Y-103097140D01*
X105833214Y-103107380D01*
X105820602Y-103323206D01*
X105821459Y-103344968D01*
X105819351Y-103366640D01*
X100282402Y-103366640D01*
X100282402Y-89701340D01*
X105819351Y-89701340D01*
X105819430Y-89711602D01*
X105822601Y-89926997D01*
X105825032Y-89948524D01*
X105824508Y-89970182D01*
X105825333Y-89980411D01*
X105844115Y-90194506D01*
X105848093Y-90215732D01*
X105849137Y-90237297D01*
X105850702Y-90247440D01*
X105884923Y-90459367D01*
X105890422Y-90480222D01*
X105893023Y-90501626D01*
X105895318Y-90511629D01*
X105944803Y-90720518D01*
X105951807Y-90740944D01*
X105955959Y-90762132D01*
X105958974Y-90771941D01*
X106023552Y-90976928D01*
X106032049Y-90996862D01*
X106037748Y-91017756D01*
X106041468Y-91027320D01*
X106120966Y-91227533D01*
X106130942Y-91246897D01*
X106138191Y-91267431D01*
X106142600Y-91276698D01*
X106236846Y-91471269D01*
X106248283Y-91489973D01*
X106257079Y-91510054D01*
X106262156Y-91518972D01*
X106370975Y-91707034D01*
X106383858Y-91724992D01*
X106394195Y-91744521D01*
X106399917Y-91753040D01*
X106523140Y-91933724D01*
X106537424Y-91950811D01*
X106549279Y-91969668D01*
X106555619Y-91977738D01*
X106693069Y-92150177D01*
X106708715Y-92166289D01*
X106722046Y-92184338D01*
X106728972Y-92191911D01*
X106880480Y-92355235D01*
X106897314Y-92370154D01*
X106911992Y-92387189D01*
X106919466Y-92394221D01*
X107082789Y-92545726D01*
X107100658Y-92559315D01*
X107116540Y-92575173D01*
X107124519Y-92581626D01*
X107296959Y-92719077D01*
X107315650Y-92731195D01*
X107332539Y-92745719D01*
X107340977Y-92751560D01*
X107521661Y-92874781D01*
X107541045Y-92885390D01*
X107558815Y-92898518D01*
X107567661Y-92903720D01*
X107755724Y-93012541D01*
X107775688Y-93021620D01*
X107794227Y-93033315D01*
X107803431Y-93037854D01*
X107998002Y-93132099D01*
X108018440Y-93139637D01*
X108037654Y-93149877D01*
X108047165Y-93153731D01*
X108247378Y-93233229D01*
X108268200Y-93239222D01*
X108288004Y-93247992D01*
X108297770Y-93251144D01*
X108502755Y-93315723D01*
X108523890Y-93320171D01*
X108544207Y-93327457D01*
X108554176Y-93329893D01*
X108763067Y-93379379D01*
X108784440Y-93382279D01*
X108805215Y-93388069D01*
X108815334Y-93389776D01*
X109027260Y-93423996D01*
X109048818Y-93425342D01*
X109069975Y-93429613D01*
X109080191Y-93430582D01*
X109294286Y-93449364D01*
X109315952Y-93449142D01*
X109337436Y-93451873D01*
X109347696Y-93452096D01*
X109563091Y-93455268D01*
X109584796Y-93453462D01*
X109606542Y-93454623D01*
X109616791Y-93454096D01*
X109832618Y-93441484D01*
X109854278Y-93438075D01*
X109876198Y-93437633D01*
X109886381Y-93436355D01*
X110101770Y-93407787D01*
X110123288Y-93402758D01*
X110145286Y-93400681D01*
X110155346Y-93398654D01*
X110369431Y-93353957D01*
X110390690Y-93347298D01*
X110412648Y-93343561D01*
X110422530Y-93340791D01*
X110634443Y-93279792D01*
X110655301Y-93271509D01*
X110677085Y-93266098D01*
X110686731Y-93262597D01*
X110895602Y-93185124D01*
X110915827Y-93175281D01*
X110937190Y-93168237D01*
X110946546Y-93164023D01*
X111149022Y-93071109D01*
X111168410Y-93059802D01*
X111189140Y-93051198D01*
X111198155Y-93046295D01*
X111391132Y-92939583D01*
X111409484Y-92926950D01*
X111429364Y-92916905D01*
X111437989Y-92911345D01*
X111620975Y-92791570D01*
X111638195Y-92777721D01*
X111657123Y-92766328D01*
X111665314Y-92760146D01*
X111837819Y-92628043D01*
X111853845Y-92613075D01*
X111871748Y-92600420D01*
X111879463Y-92593653D01*
X112040993Y-92449959D01*
X112055777Y-92433963D01*
X112072591Y-92420130D01*
X112079791Y-92412818D01*
X112229857Y-92258268D01*
X112243365Y-92241320D01*
X112259043Y-92226383D01*
X112265693Y-92218567D01*
X112403800Y-92053898D01*
X112415995Y-92036079D01*
X112430504Y-92020093D01*
X112436569Y-92011815D01*
X112562227Y-91837762D01*
X112573084Y-91819128D01*
X112586386Y-91802147D01*
X112591836Y-91793451D01*
X112704551Y-91610751D01*
X112714039Y-91591359D01*
X112726087Y-91573440D01*
X112730891Y-91564372D01*
X112830174Y-91373761D01*
X112838258Y-91353666D01*
X112849007Y-91334854D01*
X112853139Y-91325460D01*
X112938497Y-91127675D01*
X112945136Y-91106927D01*
X112954528Y-91087285D01*
X112957964Y-91077615D01*
X113028905Y-90873391D01*
X113034045Y-90852071D01*
X113042023Y-90831656D01*
X113044739Y-90821760D01*
X113100772Y-90611833D01*
X113104360Y-90590027D01*
X113110860Y-90568909D01*
X113112838Y-90558839D01*
X113153470Y-90343944D01*
X113155453Y-90321753D01*
X113160402Y-90300044D01*
X113161625Y-90289855D01*
X113186366Y-90070731D01*
X113186696Y-90048285D01*
X113190033Y-90026088D01*
X113190490Y-90015836D01*
X113198846Y-89793217D01*
X113197206Y-89766018D01*
X113198873Y-89738833D01*
X113198428Y-89728581D01*
X113183170Y-89426417D01*
X113178441Y-89394742D01*
X113177169Y-89362748D01*
X113175692Y-89352593D01*
X113130908Y-89059157D01*
X113123079Y-89028392D01*
X113118652Y-88996972D01*
X113116166Y-88987016D01*
X113043343Y-88703795D01*
X113032606Y-88674327D01*
X113025178Y-88643863D01*
X113021719Y-88634201D01*
X112922340Y-88362680D01*
X112908917Y-88334793D01*
X112898681Y-88305598D01*
X112894292Y-88296321D01*
X112769845Y-88037985D01*
X112753960Y-88011881D01*
X112741105Y-87984160D01*
X112735838Y-87975353D01*
X112587808Y-87731687D01*
X112569655Y-87707491D01*
X112554355Y-87681401D01*
X112548267Y-87673139D01*
X112378138Y-87445629D01*
X112357881Y-87423436D01*
X112340280Y-87399091D01*
X112333431Y-87391449D01*
X112142690Y-87181581D01*
X112120461Y-87161472D01*
X112100664Y-87138964D01*
X112093118Y-87132009D01*
X111883249Y-86941267D01*
X111859145Y-86923323D01*
X111837243Y-86902763D01*
X111829068Y-86896560D01*
X111601559Y-86726432D01*
X111575686Y-86710769D01*
X111551748Y-86692282D01*
X111543015Y-86686892D01*
X111299348Y-86538861D01*
X111271803Y-86525617D01*
X111245926Y-86509371D01*
X111236712Y-86504852D01*
X110978376Y-86380405D01*
X110949313Y-86369758D01*
X110921627Y-86355952D01*
X110912015Y-86352357D01*
X110640494Y-86252979D01*
X110610133Y-86245126D01*
X110580826Y-86233981D01*
X110570905Y-86231356D01*
X110287684Y-86158532D01*
X110256314Y-86153664D01*
X110225674Y-86145410D01*
X110215541Y-86143790D01*
X109922106Y-86099006D01*
X109890117Y-86097286D01*
X109858524Y-86092118D01*
X109848279Y-86091528D01*
X109563626Y-86077155D01*
X109545156Y-86075336D01*
X109472946Y-86075336D01*
X109459207Y-86076689D01*
X109258866Y-86084208D01*
X109236618Y-86087236D01*
X109214172Y-86087252D01*
X109203967Y-86088332D01*
X108984843Y-86113073D01*
X108963063Y-86117719D01*
X108940850Y-86119392D01*
X108930754Y-86121228D01*
X108715859Y-86161860D01*
X108694644Y-86168067D01*
X108672798Y-86171349D01*
X108662865Y-86173926D01*
X108452938Y-86229959D01*
X108432407Y-86237654D01*
X108411025Y-86242494D01*
X108401307Y-86245793D01*
X108197083Y-86316734D01*
X108177304Y-86325855D01*
X108156473Y-86332201D01*
X108147023Y-86336201D01*
X107949238Y-86421559D01*
X107930278Y-86432044D01*
X107910071Y-86439847D01*
X107900937Y-86444524D01*
X107710326Y-86543807D01*
X107692238Y-86555604D01*
X107672716Y-86564821D01*
X107663945Y-86570148D01*
X107481245Y-86682865D01*
X107464080Y-86695928D01*
X107445300Y-86706522D01*
X107436937Y-86712470D01*
X107262886Y-86838127D01*
X107246694Y-86852416D01*
X107228709Y-86864359D01*
X107220800Y-86870898D01*
X107056131Y-87009005D01*
X107040969Y-87024481D01*
X107023843Y-87037744D01*
X107016430Y-87044841D01*
X106861880Y-87194907D01*
X106847811Y-87211530D01*
X106831613Y-87226086D01*
X106824739Y-87233705D01*
X106681045Y-87395235D01*
X106668138Y-87412964D01*
X106652952Y-87428775D01*
X106646655Y-87436879D01*
X106514552Y-87609384D01*
X106502892Y-87628157D01*
X106488809Y-87645176D01*
X106483128Y-87653723D01*
X106363353Y-87836709D01*
X106353030Y-87856448D01*
X106340144Y-87874620D01*
X106335115Y-87883566D01*
X106228403Y-88076543D01*
X106219508Y-88097157D01*
X106207932Y-88116384D01*
X106203586Y-88125681D01*
X106110675Y-88328157D01*
X106103335Y-88349413D01*
X106093212Y-88369497D01*
X106089576Y-88379093D01*
X106012103Y-88587963D01*
X106006387Y-88609672D01*
X105997814Y-88630412D01*
X105994906Y-88640254D01*
X105933907Y-88852166D01*
X105929863Y-88874073D01*
X105922908Y-88895236D01*
X105920741Y-88905266D01*
X105876044Y-89119352D01*
X105873660Y-89141324D01*
X105868332Y-89162764D01*
X105866911Y-89172928D01*
X105838343Y-89388317D01*
X105837595Y-89410231D01*
X105833884Y-89431840D01*
X105833214Y-89442080D01*
X105820602Y-89657906D01*
X105821459Y-89679668D01*
X105819351Y-89701340D01*
X100282402Y-89701340D01*
X100282402Y-76035940D01*
X105819351Y-76035940D01*
X105819430Y-76046202D01*
X105822601Y-76261597D01*
X105825032Y-76283124D01*
X105824508Y-76304782D01*
X105825333Y-76315011D01*
X105844115Y-76529106D01*
X105848093Y-76550332D01*
X105849137Y-76571897D01*
X105850702Y-76582040D01*
X105884923Y-76793967D01*
X105890422Y-76814822D01*
X105893023Y-76836226D01*
X105895318Y-76846229D01*
X105944803Y-77055118D01*
X105951807Y-77075544D01*
X105955959Y-77096732D01*
X105958974Y-77106541D01*
X106023552Y-77311528D01*
X106032049Y-77331462D01*
X106037748Y-77352356D01*
X106041468Y-77361920D01*
X106120966Y-77562133D01*
X106130942Y-77581497D01*
X106138191Y-77602031D01*
X106142600Y-77611298D01*
X106236846Y-77805869D01*
X106248283Y-77824573D01*
X106257079Y-77844654D01*
X106262156Y-77853572D01*
X106370975Y-78041634D01*
X106383858Y-78059592D01*
X106394195Y-78079121D01*
X106399917Y-78087640D01*
X106523140Y-78268324D01*
X106537424Y-78285411D01*
X106549279Y-78304268D01*
X106555619Y-78312338D01*
X106693069Y-78484777D01*
X106708715Y-78500889D01*
X106722046Y-78518938D01*
X106728972Y-78526511D01*
X106880480Y-78689835D01*
X106897314Y-78704754D01*
X106911992Y-78721789D01*
X106919466Y-78728821D01*
X107082789Y-78880326D01*
X107100658Y-78893915D01*
X107116540Y-78909773D01*
X107124519Y-78916226D01*
X107296959Y-79053677D01*
X107315650Y-79065795D01*
X107332539Y-79080319D01*
X107340977Y-79086160D01*
X107521661Y-79209381D01*
X107541045Y-79219990D01*
X107558815Y-79233118D01*
X107567661Y-79238320D01*
X107755724Y-79347141D01*
X107775688Y-79356220D01*
X107794227Y-79367915D01*
X107803431Y-79372454D01*
X107998002Y-79466699D01*
X108018440Y-79474237D01*
X108037654Y-79484477D01*
X108047165Y-79488331D01*
X108247378Y-79567829D01*
X108268200Y-79573822D01*
X108288004Y-79582592D01*
X108297770Y-79585744D01*
X108502755Y-79650323D01*
X108523890Y-79654771D01*
X108544207Y-79662057D01*
X108554176Y-79664493D01*
X108763067Y-79713979D01*
X108784440Y-79716879D01*
X108805215Y-79722669D01*
X108815334Y-79724376D01*
X109027260Y-79758596D01*
X109048818Y-79759942D01*
X109069975Y-79764213D01*
X109080191Y-79765182D01*
X109294286Y-79783964D01*
X109315952Y-79783742D01*
X109337436Y-79786473D01*
X109347696Y-79786696D01*
X109563091Y-79789868D01*
X109584796Y-79788062D01*
X109606542Y-79789223D01*
X109616791Y-79788696D01*
X109832618Y-79776084D01*
X109854278Y-79772675D01*
X109876198Y-79772233D01*
X109886381Y-79770955D01*
X110101770Y-79742387D01*
X110123288Y-79737358D01*
X110145286Y-79735281D01*
X110155346Y-79733254D01*
X110369431Y-79688557D01*
X110390690Y-79681898D01*
X110412648Y-79678161D01*
X110422530Y-79675391D01*
X110634443Y-79614392D01*
X110655301Y-79606109D01*
X110677085Y-79600698D01*
X110686731Y-79597197D01*
X110895602Y-79519724D01*
X110915827Y-79509881D01*
X110937190Y-79502837D01*
X110946546Y-79498623D01*
X111149022Y-79405709D01*
X111168410Y-79394402D01*
X111189140Y-79385798D01*
X111198155Y-79380895D01*
X111391132Y-79274183D01*
X111409484Y-79261550D01*
X111429364Y-79251505D01*
X111437989Y-79245945D01*
X111620975Y-79126170D01*
X111638195Y-79112321D01*
X111657123Y-79100928D01*
X111665314Y-79094746D01*
X111837819Y-78962643D01*
X111853845Y-78947675D01*
X111871748Y-78935020D01*
X111879463Y-78928253D01*
X112040993Y-78784559D01*
X112055777Y-78768563D01*
X112072591Y-78754730D01*
X112079791Y-78747418D01*
X112229857Y-78592868D01*
X112243365Y-78575920D01*
X112259043Y-78560983D01*
X112265693Y-78553167D01*
X112403800Y-78388498D01*
X112415995Y-78370679D01*
X112430504Y-78354693D01*
X112436569Y-78346415D01*
X112562227Y-78172362D01*
X112573084Y-78153728D01*
X112586386Y-78136747D01*
X112591836Y-78128051D01*
X112704551Y-77945351D01*
X112714039Y-77925959D01*
X112726087Y-77908040D01*
X112730891Y-77898972D01*
X112830174Y-77708361D01*
X112838258Y-77688266D01*
X112849007Y-77669454D01*
X112853139Y-77660060D01*
X112938497Y-77462275D01*
X112945136Y-77441527D01*
X112954528Y-77421885D01*
X112957964Y-77412215D01*
X113028905Y-77207991D01*
X113034045Y-77186671D01*
X113042023Y-77166256D01*
X113044739Y-77156360D01*
X113100772Y-76946433D01*
X113104360Y-76924627D01*
X113110860Y-76903509D01*
X113112838Y-76893439D01*
X113153470Y-76678544D01*
X113155453Y-76656353D01*
X113160402Y-76634644D01*
X113161625Y-76624455D01*
X113186366Y-76405331D01*
X113186696Y-76382885D01*
X113190033Y-76360688D01*
X113190490Y-76350436D01*
X113198846Y-76127817D01*
X113197206Y-76100618D01*
X113198873Y-76073433D01*
X113198428Y-76063181D01*
X113183170Y-75761017D01*
X113178441Y-75729342D01*
X113177169Y-75697348D01*
X113175692Y-75687193D01*
X113130908Y-75393757D01*
X113123079Y-75362992D01*
X113118652Y-75331572D01*
X113116166Y-75321616D01*
X113043343Y-75038395D01*
X113032606Y-75008927D01*
X113025178Y-74978463D01*
X113021719Y-74968801D01*
X112922340Y-74697280D01*
X112908917Y-74669393D01*
X112898681Y-74640198D01*
X112894292Y-74630921D01*
X112769845Y-74372585D01*
X112753960Y-74346481D01*
X112741105Y-74318760D01*
X112735838Y-74309953D01*
X112587808Y-74066287D01*
X112569655Y-74042091D01*
X112554355Y-74016001D01*
X112548267Y-74007739D01*
X112378138Y-73780229D01*
X112357881Y-73758036D01*
X112340280Y-73733691D01*
X112333431Y-73726049D01*
X112142690Y-73516181D01*
X112120460Y-73496071D01*
X112100663Y-73473563D01*
X112093117Y-73466608D01*
X111883248Y-73275867D01*
X111859145Y-73257923D01*
X111837245Y-73237366D01*
X111829070Y-73231162D01*
X111601561Y-73061033D01*
X111575680Y-73045366D01*
X111551745Y-73026881D01*
X111543012Y-73021491D01*
X111299346Y-72873461D01*
X111271802Y-72860218D01*
X111245926Y-72843972D01*
X111236712Y-72839453D01*
X110978376Y-72715006D01*
X110949312Y-72704358D01*
X110921629Y-72690554D01*
X110912017Y-72686959D01*
X110640497Y-72587580D01*
X110610128Y-72579724D01*
X110580823Y-72568581D01*
X110570902Y-72565955D01*
X110287682Y-72493133D01*
X110256317Y-72488266D01*
X110225674Y-72480011D01*
X110215541Y-72478391D01*
X109922106Y-72433607D01*
X109890117Y-72431887D01*
X109858524Y-72426719D01*
X109848279Y-72426129D01*
X109563626Y-72411756D01*
X109545156Y-72409937D01*
X109472946Y-72409937D01*
X109459207Y-72411290D01*
X109258866Y-72418809D01*
X109236618Y-72421837D01*
X109214172Y-72421853D01*
X109203967Y-72422933D01*
X108984843Y-72447674D01*
X108963063Y-72452320D01*
X108940850Y-72453993D01*
X108930754Y-72455829D01*
X108715859Y-72496461D01*
X108694644Y-72502668D01*
X108672798Y-72505950D01*
X108662865Y-72508527D01*
X108452938Y-72564560D01*
X108432407Y-72572255D01*
X108411025Y-72577095D01*
X108401307Y-72580394D01*
X108197083Y-72651335D01*
X108177304Y-72660456D01*
X108156473Y-72666802D01*
X108147023Y-72670802D01*
X107949238Y-72756160D01*
X107930278Y-72766645D01*
X107910071Y-72774448D01*
X107900937Y-72779125D01*
X107710326Y-72878408D01*
X107692239Y-72890205D01*
X107672718Y-72899421D01*
X107663947Y-72904748D01*
X107481247Y-73017463D01*
X107464078Y-73030529D01*
X107445300Y-73041122D01*
X107436937Y-73047070D01*
X107262886Y-73172727D01*
X107246694Y-73187016D01*
X107228709Y-73198959D01*
X107220800Y-73205498D01*
X107056131Y-73343605D01*
X107040969Y-73359081D01*
X107023843Y-73372344D01*
X107016430Y-73379441D01*
X106861880Y-73529507D01*
X106847811Y-73546130D01*
X106831613Y-73560686D01*
X106824739Y-73568305D01*
X106681045Y-73729835D01*
X106668138Y-73747564D01*
X106652952Y-73763375D01*
X106646655Y-73771479D01*
X106514552Y-73943984D01*
X106502892Y-73962757D01*
X106488809Y-73979776D01*
X106483128Y-73988323D01*
X106363353Y-74171309D01*
X106353030Y-74191048D01*
X106340144Y-74209220D01*
X106335115Y-74218166D01*
X106228403Y-74411143D01*
X106219508Y-74431757D01*
X106207932Y-74450984D01*
X106203586Y-74460281D01*
X106110675Y-74662757D01*
X106103335Y-74684013D01*
X106093212Y-74704097D01*
X106089576Y-74713693D01*
X106012103Y-74922563D01*
X106006387Y-74944272D01*
X105997814Y-74965012D01*
X105994906Y-74974854D01*
X105933907Y-75186766D01*
X105929863Y-75208673D01*
X105922908Y-75229836D01*
X105920741Y-75239866D01*
X105876044Y-75453952D01*
X105873660Y-75475924D01*
X105868332Y-75497364D01*
X105866911Y-75507528D01*
X105838343Y-75722917D01*
X105837595Y-75744831D01*
X105833884Y-75766440D01*
X105833214Y-75776680D01*
X105820602Y-75992506D01*
X105821459Y-76014268D01*
X105819351Y-76035940D01*
X100282402Y-76035940D01*
X100282402Y-62370640D01*
X105819351Y-62370640D01*
X105819430Y-62380902D01*
X105822601Y-62596297D01*
X105825032Y-62617824D01*
X105824508Y-62639482D01*
X105825333Y-62649711D01*
X105844115Y-62863806D01*
X105848093Y-62885032D01*
X105849137Y-62906597D01*
X105850702Y-62916740D01*
X105884923Y-63128667D01*
X105890422Y-63149522D01*
X105893023Y-63170926D01*
X105895318Y-63180929D01*
X105944803Y-63389818D01*
X105951807Y-63410244D01*
X105955959Y-63431432D01*
X105958974Y-63441241D01*
X106023552Y-63646228D01*
X106032049Y-63666162D01*
X106037748Y-63687056D01*
X106041468Y-63696620D01*
X106120966Y-63896833D01*
X106130942Y-63916197D01*
X106138191Y-63936731D01*
X106142600Y-63945998D01*
X106236846Y-64140569D01*
X106248283Y-64159273D01*
X106257079Y-64179354D01*
X106262156Y-64188272D01*
X106370975Y-64376334D01*
X106383858Y-64394292D01*
X106394195Y-64413821D01*
X106399917Y-64422340D01*
X106523140Y-64603024D01*
X106537424Y-64620111D01*
X106549279Y-64638968D01*
X106555619Y-64647038D01*
X106693069Y-64819477D01*
X106708715Y-64835589D01*
X106722046Y-64853638D01*
X106728972Y-64861211D01*
X106880480Y-65024535D01*
X106897314Y-65039454D01*
X106911992Y-65056489D01*
X106919466Y-65063521D01*
X107082789Y-65215026D01*
X107100658Y-65228615D01*
X107116540Y-65244473D01*
X107124519Y-65250926D01*
X107296959Y-65388377D01*
X107315650Y-65400495D01*
X107332539Y-65415019D01*
X107340977Y-65420860D01*
X107521661Y-65544081D01*
X107541045Y-65554690D01*
X107558815Y-65567818D01*
X107567661Y-65573020D01*
X107755724Y-65681841D01*
X107775688Y-65690920D01*
X107794227Y-65702615D01*
X107803431Y-65707154D01*
X107998002Y-65801399D01*
X108018440Y-65808937D01*
X108037654Y-65819177D01*
X108047165Y-65823031D01*
X108247378Y-65902529D01*
X108268200Y-65908522D01*
X108288004Y-65917292D01*
X108297770Y-65920444D01*
X108502755Y-65985023D01*
X108523890Y-65989471D01*
X108544207Y-65996757D01*
X108554176Y-65999193D01*
X108763067Y-66048679D01*
X108784440Y-66051579D01*
X108805215Y-66057369D01*
X108815334Y-66059076D01*
X109027260Y-66093296D01*
X109048818Y-66094642D01*
X109069975Y-66098913D01*
X109080191Y-66099882D01*
X109294286Y-66118664D01*
X109315952Y-66118442D01*
X109337436Y-66121173D01*
X109347696Y-66121396D01*
X109563091Y-66124568D01*
X109584796Y-66122762D01*
X109606542Y-66123923D01*
X109616791Y-66123396D01*
X109832618Y-66110784D01*
X109854278Y-66107375D01*
X109876198Y-66106933D01*
X109886381Y-66105655D01*
X110101770Y-66077087D01*
X110123288Y-66072058D01*
X110145286Y-66069981D01*
X110155346Y-66067954D01*
X110369431Y-66023257D01*
X110390690Y-66016598D01*
X110412648Y-66012861D01*
X110422530Y-66010091D01*
X110634443Y-65949092D01*
X110655301Y-65940809D01*
X110677085Y-65935398D01*
X110686731Y-65931897D01*
X110895602Y-65854424D01*
X110915827Y-65844581D01*
X110937190Y-65837537D01*
X110946546Y-65833323D01*
X111149022Y-65740409D01*
X111168410Y-65729102D01*
X111189140Y-65720498D01*
X111198155Y-65715595D01*
X111391132Y-65608883D01*
X111409484Y-65596250D01*
X111429364Y-65586205D01*
X111437989Y-65580645D01*
X111620975Y-65460870D01*
X111638195Y-65447021D01*
X111657123Y-65435628D01*
X111665314Y-65429446D01*
X111837819Y-65297343D01*
X111853845Y-65282375D01*
X111871748Y-65269720D01*
X111879463Y-65262953D01*
X112040993Y-65119259D01*
X112055777Y-65103263D01*
X112072591Y-65089430D01*
X112079791Y-65082118D01*
X112229857Y-64927568D01*
X112243365Y-64910620D01*
X112259043Y-64895683D01*
X112265693Y-64887867D01*
X112403800Y-64723198D01*
X112415995Y-64705379D01*
X112430504Y-64689393D01*
X112436569Y-64681115D01*
X112562227Y-64507062D01*
X112573084Y-64488428D01*
X112586386Y-64471447D01*
X112591836Y-64462751D01*
X112704551Y-64280051D01*
X112714039Y-64260659D01*
X112726087Y-64242740D01*
X112730891Y-64233672D01*
X112830174Y-64043061D01*
X112838258Y-64022966D01*
X112849007Y-64004154D01*
X112853139Y-63994760D01*
X112938497Y-63796975D01*
X112945136Y-63776227D01*
X112954528Y-63756585D01*
X112957964Y-63746915D01*
X113028905Y-63542691D01*
X113034045Y-63521371D01*
X113042023Y-63500956D01*
X113044739Y-63491060D01*
X113100772Y-63281133D01*
X113104360Y-63259327D01*
X113110860Y-63238209D01*
X113112838Y-63228139D01*
X113153470Y-63013244D01*
X113155453Y-62991053D01*
X113160402Y-62969344D01*
X113161625Y-62959155D01*
X113186366Y-62740031D01*
X113186696Y-62717585D01*
X113190033Y-62695388D01*
X113190490Y-62685136D01*
X113198846Y-62462517D01*
X113197206Y-62435318D01*
X113198873Y-62408133D01*
X113198428Y-62397881D01*
X113183170Y-62095717D01*
X113178441Y-62064042D01*
X113177169Y-62032048D01*
X113175692Y-62021893D01*
X113130908Y-61728457D01*
X113123079Y-61697692D01*
X113118652Y-61666272D01*
X113116166Y-61656316D01*
X113043343Y-61373095D01*
X113032606Y-61343627D01*
X113025178Y-61313163D01*
X113021719Y-61303501D01*
X112922340Y-61031980D01*
X112908917Y-61004093D01*
X112898681Y-60974898D01*
X112894292Y-60965621D01*
X112769845Y-60707285D01*
X112753960Y-60681181D01*
X112741105Y-60653460D01*
X112735838Y-60644653D01*
X112587808Y-60400987D01*
X112569655Y-60376791D01*
X112554355Y-60350701D01*
X112548267Y-60342439D01*
X112378138Y-60114929D01*
X112357881Y-60092736D01*
X112340280Y-60068391D01*
X112333431Y-60060749D01*
X112142690Y-59850881D01*
X112120460Y-59830771D01*
X112100663Y-59808263D01*
X112093117Y-59801308D01*
X111883248Y-59610567D01*
X111859145Y-59592623D01*
X111837245Y-59572066D01*
X111829070Y-59565862D01*
X111601561Y-59395733D01*
X111575680Y-59380066D01*
X111551745Y-59361581D01*
X111543012Y-59356191D01*
X111299346Y-59208161D01*
X111271802Y-59194918D01*
X111245926Y-59178672D01*
X111236712Y-59174153D01*
X110978376Y-59049706D01*
X110949312Y-59039058D01*
X110921629Y-59025254D01*
X110912017Y-59021659D01*
X110640497Y-58922280D01*
X110610128Y-58914424D01*
X110580823Y-58903281D01*
X110570902Y-58900655D01*
X110287682Y-58827833D01*
X110256317Y-58822966D01*
X110225674Y-58814711D01*
X110215541Y-58813091D01*
X109922106Y-58768307D01*
X109890117Y-58766587D01*
X109858524Y-58761419D01*
X109848279Y-58760829D01*
X109563626Y-58746456D01*
X109545156Y-58744637D01*
X109472946Y-58744637D01*
X109459207Y-58745990D01*
X109258866Y-58753509D01*
X109236618Y-58756537D01*
X109214172Y-58756553D01*
X109203967Y-58757633D01*
X108984843Y-58782374D01*
X108963063Y-58787020D01*
X108940850Y-58788693D01*
X108930754Y-58790529D01*
X108715859Y-58831161D01*
X108694644Y-58837368D01*
X108672798Y-58840650D01*
X108662865Y-58843227D01*
X108452938Y-58899260D01*
X108432407Y-58906955D01*
X108411025Y-58911795D01*
X108401307Y-58915094D01*
X108197083Y-58986035D01*
X108177304Y-58995156D01*
X108156473Y-59001502D01*
X108147023Y-59005502D01*
X107949238Y-59090860D01*
X107930278Y-59101345D01*
X107910071Y-59109148D01*
X107900937Y-59113825D01*
X107710326Y-59213108D01*
X107692239Y-59224905D01*
X107672718Y-59234121D01*
X107663947Y-59239448D01*
X107481247Y-59352163D01*
X107464078Y-59365229D01*
X107445300Y-59375822D01*
X107436937Y-59381770D01*
X107262886Y-59507427D01*
X107246694Y-59521716D01*
X107228709Y-59533659D01*
X107220800Y-59540198D01*
X107056131Y-59678305D01*
X107040969Y-59693781D01*
X107023843Y-59707044D01*
X107016430Y-59714141D01*
X106861880Y-59864207D01*
X106847811Y-59880830D01*
X106831613Y-59895386D01*
X106824739Y-59903005D01*
X106681045Y-60064535D01*
X106668138Y-60082264D01*
X106652952Y-60098075D01*
X106646655Y-60106179D01*
X106514552Y-60278684D01*
X106502892Y-60297457D01*
X106488809Y-60314476D01*
X106483128Y-60323023D01*
X106363353Y-60506009D01*
X106353030Y-60525748D01*
X106340144Y-60543920D01*
X106335115Y-60552866D01*
X106228403Y-60745843D01*
X106219508Y-60766457D01*
X106207932Y-60785684D01*
X106203586Y-60794981D01*
X106110675Y-60997457D01*
X106103335Y-61018713D01*
X106093212Y-61038797D01*
X106089576Y-61048393D01*
X106012103Y-61257263D01*
X106006387Y-61278972D01*
X105997814Y-61299712D01*
X105994906Y-61309554D01*
X105933907Y-61521466D01*
X105929863Y-61543373D01*
X105922908Y-61564536D01*
X105920741Y-61574566D01*
X105876044Y-61788652D01*
X105873660Y-61810624D01*
X105868332Y-61832064D01*
X105866911Y-61842228D01*
X105838343Y-62057617D01*
X105837595Y-62079531D01*
X105833884Y-62101140D01*
X105833214Y-62111380D01*
X105820602Y-62327206D01*
X105821459Y-62348968D01*
X105819351Y-62370640D01*
X100282402Y-62370640D01*
X100282402Y-48705340D01*
X105819351Y-48705340D01*
X105819430Y-48715602D01*
X105822601Y-48930997D01*
X105825032Y-48952524D01*
X105824508Y-48974182D01*
X105825333Y-48984411D01*
X105844115Y-49198506D01*
X105848093Y-49219732D01*
X105849137Y-49241297D01*
X105850702Y-49251440D01*
X105884923Y-49463367D01*
X105890422Y-49484222D01*
X105893023Y-49505626D01*
X105895318Y-49515629D01*
X105944803Y-49724518D01*
X105951807Y-49744944D01*
X105955959Y-49766132D01*
X105958974Y-49775941D01*
X106023552Y-49980928D01*
X106032049Y-50000862D01*
X106037748Y-50021756D01*
X106041468Y-50031320D01*
X106120966Y-50231533D01*
X106130942Y-50250897D01*
X106138191Y-50271431D01*
X106142600Y-50280698D01*
X106236846Y-50475269D01*
X106248283Y-50493973D01*
X106257079Y-50514054D01*
X106262156Y-50522972D01*
X106370975Y-50711034D01*
X106383858Y-50728992D01*
X106394195Y-50748521D01*
X106399917Y-50757040D01*
X106523140Y-50937724D01*
X106537424Y-50954811D01*
X106549279Y-50973668D01*
X106555619Y-50981738D01*
X106693069Y-51154177D01*
X106708715Y-51170289D01*
X106722046Y-51188338D01*
X106728972Y-51195911D01*
X106880480Y-51359235D01*
X106897314Y-51374154D01*
X106911992Y-51391189D01*
X106919466Y-51398221D01*
X107082789Y-51549726D01*
X107100658Y-51563315D01*
X107116540Y-51579173D01*
X107124519Y-51585626D01*
X107296959Y-51723077D01*
X107315650Y-51735195D01*
X107332539Y-51749719D01*
X107340977Y-51755560D01*
X107521661Y-51878781D01*
X107541045Y-51889390D01*
X107558815Y-51902518D01*
X107567661Y-51907720D01*
X107755724Y-52016541D01*
X107775688Y-52025620D01*
X107794227Y-52037315D01*
X107803431Y-52041854D01*
X107998002Y-52136099D01*
X108018440Y-52143637D01*
X108037654Y-52153877D01*
X108047165Y-52157731D01*
X108247378Y-52237229D01*
X108268200Y-52243222D01*
X108288004Y-52251992D01*
X108297770Y-52255144D01*
X108502755Y-52319723D01*
X108523890Y-52324171D01*
X108544207Y-52331457D01*
X108554176Y-52333893D01*
X108763067Y-52383379D01*
X108784440Y-52386279D01*
X108805215Y-52392069D01*
X108815334Y-52393776D01*
X109027260Y-52427996D01*
X109048818Y-52429342D01*
X109069975Y-52433613D01*
X109080191Y-52434582D01*
X109294286Y-52453364D01*
X109315952Y-52453142D01*
X109337436Y-52455873D01*
X109347696Y-52456096D01*
X109563091Y-52459268D01*
X109584796Y-52457462D01*
X109606542Y-52458623D01*
X109616791Y-52458096D01*
X109832618Y-52445484D01*
X109854278Y-52442075D01*
X109876198Y-52441633D01*
X109886381Y-52440355D01*
X110101770Y-52411787D01*
X110123288Y-52406758D01*
X110145286Y-52404681D01*
X110155346Y-52402654D01*
X110369431Y-52357957D01*
X110390690Y-52351298D01*
X110412648Y-52347561D01*
X110422530Y-52344791D01*
X110634443Y-52283792D01*
X110655301Y-52275509D01*
X110677085Y-52270098D01*
X110686731Y-52266597D01*
X110895602Y-52189124D01*
X110915827Y-52179281D01*
X110937190Y-52172237D01*
X110946546Y-52168023D01*
X111149022Y-52075109D01*
X111168410Y-52063802D01*
X111189140Y-52055198D01*
X111198155Y-52050295D01*
X111391132Y-51943583D01*
X111409484Y-51930950D01*
X111429364Y-51920905D01*
X111437989Y-51915345D01*
X111620975Y-51795570D01*
X111638195Y-51781721D01*
X111657123Y-51770328D01*
X111665314Y-51764146D01*
X111837819Y-51632043D01*
X111853845Y-51617075D01*
X111871748Y-51604420D01*
X111879463Y-51597653D01*
X112040993Y-51453959D01*
X112055777Y-51437963D01*
X112072591Y-51424130D01*
X112079791Y-51416818D01*
X112229857Y-51262268D01*
X112243365Y-51245320D01*
X112259043Y-51230383D01*
X112265693Y-51222567D01*
X112403800Y-51057898D01*
X112415995Y-51040079D01*
X112430504Y-51024093D01*
X112436569Y-51015815D01*
X112562227Y-50841762D01*
X112573084Y-50823128D01*
X112586386Y-50806147D01*
X112591836Y-50797451D01*
X112704551Y-50614751D01*
X112714039Y-50595359D01*
X112726087Y-50577440D01*
X112730891Y-50568372D01*
X112830174Y-50377761D01*
X112838258Y-50357666D01*
X112849007Y-50338854D01*
X112853139Y-50329460D01*
X112938497Y-50131675D01*
X112945136Y-50110927D01*
X112954528Y-50091285D01*
X112957964Y-50081615D01*
X113028905Y-49877391D01*
X113034045Y-49856071D01*
X113042023Y-49835656D01*
X113044739Y-49825760D01*
X113100772Y-49615833D01*
X113104360Y-49594027D01*
X113110860Y-49572909D01*
X113112838Y-49562839D01*
X113153470Y-49347944D01*
X113155453Y-49325753D01*
X113160402Y-49304044D01*
X113161625Y-49293855D01*
X113186366Y-49074731D01*
X113186696Y-49052285D01*
X113190033Y-49030088D01*
X113190490Y-49019836D01*
X113198846Y-48797217D01*
X113197206Y-48770018D01*
X113198873Y-48742833D01*
X113198428Y-48732581D01*
X113183170Y-48430417D01*
X113178441Y-48398742D01*
X113177169Y-48366748D01*
X113175692Y-48356593D01*
X113130908Y-48063157D01*
X113123079Y-48032392D01*
X113118652Y-48000972D01*
X113116166Y-47991016D01*
X113043343Y-47707795D01*
X113032606Y-47678327D01*
X113025178Y-47647863D01*
X113021719Y-47638201D01*
X112922340Y-47366680D01*
X112908917Y-47338793D01*
X112898681Y-47309598D01*
X112894292Y-47300321D01*
X112769845Y-47041985D01*
X112753960Y-47015881D01*
X112741105Y-46988160D01*
X112735838Y-46979353D01*
X112587808Y-46735687D01*
X112569655Y-46711491D01*
X112554355Y-46685401D01*
X112548267Y-46677139D01*
X112378138Y-46449629D01*
X112357881Y-46427436D01*
X112340280Y-46403091D01*
X112333431Y-46395449D01*
X112142690Y-46185581D01*
X112120460Y-46165471D01*
X112100663Y-46142963D01*
X112093117Y-46136008D01*
X111883248Y-45945267D01*
X111859145Y-45927323D01*
X111837245Y-45906766D01*
X111829070Y-45900562D01*
X111601561Y-45730433D01*
X111575680Y-45714766D01*
X111551745Y-45696281D01*
X111543012Y-45690891D01*
X111299346Y-45542861D01*
X111271802Y-45529618D01*
X111245926Y-45513372D01*
X111236712Y-45508853D01*
X110978376Y-45384406D01*
X110949312Y-45373758D01*
X110921629Y-45359954D01*
X110912017Y-45356359D01*
X110640497Y-45256980D01*
X110610128Y-45249124D01*
X110580823Y-45237981D01*
X110570902Y-45235355D01*
X110287682Y-45162533D01*
X110256317Y-45157666D01*
X110225674Y-45149411D01*
X110215541Y-45147791D01*
X109922106Y-45103007D01*
X109890117Y-45101287D01*
X109858524Y-45096119D01*
X109848279Y-45095529D01*
X109563626Y-45081156D01*
X109545156Y-45079337D01*
X109472946Y-45079337D01*
X109459207Y-45080690D01*
X109258866Y-45088209D01*
X109236618Y-45091237D01*
X109214172Y-45091253D01*
X109203967Y-45092333D01*
X108984843Y-45117074D01*
X108963063Y-45121720D01*
X108940850Y-45123393D01*
X108930754Y-45125229D01*
X108715859Y-45165861D01*
X108694644Y-45172068D01*
X108672798Y-45175350D01*
X108662865Y-45177927D01*
X108452938Y-45233960D01*
X108432407Y-45241655D01*
X108411025Y-45246495D01*
X108401307Y-45249794D01*
X108197083Y-45320735D01*
X108177304Y-45329856D01*
X108156473Y-45336202D01*
X108147023Y-45340202D01*
X107949238Y-45425560D01*
X107930278Y-45436045D01*
X107910071Y-45443848D01*
X107900937Y-45448525D01*
X107710326Y-45547808D01*
X107692239Y-45559605D01*
X107672718Y-45568821D01*
X107663947Y-45574148D01*
X107481247Y-45686863D01*
X107464078Y-45699929D01*
X107445300Y-45710522D01*
X107436937Y-45716470D01*
X107262886Y-45842127D01*
X107246694Y-45856416D01*
X107228709Y-45868359D01*
X107220800Y-45874898D01*
X107056131Y-46013005D01*
X107040969Y-46028481D01*
X107023843Y-46041744D01*
X107016430Y-46048841D01*
X106861880Y-46198907D01*
X106847811Y-46215530D01*
X106831613Y-46230086D01*
X106824739Y-46237705D01*
X106681045Y-46399235D01*
X106668138Y-46416964D01*
X106652952Y-46432775D01*
X106646655Y-46440879D01*
X106514552Y-46613384D01*
X106502892Y-46632157D01*
X106488809Y-46649176D01*
X106483128Y-46657723D01*
X106363353Y-46840709D01*
X106353030Y-46860448D01*
X106340144Y-46878620D01*
X106335115Y-46887566D01*
X106228403Y-47080543D01*
X106219508Y-47101157D01*
X106207932Y-47120384D01*
X106203586Y-47129681D01*
X106110675Y-47332157D01*
X106103335Y-47353413D01*
X106093212Y-47373497D01*
X106089576Y-47383093D01*
X106012103Y-47591963D01*
X106006387Y-47613672D01*
X105997814Y-47634412D01*
X105994906Y-47644254D01*
X105933907Y-47856166D01*
X105929863Y-47878073D01*
X105922908Y-47899236D01*
X105920741Y-47909266D01*
X105876044Y-48123352D01*
X105873660Y-48145324D01*
X105868332Y-48166764D01*
X105866911Y-48176928D01*
X105838343Y-48392317D01*
X105837595Y-48414231D01*
X105833884Y-48435840D01*
X105833214Y-48446080D01*
X105820602Y-48661906D01*
X105821459Y-48683668D01*
X105819351Y-48705340D01*
X100282402Y-48705340D01*
X100282402Y-33706994D01*
X118735698Y-33706994D01*
X118735699Y-160660284D01*
%TD*%
M02*
