%TF.GenerationSoftware,KiCad,Pcbnew,(5.1.6-0)*%
%TF.CreationDate,2020-10-27T20:15:33-07:00*%
%TF.ProjectId,panel_board,70616e65-6c5f-4626-9f61-72642e6b6963,rev?*%
%TF.SameCoordinates,Original*%
%TF.FileFunction,Legend,Top*%
%TF.FilePolarity,Positive*%
%FSLAX46Y46*%
G04 Gerber Fmt 4.6, Leading zero omitted, Abs format (unit mm)*
G04 Created by KiCad (PCBNEW (5.1.6-0)) date 2020-10-27 20:15:33*
%MOMM*%
%LPD*%
G01*
G04 APERTURE LIST*
%ADD10C,0.010000*%
G04 APERTURE END LIST*
D10*
%TO.C,G\u002A\u002A\u002A*%
G36*
X118134644Y-34788028D02*
G01*
X117549860Y-34788028D01*
X117549860Y-37813654D01*
X117041351Y-37813654D01*
X117041351Y-34789694D01*
X116469279Y-34775316D01*
X116461969Y-34540131D01*
X116454658Y-34304945D01*
X118134644Y-34304945D01*
X118134644Y-34788028D01*
G37*
X118134644Y-34788028D02*
X117549860Y-34788028D01*
X117549860Y-37813654D01*
X117041351Y-37813654D01*
X117041351Y-34789694D01*
X116469279Y-34775316D01*
X116461969Y-34540131D01*
X116454658Y-34304945D01*
X118134644Y-34304945D01*
X118134644Y-34788028D01*
G36*
X115770080Y-37330571D02*
G01*
X116761671Y-37330571D01*
X116761671Y-37813654D01*
X115261571Y-37813654D01*
X115261571Y-34304945D01*
X115770080Y-34304945D01*
X115770080Y-37330571D01*
G37*
X115770080Y-37330571D02*
X116761671Y-37330571D01*
X116761671Y-37813654D01*
X115261571Y-37813654D01*
X115261571Y-34304945D01*
X115770080Y-34304945D01*
X115770080Y-37330571D01*
G36*
X110933626Y-34438429D02*
G01*
X110953792Y-34494878D01*
X110988107Y-34592497D01*
X111034165Y-34724376D01*
X111089560Y-34883605D01*
X111151887Y-35063273D01*
X111218739Y-35256471D01*
X111257446Y-35368547D01*
X111328997Y-35573352D01*
X111393341Y-35752565D01*
X111448880Y-35902032D01*
X111494018Y-36017600D01*
X111527159Y-36095117D01*
X111546706Y-36130430D01*
X111550719Y-36131310D01*
X111563016Y-36100087D01*
X111589782Y-36026458D01*
X111629011Y-35916126D01*
X111678697Y-35774793D01*
X111736833Y-35608162D01*
X111801416Y-35421935D01*
X111862224Y-35245686D01*
X111930892Y-35046365D01*
X111994834Y-34861107D01*
X112052041Y-34695704D01*
X112100506Y-34555948D01*
X112138220Y-34447631D01*
X112163175Y-34376545D01*
X112172966Y-34349440D01*
X112188225Y-34328247D01*
X112220302Y-34314949D01*
X112279107Y-34307824D01*
X112374551Y-34305153D01*
X112429357Y-34304945D01*
X112668178Y-34304945D01*
X112668178Y-37813654D01*
X112159669Y-37813654D01*
X112155657Y-35716056D01*
X111907644Y-36453394D01*
X111659631Y-37190731D01*
X111411949Y-37190731D01*
X111163929Y-36440681D01*
X110915908Y-35690631D01*
X110914866Y-36752143D01*
X110913824Y-37813654D01*
X110405315Y-37813654D01*
X110405315Y-34304945D01*
X110884745Y-34304945D01*
X110933626Y-34438429D01*
G37*
X110933626Y-34438429D02*
X110953792Y-34494878D01*
X110988107Y-34592497D01*
X111034165Y-34724376D01*
X111089560Y-34883605D01*
X111151887Y-35063273D01*
X111218739Y-35256471D01*
X111257446Y-35368547D01*
X111328997Y-35573352D01*
X111393341Y-35752565D01*
X111448880Y-35902032D01*
X111494018Y-36017600D01*
X111527159Y-36095117D01*
X111546706Y-36130430D01*
X111550719Y-36131310D01*
X111563016Y-36100087D01*
X111589782Y-36026458D01*
X111629011Y-35916126D01*
X111678697Y-35774793D01*
X111736833Y-35608162D01*
X111801416Y-35421935D01*
X111862224Y-35245686D01*
X111930892Y-35046365D01*
X111994834Y-34861107D01*
X112052041Y-34695704D01*
X112100506Y-34555948D01*
X112138220Y-34447631D01*
X112163175Y-34376545D01*
X112172966Y-34349440D01*
X112188225Y-34328247D01*
X112220302Y-34314949D01*
X112279107Y-34307824D01*
X112374551Y-34305153D01*
X112429357Y-34304945D01*
X112668178Y-34304945D01*
X112668178Y-37813654D01*
X112159669Y-37813654D01*
X112155657Y-35716056D01*
X111907644Y-36453394D01*
X111659631Y-37190731D01*
X111411949Y-37190731D01*
X111163929Y-36440681D01*
X110915908Y-35690631D01*
X110914866Y-36752143D01*
X110913824Y-37813654D01*
X110405315Y-37813654D01*
X110405315Y-34304945D01*
X110884745Y-34304945D01*
X110933626Y-34438429D01*
G36*
X113660144Y-35709700D02*
G01*
X113660515Y-36033868D01*
X113661485Y-36310325D01*
X113663124Y-36542207D01*
X113665498Y-36732652D01*
X113668677Y-36884795D01*
X113672727Y-37001774D01*
X113677718Y-37086726D01*
X113683717Y-37142787D01*
X113690792Y-37173095D01*
X113691926Y-37175567D01*
X113762988Y-37265786D01*
X113857953Y-37321574D01*
X113964798Y-37342293D01*
X114071504Y-37327310D01*
X114166048Y-37275988D01*
X114227537Y-37203885D01*
X114236737Y-37184529D01*
X114244518Y-37157423D01*
X114250997Y-37118476D01*
X114256290Y-37063599D01*
X114260513Y-36988703D01*
X114263785Y-36889699D01*
X114266221Y-36762496D01*
X114267938Y-36603007D01*
X114269055Y-36407140D01*
X114269686Y-36170807D01*
X114269949Y-35889919D01*
X114269980Y-35718490D01*
X114269980Y-34304945D01*
X114780056Y-34304945D01*
X114772916Y-35785976D01*
X114765775Y-37267007D01*
X114698131Y-37395155D01*
X114621782Y-37510132D01*
X114520544Y-37622142D01*
X114409369Y-37716671D01*
X114303208Y-37779203D01*
X114301997Y-37779712D01*
X114129352Y-37828872D01*
X113940782Y-37843395D01*
X113846921Y-37836599D01*
X113669302Y-37789065D01*
X113504543Y-37696717D01*
X113360167Y-37565312D01*
X113243698Y-37400607D01*
X113221302Y-37357918D01*
X113209199Y-37332664D01*
X113198911Y-37307158D01*
X113190267Y-37277230D01*
X113183098Y-37238708D01*
X113177234Y-37187423D01*
X113172504Y-37119204D01*
X113168739Y-37029880D01*
X113165767Y-36915282D01*
X113163419Y-36771239D01*
X113161524Y-36593580D01*
X113159914Y-36378135D01*
X113158416Y-36120734D01*
X113156862Y-35817206D01*
X113156642Y-35773264D01*
X113149311Y-34304945D01*
X113659769Y-34304945D01*
X113660144Y-35709700D01*
G37*
X113660144Y-35709700D02*
X113660515Y-36033868D01*
X113661485Y-36310325D01*
X113663124Y-36542207D01*
X113665498Y-36732652D01*
X113668677Y-36884795D01*
X113672727Y-37001774D01*
X113677718Y-37086726D01*
X113683717Y-37142787D01*
X113690792Y-37173095D01*
X113691926Y-37175567D01*
X113762988Y-37265786D01*
X113857953Y-37321574D01*
X113964798Y-37342293D01*
X114071504Y-37327310D01*
X114166048Y-37275988D01*
X114227537Y-37203885D01*
X114236737Y-37184529D01*
X114244518Y-37157423D01*
X114250997Y-37118476D01*
X114256290Y-37063599D01*
X114260513Y-36988703D01*
X114263785Y-36889699D01*
X114266221Y-36762496D01*
X114267938Y-36603007D01*
X114269055Y-36407140D01*
X114269686Y-36170807D01*
X114269949Y-35889919D01*
X114269980Y-35718490D01*
X114269980Y-34304945D01*
X114780056Y-34304945D01*
X114772916Y-35785976D01*
X114765775Y-37267007D01*
X114698131Y-37395155D01*
X114621782Y-37510132D01*
X114520544Y-37622142D01*
X114409369Y-37716671D01*
X114303208Y-37779203D01*
X114301997Y-37779712D01*
X114129352Y-37828872D01*
X113940782Y-37843395D01*
X113846921Y-37836599D01*
X113669302Y-37789065D01*
X113504543Y-37696717D01*
X113360167Y-37565312D01*
X113243698Y-37400607D01*
X113221302Y-37357918D01*
X113209199Y-37332664D01*
X113198911Y-37307158D01*
X113190267Y-37277230D01*
X113183098Y-37238708D01*
X113177234Y-37187423D01*
X113172504Y-37119204D01*
X113168739Y-37029880D01*
X113165767Y-36915282D01*
X113163419Y-36771239D01*
X113161524Y-36593580D01*
X113159914Y-36378135D01*
X113158416Y-36120734D01*
X113156862Y-35817206D01*
X113156642Y-35773264D01*
X113149311Y-34304945D01*
X113659769Y-34304945D01*
X113660144Y-35709700D01*
G36*
X109948962Y-44259027D02*
G01*
X110347243Y-44259139D01*
X110700440Y-44259381D01*
X111011435Y-44259800D01*
X111283111Y-44260440D01*
X111518350Y-44261347D01*
X111720037Y-44262567D01*
X111891054Y-44264145D01*
X112034284Y-44266127D01*
X112152609Y-44268558D01*
X112248913Y-44271484D01*
X112326080Y-44274950D01*
X112386991Y-44279002D01*
X112434529Y-44283686D01*
X112471579Y-44289047D01*
X112501022Y-44295131D01*
X112525742Y-44301983D01*
X112541051Y-44307010D01*
X112648607Y-44347846D01*
X112761617Y-44396557D01*
X112807862Y-44418638D01*
X112928417Y-44495954D01*
X113056691Y-44606316D01*
X113179781Y-44736288D01*
X113284782Y-44872435D01*
X113350487Y-44983624D01*
X113367912Y-45018230D01*
X113383992Y-45049298D01*
X113398779Y-45078891D01*
X113412330Y-45109073D01*
X113424697Y-45141904D01*
X113435934Y-45179449D01*
X113446096Y-45223770D01*
X113455237Y-45276930D01*
X113463410Y-45340990D01*
X113470671Y-45418015D01*
X113477072Y-45510066D01*
X113482668Y-45619207D01*
X113487514Y-45747500D01*
X113491662Y-45897007D01*
X113495167Y-46069792D01*
X113498084Y-46267917D01*
X113500466Y-46493444D01*
X113502367Y-46748437D01*
X113503841Y-47034958D01*
X113504943Y-47355070D01*
X113505726Y-47710835D01*
X113506244Y-48104317D01*
X113506552Y-48537577D01*
X113506704Y-49012679D01*
X113506753Y-49531685D01*
X113506754Y-50096658D01*
X113506761Y-50709661D01*
X113506775Y-50947573D01*
X113506726Y-51652183D01*
X113506456Y-52306570D01*
X113505963Y-52911361D01*
X113505244Y-53467185D01*
X113504297Y-53974669D01*
X113503117Y-54434440D01*
X113501702Y-54847125D01*
X113500050Y-55213354D01*
X113498156Y-55533752D01*
X113496018Y-55808948D01*
X113493634Y-56039569D01*
X113490999Y-56226242D01*
X113488111Y-56369596D01*
X113484968Y-56470257D01*
X113481565Y-56528854D01*
X113480041Y-56541167D01*
X113412468Y-56777032D01*
X113300319Y-56998306D01*
X113149248Y-57198313D01*
X112964911Y-57370374D01*
X112752962Y-57507814D01*
X112604614Y-57574835D01*
X112452062Y-57632773D01*
X109566276Y-57635980D01*
X109186329Y-57636307D01*
X108819902Y-57636436D01*
X108470285Y-57636376D01*
X108140767Y-57636136D01*
X107834637Y-57635723D01*
X107555186Y-57635148D01*
X107305702Y-57634417D01*
X107089476Y-57633541D01*
X106909798Y-57632528D01*
X106769956Y-57631385D01*
X106673240Y-57630123D01*
X106622941Y-57628749D01*
X106616927Y-57628246D01*
X106493111Y-57597810D01*
X106354704Y-57549811D01*
X106224236Y-57492919D01*
X106133844Y-57442356D01*
X105942551Y-57288431D01*
X105778052Y-57101614D01*
X105647074Y-56891868D01*
X105556344Y-56669157D01*
X105525384Y-56541167D01*
X105521872Y-56500213D01*
X105518616Y-56417361D01*
X105515614Y-56291992D01*
X105512861Y-56123484D01*
X105510356Y-55911218D01*
X105508094Y-55654573D01*
X105506074Y-55352930D01*
X105504292Y-55005667D01*
X105502744Y-54612165D01*
X105501429Y-54171803D01*
X105500842Y-53907948D01*
X107659369Y-53907948D01*
X107659369Y-55149557D01*
X107659727Y-55396152D01*
X107660753Y-55627185D01*
X107662376Y-55837688D01*
X107664526Y-56022698D01*
X107667132Y-56177247D01*
X107670122Y-56296372D01*
X107673426Y-56375104D01*
X107676972Y-56408480D01*
X107677361Y-56409157D01*
X107710283Y-56417329D01*
X107778691Y-56421065D01*
X107861695Y-56419750D01*
X108028038Y-56412353D01*
X108034634Y-55160151D01*
X108041230Y-53907948D01*
X108371281Y-53907948D01*
X108371281Y-56425065D01*
X108727237Y-56425065D01*
X108729259Y-54912253D01*
X109003963Y-55662303D01*
X109278666Y-56412353D01*
X109447897Y-56419871D01*
X109617127Y-56427389D01*
X109617127Y-54173599D01*
X110608718Y-54173599D01*
X110608718Y-54360092D01*
X110608882Y-54452071D01*
X110614640Y-54505407D01*
X110633896Y-54522213D01*
X110674554Y-54504603D01*
X110744516Y-54454689D01*
X110801719Y-54411708D01*
X110871267Y-54361446D01*
X110924424Y-54326404D01*
X110947916Y-54314755D01*
X110951534Y-54339293D01*
X110954885Y-54409354D01*
X110957881Y-54519611D01*
X110960437Y-54664739D01*
X110962466Y-54839409D01*
X110963883Y-55038296D01*
X110964601Y-55256071D01*
X110964674Y-55352960D01*
X110965101Y-55577991D01*
X110966320Y-55787111D01*
X110968237Y-55974872D01*
X110970761Y-56135821D01*
X110973798Y-56264508D01*
X110977255Y-56355483D01*
X110981040Y-56403294D01*
X110982666Y-56409157D01*
X111015588Y-56417329D01*
X111083996Y-56421065D01*
X111167000Y-56419750D01*
X111333343Y-56412353D01*
X111339939Y-55160151D01*
X111346535Y-53907948D01*
X111155119Y-53907948D01*
X111061980Y-53908960D01*
X110996171Y-53915972D01*
X110941126Y-53934948D01*
X110880281Y-53971852D01*
X110797069Y-54032649D01*
X110786210Y-54040773D01*
X110608718Y-54173599D01*
X109617127Y-54173599D01*
X109617127Y-53907948D01*
X109261928Y-53907948D01*
X109248458Y-55409446D01*
X108714524Y-53908804D01*
X108542903Y-53908376D01*
X108371281Y-53907948D01*
X108041230Y-53907948D01*
X107659369Y-53907948D01*
X105500842Y-53907948D01*
X105500343Y-53683962D01*
X105499483Y-53148020D01*
X105498845Y-52563358D01*
X105498428Y-51929356D01*
X105498228Y-51245393D01*
X105498208Y-50932571D01*
X105498216Y-50312092D01*
X105498251Y-49740386D01*
X105498333Y-49215377D01*
X105498429Y-48899140D01*
X106659286Y-48899140D01*
X106660011Y-49068346D01*
X106662944Y-49198621D01*
X106669219Y-49301876D01*
X106679971Y-49390020D01*
X106696335Y-49474961D01*
X106719445Y-49568610D01*
X106725112Y-49589937D01*
X106848303Y-49957322D01*
X107013344Y-50299749D01*
X107217693Y-50614005D01*
X107458812Y-50896873D01*
X107734159Y-51145139D01*
X108041194Y-51355588D01*
X108181518Y-51433234D01*
X108522422Y-51585316D01*
X108865463Y-51689239D01*
X109216095Y-51745862D01*
X109579776Y-51756041D01*
X109961962Y-51720637D01*
X109985795Y-51717052D01*
X110336099Y-51638099D01*
X110670593Y-51513091D01*
X110985721Y-51345327D01*
X111277923Y-51138105D01*
X111543643Y-50894722D01*
X111779323Y-50618477D01*
X111981404Y-50312668D01*
X112146330Y-49980594D01*
X112270542Y-49625552D01*
X112280313Y-49589937D01*
X112304945Y-49493036D01*
X112322598Y-49407282D01*
X112334406Y-49320763D01*
X112341506Y-49221572D01*
X112345030Y-49097798D01*
X112346115Y-48937532D01*
X112346139Y-48899140D01*
X112345414Y-48729934D01*
X112342481Y-48599658D01*
X112336206Y-48496403D01*
X112325454Y-48408259D01*
X112309090Y-48323318D01*
X112285980Y-48229669D01*
X112280313Y-48208342D01*
X112156875Y-47839851D01*
X111991772Y-47496865D01*
X111787409Y-47182434D01*
X111546192Y-46899611D01*
X111270524Y-46651448D01*
X110962811Y-46440997D01*
X110829390Y-46367071D01*
X110507905Y-46221325D01*
X110187928Y-46120935D01*
X109857098Y-46062892D01*
X109503059Y-46044191D01*
X109502712Y-46044191D01*
X109122655Y-46068492D01*
X108757732Y-46139800D01*
X108411013Y-46255725D01*
X108085565Y-46413876D01*
X107784458Y-46611860D01*
X107510761Y-46847289D01*
X107267542Y-47117769D01*
X107057871Y-47420910D01*
X106884817Y-47754321D01*
X106751448Y-48115611D01*
X106725112Y-48208342D01*
X106700480Y-48305243D01*
X106682827Y-48390997D01*
X106671018Y-48477516D01*
X106663919Y-48576707D01*
X106660395Y-48700481D01*
X106659310Y-48860747D01*
X106659286Y-48899140D01*
X105498429Y-48899140D01*
X105498479Y-48734988D01*
X105498708Y-48297142D01*
X105499039Y-47899761D01*
X105499490Y-47540768D01*
X105500080Y-47218086D01*
X105500826Y-46929639D01*
X105501748Y-46673349D01*
X105502865Y-46447140D01*
X105504193Y-46248933D01*
X105505753Y-46076652D01*
X105507562Y-45928220D01*
X105509638Y-45801560D01*
X105512002Y-45694595D01*
X105514669Y-45605247D01*
X105517661Y-45531440D01*
X105520994Y-45471096D01*
X105524687Y-45422139D01*
X105528759Y-45382492D01*
X105533229Y-45350076D01*
X105538113Y-45322816D01*
X105543433Y-45298634D01*
X105548503Y-45278189D01*
X105637758Y-45025532D01*
X105767548Y-44802797D01*
X105935625Y-44612422D01*
X106139742Y-44456845D01*
X106377650Y-44338504D01*
X106434107Y-44317776D01*
X106604214Y-44258999D01*
X109502712Y-44258999D01*
X109948962Y-44259027D01*
G37*
X109948962Y-44259027D02*
X110347243Y-44259139D01*
X110700440Y-44259381D01*
X111011435Y-44259800D01*
X111283111Y-44260440D01*
X111518350Y-44261347D01*
X111720037Y-44262567D01*
X111891054Y-44264145D01*
X112034284Y-44266127D01*
X112152609Y-44268558D01*
X112248913Y-44271484D01*
X112326080Y-44274950D01*
X112386991Y-44279002D01*
X112434529Y-44283686D01*
X112471579Y-44289047D01*
X112501022Y-44295131D01*
X112525742Y-44301983D01*
X112541051Y-44307010D01*
X112648607Y-44347846D01*
X112761617Y-44396557D01*
X112807862Y-44418638D01*
X112928417Y-44495954D01*
X113056691Y-44606316D01*
X113179781Y-44736288D01*
X113284782Y-44872435D01*
X113350487Y-44983624D01*
X113367912Y-45018230D01*
X113383992Y-45049298D01*
X113398779Y-45078891D01*
X113412330Y-45109073D01*
X113424697Y-45141904D01*
X113435934Y-45179449D01*
X113446096Y-45223770D01*
X113455237Y-45276930D01*
X113463410Y-45340990D01*
X113470671Y-45418015D01*
X113477072Y-45510066D01*
X113482668Y-45619207D01*
X113487514Y-45747500D01*
X113491662Y-45897007D01*
X113495167Y-46069792D01*
X113498084Y-46267917D01*
X113500466Y-46493444D01*
X113502367Y-46748437D01*
X113503841Y-47034958D01*
X113504943Y-47355070D01*
X113505726Y-47710835D01*
X113506244Y-48104317D01*
X113506552Y-48537577D01*
X113506704Y-49012679D01*
X113506753Y-49531685D01*
X113506754Y-50096658D01*
X113506761Y-50709661D01*
X113506775Y-50947573D01*
X113506726Y-51652183D01*
X113506456Y-52306570D01*
X113505963Y-52911361D01*
X113505244Y-53467185D01*
X113504297Y-53974669D01*
X113503117Y-54434440D01*
X113501702Y-54847125D01*
X113500050Y-55213354D01*
X113498156Y-55533752D01*
X113496018Y-55808948D01*
X113493634Y-56039569D01*
X113490999Y-56226242D01*
X113488111Y-56369596D01*
X113484968Y-56470257D01*
X113481565Y-56528854D01*
X113480041Y-56541167D01*
X113412468Y-56777032D01*
X113300319Y-56998306D01*
X113149248Y-57198313D01*
X112964911Y-57370374D01*
X112752962Y-57507814D01*
X112604614Y-57574835D01*
X112452062Y-57632773D01*
X109566276Y-57635980D01*
X109186329Y-57636307D01*
X108819902Y-57636436D01*
X108470285Y-57636376D01*
X108140767Y-57636136D01*
X107834637Y-57635723D01*
X107555186Y-57635148D01*
X107305702Y-57634417D01*
X107089476Y-57633541D01*
X106909798Y-57632528D01*
X106769956Y-57631385D01*
X106673240Y-57630123D01*
X106622941Y-57628749D01*
X106616927Y-57628246D01*
X106493111Y-57597810D01*
X106354704Y-57549811D01*
X106224236Y-57492919D01*
X106133844Y-57442356D01*
X105942551Y-57288431D01*
X105778052Y-57101614D01*
X105647074Y-56891868D01*
X105556344Y-56669157D01*
X105525384Y-56541167D01*
X105521872Y-56500213D01*
X105518616Y-56417361D01*
X105515614Y-56291992D01*
X105512861Y-56123484D01*
X105510356Y-55911218D01*
X105508094Y-55654573D01*
X105506074Y-55352930D01*
X105504292Y-55005667D01*
X105502744Y-54612165D01*
X105501429Y-54171803D01*
X105500842Y-53907948D01*
X107659369Y-53907948D01*
X107659369Y-55149557D01*
X107659727Y-55396152D01*
X107660753Y-55627185D01*
X107662376Y-55837688D01*
X107664526Y-56022698D01*
X107667132Y-56177247D01*
X107670122Y-56296372D01*
X107673426Y-56375104D01*
X107676972Y-56408480D01*
X107677361Y-56409157D01*
X107710283Y-56417329D01*
X107778691Y-56421065D01*
X107861695Y-56419750D01*
X108028038Y-56412353D01*
X108034634Y-55160151D01*
X108041230Y-53907948D01*
X108371281Y-53907948D01*
X108371281Y-56425065D01*
X108727237Y-56425065D01*
X108729259Y-54912253D01*
X109003963Y-55662303D01*
X109278666Y-56412353D01*
X109447897Y-56419871D01*
X109617127Y-56427389D01*
X109617127Y-54173599D01*
X110608718Y-54173599D01*
X110608718Y-54360092D01*
X110608882Y-54452071D01*
X110614640Y-54505407D01*
X110633896Y-54522213D01*
X110674554Y-54504603D01*
X110744516Y-54454689D01*
X110801719Y-54411708D01*
X110871267Y-54361446D01*
X110924424Y-54326404D01*
X110947916Y-54314755D01*
X110951534Y-54339293D01*
X110954885Y-54409354D01*
X110957881Y-54519611D01*
X110960437Y-54664739D01*
X110962466Y-54839409D01*
X110963883Y-55038296D01*
X110964601Y-55256071D01*
X110964674Y-55352960D01*
X110965101Y-55577991D01*
X110966320Y-55787111D01*
X110968237Y-55974872D01*
X110970761Y-56135821D01*
X110973798Y-56264508D01*
X110977255Y-56355483D01*
X110981040Y-56403294D01*
X110982666Y-56409157D01*
X111015588Y-56417329D01*
X111083996Y-56421065D01*
X111167000Y-56419750D01*
X111333343Y-56412353D01*
X111339939Y-55160151D01*
X111346535Y-53907948D01*
X111155119Y-53907948D01*
X111061980Y-53908960D01*
X110996171Y-53915972D01*
X110941126Y-53934948D01*
X110880281Y-53971852D01*
X110797069Y-54032649D01*
X110786210Y-54040773D01*
X110608718Y-54173599D01*
X109617127Y-54173599D01*
X109617127Y-53907948D01*
X109261928Y-53907948D01*
X109248458Y-55409446D01*
X108714524Y-53908804D01*
X108542903Y-53908376D01*
X108371281Y-53907948D01*
X108041230Y-53907948D01*
X107659369Y-53907948D01*
X105500842Y-53907948D01*
X105500343Y-53683962D01*
X105499483Y-53148020D01*
X105498845Y-52563358D01*
X105498428Y-51929356D01*
X105498228Y-51245393D01*
X105498208Y-50932571D01*
X105498216Y-50312092D01*
X105498251Y-49740386D01*
X105498333Y-49215377D01*
X105498429Y-48899140D01*
X106659286Y-48899140D01*
X106660011Y-49068346D01*
X106662944Y-49198621D01*
X106669219Y-49301876D01*
X106679971Y-49390020D01*
X106696335Y-49474961D01*
X106719445Y-49568610D01*
X106725112Y-49589937D01*
X106848303Y-49957322D01*
X107013344Y-50299749D01*
X107217693Y-50614005D01*
X107458812Y-50896873D01*
X107734159Y-51145139D01*
X108041194Y-51355588D01*
X108181518Y-51433234D01*
X108522422Y-51585316D01*
X108865463Y-51689239D01*
X109216095Y-51745862D01*
X109579776Y-51756041D01*
X109961962Y-51720637D01*
X109985795Y-51717052D01*
X110336099Y-51638099D01*
X110670593Y-51513091D01*
X110985721Y-51345327D01*
X111277923Y-51138105D01*
X111543643Y-50894722D01*
X111779323Y-50618477D01*
X111981404Y-50312668D01*
X112146330Y-49980594D01*
X112270542Y-49625552D01*
X112280313Y-49589937D01*
X112304945Y-49493036D01*
X112322598Y-49407282D01*
X112334406Y-49320763D01*
X112341506Y-49221572D01*
X112345030Y-49097798D01*
X112346115Y-48937532D01*
X112346139Y-48899140D01*
X112345414Y-48729934D01*
X112342481Y-48599658D01*
X112336206Y-48496403D01*
X112325454Y-48408259D01*
X112309090Y-48323318D01*
X112285980Y-48229669D01*
X112280313Y-48208342D01*
X112156875Y-47839851D01*
X111991772Y-47496865D01*
X111787409Y-47182434D01*
X111546192Y-46899611D01*
X111270524Y-46651448D01*
X110962811Y-46440997D01*
X110829390Y-46367071D01*
X110507905Y-46221325D01*
X110187928Y-46120935D01*
X109857098Y-46062892D01*
X109503059Y-46044191D01*
X109502712Y-46044191D01*
X109122655Y-46068492D01*
X108757732Y-46139800D01*
X108411013Y-46255725D01*
X108085565Y-46413876D01*
X107784458Y-46611860D01*
X107510761Y-46847289D01*
X107267542Y-47117769D01*
X107057871Y-47420910D01*
X106884817Y-47754321D01*
X106751448Y-48115611D01*
X106725112Y-48208342D01*
X106700480Y-48305243D01*
X106682827Y-48390997D01*
X106671018Y-48477516D01*
X106663919Y-48576707D01*
X106660395Y-48700481D01*
X106659310Y-48860747D01*
X106659286Y-48899140D01*
X105498429Y-48899140D01*
X105498479Y-48734988D01*
X105498708Y-48297142D01*
X105499039Y-47899761D01*
X105499490Y-47540768D01*
X105500080Y-47218086D01*
X105500826Y-46929639D01*
X105501748Y-46673349D01*
X105502865Y-46447140D01*
X105504193Y-46248933D01*
X105505753Y-46076652D01*
X105507562Y-45928220D01*
X105509638Y-45801560D01*
X105512002Y-45694595D01*
X105514669Y-45605247D01*
X105517661Y-45531440D01*
X105520994Y-45471096D01*
X105524687Y-45422139D01*
X105528759Y-45382492D01*
X105533229Y-45350076D01*
X105538113Y-45322816D01*
X105543433Y-45298634D01*
X105548503Y-45278189D01*
X105637758Y-45025532D01*
X105767548Y-44802797D01*
X105935625Y-44612422D01*
X106139742Y-44456845D01*
X106377650Y-44338504D01*
X106434107Y-44317776D01*
X106604214Y-44258999D01*
X109502712Y-44258999D01*
X109948962Y-44259027D01*
G36*
X109949131Y-98656718D02*
G01*
X110347603Y-98656812D01*
X110701033Y-98657027D01*
X111012325Y-98657410D01*
X111284382Y-98658010D01*
X111520109Y-98658874D01*
X111722410Y-98660051D01*
X111894190Y-98661587D01*
X112038352Y-98663531D01*
X112157801Y-98665929D01*
X112255441Y-98668831D01*
X112334176Y-98672284D01*
X112396910Y-98676336D01*
X112446547Y-98681033D01*
X112485992Y-98686425D01*
X112518149Y-98692559D01*
X112545921Y-98699482D01*
X112571988Y-98707173D01*
X112799980Y-98803453D01*
X113004097Y-98941452D01*
X113179482Y-99115727D01*
X113321275Y-99320838D01*
X113424621Y-99551342D01*
X113468801Y-99711852D01*
X113473399Y-99759223D01*
X113477734Y-99854561D01*
X113481806Y-99994990D01*
X113485613Y-100177634D01*
X113489157Y-100399615D01*
X113492436Y-100658060D01*
X113495450Y-100950090D01*
X113498200Y-101272831D01*
X113500684Y-101623405D01*
X113502904Y-101998937D01*
X113504857Y-102396551D01*
X113506545Y-102813371D01*
X113507967Y-103246519D01*
X113509123Y-103693122D01*
X113510012Y-104150301D01*
X113510634Y-104615181D01*
X113510989Y-105084886D01*
X113511077Y-105556539D01*
X113510897Y-106027266D01*
X113510450Y-106494188D01*
X113509735Y-106954431D01*
X113508751Y-107405118D01*
X113507499Y-107843373D01*
X113505978Y-108266320D01*
X113504188Y-108671082D01*
X113502129Y-109054784D01*
X113499801Y-109414550D01*
X113497202Y-109747503D01*
X113494334Y-110050767D01*
X113491196Y-110321466D01*
X113487787Y-110556724D01*
X113484107Y-110753664D01*
X113480156Y-110909411D01*
X113475935Y-111021089D01*
X113471442Y-111085821D01*
X113469769Y-111097024D01*
X113393405Y-111341417D01*
X113275074Y-111563832D01*
X113119685Y-111759020D01*
X112932146Y-111921733D01*
X112717368Y-112046723D01*
X112512284Y-112120664D01*
X112465242Y-112126374D01*
X112371433Y-112131620D01*
X112234854Y-112136402D01*
X112059504Y-112140720D01*
X111849383Y-112144572D01*
X111608488Y-112147960D01*
X111340818Y-112150882D01*
X111050373Y-112153338D01*
X110741150Y-112155328D01*
X110417149Y-112156852D01*
X110082368Y-112157909D01*
X109740807Y-112158499D01*
X109396462Y-112158622D01*
X109053334Y-112158278D01*
X108715422Y-112157465D01*
X108386723Y-112156184D01*
X108071236Y-112154435D01*
X107772961Y-112152217D01*
X107495896Y-112149530D01*
X107244039Y-112146373D01*
X107021390Y-112142746D01*
X106831947Y-112138650D01*
X106679709Y-112134083D01*
X106568674Y-112129045D01*
X106502841Y-112123537D01*
X106489799Y-112121130D01*
X106253507Y-112029610D01*
X106040872Y-111896138D01*
X105856873Y-111726061D01*
X105706492Y-111524724D01*
X105594709Y-111297471D01*
X105535656Y-111097024D01*
X105531065Y-111049774D01*
X105526747Y-110954551D01*
X105522699Y-110814229D01*
X105518923Y-110631686D01*
X105515417Y-110409798D01*
X105512182Y-110151440D01*
X105509217Y-109859488D01*
X105506522Y-109536820D01*
X105504097Y-109186310D01*
X105501942Y-108810836D01*
X105500451Y-108496337D01*
X107532242Y-108496337D01*
X107532242Y-111013454D01*
X107888198Y-111013454D01*
X107888198Y-108496337D01*
X108218728Y-108496337D01*
X108218728Y-111013454D01*
X108573928Y-111013454D01*
X108580662Y-110257047D01*
X108587397Y-109500641D01*
X108851391Y-110225266D01*
X108917871Y-110407702D01*
X108979001Y-110575379D01*
X109032538Y-110722146D01*
X109076234Y-110841851D01*
X109107846Y-110928341D01*
X109125129Y-110975464D01*
X109127435Y-110981672D01*
X109161541Y-111001856D01*
X109243496Y-111012142D01*
X109302029Y-111013454D01*
X109464574Y-111013454D01*
X109464574Y-109060688D01*
X110405315Y-109060688D01*
X110405315Y-109208249D01*
X110761271Y-109208249D01*
X110761271Y-109079966D01*
X110767376Y-108990489D01*
X110790312Y-108929713D01*
X110823679Y-108889275D01*
X110899151Y-108837156D01*
X110973267Y-108835452D01*
X111049521Y-108884202D01*
X111057444Y-108891901D01*
X111090422Y-108928966D01*
X111108978Y-108967383D01*
X111116214Y-109021641D01*
X111115228Y-109106232D01*
X111113193Y-109152511D01*
X111103908Y-109348088D01*
X110754612Y-110011328D01*
X110654568Y-110201522D01*
X110575722Y-110352753D01*
X110515549Y-110471036D01*
X110471526Y-110562385D01*
X110441129Y-110632818D01*
X110421836Y-110688348D01*
X110411122Y-110734992D01*
X110406465Y-110778765D01*
X110405341Y-110825683D01*
X110405315Y-110844010D01*
X110405315Y-111013454D01*
X111473183Y-111013454D01*
X111473183Y-110657498D01*
X111155365Y-110657498D01*
X111034966Y-110656717D01*
X110935493Y-110654585D01*
X110866576Y-110651416D01*
X110837842Y-110647528D01*
X110837547Y-110647078D01*
X110848642Y-110622606D01*
X110879950Y-110558776D01*
X110928510Y-110461492D01*
X110991359Y-110336658D01*
X111065535Y-110190180D01*
X111148074Y-110027960D01*
X111155365Y-110013665D01*
X111473183Y-109390672D01*
X111473183Y-109183592D01*
X111466882Y-109010228D01*
X111445745Y-108875108D01*
X111406419Y-108766940D01*
X111345553Y-108674430D01*
X111310332Y-108634995D01*
X111188023Y-108539143D01*
X111054861Y-108487621D01*
X110917836Y-108477139D01*
X110783938Y-108504411D01*
X110660159Y-108566148D01*
X110553487Y-108659063D01*
X110470914Y-108779866D01*
X110419430Y-108925270D01*
X110405315Y-109060688D01*
X109464574Y-109060688D01*
X109464574Y-108496337D01*
X109109386Y-108496337D01*
X109102646Y-109235013D01*
X109095906Y-109973690D01*
X108831575Y-109235013D01*
X108567245Y-108496337D01*
X108218728Y-108496337D01*
X107888198Y-108496337D01*
X107532242Y-108496337D01*
X105500451Y-108496337D01*
X105500056Y-108413273D01*
X105498439Y-107996497D01*
X105497091Y-107563385D01*
X105496011Y-107116813D01*
X105495200Y-106659656D01*
X105494657Y-106194791D01*
X105494381Y-105725095D01*
X105494374Y-105253442D01*
X105494633Y-104782710D01*
X105495160Y-104315775D01*
X105495954Y-103855512D01*
X105497014Y-103404798D01*
X105497824Y-103137127D01*
X106649174Y-103137127D01*
X106651788Y-103485299D01*
X106696667Y-103831533D01*
X106784165Y-104171605D01*
X106914635Y-104501291D01*
X107088431Y-104816369D01*
X107305907Y-105112615D01*
X107428885Y-105250001D01*
X107625884Y-105441499D01*
X107823113Y-105599640D01*
X108038726Y-105737776D01*
X108231441Y-105840273D01*
X108574597Y-105988102D01*
X108913651Y-106087529D01*
X109255455Y-106139809D01*
X109606859Y-106146199D01*
X109812028Y-106130018D01*
X110128958Y-106076534D01*
X110435159Y-105986054D01*
X110745664Y-105854048D01*
X110773984Y-105840150D01*
X111016610Y-105708401D01*
X111226704Y-105566985D01*
X111422447Y-105402532D01*
X111576540Y-105250001D01*
X111815100Y-104965381D01*
X112009456Y-104660927D01*
X112160287Y-104340707D01*
X112268272Y-104008786D01*
X112334092Y-103669232D01*
X112358426Y-103326112D01*
X112341953Y-102983491D01*
X112285353Y-102645438D01*
X112189305Y-102316018D01*
X112054490Y-101999299D01*
X111881586Y-101699346D01*
X111671274Y-101420228D01*
X111424232Y-101166011D01*
X111141141Y-100940761D01*
X110824478Y-100749480D01*
X110516983Y-100610118D01*
X110207649Y-100513002D01*
X109884728Y-100455331D01*
X109536471Y-100434302D01*
X109502053Y-100434109D01*
X109116642Y-100457049D01*
X108750173Y-100527101D01*
X108401697Y-100644578D01*
X108070263Y-100809793D01*
X107784606Y-101000430D01*
X107501263Y-101243910D01*
X107257709Y-101515017D01*
X107054300Y-101809528D01*
X106891389Y-102123217D01*
X106769328Y-102451862D01*
X106688472Y-102791240D01*
X106649174Y-103137127D01*
X105497824Y-103137127D01*
X105498341Y-102966509D01*
X105499933Y-102543521D01*
X105501792Y-102138710D01*
X105503916Y-101754953D01*
X105506306Y-101395125D01*
X105508961Y-101062102D01*
X105511881Y-100758762D01*
X105515065Y-100487979D01*
X105518514Y-100252630D01*
X105522227Y-100055592D01*
X105526205Y-99899740D01*
X105530445Y-99787950D01*
X105534949Y-99723099D01*
X105536624Y-99711852D01*
X105612435Y-99467788D01*
X105729844Y-99245588D01*
X105883996Y-99050693D01*
X106070030Y-98888545D01*
X106283091Y-98764586D01*
X106433437Y-98707173D01*
X106459729Y-98699419D01*
X106487527Y-98692503D01*
X106519733Y-98686376D01*
X106559253Y-98680990D01*
X106608989Y-98676298D01*
X106671847Y-98672252D01*
X106750730Y-98668804D01*
X106848543Y-98665907D01*
X106968190Y-98663512D01*
X107112575Y-98661572D01*
X107284602Y-98660039D01*
X107487176Y-98658866D01*
X107723200Y-98658004D01*
X107995578Y-98657406D01*
X108307216Y-98657024D01*
X108661017Y-98656810D01*
X109059884Y-98656717D01*
X109502712Y-98656697D01*
X109949131Y-98656718D01*
G37*
X109949131Y-98656718D02*
X110347603Y-98656812D01*
X110701033Y-98657027D01*
X111012325Y-98657410D01*
X111284382Y-98658010D01*
X111520109Y-98658874D01*
X111722410Y-98660051D01*
X111894190Y-98661587D01*
X112038352Y-98663531D01*
X112157801Y-98665929D01*
X112255441Y-98668831D01*
X112334176Y-98672284D01*
X112396910Y-98676336D01*
X112446547Y-98681033D01*
X112485992Y-98686425D01*
X112518149Y-98692559D01*
X112545921Y-98699482D01*
X112571988Y-98707173D01*
X112799980Y-98803453D01*
X113004097Y-98941452D01*
X113179482Y-99115727D01*
X113321275Y-99320838D01*
X113424621Y-99551342D01*
X113468801Y-99711852D01*
X113473399Y-99759223D01*
X113477734Y-99854561D01*
X113481806Y-99994990D01*
X113485613Y-100177634D01*
X113489157Y-100399615D01*
X113492436Y-100658060D01*
X113495450Y-100950090D01*
X113498200Y-101272831D01*
X113500684Y-101623405D01*
X113502904Y-101998937D01*
X113504857Y-102396551D01*
X113506545Y-102813371D01*
X113507967Y-103246519D01*
X113509123Y-103693122D01*
X113510012Y-104150301D01*
X113510634Y-104615181D01*
X113510989Y-105084886D01*
X113511077Y-105556539D01*
X113510897Y-106027266D01*
X113510450Y-106494188D01*
X113509735Y-106954431D01*
X113508751Y-107405118D01*
X113507499Y-107843373D01*
X113505978Y-108266320D01*
X113504188Y-108671082D01*
X113502129Y-109054784D01*
X113499801Y-109414550D01*
X113497202Y-109747503D01*
X113494334Y-110050767D01*
X113491196Y-110321466D01*
X113487787Y-110556724D01*
X113484107Y-110753664D01*
X113480156Y-110909411D01*
X113475935Y-111021089D01*
X113471442Y-111085821D01*
X113469769Y-111097024D01*
X113393405Y-111341417D01*
X113275074Y-111563832D01*
X113119685Y-111759020D01*
X112932146Y-111921733D01*
X112717368Y-112046723D01*
X112512284Y-112120664D01*
X112465242Y-112126374D01*
X112371433Y-112131620D01*
X112234854Y-112136402D01*
X112059504Y-112140720D01*
X111849383Y-112144572D01*
X111608488Y-112147960D01*
X111340818Y-112150882D01*
X111050373Y-112153338D01*
X110741150Y-112155328D01*
X110417149Y-112156852D01*
X110082368Y-112157909D01*
X109740807Y-112158499D01*
X109396462Y-112158622D01*
X109053334Y-112158278D01*
X108715422Y-112157465D01*
X108386723Y-112156184D01*
X108071236Y-112154435D01*
X107772961Y-112152217D01*
X107495896Y-112149530D01*
X107244039Y-112146373D01*
X107021390Y-112142746D01*
X106831947Y-112138650D01*
X106679709Y-112134083D01*
X106568674Y-112129045D01*
X106502841Y-112123537D01*
X106489799Y-112121130D01*
X106253507Y-112029610D01*
X106040872Y-111896138D01*
X105856873Y-111726061D01*
X105706492Y-111524724D01*
X105594709Y-111297471D01*
X105535656Y-111097024D01*
X105531065Y-111049774D01*
X105526747Y-110954551D01*
X105522699Y-110814229D01*
X105518923Y-110631686D01*
X105515417Y-110409798D01*
X105512182Y-110151440D01*
X105509217Y-109859488D01*
X105506522Y-109536820D01*
X105504097Y-109186310D01*
X105501942Y-108810836D01*
X105500451Y-108496337D01*
X107532242Y-108496337D01*
X107532242Y-111013454D01*
X107888198Y-111013454D01*
X107888198Y-108496337D01*
X108218728Y-108496337D01*
X108218728Y-111013454D01*
X108573928Y-111013454D01*
X108580662Y-110257047D01*
X108587397Y-109500641D01*
X108851391Y-110225266D01*
X108917871Y-110407702D01*
X108979001Y-110575379D01*
X109032538Y-110722146D01*
X109076234Y-110841851D01*
X109107846Y-110928341D01*
X109125129Y-110975464D01*
X109127435Y-110981672D01*
X109161541Y-111001856D01*
X109243496Y-111012142D01*
X109302029Y-111013454D01*
X109464574Y-111013454D01*
X109464574Y-109060688D01*
X110405315Y-109060688D01*
X110405315Y-109208249D01*
X110761271Y-109208249D01*
X110761271Y-109079966D01*
X110767376Y-108990489D01*
X110790312Y-108929713D01*
X110823679Y-108889275D01*
X110899151Y-108837156D01*
X110973267Y-108835452D01*
X111049521Y-108884202D01*
X111057444Y-108891901D01*
X111090422Y-108928966D01*
X111108978Y-108967383D01*
X111116214Y-109021641D01*
X111115228Y-109106232D01*
X111113193Y-109152511D01*
X111103908Y-109348088D01*
X110754612Y-110011328D01*
X110654568Y-110201522D01*
X110575722Y-110352753D01*
X110515549Y-110471036D01*
X110471526Y-110562385D01*
X110441129Y-110632818D01*
X110421836Y-110688348D01*
X110411122Y-110734992D01*
X110406465Y-110778765D01*
X110405341Y-110825683D01*
X110405315Y-110844010D01*
X110405315Y-111013454D01*
X111473183Y-111013454D01*
X111473183Y-110657498D01*
X111155365Y-110657498D01*
X111034966Y-110656717D01*
X110935493Y-110654585D01*
X110866576Y-110651416D01*
X110837842Y-110647528D01*
X110837547Y-110647078D01*
X110848642Y-110622606D01*
X110879950Y-110558776D01*
X110928510Y-110461492D01*
X110991359Y-110336658D01*
X111065535Y-110190180D01*
X111148074Y-110027960D01*
X111155365Y-110013665D01*
X111473183Y-109390672D01*
X111473183Y-109183592D01*
X111466882Y-109010228D01*
X111445745Y-108875108D01*
X111406419Y-108766940D01*
X111345553Y-108674430D01*
X111310332Y-108634995D01*
X111188023Y-108539143D01*
X111054861Y-108487621D01*
X110917836Y-108477139D01*
X110783938Y-108504411D01*
X110660159Y-108566148D01*
X110553487Y-108659063D01*
X110470914Y-108779866D01*
X110419430Y-108925270D01*
X110405315Y-109060688D01*
X109464574Y-109060688D01*
X109464574Y-108496337D01*
X109109386Y-108496337D01*
X109102646Y-109235013D01*
X109095906Y-109973690D01*
X108831575Y-109235013D01*
X108567245Y-108496337D01*
X108218728Y-108496337D01*
X107888198Y-108496337D01*
X107532242Y-108496337D01*
X105500451Y-108496337D01*
X105500056Y-108413273D01*
X105498439Y-107996497D01*
X105497091Y-107563385D01*
X105496011Y-107116813D01*
X105495200Y-106659656D01*
X105494657Y-106194791D01*
X105494381Y-105725095D01*
X105494374Y-105253442D01*
X105494633Y-104782710D01*
X105495160Y-104315775D01*
X105495954Y-103855512D01*
X105497014Y-103404798D01*
X105497824Y-103137127D01*
X106649174Y-103137127D01*
X106651788Y-103485299D01*
X106696667Y-103831533D01*
X106784165Y-104171605D01*
X106914635Y-104501291D01*
X107088431Y-104816369D01*
X107305907Y-105112615D01*
X107428885Y-105250001D01*
X107625884Y-105441499D01*
X107823113Y-105599640D01*
X108038726Y-105737776D01*
X108231441Y-105840273D01*
X108574597Y-105988102D01*
X108913651Y-106087529D01*
X109255455Y-106139809D01*
X109606859Y-106146199D01*
X109812028Y-106130018D01*
X110128958Y-106076534D01*
X110435159Y-105986054D01*
X110745664Y-105854048D01*
X110773984Y-105840150D01*
X111016610Y-105708401D01*
X111226704Y-105566985D01*
X111422447Y-105402532D01*
X111576540Y-105250001D01*
X111815100Y-104965381D01*
X112009456Y-104660927D01*
X112160287Y-104340707D01*
X112268272Y-104008786D01*
X112334092Y-103669232D01*
X112358426Y-103326112D01*
X112341953Y-102983491D01*
X112285353Y-102645438D01*
X112189305Y-102316018D01*
X112054490Y-101999299D01*
X111881586Y-101699346D01*
X111671274Y-101420228D01*
X111424232Y-101166011D01*
X111141141Y-100940761D01*
X110824478Y-100749480D01*
X110516983Y-100610118D01*
X110207649Y-100513002D01*
X109884728Y-100455331D01*
X109536471Y-100434302D01*
X109502053Y-100434109D01*
X109116642Y-100457049D01*
X108750173Y-100527101D01*
X108401697Y-100644578D01*
X108070263Y-100809793D01*
X107784606Y-101000430D01*
X107501263Y-101243910D01*
X107257709Y-101515017D01*
X107054300Y-101809528D01*
X106891389Y-102123217D01*
X106769328Y-102451862D01*
X106688472Y-102791240D01*
X106649174Y-103137127D01*
X105497824Y-103137127D01*
X105498341Y-102966509D01*
X105499933Y-102543521D01*
X105501792Y-102138710D01*
X105503916Y-101754953D01*
X105506306Y-101395125D01*
X105508961Y-101062102D01*
X105511881Y-100758762D01*
X105515065Y-100487979D01*
X105518514Y-100252630D01*
X105522227Y-100055592D01*
X105526205Y-99899740D01*
X105530445Y-99787950D01*
X105534949Y-99723099D01*
X105536624Y-99711852D01*
X105612435Y-99467788D01*
X105729844Y-99245588D01*
X105883996Y-99050693D01*
X106070030Y-98888545D01*
X106283091Y-98764586D01*
X106433437Y-98707173D01*
X106459729Y-98699419D01*
X106487527Y-98692503D01*
X106519733Y-98686376D01*
X106559253Y-98680990D01*
X106608989Y-98676298D01*
X106671847Y-98672252D01*
X106750730Y-98668804D01*
X106848543Y-98665907D01*
X106968190Y-98663512D01*
X107112575Y-98661572D01*
X107284602Y-98660039D01*
X107487176Y-98658866D01*
X107723200Y-98658004D01*
X107995578Y-98657406D01*
X108307216Y-98657024D01*
X108661017Y-98656810D01*
X109059884Y-98656717D01*
X109502712Y-98656697D01*
X109949131Y-98656718D01*
%TD*%
M02*
