999
"DXF R12 Output" (www.mydxf.blogspot.com)
 0 
SECTION
 2 
HEADER
 9 
$ACADVER
 1 
AC1009
 9 
$EXTMIN
 10 
 0 
 20 
 0 
 9 
$EXTMAX
 10 
 8.5 
 20 
 11 
 0 
ENDSEC
 0 
SECTION
 2 
ENTITIES
0
LINE
8
Layer 1
10
5.770000
20
0.000000
11
-2.880000
21
5.000000
0
LINE
8
Layer 1
10
-2.880000
20
5.000000
11
-2.880000
21
-5.000000
0
LINE
8
Layer 1
10
-2.880000
20
-5.000000
11
5.770000
21
0.000000
0
LINE
8
Layer 1
10
5.770000
20
0.000000
11
5.770000
21
0.000000
0
LINE
8
Layer 1
10
8.718590
20
4.033740
11
-2.207290
21
0.016013
0
LINE
8
Layer 1
10
-2.207290
20
0.016013
11
8.718590
21
-4.001710
0
LINE
8
Layer 1
10
8.718590
20
-4.001710
11
8.146260
21
-3.074572
0
LINE
8
Layer 1
10
8.146260
20
-3.074572
11
7.738161
21
-2.085489
0
LINE
8
Layer 1
10
7.738161
20
-2.085489
11
7.493938
21
-1.054393
0
LINE
8
Layer 1
10
7.493938
20
-1.054393
11
7.413238
21
-0.001212
0
LINE
8
Layer 1
10
7.413238
20
-0.001212
11
7.495706
21
1.054121
0
LINE
8
Layer 1
10
7.495706
20
1.054121
11
7.740990
21
2.091678
0
LINE
8
Layer 1
10
7.740990
20
2.091678
11
8.148736
21
3.091528
0
LINE
8
Layer 1
10
8.148736
20
3.091528
11
8.718590
21
4.033740
0
LINE
8
Layer 1
10
8.718590
20
4.033740
11
8.718590
21
4.033740
0
LINE
8
Layer 1
10
9.089890
20
-3.606100
11
8.235219
21
-4.268733
0
LINE
8
Layer 1
10
8.235219
20
-4.268733
11
7.202646
21
-4.547170
0
LINE
8
Layer 1
10
7.202646
20
-4.547170
11
6.106813
21
-4.511739
0
LINE
8
Layer 1
10
6.106813
20
-4.511739
11
5.062360
21
-4.232770
0
LINE
8
Layer 1
10
5.062360
20
-4.232770
11
-3.150050
21
-1.154870
0
LINE
8
Layer 1
10
-3.150050
20
-1.154870
11
-4.899530
21
-1.861789
0
LINE
8
Layer 1
10
-4.899530
20
-1.861789
11
-6.419804
21
-2.190688
0
LINE
8
Layer 1
10
-6.419804
20
-2.190688
11
-7.492273
21
-2.393875
0
LINE
8
Layer 1
10
-7.492273
20
-2.393875
11
-7.792269
21
-2.527173
0
LINE
8
Layer 1
10
-7.792269
20
-2.527173
11
-7.898340
21
-2.723660
0
LINE
8
Layer 1
10
-7.898340
20
-2.723660
11
-7.678550
21
-3.266170
0
LINE
8
Layer 1
10
-7.678550
20
-3.266170
11
-7.541864
21
-3.667512
0
LINE
8
Layer 1
10
-7.541864
20
-3.667512
11
-7.510030
21
-4.406850
0
LINE
8
Layer 1
10
-7.510030
20
-4.406850
11
-7.769946
21
-5.268068
0
LINE
8
Layer 1
10
-7.769946
20
-5.268068
11
-8.369780
21
-5.944441
0
LINE
8
Layer 1
10
-8.369780
20
-5.944441
11
-9.187332
21
-6.372432
0
LINE
8
Layer 1
10
-9.187332
20
-6.372432
11
-10.100400
21
-6.488500
0
LINE
8
Layer 1
10
-10.100400
20
-6.488500
11
-11.008884
21
-6.325529
0
LINE
8
Layer 1
10
-11.008884
20
-6.325529
11
-11.811750
21
-5.862559
0
LINE
8
Layer 1
10
-11.811750
20
-5.862559
11
-12.386541
21
-5.155042
0
LINE
8
Layer 1
10
-12.386541
20
-5.155042
11
-12.610800
21
-4.258430
0
LINE
8
Layer 1
10
-12.610800
20
-4.258430
11
-12.471678
21
-3.312263
0
LINE
8
Layer 1
10
-12.471678
20
-3.312263
11
-11.979025
21
-2.498000
0
LINE
8
Layer 1
10
-11.979025
20
-2.498000
11
-11.225559
21
-1.912645
0
LINE
8
Layer 1
10
-11.225559
20
-1.912645
11
-10.304000
21
-1.653200
0
LINE
8
Layer 1
10
-10.304000
20
-1.653200
11
-8.982900
21
-1.630846
0
LINE
8
Layer 1
10
-8.982900
20
-1.630846
11
-7.465911
21
-1.632680
0
LINE
8
Layer 1
10
-7.465911
20
-1.632680
11
-6.710270
21
-1.515592
0
LINE
8
Layer 1
10
-6.710270
20
-1.515592
11
-5.997231
21
-1.252060
0
LINE
8
Layer 1
10
-5.997231
20
-1.252060
11
-5.357320
21
-0.791253
0
LINE
8
Layer 1
10
-5.357320
20
-0.791253
11
-4.821060
21
-0.082343
0
LINE
8
Layer 1
10
-4.821060
20
-0.082343
11
-5.650642
21
0.921983
0
LINE
8
Layer 1
10
-5.650642
20
0.921983
11
-6.670361
21
1.430167
0
LINE
8
Layer 1
10
-6.670361
20
1.430167
11
-7.796807
21
1.596115
0
LINE
8
Layer 1
10
-7.796807
20
1.596115
11
-8.946570
21
1.573730
0
LINE
8
Layer 1
10
-8.946570
20
1.573730
11
-9.916886
21
1.607433
0
LINE
8
Layer 1
10
-9.916886
20
1.607433
11
-10.873009
21
1.844522
0
LINE
8
Layer 1
10
-10.873009
20
1.844522
11
-11.706070
21
2.326431
0
LINE
8
Layer 1
10
-11.706070
20
2.326431
11
-12.307200
21
3.094590
0
LINE
8
Layer 1
10
-12.307200
20
3.094590
11
-12.532214
21
4.046527
0
LINE
8
Layer 1
10
-12.532214
20
4.046527
11
-12.363713
21
5.015396
0
LINE
8
Layer 1
10
-12.363713
20
5.015396
11
-11.837780
21
5.830465
0
LINE
8
Layer 1
10
-11.837780
20
5.830465
11
-10.990500
21
6.321000
0
LINE
8
Layer 1
10
-10.990500
20
6.321000
11
-9.923131
21
6.484145
0
LINE
8
Layer 1
10
-9.923131
20
6.484145
11
-8.857730
21
6.247955
0
LINE
8
Layer 1
10
-8.857730
20
6.247955
11
-7.983864
21
5.630607
0
LINE
8
Layer 1
10
-7.983864
20
5.630607
11
-7.677997
21
5.184680
0
LINE
8
Layer 1
10
-7.677997
20
5.184680
11
-7.491100
21
4.650280
0
LINE
8
Layer 1
10
-7.491100
20
4.650280
11
-7.475443
21
3.869620
0
LINE
8
Layer 1
10
-7.475443
20
3.869620
11
-7.656301
21
3.277964
0
LINE
8
Layer 1
10
-7.656301
20
3.277964
11
-7.822687
21
2.828175
0
LINE
8
Layer 1
10
-7.822687
20
2.828175
11
-7.763610
21
2.473120
0
LINE
8
Layer 1
10
-7.763610
20
2.473120
11
-7.337954
21
2.295134
0
LINE
8
Layer 1
10
-7.337954
20
2.295134
11
-6.432317
21
2.127943
0
LINE
8
Layer 1
10
-6.432317
20
2.127943
11
-5.055549
21
1.789635
0
LINE
8
Layer 1
10
-5.055549
20
1.789635
11
-3.216500
21
1.098300
0
LINE
8
Layer 1
10
-3.216500
20
1.098300
11
5.676350
21
4.233070
0
LINE
8
Layer 1
10
5.676350
20
4.233070
11
6.556063
21
4.395522
0
LINE
8
Layer 1
10
6.556063
20
4.395522
11
7.470508
21
4.364190
0
LINE
8
Layer 1
10
7.470508
20
4.364190
11
8.360895
21
4.066871
0
LINE
8
Layer 1
10
8.360895
20
4.066871
11
9.168440
21
3.431360
0
LINE
8
Layer 1
10
9.168440
20
3.431360
11
-0.051641
21
-0.053722
0
LINE
8
Layer 1
10
-0.051641
20
-0.053722
11
9.089890
21
-3.606100
0
LINE
8
Layer 1
10
9.089890
20
-3.606100
11
9.089890
21
-3.606100
0
LINE
8
Layer 1
10
-9.217920
20
-5.506610
11
-8.797784
21
-5.183036
0
LINE
8
Layer 1
10
-8.797784
20
-5.183036
11
-8.507041
21
-4.776438
0
LINE
8
Layer 1
10
-8.507041
20
-4.776438
11
-8.306197
21
-3.846310
0
LINE
8
Layer 1
10
-8.306197
20
-3.846310
11
-8.600320
21
-2.980510
0
LINE
8
Layer 1
10
-8.600320
20
-2.980510
11
-8.928285
21
-2.654321
0
LINE
8
Layer 1
10
-8.928285
20
-2.654321
11
-9.374340
21
-2.443320
0
LINE
8
Layer 1
10
-9.374340
20
-2.443320
11
-10.314493
21
-2.403779
0
LINE
8
Layer 1
10
-10.314493
20
-2.403779
11
-11.167593
21
-2.828744
0
LINE
8
Layer 1
10
-11.167593
20
-2.828744
11
-11.719855
21
-3.580362
0
LINE
8
Layer 1
10
-11.719855
20
-3.580362
11
-11.816366
21
-4.035587
0
LINE
8
Layer 1
10
-11.816366
20
-4.035587
11
-11.757500
21
-4.520780
0
LINE
8
Layer 1
10
-11.757500
20
-4.520780
11
-11.389502
21
-5.200803
0
LINE
8
Layer 1
10
-11.389502
20
-5.200803
11
-10.734865
21
-5.604939
0
LINE
8
Layer 1
10
-10.734865
20
-5.604939
11
-9.956651
21
-5.713453
0
LINE
8
Layer 1
10
-9.956651
20
-5.713453
11
-9.217920
21
-5.506610
0
LINE
8
Layer 1
10
-9.217920
20
-5.506610
11
-9.217920
21
-5.506610
0
LINE
8
Layer 1
10
-9.161650
20
2.510760
11
-8.728310
21
2.774231
0
LINE
8
Layer 1
10
-8.728310
20
2.774231
11
-8.438007
21
3.161083
0
LINE
8
Layer 1
10
-8.438007
20
3.161083
11
-8.266076
21
4.128445
0
LINE
8
Layer 1
10
-8.266076
20
4.128445
11
-8.604987
21
5.059867
0
LINE
8
Layer 1
10
-8.604987
20
5.059867
11
-8.953237
21
5.401794
0
LINE
8
Layer 1
10
-8.953237
20
5.401794
11
-9.413870
21
5.602370
0
LINE
8
Layer 1
10
-9.413870
20
5.602370
11
-10.145515
21
5.697368
0
LINE
8
Layer 1
10
-10.145515
20
5.697368
11
-10.873796
21
5.517430
0
LINE
8
Layer 1
10
-10.873796
20
5.517430
11
-11.448546
21
5.076928
0
LINE
8
Layer 1
10
-11.448546
20
5.076928
11
-11.719600
21
4.390230
0
LINE
8
Layer 1
10
-11.719600
20
4.390230
11
-11.563855
21
3.460958
0
LINE
8
Layer 1
10
-11.563855
20
3.460958
11
-10.957919
21
2.734343
0
LINE
8
Layer 1
10
-10.957919
20
2.734343
11
-10.093335
21
2.365804
0
LINE
8
Layer 1
10
-10.093335
20
2.365804
11
-9.623909
21
2.364381
0
LINE
8
Layer 1
10
-9.623909
20
2.364381
11
-9.161650
21
2.510760
0
LINE
8
Layer 1
10
-9.161650
20
2.510760
11
-9.161650
21
2.510760
0
LINE
8
Layer 1
10
-2.500000
20
-1.000000
11
-2.601641
21
0.007266
0
LINE
8
Layer 1
10
-2.601641
20
0.007266
11
-2.893125
21
0.945625
0
LINE
8
Layer 1
10
-2.893125
20
0.945625
11
-3.354297
21
1.794922
0
LINE
8
Layer 1
10
-3.354297
20
1.794922
11
-3.965000
21
2.535000
0
LINE
8
Layer 1
10
-3.965000
20
2.535000
11
-4.705078
21
3.145703
0
LINE
8
Layer 1
10
-4.705078
20
3.145703
11
-5.554375
21
3.606875
0
LINE
8
Layer 1
10
-5.554375
20
3.606875
11
-6.492734
21
3.898359
0
LINE
8
Layer 1
10
-6.492734
20
3.898359
11
-7.500000
21
4.000000
0
LINE
8
Layer 1
10
-7.500000
20
4.000000
11
-8.507266
21
3.898359
0
LINE
8
Layer 1
10
-8.507266
20
3.898359
11
-9.445625
21
3.606875
0
LINE
8
Layer 1
10
-9.445625
20
3.606875
11
-10.294922
21
3.145703
0
LINE
8
Layer 1
10
-10.294922
20
3.145703
11
-11.035000
21
2.535000
0
LINE
8
Layer 1
10
-11.035000
20
2.535000
11
-11.645703
21
1.794922
0
LINE
8
Layer 1
10
-11.645703
20
1.794922
11
-12.106875
21
0.945625
0
LINE
8
Layer 1
10
-12.106875
20
0.945625
11
-12.398359
21
0.007266
0
LINE
8
Layer 1
10
-12.398359
20
0.007266
11
-12.500000
21
-1.000000
0
LINE
8
Layer 1
10
-12.500000
20
-1.000000
11
-12.398359
21
-2.007266
0
LINE
8
Layer 1
10
-12.398359
20
-2.007266
11
-12.106875
21
-2.945625
0
LINE
8
Layer 1
10
-12.106875
20
-2.945625
11
-11.645703
21
-3.794922
0
LINE
8
Layer 1
10
-11.645703
20
-3.794922
11
-11.035000
21
-4.535000
0
LINE
8
Layer 1
10
-11.035000
20
-4.535000
11
-10.294922
21
-5.145703
0
LINE
8
Layer 1
10
-10.294922
20
-5.145703
11
-9.445625
21
-5.606875
0
LINE
8
Layer 1
10
-9.445625
20
-5.606875
11
-8.507266
21
-5.898359
0
LINE
8
Layer 1
10
-8.507266
20
-5.898359
11
-7.500000
21
-6.000000
0
LINE
8
Layer 1
10
-7.500000
20
-6.000000
11
-6.492734
21
-5.898359
0
LINE
8
Layer 1
10
-6.492734
20
-5.898359
11
-5.554375
21
-5.606875
0
LINE
8
Layer 1
10
-5.554375
20
-5.606875
11
-4.705078
21
-5.145703
0
LINE
8
Layer 1
10
-4.705078
20
-5.145703
11
-3.965000
21
-4.535000
0
LINE
8
Layer 1
10
-3.965000
20
-4.535000
11
-3.354297
21
-3.794922
0
LINE
8
Layer 1
10
-3.354297
20
-3.794922
11
-2.893125
21
-2.945625
0
LINE
8
Layer 1
10
-2.893125
20
-2.945625
11
-2.601641
21
-2.007266
0
LINE
8
Layer 1
10
-2.601641
20
-2.007266
11
-2.500000
21
-1.000000
0
LINE
8
Layer 1
10
-2.500000
20
-1.000000
11
-2.500000
21
-1.000000
0
LINE
8
Layer 1
10
8.718590
20
4.033740
11
-2.207290
21
0.016013
0
LINE
8
Layer 1
10
-2.207290
20
0.016013
11
8.718590
21
-4.001710
0
LINE
8
Layer 1
10
8.718590
20
-4.001710
11
8.146260
21
-3.074572
0
LINE
8
Layer 1
10
8.146260
20
-3.074572
11
7.738161
21
-2.085489
0
LINE
8
Layer 1
10
7.738161
20
-2.085489
11
7.493938
21
-1.054393
0
LINE
8
Layer 1
10
7.493938
20
-1.054393
11
7.413238
21
-0.001212
0
LINE
8
Layer 1
10
7.413238
20
-0.001212
11
7.495706
21
1.054121
0
LINE
8
Layer 1
10
7.495706
20
1.054121
11
7.740990
21
2.091678
0
LINE
8
Layer 1
10
7.740990
20
2.091678
11
8.148736
21
3.091528
0
LINE
8
Layer 1
10
8.148736
20
3.091528
11
8.718590
21
4.033740
0
LINE
8
Layer 1
10
8.718590
20
4.033740
11
8.718590
21
4.033740
0
LINE
8
Layer 1
10
0.000000
20
0.000000
11
5.000000
21
-5.000000
0
LINE
8
Layer 1
10
5.000000
20
-5.000000
11
-12.500000
21
0.000000
0
LINE
8
Layer 1
10
-12.500000
20
0.000000
11
5.000000
21
5.000000
0
LINE
8
Layer 1
10
5.000000
20
5.000000
11
0.000000
21
0.000000
0
LINE
8
Layer 1
10
0.000000
20
0.000000
11
0.000000
21
0.000000
0
LINE
8
Layer 1
10
0.000000
20
0.000000
11
5.000000
21
-5.000000
0
LINE
8
Layer 1
10
5.000000
20
-5.000000
11
-12.500000
21
0.000000
0
LINE
8
Layer 1
10
-12.500000
20
0.000000
11
5.000000
21
5.000000
0
LINE
8
Layer 1
10
5.000000
20
5.000000
11
0.000000
21
0.000000
0
LINE
8
Layer 1
10
0.000000
20
0.000000
11
0.000000
21
0.000000
0
LINE
8
Layer 1
10
5.770000
20
0.000000
11
-2.880000
21
5.000000
0
LINE
8
Layer 1
10
-2.880000
20
5.000000
11
-2.880000
21
-5.000000
0
LINE
8
Layer 1
10
-2.880000
20
-5.000000
11
5.770000
21
0.000000
0
LINE
8
Layer 1
10
10.014500
20
27.958400
11
10.014500
21
31.670330
0
LINE
8
Layer 1
10
11.870400
20
29.741100
11
8.158500
21
29.741100
0
LINE
8
Layer 1
10
10.014500
20
27.958400
11
10.014500
21
31.670330
0
LINE
8
Layer 1
10
11.870400
20
29.741100
11
8.158500
21
29.741100
0
LINE
8
Layer 1
10
10.014500
20
27.958400
11
10.014500
21
31.670330
0
LINE
8
Layer 1
10
11.870400
20
29.741100
11
8.158500
21
29.741100
0
LINE
8
Layer 1
10
10.014500
20
27.958400
11
10.014500
21
31.670330
0
LINE
8
Layer 1
10
11.870400
20
29.741100
11
8.158500
21
29.741100
0
LINE
8
Layer 1
10
10.014500
20
27.958400
11
10.014500
21
31.670330
0
LINE
8
Layer 1
10
11.870400
20
29.741100
11
8.158500
21
29.741100
0
LINE
8
Layer 1
10
10.014500
20
27.958400
11
10.014500
21
31.670330
0
LINE
8
Layer 1
10
11.870400
20
29.741100
11
8.158500
21
29.741100
0
LINE
8
Layer 1
10
10.014500
20
27.958400
11
10.014500
21
31.670330
0
LINE
8
Layer 1
10
11.870400
20
29.741100
11
8.158500
21
29.741100
0
LINE
8
Layer 1
10
10.014500
20
27.958400
11
10.014500
21
31.670330
0
LINE
8
Layer 1
10
11.870400
20
29.741100
11
8.158500
21
29.741100
 0 
ENDSEC
 0 
EOF