%TF.GenerationSoftware,KiCad,Pcbnew,(5.1.6-0)*%
%TF.CreationDate,2020-10-27T19:58:16-07:00*%
%TF.ProjectId,circuit_board,63697263-7569-4745-9f62-6f6172642e6b,rev?*%
%TF.SameCoordinates,Original*%
%TF.FileFunction,Legend,Top*%
%TF.FilePolarity,Positive*%
%FSLAX46Y46*%
G04 Gerber Fmt 4.6, Leading zero omitted, Abs format (unit mm)*
G04 Created by KiCad (PCBNEW (5.1.6-0)) date 2020-10-27 19:58:16*
%MOMM*%
%LPD*%
G01*
G04 APERTURE LIST*
%ADD10C,0.120000*%
%ADD11C,0.150000*%
G04 APERTURE END LIST*
D10*
%TO.C,J1*%
X95910000Y-47170000D02*
X95910000Y-48030000D01*
X95910000Y-47170000D02*
X95110000Y-47170000D01*
X90230000Y-48230000D02*
G75*
G03*
X90230000Y-48230000I-1800000J0D01*
G01*
X92930000Y-47880000D02*
X92930000Y-43730000D01*
X92930000Y-52730000D02*
X92930000Y-48580000D01*
X82430000Y-47730000D02*
X82430000Y-43730000D01*
X82430000Y-52730000D02*
X82430000Y-48730000D01*
X92930000Y-52730000D02*
X82430000Y-52730000D01*
X92930000Y-43730000D02*
X82430000Y-43730000D01*
%TO.C,J2*%
X95880000Y-101810000D02*
X95880000Y-102670000D01*
X95880000Y-101810000D02*
X95080000Y-101810000D01*
X90200000Y-102870000D02*
G75*
G03*
X90200000Y-102870000I-1800000J0D01*
G01*
X92900000Y-102520000D02*
X92900000Y-98370000D01*
X92900000Y-107370000D02*
X92900000Y-103220000D01*
X82400000Y-102370000D02*
X82400000Y-98370000D01*
X82400000Y-107370000D02*
X82400000Y-103370000D01*
X92900000Y-107370000D02*
X82400000Y-107370000D01*
X92900000Y-98370000D02*
X82400000Y-98370000D01*
%TO.C,J3*%
X92900000Y-57380000D02*
X82400000Y-57380000D01*
X92900000Y-66380000D02*
X82400000Y-66380000D01*
X82400000Y-66380000D02*
X82400000Y-62380000D01*
X82400000Y-61380000D02*
X82400000Y-57380000D01*
X92900000Y-66380000D02*
X92900000Y-62230000D01*
X92900000Y-61530000D02*
X92900000Y-57380000D01*
X90200000Y-61880000D02*
G75*
G03*
X90200000Y-61880000I-1800000J0D01*
G01*
X95880000Y-60820000D02*
X95080000Y-60820000D01*
X95880000Y-60820000D02*
X95880000Y-61680000D01*
%TO.C,J4*%
X95910000Y-74520000D02*
X95910000Y-75380000D01*
X95910000Y-74520000D02*
X95110000Y-74520000D01*
X90230000Y-75580000D02*
G75*
G03*
X90230000Y-75580000I-1800000J0D01*
G01*
X92930000Y-75230000D02*
X92930000Y-71080000D01*
X92930000Y-80080000D02*
X92930000Y-75930000D01*
X82430000Y-75080000D02*
X82430000Y-71080000D01*
X82430000Y-80080000D02*
X82430000Y-76080000D01*
X92930000Y-80080000D02*
X82430000Y-80080000D01*
X92930000Y-71080000D02*
X82430000Y-71080000D01*
%TO.C,J5*%
X92880000Y-84690000D02*
X82380000Y-84690000D01*
X92880000Y-93690000D02*
X82380000Y-93690000D01*
X82380000Y-93690000D02*
X82380000Y-89690000D01*
X82380000Y-88690000D02*
X82380000Y-84690000D01*
X92880000Y-93690000D02*
X92880000Y-89540000D01*
X92880000Y-88840000D02*
X92880000Y-84690000D01*
X90180000Y-89190000D02*
G75*
G03*
X90180000Y-89190000I-1800000J0D01*
G01*
X95860000Y-88130000D02*
X95060000Y-88130000D01*
X95860000Y-88130000D02*
X95860000Y-88990000D01*
%TO.C,J6*%
X92880000Y-112030000D02*
X82380000Y-112030000D01*
X92880000Y-121030000D02*
X82380000Y-121030000D01*
X82380000Y-121030000D02*
X82380000Y-117030000D01*
X82380000Y-116030000D02*
X82380000Y-112030000D01*
X92880000Y-121030000D02*
X92880000Y-116880000D01*
X92880000Y-116180000D02*
X92880000Y-112030000D01*
X90180000Y-116530000D02*
G75*
G03*
X90180000Y-116530000I-1800000J0D01*
G01*
X95860000Y-115470000D02*
X95060000Y-115470000D01*
X95860000Y-115470000D02*
X95860000Y-116330000D01*
%TO.C,J7*%
X95860000Y-129160000D02*
X95860000Y-130020000D01*
X95860000Y-129160000D02*
X95060000Y-129160000D01*
X90180000Y-130220000D02*
G75*
G03*
X90180000Y-130220000I-1800000J0D01*
G01*
X92880000Y-129870000D02*
X92880000Y-125720000D01*
X92880000Y-134720000D02*
X92880000Y-130570000D01*
X82380000Y-129720000D02*
X82380000Y-125720000D01*
X82380000Y-134720000D02*
X82380000Y-130720000D01*
X92880000Y-134720000D02*
X82380000Y-134720000D01*
X92880000Y-125720000D02*
X82380000Y-125720000D01*
%TO.C,J8*%
X92910000Y-139360000D02*
X82410000Y-139360000D01*
X92910000Y-148360000D02*
X82410000Y-148360000D01*
X82410000Y-148360000D02*
X82410000Y-144360000D01*
X82410000Y-143360000D02*
X82410000Y-139360000D01*
X92910000Y-148360000D02*
X92910000Y-144210000D01*
X92910000Y-143510000D02*
X92910000Y-139360000D01*
X90210000Y-143860000D02*
G75*
G03*
X90210000Y-143860000I-1800000J0D01*
G01*
X95890000Y-142800000D02*
X95090000Y-142800000D01*
X95890000Y-142800000D02*
X95890000Y-143660000D01*
%TO.C,J1*%
D11*
X93282380Y-44533333D02*
X93996666Y-44533333D01*
X94139523Y-44580952D01*
X94234761Y-44676190D01*
X94282380Y-44819047D01*
X94282380Y-44914285D01*
X94282380Y-43533333D02*
X94282380Y-44104761D01*
X94282380Y-43819047D02*
X93282380Y-43819047D01*
X93425238Y-43914285D01*
X93520476Y-44009523D01*
X93568095Y-44104761D01*
%TO.C,J2*%
X93252380Y-99173333D02*
X93966666Y-99173333D01*
X94109523Y-99220952D01*
X94204761Y-99316190D01*
X94252380Y-99459047D01*
X94252380Y-99554285D01*
X93347619Y-98744761D02*
X93300000Y-98697142D01*
X93252380Y-98601904D01*
X93252380Y-98363809D01*
X93300000Y-98268571D01*
X93347619Y-98220952D01*
X93442857Y-98173333D01*
X93538095Y-98173333D01*
X93680952Y-98220952D01*
X94252380Y-98792380D01*
X94252380Y-98173333D01*
%TO.C,J3*%
X93252380Y-58183333D02*
X93966666Y-58183333D01*
X94109523Y-58230952D01*
X94204761Y-58326190D01*
X94252380Y-58469047D01*
X94252380Y-58564285D01*
X93252380Y-57802380D02*
X93252380Y-57183333D01*
X93633333Y-57516666D01*
X93633333Y-57373809D01*
X93680952Y-57278571D01*
X93728571Y-57230952D01*
X93823809Y-57183333D01*
X94061904Y-57183333D01*
X94157142Y-57230952D01*
X94204761Y-57278571D01*
X94252380Y-57373809D01*
X94252380Y-57659523D01*
X94204761Y-57754761D01*
X94157142Y-57802380D01*
%TO.C,J4*%
X93282380Y-71883333D02*
X93996666Y-71883333D01*
X94139523Y-71930952D01*
X94234761Y-72026190D01*
X94282380Y-72169047D01*
X94282380Y-72264285D01*
X93615714Y-70978571D02*
X94282380Y-70978571D01*
X93234761Y-71216666D02*
X93949047Y-71454761D01*
X93949047Y-70835714D01*
%TO.C,J5*%
X93232380Y-85493333D02*
X93946666Y-85493333D01*
X94089523Y-85540952D01*
X94184761Y-85636190D01*
X94232380Y-85779047D01*
X94232380Y-85874285D01*
X93232380Y-84540952D02*
X93232380Y-85017142D01*
X93708571Y-85064761D01*
X93660952Y-85017142D01*
X93613333Y-84921904D01*
X93613333Y-84683809D01*
X93660952Y-84588571D01*
X93708571Y-84540952D01*
X93803809Y-84493333D01*
X94041904Y-84493333D01*
X94137142Y-84540952D01*
X94184761Y-84588571D01*
X94232380Y-84683809D01*
X94232380Y-84921904D01*
X94184761Y-85017142D01*
X94137142Y-85064761D01*
%TO.C,J6*%
X93232380Y-112833333D02*
X93946666Y-112833333D01*
X94089523Y-112880952D01*
X94184761Y-112976190D01*
X94232380Y-113119047D01*
X94232380Y-113214285D01*
X93232380Y-111928571D02*
X93232380Y-112119047D01*
X93280000Y-112214285D01*
X93327619Y-112261904D01*
X93470476Y-112357142D01*
X93660952Y-112404761D01*
X94041904Y-112404761D01*
X94137142Y-112357142D01*
X94184761Y-112309523D01*
X94232380Y-112214285D01*
X94232380Y-112023809D01*
X94184761Y-111928571D01*
X94137142Y-111880952D01*
X94041904Y-111833333D01*
X93803809Y-111833333D01*
X93708571Y-111880952D01*
X93660952Y-111928571D01*
X93613333Y-112023809D01*
X93613333Y-112214285D01*
X93660952Y-112309523D01*
X93708571Y-112357142D01*
X93803809Y-112404761D01*
%TO.C,J7*%
X93232380Y-126523333D02*
X93946666Y-126523333D01*
X94089523Y-126570952D01*
X94184761Y-126666190D01*
X94232380Y-126809047D01*
X94232380Y-126904285D01*
X93232380Y-126142380D02*
X93232380Y-125475714D01*
X94232380Y-125904285D01*
%TO.C,J8*%
X93262380Y-140163333D02*
X93976666Y-140163333D01*
X94119523Y-140210952D01*
X94214761Y-140306190D01*
X94262380Y-140449047D01*
X94262380Y-140544285D01*
X93690952Y-139544285D02*
X93643333Y-139639523D01*
X93595714Y-139687142D01*
X93500476Y-139734761D01*
X93452857Y-139734761D01*
X93357619Y-139687142D01*
X93310000Y-139639523D01*
X93262380Y-139544285D01*
X93262380Y-139353809D01*
X93310000Y-139258571D01*
X93357619Y-139210952D01*
X93452857Y-139163333D01*
X93500476Y-139163333D01*
X93595714Y-139210952D01*
X93643333Y-139258571D01*
X93690952Y-139353809D01*
X93690952Y-139544285D01*
X93738571Y-139639523D01*
X93786190Y-139687142D01*
X93881428Y-139734761D01*
X94071904Y-139734761D01*
X94167142Y-139687142D01*
X94214761Y-139639523D01*
X94262380Y-139544285D01*
X94262380Y-139353809D01*
X94214761Y-139258571D01*
X94167142Y-139210952D01*
X94071904Y-139163333D01*
X93881428Y-139163333D01*
X93786190Y-139210952D01*
X93738571Y-139258571D01*
X93690952Y-139353809D01*
%TD*%
M02*
