M48
; DRILL file {KiCad (5.1.6-0)} date Tuesday, October 27, 2020 at 07:58:18 PM
; FORMAT={-:-/ absolute / inch / decimal}
; #@! TF.CreationDate,2020-10-27T19:58:18-07:00
; #@! TF.GenerationSoftware,Kicad,Pcbnew,(5.1.6-0)
; #@! TF.FileFunction,Plated,1,2,PTH
FMAT,2
INCH
T1C0.0480
T2C0.0559
T3C0.0563
%
G90
G05
T1
X3.7366Y-1.8988
X3.7354Y-4.05
X3.7354Y-2.4362
X3.7346Y-5.1268
X3.7366Y-2.9756
X3.7346Y-4.5878
X3.7358Y-5.6638
X3.7346Y-3.5114
T2
X3.6146Y-1.8988
X3.6134Y-4.05
X3.6134Y-2.4362
X3.6126Y-5.1268
X3.6146Y-2.9756
X3.6126Y-4.5878
X3.6138Y-5.6638
X3.6126Y-3.5114
T3
X3.2878Y-1.8988
X3.2866Y-4.05
X3.2866Y-2.4362
X3.2858Y-5.1268
X3.2878Y-2.9756
X3.2858Y-4.5878
X3.287Y-5.6638
X3.2858Y-3.5114
T0
M30
