%TF.GenerationSoftware,KiCad,Pcbnew,(5.1.6-0)*%
%TF.CreationDate,2020-10-27T19:58:16-07:00*%
%TF.ProjectId,circuit_board,63697263-7569-4745-9f62-6f6172642e6b,rev?*%
%TF.SameCoordinates,Original*%
%TF.FileFunction,Copper,L1,Top*%
%TF.FilePolarity,Positive*%
%FSLAX46Y46*%
G04 Gerber Fmt 4.6, Leading zero omitted, Abs format (unit mm)*
G04 Created by KiCad (PCBNEW (5.1.6-0)) date 2020-10-27 19:58:16*
%MOMM*%
%LPD*%
G01*
G04 APERTURE LIST*
%TA.AperFunction,ComponentPad*%
%ADD10C,2.130000*%
%TD*%
%TA.AperFunction,ComponentPad*%
%ADD11R,1.830000X1.930000*%
%TD*%
%TA.AperFunction,Conductor*%
%ADD12C,0.508000*%
%TD*%
%TA.AperFunction,Conductor*%
%ADD13C,0.254000*%
%TD*%
G04 APERTURE END LIST*
D10*
%TO.P,J1,TN*%
%TO.N,N/C*%
X91810000Y-48230000D03*
D11*
%TO.P,J1,S*%
%TO.N,GND*%
X94910000Y-48230000D03*
D10*
%TO.P,J1,T*%
%TO.N,Net-(J1-PadT)*%
X83510000Y-48230000D03*
%TD*%
%TO.P,J2,TN*%
%TO.N,Net-(J1-PadT)*%
X91780000Y-102870000D03*
D11*
%TO.P,J2,S*%
%TO.N,GND*%
X94880000Y-102870000D03*
D10*
%TO.P,J2,T*%
%TO.N,Net-(J2-PadT)*%
X83480000Y-102870000D03*
%TD*%
%TO.P,J3,T*%
%TO.N,Net-(J1-PadT)*%
X83480000Y-61880000D03*
D11*
%TO.P,J3,S*%
%TO.N,GND*%
X94880000Y-61880000D03*
D10*
%TO.P,J3,TN*%
%TO.N,N/C*%
X91780000Y-61880000D03*
%TD*%
%TO.P,J4,TN*%
%TO.N,N/C*%
X91810000Y-75580000D03*
D11*
%TO.P,J4,S*%
%TO.N,GND*%
X94910000Y-75580000D03*
D10*
%TO.P,J4,T*%
%TO.N,Net-(J1-PadT)*%
X83510000Y-75580000D03*
%TD*%
%TO.P,J5,T*%
%TO.N,Net-(J1-PadT)*%
X83460000Y-89190000D03*
D11*
%TO.P,J5,S*%
%TO.N,GND*%
X94860000Y-89190000D03*
D10*
%TO.P,J5,TN*%
%TO.N,N/C*%
X91760000Y-89190000D03*
%TD*%
%TO.P,J6,T*%
%TO.N,Net-(J2-PadT)*%
X83460000Y-116530000D03*
D11*
%TO.P,J6,S*%
%TO.N,GND*%
X94860000Y-116530000D03*
D10*
%TO.P,J6,TN*%
%TO.N,N/C*%
X91760000Y-116530000D03*
%TD*%
%TO.P,J7,TN*%
%TO.N,N/C*%
X91760000Y-130220000D03*
D11*
%TO.P,J7,S*%
%TO.N,GND*%
X94860000Y-130220000D03*
D10*
%TO.P,J7,T*%
%TO.N,Net-(J2-PadT)*%
X83460000Y-130220000D03*
%TD*%
%TO.P,J8,T*%
%TO.N,Net-(J2-PadT)*%
X83490000Y-143860000D03*
D11*
%TO.P,J8,S*%
%TO.N,GND*%
X94890000Y-143860000D03*
D10*
%TO.P,J8,TN*%
%TO.N,N/C*%
X91790000Y-143860000D03*
%TD*%
D12*
%TO.N,Net-(J1-PadT)*%
X83480000Y-48260000D02*
X83510000Y-48230000D01*
X83480000Y-61880000D02*
X83480000Y-48260000D01*
X83480000Y-75550000D02*
X83510000Y-75580000D01*
X83480000Y-61880000D02*
X83480000Y-75550000D01*
X83510000Y-89140000D02*
X83460000Y-89190000D01*
X83510000Y-75580000D02*
X83510000Y-89140000D01*
X91852636Y-99782636D02*
X91852636Y-102390464D01*
X83460000Y-91390000D02*
X91852636Y-99782636D01*
X83460000Y-89190000D02*
X83460000Y-91390000D01*
%TO.N,Net-(J2-PadT)*%
X83480000Y-116510000D02*
X83460000Y-116530000D01*
X83480000Y-102870000D02*
X83480000Y-116510000D01*
X83460000Y-116530000D02*
X83460000Y-130220000D01*
X83460000Y-143830000D02*
X83490000Y-143860000D01*
X83460000Y-130220000D02*
X83460000Y-143830000D01*
%TD*%
D13*
%TO.N,GND*%
G36*
X97644110Y-150939327D02*
G01*
X79145267Y-150939327D01*
X79145267Y-116362565D01*
X81760000Y-116362565D01*
X81760000Y-116697435D01*
X81825330Y-117025872D01*
X81953479Y-117335252D01*
X82139523Y-117613687D01*
X82376313Y-117850477D01*
X82571000Y-117980563D01*
X82571001Y-128769437D01*
X82376313Y-128899523D01*
X82139523Y-129136313D01*
X81953479Y-129414748D01*
X81825330Y-129724128D01*
X81760000Y-130052565D01*
X81760000Y-130387435D01*
X81825330Y-130715872D01*
X81953479Y-131025252D01*
X82139523Y-131303687D01*
X82376313Y-131540477D01*
X82571000Y-131670563D01*
X82571001Y-142429482D01*
X82406313Y-142539523D01*
X82169523Y-142776313D01*
X81983479Y-143054748D01*
X81855330Y-143364128D01*
X81790000Y-143692565D01*
X81790000Y-144027435D01*
X81855330Y-144355872D01*
X81983479Y-144665252D01*
X82169523Y-144943687D01*
X82406313Y-145180477D01*
X82684748Y-145366521D01*
X82994128Y-145494670D01*
X83322565Y-145560000D01*
X83657435Y-145560000D01*
X83985872Y-145494670D01*
X84295252Y-145366521D01*
X84573687Y-145180477D01*
X84810477Y-144943687D01*
X84996521Y-144665252D01*
X85124670Y-144355872D01*
X85190000Y-144027435D01*
X85190000Y-143692565D01*
X90090000Y-143692565D01*
X90090000Y-144027435D01*
X90155330Y-144355872D01*
X90283479Y-144665252D01*
X90469523Y-144943687D01*
X90706313Y-145180477D01*
X90984748Y-145366521D01*
X91294128Y-145494670D01*
X91622565Y-145560000D01*
X91957435Y-145560000D01*
X92285872Y-145494670D01*
X92595252Y-145366521D01*
X92873687Y-145180477D01*
X93110477Y-144943687D01*
X93296521Y-144665252D01*
X93338105Y-144564860D01*
X93336928Y-144825000D01*
X93349188Y-144949482D01*
X93385498Y-145069180D01*
X93444463Y-145179494D01*
X93523815Y-145276185D01*
X93620506Y-145355537D01*
X93730820Y-145414502D01*
X93850518Y-145450812D01*
X93975000Y-145463072D01*
X94604250Y-145460000D01*
X94763000Y-145301250D01*
X94763000Y-143987000D01*
X95017000Y-143987000D01*
X95017000Y-145301250D01*
X95175750Y-145460000D01*
X95805000Y-145463072D01*
X95929482Y-145450812D01*
X96049180Y-145414502D01*
X96159494Y-145355537D01*
X96256185Y-145276185D01*
X96335537Y-145179494D01*
X96394502Y-145069180D01*
X96430812Y-144949482D01*
X96443072Y-144825000D01*
X96440000Y-144145750D01*
X96281250Y-143987000D01*
X95017000Y-143987000D01*
X94763000Y-143987000D01*
X94743000Y-143987000D01*
X94743000Y-143733000D01*
X94763000Y-143733000D01*
X94763000Y-142418750D01*
X95017000Y-142418750D01*
X95017000Y-143733000D01*
X96281250Y-143733000D01*
X96440000Y-143574250D01*
X96443072Y-142895000D01*
X96430812Y-142770518D01*
X96394502Y-142650820D01*
X96335537Y-142540506D01*
X96256185Y-142443815D01*
X96159494Y-142364463D01*
X96049180Y-142305498D01*
X95929482Y-142269188D01*
X95805000Y-142256928D01*
X95175750Y-142260000D01*
X95017000Y-142418750D01*
X94763000Y-142418750D01*
X94604250Y-142260000D01*
X93975000Y-142256928D01*
X93850518Y-142269188D01*
X93730820Y-142305498D01*
X93620506Y-142364463D01*
X93523815Y-142443815D01*
X93444463Y-142540506D01*
X93385498Y-142650820D01*
X93349188Y-142770518D01*
X93336928Y-142895000D01*
X93338105Y-143155140D01*
X93296521Y-143054748D01*
X93110477Y-142776313D01*
X92873687Y-142539523D01*
X92595252Y-142353479D01*
X92285872Y-142225330D01*
X91957435Y-142160000D01*
X91622565Y-142160000D01*
X91294128Y-142225330D01*
X90984748Y-142353479D01*
X90706313Y-142539523D01*
X90469523Y-142776313D01*
X90283479Y-143054748D01*
X90155330Y-143364128D01*
X90090000Y-143692565D01*
X85190000Y-143692565D01*
X85124670Y-143364128D01*
X84996521Y-143054748D01*
X84810477Y-142776313D01*
X84573687Y-142539523D01*
X84349000Y-142389392D01*
X84349000Y-131670562D01*
X84543687Y-131540477D01*
X84780477Y-131303687D01*
X84966521Y-131025252D01*
X85094670Y-130715872D01*
X85160000Y-130387435D01*
X85160000Y-130052565D01*
X90060000Y-130052565D01*
X90060000Y-130387435D01*
X90125330Y-130715872D01*
X90253479Y-131025252D01*
X90439523Y-131303687D01*
X90676313Y-131540477D01*
X90954748Y-131726521D01*
X91264128Y-131854670D01*
X91592565Y-131920000D01*
X91927435Y-131920000D01*
X92255872Y-131854670D01*
X92565252Y-131726521D01*
X92843687Y-131540477D01*
X93080477Y-131303687D01*
X93266521Y-131025252D01*
X93308105Y-130924860D01*
X93306928Y-131185000D01*
X93319188Y-131309482D01*
X93355498Y-131429180D01*
X93414463Y-131539494D01*
X93493815Y-131636185D01*
X93590506Y-131715537D01*
X93700820Y-131774502D01*
X93820518Y-131810812D01*
X93945000Y-131823072D01*
X94574250Y-131820000D01*
X94733000Y-131661250D01*
X94733000Y-130347000D01*
X94987000Y-130347000D01*
X94987000Y-131661250D01*
X95145750Y-131820000D01*
X95775000Y-131823072D01*
X95899482Y-131810812D01*
X96019180Y-131774502D01*
X96129494Y-131715537D01*
X96226185Y-131636185D01*
X96305537Y-131539494D01*
X96364502Y-131429180D01*
X96400812Y-131309482D01*
X96413072Y-131185000D01*
X96410000Y-130505750D01*
X96251250Y-130347000D01*
X94987000Y-130347000D01*
X94733000Y-130347000D01*
X94713000Y-130347000D01*
X94713000Y-130093000D01*
X94733000Y-130093000D01*
X94733000Y-128778750D01*
X94987000Y-128778750D01*
X94987000Y-130093000D01*
X96251250Y-130093000D01*
X96410000Y-129934250D01*
X96413072Y-129255000D01*
X96400812Y-129130518D01*
X96364502Y-129010820D01*
X96305537Y-128900506D01*
X96226185Y-128803815D01*
X96129494Y-128724463D01*
X96019180Y-128665498D01*
X95899482Y-128629188D01*
X95775000Y-128616928D01*
X95145750Y-128620000D01*
X94987000Y-128778750D01*
X94733000Y-128778750D01*
X94574250Y-128620000D01*
X93945000Y-128616928D01*
X93820518Y-128629188D01*
X93700820Y-128665498D01*
X93590506Y-128724463D01*
X93493815Y-128803815D01*
X93414463Y-128900506D01*
X93355498Y-129010820D01*
X93319188Y-129130518D01*
X93306928Y-129255000D01*
X93308105Y-129515140D01*
X93266521Y-129414748D01*
X93080477Y-129136313D01*
X92843687Y-128899523D01*
X92565252Y-128713479D01*
X92255872Y-128585330D01*
X91927435Y-128520000D01*
X91592565Y-128520000D01*
X91264128Y-128585330D01*
X90954748Y-128713479D01*
X90676313Y-128899523D01*
X90439523Y-129136313D01*
X90253479Y-129414748D01*
X90125330Y-129724128D01*
X90060000Y-130052565D01*
X85160000Y-130052565D01*
X85094670Y-129724128D01*
X84966521Y-129414748D01*
X84780477Y-129136313D01*
X84543687Y-128899523D01*
X84349000Y-128769438D01*
X84349000Y-117980562D01*
X84543687Y-117850477D01*
X84780477Y-117613687D01*
X84966521Y-117335252D01*
X85094670Y-117025872D01*
X85160000Y-116697435D01*
X85160000Y-116362565D01*
X90060000Y-116362565D01*
X90060000Y-116697435D01*
X90125330Y-117025872D01*
X90253479Y-117335252D01*
X90439523Y-117613687D01*
X90676313Y-117850477D01*
X90954748Y-118036521D01*
X91264128Y-118164670D01*
X91592565Y-118230000D01*
X91927435Y-118230000D01*
X92255872Y-118164670D01*
X92565252Y-118036521D01*
X92843687Y-117850477D01*
X93080477Y-117613687D01*
X93266521Y-117335252D01*
X93308105Y-117234860D01*
X93306928Y-117495000D01*
X93319188Y-117619482D01*
X93355498Y-117739180D01*
X93414463Y-117849494D01*
X93493815Y-117946185D01*
X93590506Y-118025537D01*
X93700820Y-118084502D01*
X93820518Y-118120812D01*
X93945000Y-118133072D01*
X94574250Y-118130000D01*
X94733000Y-117971250D01*
X94733000Y-116657000D01*
X94987000Y-116657000D01*
X94987000Y-117971250D01*
X95145750Y-118130000D01*
X95775000Y-118133072D01*
X95899482Y-118120812D01*
X96019180Y-118084502D01*
X96129494Y-118025537D01*
X96226185Y-117946185D01*
X96305537Y-117849494D01*
X96364502Y-117739180D01*
X96400812Y-117619482D01*
X96413072Y-117495000D01*
X96410000Y-116815750D01*
X96251250Y-116657000D01*
X94987000Y-116657000D01*
X94733000Y-116657000D01*
X94713000Y-116657000D01*
X94713000Y-116403000D01*
X94733000Y-116403000D01*
X94733000Y-115088750D01*
X94987000Y-115088750D01*
X94987000Y-116403000D01*
X96251250Y-116403000D01*
X96410000Y-116244250D01*
X96413072Y-115565000D01*
X96400812Y-115440518D01*
X96364502Y-115320820D01*
X96305537Y-115210506D01*
X96226185Y-115113815D01*
X96129494Y-115034463D01*
X96019180Y-114975498D01*
X95899482Y-114939188D01*
X95775000Y-114926928D01*
X95145750Y-114930000D01*
X94987000Y-115088750D01*
X94733000Y-115088750D01*
X94574250Y-114930000D01*
X93945000Y-114926928D01*
X93820518Y-114939188D01*
X93700820Y-114975498D01*
X93590506Y-115034463D01*
X93493815Y-115113815D01*
X93414463Y-115210506D01*
X93355498Y-115320820D01*
X93319188Y-115440518D01*
X93306928Y-115565000D01*
X93308105Y-115825140D01*
X93266521Y-115724748D01*
X93080477Y-115446313D01*
X92843687Y-115209523D01*
X92565252Y-115023479D01*
X92255872Y-114895330D01*
X91927435Y-114830000D01*
X91592565Y-114830000D01*
X91264128Y-114895330D01*
X90954748Y-115023479D01*
X90676313Y-115209523D01*
X90439523Y-115446313D01*
X90253479Y-115724748D01*
X90125330Y-116034128D01*
X90060000Y-116362565D01*
X85160000Y-116362565D01*
X85094670Y-116034128D01*
X84966521Y-115724748D01*
X84780477Y-115446313D01*
X84543687Y-115209523D01*
X84369000Y-115092801D01*
X84369000Y-104320562D01*
X84563687Y-104190477D01*
X84800477Y-103953687D01*
X84986521Y-103675252D01*
X85114670Y-103365872D01*
X85180000Y-103037435D01*
X85180000Y-102702565D01*
X85114670Y-102374128D01*
X84986521Y-102064748D01*
X84800477Y-101786313D01*
X84563687Y-101549523D01*
X84285252Y-101363479D01*
X83975872Y-101235330D01*
X83647435Y-101170000D01*
X83312565Y-101170000D01*
X82984128Y-101235330D01*
X82674748Y-101363479D01*
X82396313Y-101549523D01*
X82159523Y-101786313D01*
X81973479Y-102064748D01*
X81845330Y-102374128D01*
X81780000Y-102702565D01*
X81780000Y-103037435D01*
X81845330Y-103365872D01*
X81973479Y-103675252D01*
X82159523Y-103953687D01*
X82396313Y-104190477D01*
X82591000Y-104320563D01*
X82591001Y-115066073D01*
X82376313Y-115209523D01*
X82139523Y-115446313D01*
X81953479Y-115724748D01*
X81825330Y-116034128D01*
X81760000Y-116362565D01*
X79145267Y-116362565D01*
X79145267Y-89022565D01*
X81760000Y-89022565D01*
X81760000Y-89357435D01*
X81825330Y-89685872D01*
X81953479Y-89995252D01*
X82139523Y-90273687D01*
X82376313Y-90510477D01*
X82571001Y-90640563D01*
X82571001Y-91346330D01*
X82566700Y-91390000D01*
X82583864Y-91564274D01*
X82634698Y-91731852D01*
X82717248Y-91886291D01*
X82828342Y-92021659D01*
X82862259Y-92049494D01*
X90963636Y-100150872D01*
X90963637Y-101370903D01*
X90696313Y-101549523D01*
X90459523Y-101786313D01*
X90273479Y-102064748D01*
X90145330Y-102374128D01*
X90080000Y-102702565D01*
X90080000Y-103037435D01*
X90145330Y-103365872D01*
X90273479Y-103675252D01*
X90459523Y-103953687D01*
X90696313Y-104190477D01*
X90974748Y-104376521D01*
X91284128Y-104504670D01*
X91612565Y-104570000D01*
X91947435Y-104570000D01*
X92275872Y-104504670D01*
X92585252Y-104376521D01*
X92863687Y-104190477D01*
X93100477Y-103953687D01*
X93286521Y-103675252D01*
X93328105Y-103574860D01*
X93326928Y-103835000D01*
X93339188Y-103959482D01*
X93375498Y-104079180D01*
X93434463Y-104189494D01*
X93513815Y-104286185D01*
X93610506Y-104365537D01*
X93720820Y-104424502D01*
X93840518Y-104460812D01*
X93965000Y-104473072D01*
X94594250Y-104470000D01*
X94753000Y-104311250D01*
X94753000Y-102997000D01*
X95007000Y-102997000D01*
X95007000Y-104311250D01*
X95165750Y-104470000D01*
X95795000Y-104473072D01*
X95919482Y-104460812D01*
X96039180Y-104424502D01*
X96149494Y-104365537D01*
X96246185Y-104286185D01*
X96325537Y-104189494D01*
X96384502Y-104079180D01*
X96420812Y-103959482D01*
X96433072Y-103835000D01*
X96430000Y-103155750D01*
X96271250Y-102997000D01*
X95007000Y-102997000D01*
X94753000Y-102997000D01*
X94733000Y-102997000D01*
X94733000Y-102743000D01*
X94753000Y-102743000D01*
X94753000Y-101428750D01*
X95007000Y-101428750D01*
X95007000Y-102743000D01*
X96271250Y-102743000D01*
X96430000Y-102584250D01*
X96433072Y-101905000D01*
X96420812Y-101780518D01*
X96384502Y-101660820D01*
X96325537Y-101550506D01*
X96246185Y-101453815D01*
X96149494Y-101374463D01*
X96039180Y-101315498D01*
X95919482Y-101279188D01*
X95795000Y-101266928D01*
X95165750Y-101270000D01*
X95007000Y-101428750D01*
X94753000Y-101428750D01*
X94594250Y-101270000D01*
X93965000Y-101266928D01*
X93840518Y-101279188D01*
X93720820Y-101315498D01*
X93610506Y-101374463D01*
X93513815Y-101453815D01*
X93434463Y-101550506D01*
X93375498Y-101660820D01*
X93339188Y-101780518D01*
X93326928Y-101905000D01*
X93328105Y-102165140D01*
X93286521Y-102064748D01*
X93100477Y-101786313D01*
X92863687Y-101549523D01*
X92741636Y-101467971D01*
X92741636Y-99826296D01*
X92745936Y-99782636D01*
X92741636Y-99738976D01*
X92741636Y-99738969D01*
X92728772Y-99608362D01*
X92677939Y-99440785D01*
X92595389Y-99286345D01*
X92484295Y-99150977D01*
X92450379Y-99123143D01*
X84349000Y-91021765D01*
X84349000Y-90640562D01*
X84543687Y-90510477D01*
X84780477Y-90273687D01*
X84966521Y-89995252D01*
X85094670Y-89685872D01*
X85160000Y-89357435D01*
X85160000Y-89022565D01*
X90060000Y-89022565D01*
X90060000Y-89357435D01*
X90125330Y-89685872D01*
X90253479Y-89995252D01*
X90439523Y-90273687D01*
X90676313Y-90510477D01*
X90954748Y-90696521D01*
X91264128Y-90824670D01*
X91592565Y-90890000D01*
X91927435Y-90890000D01*
X92255872Y-90824670D01*
X92565252Y-90696521D01*
X92843687Y-90510477D01*
X93080477Y-90273687D01*
X93266521Y-89995252D01*
X93308105Y-89894860D01*
X93306928Y-90155000D01*
X93319188Y-90279482D01*
X93355498Y-90399180D01*
X93414463Y-90509494D01*
X93493815Y-90606185D01*
X93590506Y-90685537D01*
X93700820Y-90744502D01*
X93820518Y-90780812D01*
X93945000Y-90793072D01*
X94574250Y-90790000D01*
X94733000Y-90631250D01*
X94733000Y-89317000D01*
X94987000Y-89317000D01*
X94987000Y-90631250D01*
X95145750Y-90790000D01*
X95775000Y-90793072D01*
X95899482Y-90780812D01*
X96019180Y-90744502D01*
X96129494Y-90685537D01*
X96226185Y-90606185D01*
X96305537Y-90509494D01*
X96364502Y-90399180D01*
X96400812Y-90279482D01*
X96413072Y-90155000D01*
X96410000Y-89475750D01*
X96251250Y-89317000D01*
X94987000Y-89317000D01*
X94733000Y-89317000D01*
X94713000Y-89317000D01*
X94713000Y-89063000D01*
X94733000Y-89063000D01*
X94733000Y-87748750D01*
X94987000Y-87748750D01*
X94987000Y-89063000D01*
X96251250Y-89063000D01*
X96410000Y-88904250D01*
X96413072Y-88225000D01*
X96400812Y-88100518D01*
X96364502Y-87980820D01*
X96305537Y-87870506D01*
X96226185Y-87773815D01*
X96129494Y-87694463D01*
X96019180Y-87635498D01*
X95899482Y-87599188D01*
X95775000Y-87586928D01*
X95145750Y-87590000D01*
X94987000Y-87748750D01*
X94733000Y-87748750D01*
X94574250Y-87590000D01*
X93945000Y-87586928D01*
X93820518Y-87599188D01*
X93700820Y-87635498D01*
X93590506Y-87694463D01*
X93493815Y-87773815D01*
X93414463Y-87870506D01*
X93355498Y-87980820D01*
X93319188Y-88100518D01*
X93306928Y-88225000D01*
X93308105Y-88485140D01*
X93266521Y-88384748D01*
X93080477Y-88106313D01*
X92843687Y-87869523D01*
X92565252Y-87683479D01*
X92255872Y-87555330D01*
X91927435Y-87490000D01*
X91592565Y-87490000D01*
X91264128Y-87555330D01*
X90954748Y-87683479D01*
X90676313Y-87869523D01*
X90439523Y-88106313D01*
X90253479Y-88384748D01*
X90125330Y-88694128D01*
X90060000Y-89022565D01*
X85160000Y-89022565D01*
X85094670Y-88694128D01*
X84966521Y-88384748D01*
X84780477Y-88106313D01*
X84543687Y-87869523D01*
X84399000Y-87772846D01*
X84399000Y-77030562D01*
X84593687Y-76900477D01*
X84830477Y-76663687D01*
X85016521Y-76385252D01*
X85144670Y-76075872D01*
X85210000Y-75747435D01*
X85210000Y-75412565D01*
X90110000Y-75412565D01*
X90110000Y-75747435D01*
X90175330Y-76075872D01*
X90303479Y-76385252D01*
X90489523Y-76663687D01*
X90726313Y-76900477D01*
X91004748Y-77086521D01*
X91314128Y-77214670D01*
X91642565Y-77280000D01*
X91977435Y-77280000D01*
X92305872Y-77214670D01*
X92615252Y-77086521D01*
X92893687Y-76900477D01*
X93130477Y-76663687D01*
X93316521Y-76385252D01*
X93358105Y-76284860D01*
X93356928Y-76545000D01*
X93369188Y-76669482D01*
X93405498Y-76789180D01*
X93464463Y-76899494D01*
X93543815Y-76996185D01*
X93640506Y-77075537D01*
X93750820Y-77134502D01*
X93870518Y-77170812D01*
X93995000Y-77183072D01*
X94624250Y-77180000D01*
X94783000Y-77021250D01*
X94783000Y-75707000D01*
X95037000Y-75707000D01*
X95037000Y-77021250D01*
X95195750Y-77180000D01*
X95825000Y-77183072D01*
X95949482Y-77170812D01*
X96069180Y-77134502D01*
X96179494Y-77075537D01*
X96276185Y-76996185D01*
X96355537Y-76899494D01*
X96414502Y-76789180D01*
X96450812Y-76669482D01*
X96463072Y-76545000D01*
X96460000Y-75865750D01*
X96301250Y-75707000D01*
X95037000Y-75707000D01*
X94783000Y-75707000D01*
X94763000Y-75707000D01*
X94763000Y-75453000D01*
X94783000Y-75453000D01*
X94783000Y-74138750D01*
X95037000Y-74138750D01*
X95037000Y-75453000D01*
X96301250Y-75453000D01*
X96460000Y-75294250D01*
X96463072Y-74615000D01*
X96450812Y-74490518D01*
X96414502Y-74370820D01*
X96355537Y-74260506D01*
X96276185Y-74163815D01*
X96179494Y-74084463D01*
X96069180Y-74025498D01*
X95949482Y-73989188D01*
X95825000Y-73976928D01*
X95195750Y-73980000D01*
X95037000Y-74138750D01*
X94783000Y-74138750D01*
X94624250Y-73980000D01*
X93995000Y-73976928D01*
X93870518Y-73989188D01*
X93750820Y-74025498D01*
X93640506Y-74084463D01*
X93543815Y-74163815D01*
X93464463Y-74260506D01*
X93405498Y-74370820D01*
X93369188Y-74490518D01*
X93356928Y-74615000D01*
X93358105Y-74875140D01*
X93316521Y-74774748D01*
X93130477Y-74496313D01*
X92893687Y-74259523D01*
X92615252Y-74073479D01*
X92305872Y-73945330D01*
X91977435Y-73880000D01*
X91642565Y-73880000D01*
X91314128Y-73945330D01*
X91004748Y-74073479D01*
X90726313Y-74259523D01*
X90489523Y-74496313D01*
X90303479Y-74774748D01*
X90175330Y-75084128D01*
X90110000Y-75412565D01*
X85210000Y-75412565D01*
X85144670Y-75084128D01*
X85016521Y-74774748D01*
X84830477Y-74496313D01*
X84593687Y-74259523D01*
X84369000Y-74109392D01*
X84369000Y-63330562D01*
X84563687Y-63200477D01*
X84800477Y-62963687D01*
X84986521Y-62685252D01*
X85114670Y-62375872D01*
X85180000Y-62047435D01*
X85180000Y-61712565D01*
X90080000Y-61712565D01*
X90080000Y-62047435D01*
X90145330Y-62375872D01*
X90273479Y-62685252D01*
X90459523Y-62963687D01*
X90696313Y-63200477D01*
X90974748Y-63386521D01*
X91284128Y-63514670D01*
X91612565Y-63580000D01*
X91947435Y-63580000D01*
X92275872Y-63514670D01*
X92585252Y-63386521D01*
X92863687Y-63200477D01*
X93100477Y-62963687D01*
X93286521Y-62685252D01*
X93328105Y-62584860D01*
X93326928Y-62845000D01*
X93339188Y-62969482D01*
X93375498Y-63089180D01*
X93434463Y-63199494D01*
X93513815Y-63296185D01*
X93610506Y-63375537D01*
X93720820Y-63434502D01*
X93840518Y-63470812D01*
X93965000Y-63483072D01*
X94594250Y-63480000D01*
X94753000Y-63321250D01*
X94753000Y-62007000D01*
X95007000Y-62007000D01*
X95007000Y-63321250D01*
X95165750Y-63480000D01*
X95795000Y-63483072D01*
X95919482Y-63470812D01*
X96039180Y-63434502D01*
X96149494Y-63375537D01*
X96246185Y-63296185D01*
X96325537Y-63199494D01*
X96384502Y-63089180D01*
X96420812Y-62969482D01*
X96433072Y-62845000D01*
X96430000Y-62165750D01*
X96271250Y-62007000D01*
X95007000Y-62007000D01*
X94753000Y-62007000D01*
X94733000Y-62007000D01*
X94733000Y-61753000D01*
X94753000Y-61753000D01*
X94753000Y-60438750D01*
X95007000Y-60438750D01*
X95007000Y-61753000D01*
X96271250Y-61753000D01*
X96430000Y-61594250D01*
X96433072Y-60915000D01*
X96420812Y-60790518D01*
X96384502Y-60670820D01*
X96325537Y-60560506D01*
X96246185Y-60463815D01*
X96149494Y-60384463D01*
X96039180Y-60325498D01*
X95919482Y-60289188D01*
X95795000Y-60276928D01*
X95165750Y-60280000D01*
X95007000Y-60438750D01*
X94753000Y-60438750D01*
X94594250Y-60280000D01*
X93965000Y-60276928D01*
X93840518Y-60289188D01*
X93720820Y-60325498D01*
X93610506Y-60384463D01*
X93513815Y-60463815D01*
X93434463Y-60560506D01*
X93375498Y-60670820D01*
X93339188Y-60790518D01*
X93326928Y-60915000D01*
X93328105Y-61175140D01*
X93286521Y-61074748D01*
X93100477Y-60796313D01*
X92863687Y-60559523D01*
X92585252Y-60373479D01*
X92275872Y-60245330D01*
X91947435Y-60180000D01*
X91612565Y-60180000D01*
X91284128Y-60245330D01*
X90974748Y-60373479D01*
X90696313Y-60559523D01*
X90459523Y-60796313D01*
X90273479Y-61074748D01*
X90145330Y-61384128D01*
X90080000Y-61712565D01*
X85180000Y-61712565D01*
X85114670Y-61384128D01*
X84986521Y-61074748D01*
X84800477Y-60796313D01*
X84563687Y-60559523D01*
X84369000Y-60429438D01*
X84369000Y-49700608D01*
X84593687Y-49550477D01*
X84830477Y-49313687D01*
X85016521Y-49035252D01*
X85144670Y-48725872D01*
X85210000Y-48397435D01*
X85210000Y-48062565D01*
X90110000Y-48062565D01*
X90110000Y-48397435D01*
X90175330Y-48725872D01*
X90303479Y-49035252D01*
X90489523Y-49313687D01*
X90726313Y-49550477D01*
X91004748Y-49736521D01*
X91314128Y-49864670D01*
X91642565Y-49930000D01*
X91977435Y-49930000D01*
X92305872Y-49864670D01*
X92615252Y-49736521D01*
X92893687Y-49550477D01*
X93130477Y-49313687D01*
X93316521Y-49035252D01*
X93358105Y-48934860D01*
X93356928Y-49195000D01*
X93369188Y-49319482D01*
X93405498Y-49439180D01*
X93464463Y-49549494D01*
X93543815Y-49646185D01*
X93640506Y-49725537D01*
X93750820Y-49784502D01*
X93870518Y-49820812D01*
X93995000Y-49833072D01*
X94624250Y-49830000D01*
X94783000Y-49671250D01*
X94783000Y-48357000D01*
X95037000Y-48357000D01*
X95037000Y-49671250D01*
X95195750Y-49830000D01*
X95825000Y-49833072D01*
X95949482Y-49820812D01*
X96069180Y-49784502D01*
X96179494Y-49725537D01*
X96276185Y-49646185D01*
X96355537Y-49549494D01*
X96414502Y-49439180D01*
X96450812Y-49319482D01*
X96463072Y-49195000D01*
X96460000Y-48515750D01*
X96301250Y-48357000D01*
X95037000Y-48357000D01*
X94783000Y-48357000D01*
X94763000Y-48357000D01*
X94763000Y-48103000D01*
X94783000Y-48103000D01*
X94783000Y-46788750D01*
X95037000Y-46788750D01*
X95037000Y-48103000D01*
X96301250Y-48103000D01*
X96460000Y-47944250D01*
X96463072Y-47265000D01*
X96450812Y-47140518D01*
X96414502Y-47020820D01*
X96355537Y-46910506D01*
X96276185Y-46813815D01*
X96179494Y-46734463D01*
X96069180Y-46675498D01*
X95949482Y-46639188D01*
X95825000Y-46626928D01*
X95195750Y-46630000D01*
X95037000Y-46788750D01*
X94783000Y-46788750D01*
X94624250Y-46630000D01*
X93995000Y-46626928D01*
X93870518Y-46639188D01*
X93750820Y-46675498D01*
X93640506Y-46734463D01*
X93543815Y-46813815D01*
X93464463Y-46910506D01*
X93405498Y-47020820D01*
X93369188Y-47140518D01*
X93356928Y-47265000D01*
X93358105Y-47525140D01*
X93316521Y-47424748D01*
X93130477Y-47146313D01*
X92893687Y-46909523D01*
X92615252Y-46723479D01*
X92305872Y-46595330D01*
X91977435Y-46530000D01*
X91642565Y-46530000D01*
X91314128Y-46595330D01*
X91004748Y-46723479D01*
X90726313Y-46909523D01*
X90489523Y-47146313D01*
X90303479Y-47424748D01*
X90175330Y-47734128D01*
X90110000Y-48062565D01*
X85210000Y-48062565D01*
X85144670Y-47734128D01*
X85016521Y-47424748D01*
X84830477Y-47146313D01*
X84593687Y-46909523D01*
X84315252Y-46723479D01*
X84005872Y-46595330D01*
X83677435Y-46530000D01*
X83342565Y-46530000D01*
X83014128Y-46595330D01*
X82704748Y-46723479D01*
X82426313Y-46909523D01*
X82189523Y-47146313D01*
X82003479Y-47424748D01*
X81875330Y-47734128D01*
X81810000Y-48062565D01*
X81810000Y-48397435D01*
X81875330Y-48725872D01*
X82003479Y-49035252D01*
X82189523Y-49313687D01*
X82426313Y-49550477D01*
X82591001Y-49660518D01*
X82591000Y-60429437D01*
X82396313Y-60559523D01*
X82159523Y-60796313D01*
X81973479Y-61074748D01*
X81845330Y-61384128D01*
X81780000Y-61712565D01*
X81780000Y-62047435D01*
X81845330Y-62375872D01*
X81973479Y-62685252D01*
X82159523Y-62963687D01*
X82396313Y-63200477D01*
X82591000Y-63330563D01*
X82591001Y-74149482D01*
X82426313Y-74259523D01*
X82189523Y-74496313D01*
X82003479Y-74774748D01*
X81875330Y-75084128D01*
X81810000Y-75412565D01*
X81810000Y-75747435D01*
X81875330Y-76075872D01*
X82003479Y-76385252D01*
X82189523Y-76663687D01*
X82426313Y-76900477D01*
X82621000Y-77030563D01*
X82621001Y-87706028D01*
X82376313Y-87869523D01*
X82139523Y-88106313D01*
X81953479Y-88384748D01*
X81825330Y-88694128D01*
X81760000Y-89022565D01*
X79145267Y-89022565D01*
X79145267Y-42508648D01*
X97644109Y-42508648D01*
X97644110Y-150939327D01*
G37*
X97644110Y-150939327D02*
X79145267Y-150939327D01*
X79145267Y-116362565D01*
X81760000Y-116362565D01*
X81760000Y-116697435D01*
X81825330Y-117025872D01*
X81953479Y-117335252D01*
X82139523Y-117613687D01*
X82376313Y-117850477D01*
X82571000Y-117980563D01*
X82571001Y-128769437D01*
X82376313Y-128899523D01*
X82139523Y-129136313D01*
X81953479Y-129414748D01*
X81825330Y-129724128D01*
X81760000Y-130052565D01*
X81760000Y-130387435D01*
X81825330Y-130715872D01*
X81953479Y-131025252D01*
X82139523Y-131303687D01*
X82376313Y-131540477D01*
X82571000Y-131670563D01*
X82571001Y-142429482D01*
X82406313Y-142539523D01*
X82169523Y-142776313D01*
X81983479Y-143054748D01*
X81855330Y-143364128D01*
X81790000Y-143692565D01*
X81790000Y-144027435D01*
X81855330Y-144355872D01*
X81983479Y-144665252D01*
X82169523Y-144943687D01*
X82406313Y-145180477D01*
X82684748Y-145366521D01*
X82994128Y-145494670D01*
X83322565Y-145560000D01*
X83657435Y-145560000D01*
X83985872Y-145494670D01*
X84295252Y-145366521D01*
X84573687Y-145180477D01*
X84810477Y-144943687D01*
X84996521Y-144665252D01*
X85124670Y-144355872D01*
X85190000Y-144027435D01*
X85190000Y-143692565D01*
X90090000Y-143692565D01*
X90090000Y-144027435D01*
X90155330Y-144355872D01*
X90283479Y-144665252D01*
X90469523Y-144943687D01*
X90706313Y-145180477D01*
X90984748Y-145366521D01*
X91294128Y-145494670D01*
X91622565Y-145560000D01*
X91957435Y-145560000D01*
X92285872Y-145494670D01*
X92595252Y-145366521D01*
X92873687Y-145180477D01*
X93110477Y-144943687D01*
X93296521Y-144665252D01*
X93338105Y-144564860D01*
X93336928Y-144825000D01*
X93349188Y-144949482D01*
X93385498Y-145069180D01*
X93444463Y-145179494D01*
X93523815Y-145276185D01*
X93620506Y-145355537D01*
X93730820Y-145414502D01*
X93850518Y-145450812D01*
X93975000Y-145463072D01*
X94604250Y-145460000D01*
X94763000Y-145301250D01*
X94763000Y-143987000D01*
X95017000Y-143987000D01*
X95017000Y-145301250D01*
X95175750Y-145460000D01*
X95805000Y-145463072D01*
X95929482Y-145450812D01*
X96049180Y-145414502D01*
X96159494Y-145355537D01*
X96256185Y-145276185D01*
X96335537Y-145179494D01*
X96394502Y-145069180D01*
X96430812Y-144949482D01*
X96443072Y-144825000D01*
X96440000Y-144145750D01*
X96281250Y-143987000D01*
X95017000Y-143987000D01*
X94763000Y-143987000D01*
X94743000Y-143987000D01*
X94743000Y-143733000D01*
X94763000Y-143733000D01*
X94763000Y-142418750D01*
X95017000Y-142418750D01*
X95017000Y-143733000D01*
X96281250Y-143733000D01*
X96440000Y-143574250D01*
X96443072Y-142895000D01*
X96430812Y-142770518D01*
X96394502Y-142650820D01*
X96335537Y-142540506D01*
X96256185Y-142443815D01*
X96159494Y-142364463D01*
X96049180Y-142305498D01*
X95929482Y-142269188D01*
X95805000Y-142256928D01*
X95175750Y-142260000D01*
X95017000Y-142418750D01*
X94763000Y-142418750D01*
X94604250Y-142260000D01*
X93975000Y-142256928D01*
X93850518Y-142269188D01*
X93730820Y-142305498D01*
X93620506Y-142364463D01*
X93523815Y-142443815D01*
X93444463Y-142540506D01*
X93385498Y-142650820D01*
X93349188Y-142770518D01*
X93336928Y-142895000D01*
X93338105Y-143155140D01*
X93296521Y-143054748D01*
X93110477Y-142776313D01*
X92873687Y-142539523D01*
X92595252Y-142353479D01*
X92285872Y-142225330D01*
X91957435Y-142160000D01*
X91622565Y-142160000D01*
X91294128Y-142225330D01*
X90984748Y-142353479D01*
X90706313Y-142539523D01*
X90469523Y-142776313D01*
X90283479Y-143054748D01*
X90155330Y-143364128D01*
X90090000Y-143692565D01*
X85190000Y-143692565D01*
X85124670Y-143364128D01*
X84996521Y-143054748D01*
X84810477Y-142776313D01*
X84573687Y-142539523D01*
X84349000Y-142389392D01*
X84349000Y-131670562D01*
X84543687Y-131540477D01*
X84780477Y-131303687D01*
X84966521Y-131025252D01*
X85094670Y-130715872D01*
X85160000Y-130387435D01*
X85160000Y-130052565D01*
X90060000Y-130052565D01*
X90060000Y-130387435D01*
X90125330Y-130715872D01*
X90253479Y-131025252D01*
X90439523Y-131303687D01*
X90676313Y-131540477D01*
X90954748Y-131726521D01*
X91264128Y-131854670D01*
X91592565Y-131920000D01*
X91927435Y-131920000D01*
X92255872Y-131854670D01*
X92565252Y-131726521D01*
X92843687Y-131540477D01*
X93080477Y-131303687D01*
X93266521Y-131025252D01*
X93308105Y-130924860D01*
X93306928Y-131185000D01*
X93319188Y-131309482D01*
X93355498Y-131429180D01*
X93414463Y-131539494D01*
X93493815Y-131636185D01*
X93590506Y-131715537D01*
X93700820Y-131774502D01*
X93820518Y-131810812D01*
X93945000Y-131823072D01*
X94574250Y-131820000D01*
X94733000Y-131661250D01*
X94733000Y-130347000D01*
X94987000Y-130347000D01*
X94987000Y-131661250D01*
X95145750Y-131820000D01*
X95775000Y-131823072D01*
X95899482Y-131810812D01*
X96019180Y-131774502D01*
X96129494Y-131715537D01*
X96226185Y-131636185D01*
X96305537Y-131539494D01*
X96364502Y-131429180D01*
X96400812Y-131309482D01*
X96413072Y-131185000D01*
X96410000Y-130505750D01*
X96251250Y-130347000D01*
X94987000Y-130347000D01*
X94733000Y-130347000D01*
X94713000Y-130347000D01*
X94713000Y-130093000D01*
X94733000Y-130093000D01*
X94733000Y-128778750D01*
X94987000Y-128778750D01*
X94987000Y-130093000D01*
X96251250Y-130093000D01*
X96410000Y-129934250D01*
X96413072Y-129255000D01*
X96400812Y-129130518D01*
X96364502Y-129010820D01*
X96305537Y-128900506D01*
X96226185Y-128803815D01*
X96129494Y-128724463D01*
X96019180Y-128665498D01*
X95899482Y-128629188D01*
X95775000Y-128616928D01*
X95145750Y-128620000D01*
X94987000Y-128778750D01*
X94733000Y-128778750D01*
X94574250Y-128620000D01*
X93945000Y-128616928D01*
X93820518Y-128629188D01*
X93700820Y-128665498D01*
X93590506Y-128724463D01*
X93493815Y-128803815D01*
X93414463Y-128900506D01*
X93355498Y-129010820D01*
X93319188Y-129130518D01*
X93306928Y-129255000D01*
X93308105Y-129515140D01*
X93266521Y-129414748D01*
X93080477Y-129136313D01*
X92843687Y-128899523D01*
X92565252Y-128713479D01*
X92255872Y-128585330D01*
X91927435Y-128520000D01*
X91592565Y-128520000D01*
X91264128Y-128585330D01*
X90954748Y-128713479D01*
X90676313Y-128899523D01*
X90439523Y-129136313D01*
X90253479Y-129414748D01*
X90125330Y-129724128D01*
X90060000Y-130052565D01*
X85160000Y-130052565D01*
X85094670Y-129724128D01*
X84966521Y-129414748D01*
X84780477Y-129136313D01*
X84543687Y-128899523D01*
X84349000Y-128769438D01*
X84349000Y-117980562D01*
X84543687Y-117850477D01*
X84780477Y-117613687D01*
X84966521Y-117335252D01*
X85094670Y-117025872D01*
X85160000Y-116697435D01*
X85160000Y-116362565D01*
X90060000Y-116362565D01*
X90060000Y-116697435D01*
X90125330Y-117025872D01*
X90253479Y-117335252D01*
X90439523Y-117613687D01*
X90676313Y-117850477D01*
X90954748Y-118036521D01*
X91264128Y-118164670D01*
X91592565Y-118230000D01*
X91927435Y-118230000D01*
X92255872Y-118164670D01*
X92565252Y-118036521D01*
X92843687Y-117850477D01*
X93080477Y-117613687D01*
X93266521Y-117335252D01*
X93308105Y-117234860D01*
X93306928Y-117495000D01*
X93319188Y-117619482D01*
X93355498Y-117739180D01*
X93414463Y-117849494D01*
X93493815Y-117946185D01*
X93590506Y-118025537D01*
X93700820Y-118084502D01*
X93820518Y-118120812D01*
X93945000Y-118133072D01*
X94574250Y-118130000D01*
X94733000Y-117971250D01*
X94733000Y-116657000D01*
X94987000Y-116657000D01*
X94987000Y-117971250D01*
X95145750Y-118130000D01*
X95775000Y-118133072D01*
X95899482Y-118120812D01*
X96019180Y-118084502D01*
X96129494Y-118025537D01*
X96226185Y-117946185D01*
X96305537Y-117849494D01*
X96364502Y-117739180D01*
X96400812Y-117619482D01*
X96413072Y-117495000D01*
X96410000Y-116815750D01*
X96251250Y-116657000D01*
X94987000Y-116657000D01*
X94733000Y-116657000D01*
X94713000Y-116657000D01*
X94713000Y-116403000D01*
X94733000Y-116403000D01*
X94733000Y-115088750D01*
X94987000Y-115088750D01*
X94987000Y-116403000D01*
X96251250Y-116403000D01*
X96410000Y-116244250D01*
X96413072Y-115565000D01*
X96400812Y-115440518D01*
X96364502Y-115320820D01*
X96305537Y-115210506D01*
X96226185Y-115113815D01*
X96129494Y-115034463D01*
X96019180Y-114975498D01*
X95899482Y-114939188D01*
X95775000Y-114926928D01*
X95145750Y-114930000D01*
X94987000Y-115088750D01*
X94733000Y-115088750D01*
X94574250Y-114930000D01*
X93945000Y-114926928D01*
X93820518Y-114939188D01*
X93700820Y-114975498D01*
X93590506Y-115034463D01*
X93493815Y-115113815D01*
X93414463Y-115210506D01*
X93355498Y-115320820D01*
X93319188Y-115440518D01*
X93306928Y-115565000D01*
X93308105Y-115825140D01*
X93266521Y-115724748D01*
X93080477Y-115446313D01*
X92843687Y-115209523D01*
X92565252Y-115023479D01*
X92255872Y-114895330D01*
X91927435Y-114830000D01*
X91592565Y-114830000D01*
X91264128Y-114895330D01*
X90954748Y-115023479D01*
X90676313Y-115209523D01*
X90439523Y-115446313D01*
X90253479Y-115724748D01*
X90125330Y-116034128D01*
X90060000Y-116362565D01*
X85160000Y-116362565D01*
X85094670Y-116034128D01*
X84966521Y-115724748D01*
X84780477Y-115446313D01*
X84543687Y-115209523D01*
X84369000Y-115092801D01*
X84369000Y-104320562D01*
X84563687Y-104190477D01*
X84800477Y-103953687D01*
X84986521Y-103675252D01*
X85114670Y-103365872D01*
X85180000Y-103037435D01*
X85180000Y-102702565D01*
X85114670Y-102374128D01*
X84986521Y-102064748D01*
X84800477Y-101786313D01*
X84563687Y-101549523D01*
X84285252Y-101363479D01*
X83975872Y-101235330D01*
X83647435Y-101170000D01*
X83312565Y-101170000D01*
X82984128Y-101235330D01*
X82674748Y-101363479D01*
X82396313Y-101549523D01*
X82159523Y-101786313D01*
X81973479Y-102064748D01*
X81845330Y-102374128D01*
X81780000Y-102702565D01*
X81780000Y-103037435D01*
X81845330Y-103365872D01*
X81973479Y-103675252D01*
X82159523Y-103953687D01*
X82396313Y-104190477D01*
X82591000Y-104320563D01*
X82591001Y-115066073D01*
X82376313Y-115209523D01*
X82139523Y-115446313D01*
X81953479Y-115724748D01*
X81825330Y-116034128D01*
X81760000Y-116362565D01*
X79145267Y-116362565D01*
X79145267Y-89022565D01*
X81760000Y-89022565D01*
X81760000Y-89357435D01*
X81825330Y-89685872D01*
X81953479Y-89995252D01*
X82139523Y-90273687D01*
X82376313Y-90510477D01*
X82571001Y-90640563D01*
X82571001Y-91346330D01*
X82566700Y-91390000D01*
X82583864Y-91564274D01*
X82634698Y-91731852D01*
X82717248Y-91886291D01*
X82828342Y-92021659D01*
X82862259Y-92049494D01*
X90963636Y-100150872D01*
X90963637Y-101370903D01*
X90696313Y-101549523D01*
X90459523Y-101786313D01*
X90273479Y-102064748D01*
X90145330Y-102374128D01*
X90080000Y-102702565D01*
X90080000Y-103037435D01*
X90145330Y-103365872D01*
X90273479Y-103675252D01*
X90459523Y-103953687D01*
X90696313Y-104190477D01*
X90974748Y-104376521D01*
X91284128Y-104504670D01*
X91612565Y-104570000D01*
X91947435Y-104570000D01*
X92275872Y-104504670D01*
X92585252Y-104376521D01*
X92863687Y-104190477D01*
X93100477Y-103953687D01*
X93286521Y-103675252D01*
X93328105Y-103574860D01*
X93326928Y-103835000D01*
X93339188Y-103959482D01*
X93375498Y-104079180D01*
X93434463Y-104189494D01*
X93513815Y-104286185D01*
X93610506Y-104365537D01*
X93720820Y-104424502D01*
X93840518Y-104460812D01*
X93965000Y-104473072D01*
X94594250Y-104470000D01*
X94753000Y-104311250D01*
X94753000Y-102997000D01*
X95007000Y-102997000D01*
X95007000Y-104311250D01*
X95165750Y-104470000D01*
X95795000Y-104473072D01*
X95919482Y-104460812D01*
X96039180Y-104424502D01*
X96149494Y-104365537D01*
X96246185Y-104286185D01*
X96325537Y-104189494D01*
X96384502Y-104079180D01*
X96420812Y-103959482D01*
X96433072Y-103835000D01*
X96430000Y-103155750D01*
X96271250Y-102997000D01*
X95007000Y-102997000D01*
X94753000Y-102997000D01*
X94733000Y-102997000D01*
X94733000Y-102743000D01*
X94753000Y-102743000D01*
X94753000Y-101428750D01*
X95007000Y-101428750D01*
X95007000Y-102743000D01*
X96271250Y-102743000D01*
X96430000Y-102584250D01*
X96433072Y-101905000D01*
X96420812Y-101780518D01*
X96384502Y-101660820D01*
X96325537Y-101550506D01*
X96246185Y-101453815D01*
X96149494Y-101374463D01*
X96039180Y-101315498D01*
X95919482Y-101279188D01*
X95795000Y-101266928D01*
X95165750Y-101270000D01*
X95007000Y-101428750D01*
X94753000Y-101428750D01*
X94594250Y-101270000D01*
X93965000Y-101266928D01*
X93840518Y-101279188D01*
X93720820Y-101315498D01*
X93610506Y-101374463D01*
X93513815Y-101453815D01*
X93434463Y-101550506D01*
X93375498Y-101660820D01*
X93339188Y-101780518D01*
X93326928Y-101905000D01*
X93328105Y-102165140D01*
X93286521Y-102064748D01*
X93100477Y-101786313D01*
X92863687Y-101549523D01*
X92741636Y-101467971D01*
X92741636Y-99826296D01*
X92745936Y-99782636D01*
X92741636Y-99738976D01*
X92741636Y-99738969D01*
X92728772Y-99608362D01*
X92677939Y-99440785D01*
X92595389Y-99286345D01*
X92484295Y-99150977D01*
X92450379Y-99123143D01*
X84349000Y-91021765D01*
X84349000Y-90640562D01*
X84543687Y-90510477D01*
X84780477Y-90273687D01*
X84966521Y-89995252D01*
X85094670Y-89685872D01*
X85160000Y-89357435D01*
X85160000Y-89022565D01*
X90060000Y-89022565D01*
X90060000Y-89357435D01*
X90125330Y-89685872D01*
X90253479Y-89995252D01*
X90439523Y-90273687D01*
X90676313Y-90510477D01*
X90954748Y-90696521D01*
X91264128Y-90824670D01*
X91592565Y-90890000D01*
X91927435Y-90890000D01*
X92255872Y-90824670D01*
X92565252Y-90696521D01*
X92843687Y-90510477D01*
X93080477Y-90273687D01*
X93266521Y-89995252D01*
X93308105Y-89894860D01*
X93306928Y-90155000D01*
X93319188Y-90279482D01*
X93355498Y-90399180D01*
X93414463Y-90509494D01*
X93493815Y-90606185D01*
X93590506Y-90685537D01*
X93700820Y-90744502D01*
X93820518Y-90780812D01*
X93945000Y-90793072D01*
X94574250Y-90790000D01*
X94733000Y-90631250D01*
X94733000Y-89317000D01*
X94987000Y-89317000D01*
X94987000Y-90631250D01*
X95145750Y-90790000D01*
X95775000Y-90793072D01*
X95899482Y-90780812D01*
X96019180Y-90744502D01*
X96129494Y-90685537D01*
X96226185Y-90606185D01*
X96305537Y-90509494D01*
X96364502Y-90399180D01*
X96400812Y-90279482D01*
X96413072Y-90155000D01*
X96410000Y-89475750D01*
X96251250Y-89317000D01*
X94987000Y-89317000D01*
X94733000Y-89317000D01*
X94713000Y-89317000D01*
X94713000Y-89063000D01*
X94733000Y-89063000D01*
X94733000Y-87748750D01*
X94987000Y-87748750D01*
X94987000Y-89063000D01*
X96251250Y-89063000D01*
X96410000Y-88904250D01*
X96413072Y-88225000D01*
X96400812Y-88100518D01*
X96364502Y-87980820D01*
X96305537Y-87870506D01*
X96226185Y-87773815D01*
X96129494Y-87694463D01*
X96019180Y-87635498D01*
X95899482Y-87599188D01*
X95775000Y-87586928D01*
X95145750Y-87590000D01*
X94987000Y-87748750D01*
X94733000Y-87748750D01*
X94574250Y-87590000D01*
X93945000Y-87586928D01*
X93820518Y-87599188D01*
X93700820Y-87635498D01*
X93590506Y-87694463D01*
X93493815Y-87773815D01*
X93414463Y-87870506D01*
X93355498Y-87980820D01*
X93319188Y-88100518D01*
X93306928Y-88225000D01*
X93308105Y-88485140D01*
X93266521Y-88384748D01*
X93080477Y-88106313D01*
X92843687Y-87869523D01*
X92565252Y-87683479D01*
X92255872Y-87555330D01*
X91927435Y-87490000D01*
X91592565Y-87490000D01*
X91264128Y-87555330D01*
X90954748Y-87683479D01*
X90676313Y-87869523D01*
X90439523Y-88106313D01*
X90253479Y-88384748D01*
X90125330Y-88694128D01*
X90060000Y-89022565D01*
X85160000Y-89022565D01*
X85094670Y-88694128D01*
X84966521Y-88384748D01*
X84780477Y-88106313D01*
X84543687Y-87869523D01*
X84399000Y-87772846D01*
X84399000Y-77030562D01*
X84593687Y-76900477D01*
X84830477Y-76663687D01*
X85016521Y-76385252D01*
X85144670Y-76075872D01*
X85210000Y-75747435D01*
X85210000Y-75412565D01*
X90110000Y-75412565D01*
X90110000Y-75747435D01*
X90175330Y-76075872D01*
X90303479Y-76385252D01*
X90489523Y-76663687D01*
X90726313Y-76900477D01*
X91004748Y-77086521D01*
X91314128Y-77214670D01*
X91642565Y-77280000D01*
X91977435Y-77280000D01*
X92305872Y-77214670D01*
X92615252Y-77086521D01*
X92893687Y-76900477D01*
X93130477Y-76663687D01*
X93316521Y-76385252D01*
X93358105Y-76284860D01*
X93356928Y-76545000D01*
X93369188Y-76669482D01*
X93405498Y-76789180D01*
X93464463Y-76899494D01*
X93543815Y-76996185D01*
X93640506Y-77075537D01*
X93750820Y-77134502D01*
X93870518Y-77170812D01*
X93995000Y-77183072D01*
X94624250Y-77180000D01*
X94783000Y-77021250D01*
X94783000Y-75707000D01*
X95037000Y-75707000D01*
X95037000Y-77021250D01*
X95195750Y-77180000D01*
X95825000Y-77183072D01*
X95949482Y-77170812D01*
X96069180Y-77134502D01*
X96179494Y-77075537D01*
X96276185Y-76996185D01*
X96355537Y-76899494D01*
X96414502Y-76789180D01*
X96450812Y-76669482D01*
X96463072Y-76545000D01*
X96460000Y-75865750D01*
X96301250Y-75707000D01*
X95037000Y-75707000D01*
X94783000Y-75707000D01*
X94763000Y-75707000D01*
X94763000Y-75453000D01*
X94783000Y-75453000D01*
X94783000Y-74138750D01*
X95037000Y-74138750D01*
X95037000Y-75453000D01*
X96301250Y-75453000D01*
X96460000Y-75294250D01*
X96463072Y-74615000D01*
X96450812Y-74490518D01*
X96414502Y-74370820D01*
X96355537Y-74260506D01*
X96276185Y-74163815D01*
X96179494Y-74084463D01*
X96069180Y-74025498D01*
X95949482Y-73989188D01*
X95825000Y-73976928D01*
X95195750Y-73980000D01*
X95037000Y-74138750D01*
X94783000Y-74138750D01*
X94624250Y-73980000D01*
X93995000Y-73976928D01*
X93870518Y-73989188D01*
X93750820Y-74025498D01*
X93640506Y-74084463D01*
X93543815Y-74163815D01*
X93464463Y-74260506D01*
X93405498Y-74370820D01*
X93369188Y-74490518D01*
X93356928Y-74615000D01*
X93358105Y-74875140D01*
X93316521Y-74774748D01*
X93130477Y-74496313D01*
X92893687Y-74259523D01*
X92615252Y-74073479D01*
X92305872Y-73945330D01*
X91977435Y-73880000D01*
X91642565Y-73880000D01*
X91314128Y-73945330D01*
X91004748Y-74073479D01*
X90726313Y-74259523D01*
X90489523Y-74496313D01*
X90303479Y-74774748D01*
X90175330Y-75084128D01*
X90110000Y-75412565D01*
X85210000Y-75412565D01*
X85144670Y-75084128D01*
X85016521Y-74774748D01*
X84830477Y-74496313D01*
X84593687Y-74259523D01*
X84369000Y-74109392D01*
X84369000Y-63330562D01*
X84563687Y-63200477D01*
X84800477Y-62963687D01*
X84986521Y-62685252D01*
X85114670Y-62375872D01*
X85180000Y-62047435D01*
X85180000Y-61712565D01*
X90080000Y-61712565D01*
X90080000Y-62047435D01*
X90145330Y-62375872D01*
X90273479Y-62685252D01*
X90459523Y-62963687D01*
X90696313Y-63200477D01*
X90974748Y-63386521D01*
X91284128Y-63514670D01*
X91612565Y-63580000D01*
X91947435Y-63580000D01*
X92275872Y-63514670D01*
X92585252Y-63386521D01*
X92863687Y-63200477D01*
X93100477Y-62963687D01*
X93286521Y-62685252D01*
X93328105Y-62584860D01*
X93326928Y-62845000D01*
X93339188Y-62969482D01*
X93375498Y-63089180D01*
X93434463Y-63199494D01*
X93513815Y-63296185D01*
X93610506Y-63375537D01*
X93720820Y-63434502D01*
X93840518Y-63470812D01*
X93965000Y-63483072D01*
X94594250Y-63480000D01*
X94753000Y-63321250D01*
X94753000Y-62007000D01*
X95007000Y-62007000D01*
X95007000Y-63321250D01*
X95165750Y-63480000D01*
X95795000Y-63483072D01*
X95919482Y-63470812D01*
X96039180Y-63434502D01*
X96149494Y-63375537D01*
X96246185Y-63296185D01*
X96325537Y-63199494D01*
X96384502Y-63089180D01*
X96420812Y-62969482D01*
X96433072Y-62845000D01*
X96430000Y-62165750D01*
X96271250Y-62007000D01*
X95007000Y-62007000D01*
X94753000Y-62007000D01*
X94733000Y-62007000D01*
X94733000Y-61753000D01*
X94753000Y-61753000D01*
X94753000Y-60438750D01*
X95007000Y-60438750D01*
X95007000Y-61753000D01*
X96271250Y-61753000D01*
X96430000Y-61594250D01*
X96433072Y-60915000D01*
X96420812Y-60790518D01*
X96384502Y-60670820D01*
X96325537Y-60560506D01*
X96246185Y-60463815D01*
X96149494Y-60384463D01*
X96039180Y-60325498D01*
X95919482Y-60289188D01*
X95795000Y-60276928D01*
X95165750Y-60280000D01*
X95007000Y-60438750D01*
X94753000Y-60438750D01*
X94594250Y-60280000D01*
X93965000Y-60276928D01*
X93840518Y-60289188D01*
X93720820Y-60325498D01*
X93610506Y-60384463D01*
X93513815Y-60463815D01*
X93434463Y-60560506D01*
X93375498Y-60670820D01*
X93339188Y-60790518D01*
X93326928Y-60915000D01*
X93328105Y-61175140D01*
X93286521Y-61074748D01*
X93100477Y-60796313D01*
X92863687Y-60559523D01*
X92585252Y-60373479D01*
X92275872Y-60245330D01*
X91947435Y-60180000D01*
X91612565Y-60180000D01*
X91284128Y-60245330D01*
X90974748Y-60373479D01*
X90696313Y-60559523D01*
X90459523Y-60796313D01*
X90273479Y-61074748D01*
X90145330Y-61384128D01*
X90080000Y-61712565D01*
X85180000Y-61712565D01*
X85114670Y-61384128D01*
X84986521Y-61074748D01*
X84800477Y-60796313D01*
X84563687Y-60559523D01*
X84369000Y-60429438D01*
X84369000Y-49700608D01*
X84593687Y-49550477D01*
X84830477Y-49313687D01*
X85016521Y-49035252D01*
X85144670Y-48725872D01*
X85210000Y-48397435D01*
X85210000Y-48062565D01*
X90110000Y-48062565D01*
X90110000Y-48397435D01*
X90175330Y-48725872D01*
X90303479Y-49035252D01*
X90489523Y-49313687D01*
X90726313Y-49550477D01*
X91004748Y-49736521D01*
X91314128Y-49864670D01*
X91642565Y-49930000D01*
X91977435Y-49930000D01*
X92305872Y-49864670D01*
X92615252Y-49736521D01*
X92893687Y-49550477D01*
X93130477Y-49313687D01*
X93316521Y-49035252D01*
X93358105Y-48934860D01*
X93356928Y-49195000D01*
X93369188Y-49319482D01*
X93405498Y-49439180D01*
X93464463Y-49549494D01*
X93543815Y-49646185D01*
X93640506Y-49725537D01*
X93750820Y-49784502D01*
X93870518Y-49820812D01*
X93995000Y-49833072D01*
X94624250Y-49830000D01*
X94783000Y-49671250D01*
X94783000Y-48357000D01*
X95037000Y-48357000D01*
X95037000Y-49671250D01*
X95195750Y-49830000D01*
X95825000Y-49833072D01*
X95949482Y-49820812D01*
X96069180Y-49784502D01*
X96179494Y-49725537D01*
X96276185Y-49646185D01*
X96355537Y-49549494D01*
X96414502Y-49439180D01*
X96450812Y-49319482D01*
X96463072Y-49195000D01*
X96460000Y-48515750D01*
X96301250Y-48357000D01*
X95037000Y-48357000D01*
X94783000Y-48357000D01*
X94763000Y-48357000D01*
X94763000Y-48103000D01*
X94783000Y-48103000D01*
X94783000Y-46788750D01*
X95037000Y-46788750D01*
X95037000Y-48103000D01*
X96301250Y-48103000D01*
X96460000Y-47944250D01*
X96463072Y-47265000D01*
X96450812Y-47140518D01*
X96414502Y-47020820D01*
X96355537Y-46910506D01*
X96276185Y-46813815D01*
X96179494Y-46734463D01*
X96069180Y-46675498D01*
X95949482Y-46639188D01*
X95825000Y-46626928D01*
X95195750Y-46630000D01*
X95037000Y-46788750D01*
X94783000Y-46788750D01*
X94624250Y-46630000D01*
X93995000Y-46626928D01*
X93870518Y-46639188D01*
X93750820Y-46675498D01*
X93640506Y-46734463D01*
X93543815Y-46813815D01*
X93464463Y-46910506D01*
X93405498Y-47020820D01*
X93369188Y-47140518D01*
X93356928Y-47265000D01*
X93358105Y-47525140D01*
X93316521Y-47424748D01*
X93130477Y-47146313D01*
X92893687Y-46909523D01*
X92615252Y-46723479D01*
X92305872Y-46595330D01*
X91977435Y-46530000D01*
X91642565Y-46530000D01*
X91314128Y-46595330D01*
X91004748Y-46723479D01*
X90726313Y-46909523D01*
X90489523Y-47146313D01*
X90303479Y-47424748D01*
X90175330Y-47734128D01*
X90110000Y-48062565D01*
X85210000Y-48062565D01*
X85144670Y-47734128D01*
X85016521Y-47424748D01*
X84830477Y-47146313D01*
X84593687Y-46909523D01*
X84315252Y-46723479D01*
X84005872Y-46595330D01*
X83677435Y-46530000D01*
X83342565Y-46530000D01*
X83014128Y-46595330D01*
X82704748Y-46723479D01*
X82426313Y-46909523D01*
X82189523Y-47146313D01*
X82003479Y-47424748D01*
X81875330Y-47734128D01*
X81810000Y-48062565D01*
X81810000Y-48397435D01*
X81875330Y-48725872D01*
X82003479Y-49035252D01*
X82189523Y-49313687D01*
X82426313Y-49550477D01*
X82591001Y-49660518D01*
X82591000Y-60429437D01*
X82396313Y-60559523D01*
X82159523Y-60796313D01*
X81973479Y-61074748D01*
X81845330Y-61384128D01*
X81780000Y-61712565D01*
X81780000Y-62047435D01*
X81845330Y-62375872D01*
X81973479Y-62685252D01*
X82159523Y-62963687D01*
X82396313Y-63200477D01*
X82591000Y-63330563D01*
X82591001Y-74149482D01*
X82426313Y-74259523D01*
X82189523Y-74496313D01*
X82003479Y-74774748D01*
X81875330Y-75084128D01*
X81810000Y-75412565D01*
X81810000Y-75747435D01*
X81875330Y-76075872D01*
X82003479Y-76385252D01*
X82189523Y-76663687D01*
X82426313Y-76900477D01*
X82621000Y-77030563D01*
X82621001Y-87706028D01*
X82376313Y-87869523D01*
X82139523Y-88106313D01*
X81953479Y-88384748D01*
X81825330Y-88694128D01*
X81760000Y-89022565D01*
X79145267Y-89022565D01*
X79145267Y-42508648D01*
X97644109Y-42508648D01*
X97644110Y-150939327D01*
%TD*%
M02*
