  0
SECTION
  2
HEADER
  9
$ACADVER
  1
AC1014
  9
$HANDSEED
  5
FFFF
  9
$MEASUREMENT
 70
     1
  0
ENDSEC
  0
SECTION
  2
TABLES
  0
TABLE
  2
VPORT
  5
8
330
0
100
AcDbSymbolTable
 70
     4
  0
VPORT
  5
2E
330
8
100
AcDbSymbolTableRecord
100
AcDbViewportTableRecord
  2
*ACTIVE
 70
     0
 10
0.0
 20
0.0
 11
1.0
 21
1.0
 12
210.0
 22
148.5
 13
0.0
 23
0.0
 14
10.0
 24
10.0
 15
10.0
 25
10.0
 16
0.0
 26
0.0
 36
1.0
 17
0.0
 27
0.0
 37
0.0
 40
341.0
 41
1.24
 42
50.0
 43
0.0
 44
0.0
 50
0.0
 51
0.0
 71
     0
 72
   100
 73
     1
 74
     3
 75
     0
 76
     0
 77
     0
 78
     0
  0
ENDTAB
  0
TABLE
  2
LTYPE
  5
5
330
0
100
AcDbSymbolTable
 70
     1
  0
LTYPE
  5
14
330
5
100
AcDbSymbolTableRecord
100
AcDbLinetypeTableRecord
  2
BYBLOCK
 70
     0
  3

 72
    65
 73
     0
 40
0.0
  0
LTYPE
  5
15
330
5
100
AcDbSymbolTableRecord
100
AcDbLinetypeTableRecord
  2
BYLAYER
 70
     0
  3

 72
    65
 73
     0
 40
0.0
  0
LTYPE
  5
16
330
5
100
AcDbSymbolTableRecord
100
AcDbLinetypeTableRecord
  2
CONTINUOUS
 70
     0
  3
Solid line
 72
    65
 73
     0
 40
0.0
  0
ENDTAB
  0
TABLE
  2
LAYER
  5
2
100
AcDbSymbolTable
 70
3
  0
LAYER
  5
50
100
AcDbSymbolTableRecord
100
AcDbLayerTableRecord
  2
0
 70
0
  6
CONTINUOUS
  0
LAYER
  5
51
100
AcDbSymbolTableRecord
100
AcDbLayerTableRecord
  2
edge_cuts
 70
0
  6
CONTINUOUS
  0
LAYER
  5
52
100
AcDbSymbolTableRecord
100
AcDbLayerTableRecord
  2
pulsar
 70
0
  6
CONTINUOUS
  0
ENDTAB
  0
TABLE
  2
STYLE
  5
3
330
0
100
AcDbSymbolTable
 70
     1
  0
STYLE
  5
11
330
3
100
AcDbSymbolTableRecord
100
AcDbTextStyleTableRecord
  2
STANDARD
 70
     0
 40
0.0
 41
1.0
 50
0.0
 71
     0
 42
2.5
  3
txt
  4

  0
ENDTAB
  0
TABLE
  2
VIEW
  5
6
330
0
100
AcDbSymbolTable
 70
     0
  0
ENDTAB
  0
TABLE
  2
UCS
  5
7
330
0
100
AcDbSymbolTable
 70
     0
  0
ENDTAB
  0
TABLE
  2
APPID
  5
9
330
0
100
AcDbSymbolTable
 70
     2
  0
APPID
  5
12
330
9
100
AcDbSymbolTableRecord
100
AcDbRegAppTableRecord
  2
ACAD
 70
     0
  0
ENDTAB
  0
TABLE
  2
DIMSTYLE
  5
A
330
0
100
AcDbSymbolTable
 70
     1
  0
DIMSTYLE
105
27
330
A
100
AcDbSymbolTableRecord
100
AcDbDimStyleTableRecord
  2
ISO-25
 70
     0
  3

  4

  5

  6

  7

 40
1.0
 41
2.5
 42
0.625
 43
3.75
 44
1.25
 45
0.0
 46
0.0
 47
0.0
 48
0.0
140
2.5
141
2.5
142
0.0
143
0.03937007874016
144
1.0
145
0.0
146
1.0
147
0.625
 71
     0
 72
     0
 73
     0
 74
     0
 75
     0
 76
     0
 77
     1
 78
     8
170
     0
171
     3
172
     1
173
     0
174
     0
175
     0
176
     0
177
     0
178
     0
270
     2
271
     2
272
     2
273
     2
274
     3
340
11
275
     0
280
     0
281
     0
282
     0
283
     0
284
     8
285
     0
286
     0
287
     3
288
     0
  0
ENDTAB
  0
TABLE
  2
BLOCK_RECORD
  5
1
330
0
100
AcDbSymbolTable
 70
     1
  0
BLOCK_RECORD
  5
1F
330
1
100
AcDbSymbolTableRecord
100
AcDbBlockTableRecord
  2
*MODEL_SPACE
  0
BLOCK_RECORD
  5
1B
330
1
100
AcDbSymbolTableRecord
100
AcDbBlockTableRecord
  2
*PAPER_SPACE
  0
ENDTAB
  0
ENDSEC
  0
SECTION
  2
BLOCKS
  0
BLOCK
  5
20
330
1F
100
AcDbEntity
  8
0
100
AcDbBlockBegin
  2
*MODEL_SPACE
 70
     0
 10
0.0
 20
0.0
 30
0.0
  3
*MODEL_SPACE
  1

  0
ENDBLK
  5
21
330
1F
100
AcDbEntity
  8
0
100
AcDbBlockEnd
  0
BLOCK
  5
1C
330
1B
100
AcDbEntity
 67
     1
  8
0
100
AcDbBlockBegin
  2
*PAPER_SPACE
  1

  0
ENDBLK
  5
1D
330
1B
100
AcDbEntity
 67
     1
  8
0
100
AcDbBlockEnd
  0
ENDSEC
  0
SECTION
  2
ENTITIES
  0
SPLINE
  5
100
100
AcDbEntity
  8
edge_cuts
 62
7
100
AcDbSpline
 70
8
 71
3
 72
8
 73
4
 74
0
 40
0
 40
0
 40
0
 40
0
 40
1
 40
1
 40
1
 40
1
 10
7.499997
 20
295.551516
 30
0.0
 10
6.872468
 20
295.551516
 30
0.0
 10
6.306729
 20
295.173501
 30
0.0
 10
6.066584
 20
294.593740
 30
0.0
  0
SPLINE
  5
101
100
AcDbEntity
  8
edge_cuts
 62
7
100
AcDbSpline
 70
8
 71
3
 72
8
 73
4
 74
0
 40
0
 40
0
 40
0
 40
0
 40
1
 40
1
 40
1
 40
1
 10
6.066584
 20
294.593740
 30
0.0
 10
5.826439
 20
294.013978
 30
0.0
 10
5.959180
 20
293.346644
 30
0.0
 10
6.402910
 20
292.902914
 30
0.0
  0
SPLINE
  5
102
100
AcDbEntity
  8
edge_cuts
 62
7
100
AcDbSpline
 70
8
 71
3
 72
8
 73
4
 74
0
 40
0
 40
0
 40
0
 40
0
 40
1
 40
1
 40
1
 40
1
 10
6.402910
 20
292.902914
 30
0.0
 10
6.846640
 20
292.459184
 30
0.0
 10
7.513975
 20
292.326442
 30
0.0
 10
8.093736
 20
292.566588
 30
0.0
  0
SPLINE
  5
103
100
AcDbEntity
  8
edge_cuts
 62
7
100
AcDbSpline
 70
8
 71
3
 72
8
 73
4
 74
0
 40
0
 40
0
 40
0
 40
0
 40
1
 40
1
 40
1
 40
1
 10
8.093736
 20
292.566588
 30
0.0
 10
8.673498
 20
292.806733
 30
0.0
 10
9.051512
 20
293.372471
 30
0.0
 10
9.051512
 20
294.000001
 30
0.0
  0
SPLINE
  5
104
100
AcDbEntity
  8
edge_cuts
 62
7
100
AcDbSpline
 70
8
 71
3
 72
8
 73
4
 74
0
 40
0
 40
0
 40
0
 40
0
 40
1
 40
1
 40
1
 40
1
 10
9.051512
 20
294.000001
 30
0.0
 10
9.051512
 20
294.856879
 30
0.0
 10
8.356875
 20
295.551516
 30
0.0
 10
7.499997
 20
295.551516
 30
0.0
  0
LWPOLYLINE
  5
105
100
AcDbEntity
  8
edge_cuts
 62
7
100
AcDbPolyline
 90
4
 70
1
 10
0.060983
 20
296.939025
 30
0.0
 10
50.439035
 20
296.939025
 30
0.0
 10
50.439035
 20
168.560975
 30
0.0
 10
0.060983
 20
168.560975
 30
0.0
  0
SPLINE
  5
106
100
AcDbEntity
  8
edge_cuts
 62
7
100
AcDbSpline
 70
8
 71
3
 72
8
 73
4
 74
0
 40
0
 40
0
 40
0
 40
0
 40
1
 40
1
 40
1
 40
1
 10
7.494874
 20
173.051495
 30
0.0
 10
6.867345
 20
173.051495
 30
0.0
 10
6.301606
 20
172.673481
 30
0.0
 10
6.061461
 20
172.093719
 30
0.0
  0
SPLINE
  5
107
100
AcDbEntity
  8
edge_cuts
 62
7
100
AcDbSpline
 70
8
 71
3
 72
8
 73
4
 74
0
 40
0
 40
0
 40
0
 40
0
 40
1
 40
1
 40
1
 40
1
 10
6.061461
 20
172.093719
 30
0.0
 10
5.821316
 20
171.513958
 30
0.0
 10
5.954057
 20
170.846623
 30
0.0
 10
6.397787
 20
170.402893
 30
0.0
  0
SPLINE
  5
108
100
AcDbEntity
  8
edge_cuts
 62
7
100
AcDbSpline
 70
8
 71
3
 72
8
 73
4
 74
0
 40
0
 40
0
 40
0
 40
0
 40
1
 40
1
 40
1
 40
1
 10
6.397787
 20
170.402893
 30
0.0
 10
6.841517
 20
169.959163
 30
0.0
 10
7.508852
 20
169.826422
 30
0.0
 10
8.088613
 20
170.066567
 30
0.0
  0
SPLINE
  5
109
100
AcDbEntity
  8
edge_cuts
 62
7
100
AcDbSpline
 70
8
 71
3
 72
8
 73
4
 74
0
 40
0
 40
0
 40
0
 40
0
 40
1
 40
1
 40
1
 40
1
 10
8.088613
 20
170.066567
 30
0.0
 10
8.668375
 20
170.306712
 30
0.0
 10
9.046389
 20
170.872451
 30
0.0
 10
9.046389
 20
171.499980
 30
0.0
  0
SPLINE
  5
10a
100
AcDbEntity
  8
edge_cuts
 62
7
100
AcDbSpline
 70
8
 71
3
 72
8
 73
4
 74
0
 40
0
 40
0
 40
0
 40
0
 40
1
 40
1
 40
1
 40
1
 10
9.046389
 20
171.499980
 30
0.0
 10
9.046389
 20
171.911467
 30
0.0
 10
8.882926
 20
172.306101
 30
0.0
 10
8.591961
 20
172.597067
 30
0.0
  0
SPLINE
  5
10b
100
AcDbEntity
  8
edge_cuts
 62
7
100
AcDbSpline
 70
8
 71
3
 72
8
 73
4
 74
0
 40
0
 40
0
 40
0
 40
0
 40
1
 40
1
 40
1
 40
1
 10
8.591961
 20
172.597067
 30
0.0
 10
8.300995
 20
172.888032
 30
0.0
 10
7.906361
 20
173.051495
 30
0.0
 10
7.494874
 20
173.051495
 30
0.0
  0
LWPOLYLINE
  5
10c
100
AcDbEntity
  8
edge_cuts
 62
7
100
AcDbPolyline
 90
1
 70
1
 10
7.499997
 20
295.551516
 30
0.0
  0
SPLINE
  5
10d
100
AcDbEntity
  8
edge_cuts
 62
7
100
AcDbSpline
 70
8
 71
3
 72
8
 73
4
 74
0
 40
0
 40
0
 40
0
 40
0
 40
1
 40
1
 40
1
 40
1
 10
43.001720
 20
295.549342
 30
0.0
 10
42.374191
 20
295.549342
 30
0.0
 10
41.808452
 20
295.171327
 30
0.0
 10
41.568307
 20
294.591565
 30
0.0
  0
SPLINE
  5
10e
100
AcDbEntity
  8
edge_cuts
 62
7
100
AcDbSpline
 70
8
 71
3
 72
8
 73
4
 74
0
 40
0
 40
0
 40
0
 40
0
 40
1
 40
1
 40
1
 40
1
 10
41.568307
 20
294.591565
 30
0.0
 10
41.328162
 20
294.011804
 30
0.0
 10
41.460903
 20
293.344470
 30
0.0
 10
41.904633
 20
292.900739
 30
0.0
  0
SPLINE
  5
10f
100
AcDbEntity
  8
edge_cuts
 62
7
100
AcDbSpline
 70
8
 71
3
 72
8
 73
4
 74
0
 40
0
 40
0
 40
0
 40
0
 40
1
 40
1
 40
1
 40
1
 10
41.904633
 20
292.900739
 30
0.0
 10
42.348363
 20
292.457009
 30
0.0
 10
43.015698
 20
292.324268
 30
0.0
 10
43.595459
 20
292.564413
 30
0.0
  0
SPLINE
  5
110
100
AcDbEntity
  8
edge_cuts
 62
7
100
AcDbSpline
 70
8
 71
3
 72
8
 73
4
 74
0
 40
0
 40
0
 40
0
 40
0
 40
1
 40
1
 40
1
 40
1
 10
43.595459
 20
292.564413
 30
0.0
 10
44.175221
 20
292.804558
 30
0.0
 10
44.553235
 20
293.370297
 30
0.0
 10
44.553235
 20
293.997826
 30
0.0
  0
SPLINE
  5
111
100
AcDbEntity
  8
edge_cuts
 62
7
100
AcDbSpline
 70
8
 71
3
 72
8
 73
4
 74
0
 40
0
 40
0
 40
0
 40
0
 40
1
 40
1
 40
1
 40
1
 10
44.553235
 20
293.997826
 30
0.0
 10
44.553235
 20
294.409314
 30
0.0
 10
44.389772
 20
294.803948
 30
0.0
 10
44.098807
 20
295.094913
 30
0.0
  0
SPLINE
  5
112
100
AcDbEntity
  8
edge_cuts
 62
7
100
AcDbSpline
 70
8
 71
3
 72
8
 73
4
 74
0
 40
0
 40
0
 40
0
 40
0
 40
1
 40
1
 40
1
 40
1
 10
44.098807
 20
295.094913
 30
0.0
 10
43.807841
 20
295.385879
 30
0.0
 10
43.413207
 20
295.549342
 30
0.0
 10
43.001720
 20
295.549342
 30
0.0
  0
LWPOLYLINE
  5
113
100
AcDbEntity
  8
edge_cuts
 62
7
100
AcDbPolyline
 90
1
 70
1
 10
7.494874
 20
173.051495
 30
0.0
  0
SPLINE
  5
114
100
AcDbEntity
  8
edge_cuts
 62
7
100
AcDbSpline
 70
8
 71
3
 72
8
 73
4
 74
0
 40
0
 40
0
 40
0
 40
0
 40
1
 40
1
 40
1
 40
1
 10
42.996532
 20
173.053945
 30
0.0
 10
42.369003
 20
173.053945
 30
0.0
 10
41.803264
 20
172.675931
 30
0.0
 10
41.563119
 20
172.096169
 30
0.0
  0
SPLINE
  5
115
100
AcDbEntity
  8
edge_cuts
 62
7
100
AcDbSpline
 70
8
 71
3
 72
8
 73
4
 74
0
 40
0
 40
0
 40
0
 40
0
 40
1
 40
1
 40
1
 40
1
 10
41.563119
 20
172.096169
 30
0.0
 10
41.322974
 20
171.516408
 30
0.0
 10
41.455715
 20
170.849073
 30
0.0
 10
41.899445
 20
170.405343
 30
0.0
  0
SPLINE
  5
116
100
AcDbEntity
  8
edge_cuts
 62
7
100
AcDbSpline
 70
8
 71
3
 72
8
 73
4
 74
0
 40
0
 40
0
 40
0
 40
0
 40
1
 40
1
 40
1
 40
1
 10
41.899445
 20
170.405343
 30
0.0
 10
42.343175
 20
169.961613
 30
0.0
 10
43.010510
 20
169.828872
 30
0.0
 10
43.590271
 20
170.069017
 30
0.0
  0
SPLINE
  5
117
100
AcDbEntity
  8
edge_cuts
 62
7
100
AcDbSpline
 70
8
 71
3
 72
8
 73
4
 74
0
 40
0
 40
0
 40
0
 40
0
 40
1
 40
1
 40
1
 40
1
 10
43.590271
 20
170.069017
 30
0.0
 10
44.170033
 20
170.309162
 30
0.0
 10
44.548047
 20
170.874901
 30
0.0
 10
44.548047
 20
171.502430
 30
0.0
  0
SPLINE
  5
118
100
AcDbEntity
  8
edge_cuts
 62
7
100
AcDbSpline
 70
8
 71
3
 72
8
 73
4
 74
0
 40
0
 40
0
 40
0
 40
0
 40
1
 40
1
 40
1
 40
1
 10
44.548047
 20
171.502430
 30
0.0
 10
44.548047
 20
171.913917
 30
0.0
 10
44.384584
 20
172.308551
 30
0.0
 10
44.093619
 20
172.599517
 30
0.0
  0
SPLINE
  5
119
100
AcDbEntity
  8
edge_cuts
 62
7
100
AcDbSpline
 70
8
 71
3
 72
8
 73
4
 74
0
 40
0
 40
0
 40
0
 40
0
 40
1
 40
1
 40
1
 40
1
 10
44.093619
 20
172.599517
 30
0.0
 10
43.802653
 20
172.890482
 30
0.0
 10
43.408019
 20
173.053945
 30
0.0
 10
42.996532
 20
173.053945
 30
0.0
  0
LWPOLYLINE
  5
11a
100
AcDbEntity
  8
edge_cuts
 62
7
100
AcDbPolyline
 90
1
 70
1
 10
43.001720
 20
295.549342
 30
0.0
  0
SPLINE
  5
11b
100
AcDbEntity
  8
edge_cuts
 62
7
100
AcDbSpline
 70
8
 71
3
 72
8
 73
4
 74
0
 40
0
 40
0
 40
0
 40
0
 40
1
 40
1
 40
1
 40
1
 10
25.248989
 20
232.998818
 30
0.0
 10
25.349737
 20
232.998818
 30
0.0
 10
25.440566
 20
232.937966
 30
0.0
 10
25.479121
 20
232.844637
 30
0.0
  0
SPLINE
  5
11c
100
AcDbEntity
  8
edge_cuts
 62
7
100
AcDbSpline
 70
8
 71
3
 72
8
 73
4
 74
0
 40
0
 40
0
 40
0
 40
0
 40
1
 40
1
 40
1
 40
1
 10
25.479121
 20
232.844637
 30
0.0
 10
25.517675
 20
232.751309
 30
0.0
 10
25.496364
 20
232.643883
 30
0.0
 10
25.425124
 20
232.572452
 30
0.0
  0
SPLINE
  5
11d
100
AcDbEntity
  8
edge_cuts
 62
7
100
AcDbSpline
 70
8
 71
3
 72
8
 73
4
 74
0
 40
0
 40
0
 40
0
 40
0
 40
1
 40
1
 40
1
 40
1
 10
25.425124
 20
232.572452
 30
0.0
 10
25.353884
 20
232.501021
 30
0.0
 10
25.246745
 20
232.479653
 30
0.0
 10
25.153665
 20
232.518311
 30
0.0
  0
SPLINE
  5
11e
100
AcDbEntity
  8
edge_cuts
 62
7
100
AcDbSpline
 70
8
 71
3
 72
8
 73
4
 74
0
 40
0
 40
0
 40
0
 40
0
 40
1
 40
1
 40
1
 40
1
 10
25.153665
 20
232.518311
 30
0.0
 10
25.060586
 20
232.556969
 30
0.0
 10
24.999896
 20
232.648040
 30
0.0
 10
24.999896
 20
232.749059
 30
0.0
  0
SPLINE
  5
11f
100
AcDbEntity
  8
edge_cuts
 62
7
100
AcDbSpline
 70
8
 71
3
 72
8
 73
4
 74
0
 40
0
 40
0
 40
0
 40
0
 40
1
 40
1
 40
1
 40
1
 10
24.999896
 20
232.749059
 30
0.0
 10
24.999896
 20
232.815299
 30
0.0
 10
25.026140
 20
232.878826
 30
0.0
 10
25.072854
 20
232.925665
 30
0.0
  0
SPLINE
  5
120
100
AcDbEntity
  8
edge_cuts
 62
7
100
AcDbSpline
 70
8
 71
3
 72
8
 73
4
 74
0
 40
0
 40
0
 40
0
 40
0
 40
1
 40
1
 40
1
 40
1
 10
25.072854
 20
232.925665
 30
0.0
 10
25.119568
 20
232.972504
 30
0.0
 10
25.182925
 20
232.998818
 30
0.0
 10
25.248989
 20
232.998818
 30
0.0
  0
LWPOLYLINE
  5
121
100
AcDbEntity
  8
edge_cuts
 62
7
100
AcDbPolyline
 90
1
 70
1
 10
42.996532
 20
173.053945
 30
0.0
  0
LWPOLYLINE
  5
122
100
AcDbEntity
  8
edge_cuts
 62
7
100
AcDbPolyline
 90
1
 70
1
 10
25.248989
 20
232.998818
 30
0.0
  0
ENDSEC
  0
SECTION
  2
OBJECTS
  0
DICTIONARY
  5
C
330
0
100
AcDbDictionary
  3
ACAD_GROUP
350
D
  3
ACAD_MLINESTYLE
350
17
  0
DICTIONARY
  5
D
330
C
100
AcDbDictionary
  0
DICTIONARY
  5
1A
330
C
100
AcDbDictionary
  0
DICTIONARY
  5
17
330
C
100
AcDbDictionary
  3
STANDARD
350
18
  0
DICTIONARY
  5
19
330
C
100
AcDbDictionary
  0
ENDSEC
  0
EOF
