M48
; DRILL file {KiCad (5.1.6-0)} date Monday, December 21, 2020 at 08:53:20 PM
; FORMAT={-:-/ absolute / inch / decimal}
; #@! TF.CreationDate,2020-12-21T20:53:20-08:00
; #@! TF.GenerationSoftware,Kicad,Pcbnew,(5.1.6-0)
; #@! TF.FileFunction,Plated,1,2,PTH
FMAT,2
INCH
T1C0.0157
T2C0.0354
T3C0.0394
T4C0.0433
T5C0.0480
T6C0.0559
T7C0.0563
%
G90
G05
T1
X4.6949Y-3.3563
X4.7862Y-3.362
X4.8754Y-3.5772
X4.9822Y-2.6252
X5.2144Y-3.4376
X5.2964Y-3.4162
X5.2982Y-3.1032
X5.2992Y-2.8563
X5.3445Y-3.124
X5.3445Y-3.4173
X5.3976Y-3.4134
X5.4193Y-3.1201
X5.4449Y-3.4705
X5.4774Y-4.9404
X5.557Y-2.8652
X5.6142Y-2.8248
X5.645Y-2.6966
X5.664Y-4.7456
X5.6669Y-2.8349
X5.689Y-4.4724
X5.7218Y-5.1834
X5.7264Y-2.6398
X5.7474Y-2.6966
X5.7916Y-5.129
X5.8048Y-3.5846
X5.8058Y-3.1084
X5.8414Y-4.6678
X5.8452Y-2.182
X5.8548Y-4.93
X5.8556Y-3.5764
X5.8594Y-2.8315
X5.8606Y-3.1084
X5.8814Y-4.7286
X5.8937Y-2.6378
X5.9022Y-3.575
X5.9078Y-5.0882
X5.9114Y-3.1084
X5.9114Y-4.3169
X5.9188Y-3.812
X5.92Y-2.8354
X5.9291Y-3.9843
X5.9336Y-4.663
X5.9412Y-4.9794
X5.9488Y-2.6496
X5.9498Y-4.4204
X5.9596Y-3.534
X5.9884Y-3.2654
X5.9921Y-3.4823
X6.0014Y-5.026
X6.044Y-3.432
X6.0614Y-3.3824
X6.0782Y-3.7742
X6.0934Y-4.4778
X6.0946Y-2.182
X6.1012Y-4.878
X6.1344Y-3.8858
X6.1368Y-4.441
X6.1378Y-2.6043
X6.1624Y-4.5454
X6.1734Y-4.8456
X6.1734Y-5.0936
X6.1791Y-3.5709
X6.1814Y-4.172
X6.2028Y-4.0354
X6.2028Y-4.1043
X6.22Y-4.927
X6.2462Y-4.547
X6.248Y-3.5709
X6.2697Y-3.687
X6.2716Y-3.3296
X6.2868Y-3.3912
X6.2953Y-3.5217
X6.2994Y-3.1446
X6.3004Y-3.4508
X6.3304Y-4.755
X6.3328Y-4.9482
X6.3661Y-3.4567
X6.4606Y-4.9606
X6.4606Y-4.315
X6.4646Y-4.126
X6.4961Y-4.4055
X6.5236Y-3.9193
X6.5335Y-4.4449
X6.5827Y-2.7913
X6.6358Y-3.502
X6.689Y-4.4016
X6.7244Y-3.378
X6.7283Y-4.435
X6.7717Y-3.937
X6.8484Y-2.6713
X6.8524Y-3.9252
X6.8642Y-3.4488
X6.9469Y-3.3957
X6.9488Y-3.872
X7.0197Y-3.5728
X7.1614Y-4.0335
X7.1673Y-3.5709
X7.2067Y-3.9409
T2
X6.3779Y-2.4359
X6.3779Y-2.5359
X5.1647Y-1.4815
X5.1647Y-1.5815
X6.9876Y-1.4815
X6.9876Y-1.5815
X5.1645Y-2.4359
X5.1645Y-2.5359
X6.9846Y-2.4359
X6.9846Y-2.5359
X5.7724Y-1.4815
X5.7724Y-1.5815
X5.7712Y-2.4359
X5.7712Y-2.5359
X6.38Y-1.4815
X6.38Y-1.5815
T3
X7.4662Y-4.6388
X7.4662Y-4.7388
X7.4662Y-4.8388
X7.4662Y-4.9388
X7.4662Y-5.0388
X7.5662Y-4.6388
X7.5662Y-4.7388
X7.5662Y-4.8388
X7.5662Y-4.9388
X7.5662Y-5.0388
X5.4851Y-3.2261
X5.5835Y-3.2261
X5.682Y-3.2261
X6.701Y-2.274
X6.7994Y-2.274
X6.8978Y-2.274
X6.2562Y-5.0984
X6.2562Y-5.1984
X6.3562Y-5.0984
X6.3562Y-5.1984
X6.4562Y-5.0984
X6.4562Y-5.1984
X4.8817Y-2.274
X4.9801Y-2.274
X5.0785Y-2.274
X6.698Y-3.2261
X6.7964Y-3.2261
X6.8948Y-3.2261
X6.0945Y-2.274
X6.193Y-2.274
X6.2914Y-2.274
X6.0916Y-3.2261
X6.19Y-3.2261
X6.2884Y-3.2261
X4.878Y-4.967
X4.9764Y-4.967
X5.0749Y-4.967
X4.8768Y-4.0934
X4.9752Y-4.0934
X5.0737Y-4.0934
X5.4881Y-2.274
X5.5865Y-2.274
X5.685Y-2.274
X4.8787Y-3.2261
X4.9771Y-3.2261
X5.0755Y-3.2261
T4
X7.2946Y-1.6414
X7.2946Y-1.8186
X7.5505Y-1.6414
X7.5505Y-1.8186
T5
X7.4208Y-2.5198
X7.4208Y-4.2558
X7.4208Y-3.6771
T6
X7.4208Y-3.5551
X7.4208Y-2.3978
X7.4208Y-4.1338
T7
X7.4208Y-3.2283
X7.4208Y-2.071
X7.4208Y-3.807
T4
G00X6.004Y-1.9925
M15
G01X6.004Y-1.965
M16
G05
G00X6.3819Y-1.9925
M15
G01X6.3819Y-1.965
M16
G05
G00X6.001Y-2.9446
M15
G01X6.001Y-2.917
M16
G05
G00X6.379Y-2.9446
M15
G01X6.379Y-2.917
M16
G05
G00X5.3946Y-2.9446
M15
G01X5.3946Y-2.917
M16
G05
G00X5.7725Y-2.9446
M15
G01X5.7725Y-2.917
M16
G05
G00X6.6104Y-1.9925
M15
G01X6.6104Y-1.965
M16
G05
G00X6.9884Y-1.9925
M15
G01X6.9884Y-1.965
M16
G05
G00X4.7911Y-1.9925
M15
G01X4.7911Y-1.965
M16
G05
G00X5.1691Y-1.9925
M15
G01X5.1691Y-1.965
M16
G05
G00X6.6074Y-2.9446
M15
G01X6.6074Y-2.917
M16
G05
G00X6.9854Y-2.9446
M15
G01X6.9854Y-2.917
M16
G05
G00X4.7874Y-4.6855
M15
G01X4.7874Y-4.6579
M16
G05
G00X5.1654Y-4.6855
M15
G01X5.1654Y-4.6579
M16
G05
G00X4.7862Y-3.8119
M15
G01X4.7862Y-3.7843
M16
G05
G00X5.1642Y-3.8119
M15
G01X5.1642Y-3.7843
M16
G05
G00X5.3976Y-1.9925
M15
G01X5.3976Y-1.965
M16
G05
G00X5.7755Y-1.9925
M15
G01X5.7755Y-1.965
M16
G05
G00X4.7881Y-2.9446
M15
G01X4.7881Y-2.917
M16
G05
G00X5.1661Y-2.9446
M15
G01X5.1661Y-2.917
M16
G05
T0
M30
