%TF.GenerationSoftware,KiCad,Pcbnew,(5.1.6-0)*%
%TF.CreationDate,2020-12-21T20:53:18-08:00*%
%TF.ProjectId,circuit_board,63697263-7569-4745-9f62-6f6172642e6b,rev?*%
%TF.SameCoordinates,Original*%
%TF.FileFunction,Soldermask,Top*%
%TF.FilePolarity,Negative*%
%FSLAX46Y46*%
G04 Gerber Fmt 4.6, Leading zero omitted, Abs format (unit mm)*
G04 Created by KiCad (PCBNEW (5.1.6-0)) date 2020-12-21 20:53:18*
%MOMM*%
%LPD*%
G01*
G04 APERTURE LIST*
%ADD10R,1.900000X1.900000*%
%ADD11C,1.900000*%
%ADD12C,1.800000*%
%ADD13C,2.230000*%
%ADD14R,2.030000X1.930000*%
%ADD15O,2.820000X3.340000*%
%ADD16C,2.100000*%
%ADD17R,1.800000X1.800000*%
%ADD18O,1.800000X1.800000*%
G04 APERTURE END LIST*
D10*
%TO.C,D3*%
X131184640Y-40170120D03*
D11*
X131184640Y-37630120D03*
%TD*%
%TO.C,D4*%
X131178760Y-61872800D03*
D10*
X131178760Y-64412800D03*
%TD*%
D11*
%TO.C,D5*%
X146617973Y-37630120D03*
D10*
X146617973Y-40170120D03*
%TD*%
%TO.C,D6*%
X146588760Y-64412800D03*
D11*
X146588760Y-61872800D03*
%TD*%
%TO.C,D7*%
X162051306Y-37630120D03*
D10*
X162051306Y-40170120D03*
%TD*%
D11*
%TO.C,D8*%
X161998760Y-61872800D03*
D10*
X161998760Y-64412800D03*
%TD*%
%TO.C,D9*%
X177484640Y-40170120D03*
D11*
X177484640Y-37630120D03*
%TD*%
D10*
%TO.C,D10*%
X177408760Y-64412800D03*
D11*
X177408760Y-61872800D03*
%TD*%
%TO.C,J2*%
G36*
G01*
X193081480Y-117190226D02*
X193081480Y-118460814D01*
G75*
G02*
X192816774Y-118725520I-264706J0D01*
G01*
X191546186Y-118725520D01*
G75*
G02*
X191281480Y-118460814I0J264706D01*
G01*
X191281480Y-117190226D01*
G75*
G02*
X191546186Y-116925520I264706J0D01*
G01*
X192816774Y-116925520D01*
G75*
G02*
X193081480Y-117190226I0J-264706D01*
G01*
G37*
D12*
X192181480Y-120365520D03*
X192181480Y-122905520D03*
X192181480Y-125445520D03*
X192181480Y-127985520D03*
X189641480Y-117825520D03*
X189641480Y-120365520D03*
X189641480Y-122905520D03*
X189641480Y-125445520D03*
X189641480Y-127985520D03*
%TD*%
D13*
%TO.C,J4*%
X188488320Y-60902920D03*
D14*
X188488320Y-64002920D03*
D13*
X188488320Y-52602920D03*
%TD*%
%TO.C,J5*%
X188488320Y-81999186D03*
D14*
X188488320Y-93399186D03*
D13*
X188488320Y-90299186D03*
%TD*%
%TO.C,J6*%
X188488320Y-104997320D03*
D14*
X188488320Y-108097320D03*
D13*
X188488320Y-96697320D03*
%TD*%
D15*
%TO.C,RV1*%
X121618760Y-74442800D03*
X131218760Y-74442800D03*
D11*
X128918760Y-81942800D03*
X126418760Y-81942800D03*
D10*
X123918760Y-81942800D03*
%TD*%
D15*
%TO.C,RV2*%
X121694640Y-50260120D03*
X131294640Y-50260120D03*
D11*
X128994640Y-57760120D03*
X126494640Y-57760120D03*
D10*
X123994640Y-57760120D03*
%TD*%
%TO.C,RV3*%
X139397973Y-57760120D03*
D11*
X141897973Y-57760120D03*
X144397973Y-57760120D03*
D15*
X146697973Y-50260120D03*
X137097973Y-50260120D03*
%TD*%
D10*
%TO.C,RV4*%
X139322093Y-81942800D03*
D11*
X141822093Y-81942800D03*
X144322093Y-81942800D03*
D15*
X146622093Y-74442800D03*
X137022093Y-74442800D03*
%TD*%
%TO.C,RV5*%
X152501306Y-50260120D03*
X162101306Y-50260120D03*
D11*
X159801306Y-57760120D03*
X157301306Y-57760120D03*
D10*
X154801306Y-57760120D03*
%TD*%
D15*
%TO.C,RV6*%
X152425426Y-74442800D03*
X162025426Y-74442800D03*
D11*
X159725426Y-81942800D03*
X157225426Y-81942800D03*
D10*
X154725426Y-81942800D03*
%TD*%
%TO.C,RV7*%
X170204640Y-57760120D03*
D11*
X172704640Y-57760120D03*
X175204640Y-57760120D03*
D15*
X177504640Y-50260120D03*
X167904640Y-50260120D03*
%TD*%
%TO.C,RV8*%
X167828760Y-74442800D03*
X177428760Y-74442800D03*
D11*
X175128760Y-81942800D03*
X172628760Y-81942800D03*
D10*
X170128760Y-81942800D03*
%TD*%
%TO.C,RV9*%
X123901200Y-126161800D03*
D11*
X126401200Y-126161800D03*
X128901200Y-126161800D03*
D15*
X131201200Y-118661800D03*
X121601200Y-118661800D03*
%TD*%
D10*
%TO.C,RV10*%
X123870720Y-103972360D03*
D11*
X126370720Y-103972360D03*
X128870720Y-103972360D03*
D15*
X131170720Y-96472360D03*
X121570720Y-96472360D03*
%TD*%
D16*
%TO.C,SW1*%
X191782840Y-41691560D03*
X191782840Y-46191560D03*
X185282840Y-41691560D03*
X185282840Y-46191560D03*
%TD*%
D17*
%TO.C,J1*%
X158907480Y-129499360D03*
D18*
X158907480Y-132039360D03*
X161447480Y-129499360D03*
X161447480Y-132039360D03*
X163987480Y-129499360D03*
X163987480Y-132039360D03*
%TD*%
M02*
