%TF.GenerationSoftware,KiCad,Pcbnew,(5.1.6-0)*%
%TF.CreationDate,2020-12-21T20:53:18-08:00*%
%TF.ProjectId,circuit_board,63697263-7569-4745-9f62-6f6172642e6b,rev?*%
%TF.SameCoordinates,Original*%
%TF.FileFunction,Soldermask,Bot*%
%TF.FilePolarity,Negative*%
%FSLAX46Y46*%
G04 Gerber Fmt 4.6, Leading zero omitted, Abs format (unit mm)*
G04 Created by KiCad (PCBNEW (5.1.6-0)) date 2020-12-21 20:53:18*
%MOMM*%
%LPD*%
G01*
G04 APERTURE LIST*
%ADD10R,1.600000X1.350000*%
%ADD11R,1.650000X0.700000*%
%ADD12R,1.600000X1.400000*%
%ADD13R,2.000000X0.900000*%
%ADD14R,1.000000X1.300000*%
%ADD15R,1.350000X1.600000*%
%ADD16R,1.400000X1.600000*%
%ADD17R,1.900000X1.900000*%
%ADD18C,1.900000*%
%ADD19C,1.800000*%
%ADD20C,2.230000*%
%ADD21R,2.030000X1.930000*%
%ADD22O,2.820000X3.340000*%
%ADD23C,2.100000*%
%ADD24R,1.700000X3.100000*%
%ADD25R,3.100000X1.700000*%
%ADD26C,0.100000*%
%ADD27R,2.100000X1.600000*%
%ADD28R,2.100000X3.900000*%
%ADD29R,1.600000X0.700000*%
%ADD30R,1.800000X1.800000*%
%ADD31O,1.800000X1.800000*%
G04 APERTURE END LIST*
D10*
%TO.C,C10*%
X167550000Y-110000000D03*
X170050000Y-110000000D03*
%TD*%
D11*
%TO.C,U3*%
X167551080Y-104348280D03*
X167551080Y-105618280D03*
X167551080Y-106888280D03*
X167551080Y-108158280D03*
X162151080Y-108158280D03*
X162151080Y-106888280D03*
X162151080Y-105618280D03*
X162151080Y-104348280D03*
%TD*%
D12*
%TO.C,R20*%
X172850000Y-106900000D03*
X170150000Y-106900000D03*
%TD*%
D13*
%TO.C,Q1*%
X189800000Y-76900000D03*
X189800000Y-75000000D03*
X192800000Y-75950000D03*
%TD*%
D14*
%TO.C,D11*%
X189650000Y-72500000D03*
X192950000Y-72500000D03*
%TD*%
%TO.C,D2*%
X184977040Y-119969280D03*
X181677040Y-119969280D03*
%TD*%
%TO.C,D1*%
X181631320Y-129250440D03*
X184931320Y-129250440D03*
%TD*%
D15*
%TO.C,C20*%
X174350000Y-92050000D03*
X174350000Y-89550000D03*
%TD*%
%TO.C,C19*%
X161700000Y-92050000D03*
X161700000Y-89550000D03*
%TD*%
%TO.C,C18*%
X161900000Y-95700000D03*
X161900000Y-98200000D03*
%TD*%
%TO.C,C17*%
X163750000Y-90800000D03*
X163750000Y-88300000D03*
%TD*%
%TO.C,C16*%
X164000000Y-97050000D03*
X164000000Y-99550000D03*
%TD*%
%TO.C,C15*%
X176450000Y-90750000D03*
X176450000Y-88250000D03*
%TD*%
D10*
%TO.C,C14*%
X172750000Y-104400000D03*
X170250000Y-104400000D03*
%TD*%
D15*
%TO.C,C13*%
X174450000Y-95250000D03*
X174450000Y-97750000D03*
%TD*%
%TO.C,C12*%
X176450000Y-93950000D03*
X176450000Y-96450000D03*
%TD*%
D10*
%TO.C,C1*%
X169500000Y-98200000D03*
X172000000Y-98200000D03*
%TD*%
D16*
%TO.C,R12*%
X174035720Y-40313600D03*
X174035720Y-37613600D03*
%TD*%
D17*
%TO.C,D3*%
X131184640Y-40170120D03*
D18*
X131184640Y-37630120D03*
%TD*%
%TO.C,D4*%
X131178760Y-61872800D03*
D17*
X131178760Y-64412800D03*
%TD*%
D18*
%TO.C,D5*%
X146617973Y-37630120D03*
D17*
X146617973Y-40170120D03*
%TD*%
%TO.C,D6*%
X146588760Y-64412800D03*
D18*
X146588760Y-61872800D03*
%TD*%
%TO.C,D7*%
X162051306Y-37630120D03*
D17*
X162051306Y-40170120D03*
%TD*%
D18*
%TO.C,D8*%
X161998760Y-61872800D03*
D17*
X161998760Y-64412800D03*
%TD*%
%TO.C,D9*%
X177484640Y-40170120D03*
D18*
X177484640Y-37630120D03*
%TD*%
D17*
%TO.C,D10*%
X177408760Y-64412800D03*
D18*
X177408760Y-61872800D03*
%TD*%
%TO.C,J2*%
G36*
G01*
X193081480Y-117190226D02*
X193081480Y-118460814D01*
G75*
G02*
X192816774Y-118725520I-264706J0D01*
G01*
X191546186Y-118725520D01*
G75*
G02*
X191281480Y-118460814I0J264706D01*
G01*
X191281480Y-117190226D01*
G75*
G02*
X191546186Y-116925520I264706J0D01*
G01*
X192816774Y-116925520D01*
G75*
G02*
X193081480Y-117190226I0J-264706D01*
G01*
G37*
D19*
X192181480Y-120365520D03*
X192181480Y-122905520D03*
X192181480Y-125445520D03*
X192181480Y-127985520D03*
X189641480Y-117825520D03*
X189641480Y-120365520D03*
X189641480Y-122905520D03*
X189641480Y-125445520D03*
X189641480Y-127985520D03*
%TD*%
D20*
%TO.C,J4*%
X188488320Y-60902920D03*
D21*
X188488320Y-64002920D03*
D20*
X188488320Y-52602920D03*
%TD*%
%TO.C,J5*%
X188488320Y-81999186D03*
D21*
X188488320Y-93399186D03*
D20*
X188488320Y-90299186D03*
%TD*%
%TO.C,J6*%
X188488320Y-104997320D03*
D21*
X188488320Y-108097320D03*
D20*
X188488320Y-96697320D03*
%TD*%
D22*
%TO.C,RV1*%
X121618760Y-74442800D03*
X131218760Y-74442800D03*
D18*
X128918760Y-81942800D03*
X126418760Y-81942800D03*
D17*
X123918760Y-81942800D03*
%TD*%
D22*
%TO.C,RV2*%
X121694640Y-50260120D03*
X131294640Y-50260120D03*
D18*
X128994640Y-57760120D03*
X126494640Y-57760120D03*
D17*
X123994640Y-57760120D03*
%TD*%
%TO.C,RV3*%
X139397973Y-57760120D03*
D18*
X141897973Y-57760120D03*
X144397973Y-57760120D03*
D22*
X146697973Y-50260120D03*
X137097973Y-50260120D03*
%TD*%
D17*
%TO.C,RV4*%
X139322093Y-81942800D03*
D18*
X141822093Y-81942800D03*
X144322093Y-81942800D03*
D22*
X146622093Y-74442800D03*
X137022093Y-74442800D03*
%TD*%
%TO.C,RV5*%
X152501306Y-50260120D03*
X162101306Y-50260120D03*
D18*
X159801306Y-57760120D03*
X157301306Y-57760120D03*
D17*
X154801306Y-57760120D03*
%TD*%
D22*
%TO.C,RV6*%
X152425426Y-74442800D03*
X162025426Y-74442800D03*
D18*
X159725426Y-81942800D03*
X157225426Y-81942800D03*
D17*
X154725426Y-81942800D03*
%TD*%
%TO.C,RV7*%
X170204640Y-57760120D03*
D18*
X172704640Y-57760120D03*
X175204640Y-57760120D03*
D22*
X177504640Y-50260120D03*
X167904640Y-50260120D03*
%TD*%
%TO.C,RV8*%
X167828760Y-74442800D03*
X177428760Y-74442800D03*
D18*
X175128760Y-81942800D03*
X172628760Y-81942800D03*
D17*
X170128760Y-81942800D03*
%TD*%
%TO.C,RV9*%
X123901200Y-126161800D03*
D18*
X126401200Y-126161800D03*
X128901200Y-126161800D03*
D22*
X131201200Y-118661800D03*
X121601200Y-118661800D03*
%TD*%
D17*
%TO.C,RV10*%
X123870720Y-103972360D03*
D18*
X126370720Y-103972360D03*
X128870720Y-103972360D03*
D22*
X131170720Y-96472360D03*
X121570720Y-96472360D03*
%TD*%
D23*
%TO.C,SW1*%
X191782840Y-41691560D03*
X191782840Y-46191560D03*
X185282840Y-41691560D03*
X185282840Y-46191560D03*
%TD*%
D24*
%TO.C,C2*%
X163266120Y-123307200D03*
X163266120Y-118907200D03*
%TD*%
D10*
%TO.C,C4*%
X142900000Y-97950000D03*
X145400000Y-97950000D03*
%TD*%
D25*
%TO.C,C5*%
X179079800Y-124993400D03*
X183479800Y-124993400D03*
%TD*%
%TO.C,C6*%
X183576320Y-115686840D03*
X179176320Y-115686840D03*
%TD*%
D26*
%TO.C,C7*%
G36*
X147395495Y-113959100D02*
G01*
X146440900Y-113004505D01*
X147572271Y-111873134D01*
X148526866Y-112827729D01*
X147395495Y-113959100D01*
G37*
G36*
X145627729Y-115726866D02*
G01*
X144673134Y-114772271D01*
X145804505Y-113640900D01*
X146759100Y-114595495D01*
X145627729Y-115726866D01*
G37*
%TD*%
%TO.C,C8*%
G36*
X148972271Y-107473134D02*
G01*
X149926866Y-108427729D01*
X148795495Y-109559100D01*
X147840900Y-108604505D01*
X148972271Y-107473134D01*
G37*
G36*
X147204505Y-109240900D02*
G01*
X148159100Y-110195495D01*
X147027729Y-111326866D01*
X146073134Y-110372271D01*
X147204505Y-109240900D01*
G37*
%TD*%
D10*
%TO.C,C9*%
X161950000Y-102500000D03*
X159450000Y-102500000D03*
%TD*%
D26*
%TO.C,C11*%
G36*
X143965135Y-124781660D02*
G01*
X143010540Y-123827065D01*
X144141911Y-122695694D01*
X145096506Y-123650289D01*
X143965135Y-124781660D01*
G37*
G36*
X142197369Y-126549426D02*
G01*
X141242774Y-125594831D01*
X142374145Y-124463460D01*
X143328740Y-125418055D01*
X142197369Y-126549426D01*
G37*
%TD*%
D12*
%TO.C,R2*%
X189950000Y-70000000D03*
X192650000Y-70000000D03*
%TD*%
D16*
%TO.C,R3*%
X159700000Y-107950000D03*
X159700000Y-105250000D03*
%TD*%
D26*
%TO.C,R4*%
G36*
X158234746Y-113474695D02*
G01*
X159224695Y-112484746D01*
X160356066Y-113616117D01*
X159366117Y-114606066D01*
X158234746Y-113474695D01*
G37*
G36*
X160143934Y-115383883D02*
G01*
X161133883Y-114393934D01*
X162265254Y-115525305D01*
X161275305Y-116515254D01*
X160143934Y-115383883D01*
G37*
%TD*%
D16*
%TO.C,R5*%
X185100000Y-96650000D03*
X185100000Y-99350000D03*
%TD*%
%TO.C,R6*%
X128005840Y-37649160D03*
X128005840Y-40349160D03*
%TD*%
%TO.C,R7*%
X128285240Y-61885840D03*
X128285240Y-64585840D03*
%TD*%
%TO.C,R8*%
X143159480Y-40349160D03*
X143159480Y-37649160D03*
%TD*%
%TO.C,R9*%
X143687800Y-61890920D03*
X143687800Y-64590920D03*
%TD*%
%TO.C,R10*%
X158577280Y-37699960D03*
X158577280Y-40399960D03*
%TD*%
%TO.C,R11*%
X159034480Y-64550280D03*
X159034480Y-61850280D03*
%TD*%
%TO.C,R13*%
X174457360Y-64555360D03*
X174457360Y-61855360D03*
%TD*%
D12*
%TO.C,R14*%
X192600000Y-67600000D03*
X189900000Y-67600000D03*
%TD*%
D26*
%TO.C,R15*%
G36*
X143674695Y-128215254D02*
G01*
X142684746Y-127225305D01*
X143816117Y-126093934D01*
X144806066Y-127083883D01*
X143674695Y-128215254D01*
G37*
G36*
X145583883Y-126306066D02*
G01*
X144593934Y-125316117D01*
X145725305Y-124184746D01*
X146715254Y-125174695D01*
X145583883Y-126306066D01*
G37*
%TD*%
D16*
%TO.C,R16*%
X184800000Y-84650000D03*
X184800000Y-81950000D03*
%TD*%
D26*
%TO.C,R17*%
G36*
X140766117Y-122943934D02*
G01*
X141756066Y-123933883D01*
X140624695Y-125065254D01*
X139634746Y-124075305D01*
X140766117Y-122943934D01*
G37*
G36*
X142675305Y-121034746D02*
G01*
X143665254Y-122024695D01*
X142533883Y-123156066D01*
X141543934Y-122166117D01*
X142675305Y-121034746D01*
G37*
%TD*%
D27*
%TO.C,U1*%
X174772720Y-119305040D03*
X174772720Y-123905040D03*
X174772720Y-121605040D03*
D28*
X168472720Y-121605040D03*
%TD*%
D29*
%TO.C,U4*%
X171918960Y-96079640D03*
X171918960Y-94809640D03*
X171918960Y-93539640D03*
X171918960Y-92269640D03*
X171918960Y-90999640D03*
X171918960Y-89729640D03*
X171918960Y-88459640D03*
X171918960Y-87189640D03*
X166518960Y-87189640D03*
X166518960Y-88459640D03*
X166518960Y-89729640D03*
X166518960Y-90999640D03*
X166518960Y-92269640D03*
X166518960Y-93539640D03*
X166518960Y-94809640D03*
X166518960Y-96079640D03*
%TD*%
%TO.C,U5*%
X145417520Y-96062800D03*
X145417520Y-94792800D03*
X145417520Y-93522800D03*
X145417520Y-92252800D03*
X145417520Y-90982800D03*
X145417520Y-89712800D03*
X145417520Y-88442800D03*
X145417520Y-87172800D03*
X140017520Y-87172800D03*
X140017520Y-88442800D03*
X140017520Y-89712800D03*
X140017520Y-90982800D03*
X140017520Y-92252800D03*
X140017520Y-93522800D03*
X140017520Y-94792800D03*
X140017520Y-96062800D03*
%TD*%
D30*
%TO.C,J1*%
X158907480Y-129499360D03*
D31*
X158907480Y-132039360D03*
X161447480Y-129499360D03*
X161447480Y-132039360D03*
X163987480Y-129499360D03*
X163987480Y-132039360D03*
%TD*%
D26*
%TO.C,R1*%
G36*
X145354077Y-127544174D02*
G01*
X146344026Y-128534123D01*
X145212655Y-129665494D01*
X144222706Y-128675545D01*
X145354077Y-127544174D01*
G37*
G36*
X147263265Y-125634986D02*
G01*
X148253214Y-126624935D01*
X147121843Y-127756306D01*
X146131894Y-126766357D01*
X147263265Y-125634986D01*
G37*
%TD*%
%TO.C,U2*%
G36*
X146546608Y-119340775D02*
G01*
X147006227Y-119800394D01*
X145804146Y-121002475D01*
X145344527Y-120542856D01*
X146546608Y-119340775D01*
G37*
G36*
X147112294Y-119906460D02*
G01*
X147571913Y-120366079D01*
X146369832Y-121568160D01*
X145910213Y-121108541D01*
X147112294Y-119906460D01*
G37*
G36*
X147677979Y-120472146D02*
G01*
X148137598Y-120931765D01*
X146935517Y-122133846D01*
X146475898Y-121674227D01*
X147677979Y-120472146D01*
G37*
G36*
X148243664Y-121037831D02*
G01*
X148703283Y-121497450D01*
X147501202Y-122699531D01*
X147041583Y-122239912D01*
X148243664Y-121037831D01*
G37*
G36*
X148809350Y-121603517D02*
G01*
X149268969Y-122063136D01*
X148066888Y-123265217D01*
X147607269Y-122805598D01*
X148809350Y-121603517D01*
G37*
G36*
X149375035Y-122169202D02*
G01*
X149834654Y-122628821D01*
X148632573Y-123830902D01*
X148172954Y-123371283D01*
X149375035Y-122169202D01*
G37*
G36*
X149940721Y-122734887D02*
G01*
X150400340Y-123194506D01*
X149198259Y-124396587D01*
X148738640Y-123936968D01*
X149940721Y-122734887D01*
G37*
G36*
X150506406Y-123300573D02*
G01*
X150966025Y-123760192D01*
X149763944Y-124962273D01*
X149304325Y-124502654D01*
X150506406Y-123300573D01*
G37*
G36*
X151354935Y-123760192D02*
G01*
X151814554Y-123300573D01*
X153016635Y-124502654D01*
X152557016Y-124962273D01*
X151354935Y-123760192D01*
G37*
G36*
X151920620Y-123194506D02*
G01*
X152380239Y-122734887D01*
X153582320Y-123936968D01*
X153122701Y-124396587D01*
X151920620Y-123194506D01*
G37*
G36*
X152486306Y-122628821D02*
G01*
X152945925Y-122169202D01*
X154148006Y-123371283D01*
X153688387Y-123830902D01*
X152486306Y-122628821D01*
G37*
G36*
X153051991Y-122063136D02*
G01*
X153511610Y-121603517D01*
X154713691Y-122805598D01*
X154254072Y-123265217D01*
X153051991Y-122063136D01*
G37*
G36*
X153617677Y-121497450D02*
G01*
X154077296Y-121037831D01*
X155279377Y-122239912D01*
X154819758Y-122699531D01*
X153617677Y-121497450D01*
G37*
G36*
X154183362Y-120931765D02*
G01*
X154642981Y-120472146D01*
X155845062Y-121674227D01*
X155385443Y-122133846D01*
X154183362Y-120931765D01*
G37*
G36*
X154749047Y-120366079D02*
G01*
X155208666Y-119906460D01*
X156410747Y-121108541D01*
X155951128Y-121568160D01*
X154749047Y-120366079D01*
G37*
G36*
X155314733Y-119800394D02*
G01*
X155774352Y-119340775D01*
X156976433Y-120542856D01*
X156516814Y-121002475D01*
X155314733Y-119800394D01*
G37*
G36*
X156516814Y-117290165D02*
G01*
X156976433Y-117749784D01*
X155774352Y-118951865D01*
X155314733Y-118492246D01*
X156516814Y-117290165D01*
G37*
G36*
X155951128Y-116724480D02*
G01*
X156410747Y-117184099D01*
X155208666Y-118386180D01*
X154749047Y-117926561D01*
X155951128Y-116724480D01*
G37*
G36*
X155385443Y-116158794D02*
G01*
X155845062Y-116618413D01*
X154642981Y-117820494D01*
X154183362Y-117360875D01*
X155385443Y-116158794D01*
G37*
G36*
X154819758Y-115593109D02*
G01*
X155279377Y-116052728D01*
X154077296Y-117254809D01*
X153617677Y-116795190D01*
X154819758Y-115593109D01*
G37*
G36*
X154254072Y-115027423D02*
G01*
X154713691Y-115487042D01*
X153511610Y-116689123D01*
X153051991Y-116229504D01*
X154254072Y-115027423D01*
G37*
G36*
X153688387Y-114461738D02*
G01*
X154148006Y-114921357D01*
X152945925Y-116123438D01*
X152486306Y-115663819D01*
X153688387Y-114461738D01*
G37*
G36*
X153122701Y-113896053D02*
G01*
X153582320Y-114355672D01*
X152380239Y-115557753D01*
X151920620Y-115098134D01*
X153122701Y-113896053D01*
G37*
G36*
X152557016Y-113330367D02*
G01*
X153016635Y-113789986D01*
X151814554Y-114992067D01*
X151354935Y-114532448D01*
X152557016Y-113330367D01*
G37*
G36*
X149304325Y-113789986D02*
G01*
X149763944Y-113330367D01*
X150966025Y-114532448D01*
X150506406Y-114992067D01*
X149304325Y-113789986D01*
G37*
G36*
X148738640Y-114355672D02*
G01*
X149198259Y-113896053D01*
X150400340Y-115098134D01*
X149940721Y-115557753D01*
X148738640Y-114355672D01*
G37*
G36*
X148172954Y-114921357D02*
G01*
X148632573Y-114461738D01*
X149834654Y-115663819D01*
X149375035Y-116123438D01*
X148172954Y-114921357D01*
G37*
G36*
X147607269Y-115487042D02*
G01*
X148066888Y-115027423D01*
X149268969Y-116229504D01*
X148809350Y-116689123D01*
X147607269Y-115487042D01*
G37*
G36*
X147041583Y-116052728D02*
G01*
X147501202Y-115593109D01*
X148703283Y-116795190D01*
X148243664Y-117254809D01*
X147041583Y-116052728D01*
G37*
G36*
X146475898Y-116618413D02*
G01*
X146935517Y-116158794D01*
X148137598Y-117360875D01*
X147677979Y-117820494D01*
X146475898Y-116618413D01*
G37*
G36*
X145910213Y-117184099D02*
G01*
X146369832Y-116724480D01*
X147571913Y-117926561D01*
X147112294Y-118386180D01*
X145910213Y-117184099D01*
G37*
G36*
X145344527Y-117749784D02*
G01*
X145804146Y-117290165D01*
X147006227Y-118492246D01*
X146546608Y-118951865D01*
X145344527Y-117749784D01*
G37*
%TD*%
%TO.C,Y1*%
G36*
X144922834Y-108555490D02*
G01*
X143437910Y-107070566D01*
X149077086Y-101431390D01*
X150562010Y-102916314D01*
X144922834Y-108555490D01*
G37*
G36*
X136525940Y-116952384D02*
G01*
X135041016Y-115467460D01*
X140680192Y-109828284D01*
X142165116Y-111313208D01*
X136525940Y-116952384D01*
G37*
%TD*%
M02*
