  0
SECTION
  2
HEADER
  9
$ACADVER
  1
AC1014
  9
$HANDSEED
  5
FFFF
  9
$MEASUREMENT
 70
     1
  0
ENDSEC
  0
SECTION
  2
TABLES
  0
TABLE
  2
VPORT
  5
8
330
0
100
AcDbSymbolTable
 70
     4
  0
VPORT
  5
2E
330
8
100
AcDbSymbolTableRecord
100
AcDbViewportTableRecord
  2
*ACTIVE
 70
     0
 10
0.0
 20
0.0
 11
1.0
 21
1.0
 12
210.0
 22
148.5
 13
0.0
 23
0.0
 14
10.0
 24
10.0
 15
10.0
 25
10.0
 16
0.0
 26
0.0
 36
1.0
 17
0.0
 27
0.0
 37
0.0
 40
341.0
 41
1.24
 42
50.0
 43
0.0
 44
0.0
 50
0.0
 51
0.0
 71
     0
 72
   100
 73
     1
 74
     3
 75
     0
 76
     0
 77
     0
 78
     0
  0
ENDTAB
  0
TABLE
  2
LTYPE
  5
5
330
0
100
AcDbSymbolTable
 70
     1
  0
LTYPE
  5
14
330
5
100
AcDbSymbolTableRecord
100
AcDbLinetypeTableRecord
  2
BYBLOCK
 70
     0
  3

 72
    65
 73
     0
 40
0.0
  0
LTYPE
  5
15
330
5
100
AcDbSymbolTableRecord
100
AcDbLinetypeTableRecord
  2
BYLAYER
 70
     0
  3

 72
    65
 73
     0
 40
0.0
  0
LTYPE
  5
16
330
5
100
AcDbSymbolTableRecord
100
AcDbLinetypeTableRecord
  2
CONTINUOUS
 70
     0
  3
Solid line
 72
    65
 73
     0
 40
0.0
  0
ENDTAB
  0
TABLE
  2
LAYER
  5
2
100
AcDbSymbolTable
 70
6
  0
LAYER
  5
50
100
AcDbSymbolTableRecord
100
AcDbLayerTableRecord
  2
0
 70
0
  6
CONTINUOUS
  0
LAYER
  5
51
100
AcDbSymbolTableRecord
100
AcDbLayerTableRecord
  2
panel_edge_cuts
 70
0
  6
CONTINUOUS
  0
LAYER
  5
52
100
AcDbSymbolTableRecord
100
AcDbLayerTableRecord
  2
pcb_edge_cuts
 70
0
  6
CONTINUOUS
  0
LAYER
  5
53
100
AcDbSymbolTableRecord
100
AcDbLayerTableRecord
  2
panel_holes
 70
0
  6
CONTINUOUS
  0
LAYER
  5
54
100
AcDbSymbolTableRecord
100
AcDbLayerTableRecord
  2
components
 70
0
  6
CONTINUOUS
  0
LAYER
  5
55
100
AcDbSymbolTableRecord
100
AcDbLayerTableRecord
  2
silkscreen
 70
0
  6
CONTINUOUS
  0
ENDTAB
  0
TABLE
  2
STYLE
  5
3
330
0
100
AcDbSymbolTable
 70
     1
  0
STYLE
  5
11
330
3
100
AcDbSymbolTableRecord
100
AcDbTextStyleTableRecord
  2
STANDARD
 70
     0
 40
0.0
 41
1.0
 50
0.0
 71
     0
 42
2.5
  3
txt
  4

  0
ENDTAB
  0
TABLE
  2
VIEW
  5
6
330
0
100
AcDbSymbolTable
 70
     0
  0
ENDTAB
  0
TABLE
  2
UCS
  5
7
330
0
100
AcDbSymbolTable
 70
     0
  0
ENDTAB
  0
TABLE
  2
APPID
  5
9
330
0
100
AcDbSymbolTable
 70
     2
  0
APPID
  5
12
330
9
100
AcDbSymbolTableRecord
100
AcDbRegAppTableRecord
  2
ACAD
 70
     0
  0
ENDTAB
  0
TABLE
  2
DIMSTYLE
  5
A
330
0
100
AcDbSymbolTable
 70
     1
  0
DIMSTYLE
105
27
330
A
100
AcDbSymbolTableRecord
100
AcDbDimStyleTableRecord
  2
ISO-25
 70
     0
  3

  4

  5

  6

  7

 40
1.0
 41
2.5
 42
0.625
 43
3.75
 44
1.25
 45
0.0
 46
0.0
 47
0.0
 48
0.0
140
2.5
141
2.5
142
0.0
143
0.03937007874016
144
1.0
145
0.0
146
1.0
147
0.625
 71
     0
 72
     0
 73
     0
 74
     0
 75
     0
 76
     0
 77
     1
 78
     8
170
     0
171
     3
172
     1
173
     0
174
     0
175
     0
176
     0
177
     0
178
     0
270
     2
271
     2
272
     2
273
     2
274
     3
340
11
275
     0
280
     0
281
     0
282
     0
283
     0
284
     8
285
     0
286
     0
287
     3
288
     0
  0
ENDTAB
  0
TABLE
  2
BLOCK_RECORD
  5
1
330
0
100
AcDbSymbolTable
 70
     1
  0
BLOCK_RECORD
  5
1F
330
1
100
AcDbSymbolTableRecord
100
AcDbBlockTableRecord
  2
*MODEL_SPACE
  0
BLOCK_RECORD
  5
1B
330
1
100
AcDbSymbolTableRecord
100
AcDbBlockTableRecord
  2
*PAPER_SPACE
  0
ENDTAB
  0
ENDSEC
  0
SECTION
  2
BLOCKS
  0
BLOCK
  5
20
330
1F
100
AcDbEntity
  8
0
100
AcDbBlockBegin
  2
*MODEL_SPACE
 70
     0
 10
0.0
 20
0.0
 30
0.0
  3
*MODEL_SPACE
  1

  0
ENDBLK
  5
21
330
1F
100
AcDbEntity
  8
0
100
AcDbBlockEnd
  0
BLOCK
  5
1C
330
1B
100
AcDbEntity
 67
     1
  8
0
100
AcDbBlockBegin
  2
*PAPER_SPACE
  1

  0
ENDBLK
  5
1D
330
1B
100
AcDbEntity
 67
     1
  8
0
100
AcDbBlockEnd
  0
ENDSEC
  0
SECTION
  2
ENTITIES
  0
SPLINE
  5
100
100
AcDbEntity
  8
panel_edge_cuts
 62
7
100
AcDbSpline
 70
8
 71
3
 72
8
 73
4
 74
0
 40
0
 40
0
 40
0
 40
0
 40
1
 40
1
 40
1
 40
1
 10
7.499997
 20
295.551516
 30
0.0
 10
6.872468
 20
295.551516
 30
0.0
 10
6.306729
 20
295.173501
 30
0.0
 10
6.066584
 20
294.593740
 30
0.0
  0
SPLINE
  5
101
100
AcDbEntity
  8
panel_edge_cuts
 62
7
100
AcDbSpline
 70
8
 71
3
 72
8
 73
4
 74
0
 40
0
 40
0
 40
0
 40
0
 40
1
 40
1
 40
1
 40
1
 10
6.066584
 20
294.593740
 30
0.0
 10
5.826439
 20
294.013978
 30
0.0
 10
5.959180
 20
293.346644
 30
0.0
 10
6.402910
 20
292.902914
 30
0.0
  0
SPLINE
  5
102
100
AcDbEntity
  8
panel_edge_cuts
 62
7
100
AcDbSpline
 70
8
 71
3
 72
8
 73
4
 74
0
 40
0
 40
0
 40
0
 40
0
 40
1
 40
1
 40
1
 40
1
 10
6.402910
 20
292.902914
 30
0.0
 10
6.846640
 20
292.459184
 30
0.0
 10
7.513975
 20
292.326442
 30
0.0
 10
8.093736
 20
292.566588
 30
0.0
  0
SPLINE
  5
103
100
AcDbEntity
  8
panel_edge_cuts
 62
7
100
AcDbSpline
 70
8
 71
3
 72
8
 73
4
 74
0
 40
0
 40
0
 40
0
 40
0
 40
1
 40
1
 40
1
 40
1
 10
8.093736
 20
292.566588
 30
0.0
 10
8.673498
 20
292.806733
 30
0.0
 10
9.051512
 20
293.372471
 30
0.0
 10
9.051512
 20
294.000001
 30
0.0
  0
SPLINE
  5
104
100
AcDbEntity
  8
panel_edge_cuts
 62
7
100
AcDbSpline
 70
8
 71
3
 72
8
 73
4
 74
0
 40
0
 40
0
 40
0
 40
0
 40
1
 40
1
 40
1
 40
1
 10
9.051512
 20
294.000001
 30
0.0
 10
9.051512
 20
294.856879
 30
0.0
 10
8.356875
 20
295.551516
 30
0.0
 10
7.499997
 20
295.551516
 30
0.0
  0
LWPOLYLINE
  5
105
100
AcDbEntity
  8
panel_edge_cuts
 62
7
100
AcDbPolyline
 90
4
 70
1
 10
0.077194
 20
296.922815
 30
0.0
 10
80.822822
 20
296.922815
 30
0.0
 10
80.822822
 20
168.577185
 30
0.0
 10
0.077194
 20
168.577185
 30
0.0
  0
SPLINE
  5
106
100
AcDbEntity
  8
panel_edge_cuts
 62
7
100
AcDbSpline
 70
8
 71
3
 72
8
 73
4
 74
0
 40
0
 40
0
 40
0
 40
0
 40
1
 40
1
 40
1
 40
1
 10
7.494874
 20
173.051495
 30
0.0
 10
6.867345
 20
173.051495
 30
0.0
 10
6.301606
 20
172.673481
 30
0.0
 10
6.061461
 20
172.093719
 30
0.0
  0
SPLINE
  5
107
100
AcDbEntity
  8
panel_edge_cuts
 62
7
100
AcDbSpline
 70
8
 71
3
 72
8
 73
4
 74
0
 40
0
 40
0
 40
0
 40
0
 40
1
 40
1
 40
1
 40
1
 10
6.061461
 20
172.093719
 30
0.0
 10
5.821316
 20
171.513958
 30
0.0
 10
5.954057
 20
170.846623
 30
0.0
 10
6.397787
 20
170.402893
 30
0.0
  0
SPLINE
  5
108
100
AcDbEntity
  8
panel_edge_cuts
 62
7
100
AcDbSpline
 70
8
 71
3
 72
8
 73
4
 74
0
 40
0
 40
0
 40
0
 40
0
 40
1
 40
1
 40
1
 40
1
 10
6.397787
 20
170.402893
 30
0.0
 10
6.841517
 20
169.959163
 30
0.0
 10
7.508852
 20
169.826422
 30
0.0
 10
8.088613
 20
170.066567
 30
0.0
  0
SPLINE
  5
109
100
AcDbEntity
  8
panel_edge_cuts
 62
7
100
AcDbSpline
 70
8
 71
3
 72
8
 73
4
 74
0
 40
0
 40
0
 40
0
 40
0
 40
1
 40
1
 40
1
 40
1
 10
8.088613
 20
170.066567
 30
0.0
 10
8.668375
 20
170.306712
 30
0.0
 10
9.046389
 20
170.872451
 30
0.0
 10
9.046389
 20
171.499980
 30
0.0
  0
SPLINE
  5
10a
100
AcDbEntity
  8
panel_edge_cuts
 62
7
100
AcDbSpline
 70
8
 71
3
 72
8
 73
4
 74
0
 40
0
 40
0
 40
0
 40
0
 40
1
 40
1
 40
1
 40
1
 10
9.046389
 20
171.499980
 30
0.0
 10
9.046389
 20
171.911467
 30
0.0
 10
8.882926
 20
172.306101
 30
0.0
 10
8.591961
 20
172.597067
 30
0.0
  0
SPLINE
  5
10b
100
AcDbEntity
  8
panel_edge_cuts
 62
7
100
AcDbSpline
 70
8
 71
3
 72
8
 73
4
 74
0
 40
0
 40
0
 40
0
 40
0
 40
1
 40
1
 40
1
 40
1
 10
8.591961
 20
172.597067
 30
0.0
 10
8.300995
 20
172.888032
 30
0.0
 10
7.906361
 20
173.051495
 30
0.0
 10
7.494874
 20
173.051495
 30
0.0
  0
LWPOLYLINE
  5
10c
100
AcDbEntity
  8
panel_edge_cuts
 62
7
100
AcDbPolyline
 90
1
 70
1
 10
7.499997
 20
295.551516
 30
0.0
  0
SPLINE
  5
10d
100
AcDbEntity
  8
panel_edge_cuts
 62
7
100
AcDbSpline
 70
8
 71
3
 72
8
 73
4
 74
0
 40
0
 40
0
 40
0
 40
0
 40
1
 40
1
 40
1
 40
1
 10
73.540001
 20
295.551516
 30
0.0
 10
72.912472
 20
295.551516
 30
0.0
 10
72.346733
 20
295.173501
 30
0.0
 10
72.106588
 20
294.593740
 30
0.0
  0
SPLINE
  5
10e
100
AcDbEntity
  8
panel_edge_cuts
 62
7
100
AcDbSpline
 70
8
 71
3
 72
8
 73
4
 74
0
 40
0
 40
0
 40
0
 40
0
 40
1
 40
1
 40
1
 40
1
 10
72.106588
 20
294.593740
 30
0.0
 10
71.866443
 20
294.013978
 30
0.0
 10
71.999184
 20
293.346644
 30
0.0
 10
72.442914
 20
292.902914
 30
0.0
  0
SPLINE
  5
10f
100
AcDbEntity
  8
panel_edge_cuts
 62
7
100
AcDbSpline
 70
8
 71
3
 72
8
 73
4
 74
0
 40
0
 40
0
 40
0
 40
0
 40
1
 40
1
 40
1
 40
1
 10
72.442914
 20
292.902914
 30
0.0
 10
72.886644
 20
292.459184
 30
0.0
 10
73.553979
 20
292.326442
 30
0.0
 10
74.133740
 20
292.566588
 30
0.0
  0
SPLINE
  5
110
100
AcDbEntity
  8
panel_edge_cuts
 62
7
100
AcDbSpline
 70
8
 71
3
 72
8
 73
4
 74
0
 40
0
 40
0
 40
0
 40
0
 40
1
 40
1
 40
1
 40
1
 10
74.133740
 20
292.566588
 30
0.0
 10
74.713502
 20
292.806733
 30
0.0
 10
75.091516
 20
293.372471
 30
0.0
 10
75.091516
 20
294.000001
 30
0.0
  0
SPLINE
  5
111
100
AcDbEntity
  8
panel_edge_cuts
 62
7
100
AcDbSpline
 70
8
 71
3
 72
8
 73
4
 74
0
 40
0
 40
0
 40
0
 40
0
 40
1
 40
1
 40
1
 40
1
 10
75.091516
 20
294.000001
 30
0.0
 10
75.091516
 20
294.411488
 30
0.0
 10
74.928053
 20
294.806122
 30
0.0
 10
74.637088
 20
295.097088
 30
0.0
  0
SPLINE
  5
112
100
AcDbEntity
  8
panel_edge_cuts
 62
7
100
AcDbSpline
 70
8
 71
3
 72
8
 73
4
 74
0
 40
0
 40
0
 40
0
 40
0
 40
1
 40
1
 40
1
 40
1
 10
74.637088
 20
295.097088
 30
0.0
 10
74.346122
 20
295.388053
 30
0.0
 10
73.951488
 20
295.551516
 30
0.0
 10
73.540001
 20
295.551516
 30
0.0
  0
LWPOLYLINE
  5
113
100
AcDbEntity
  8
panel_edge_cuts
 62
7
100
AcDbPolyline
 90
1
 70
1
 10
7.494874
 20
173.051495
 30
0.0
  0
SPLINE
  5
114
100
AcDbEntity
  8
panel_edge_cuts
 62
7
100
AcDbSpline
 70
8
 71
3
 72
8
 73
4
 74
0
 40
0
 40
0
 40
0
 40
0
 40
1
 40
1
 40
1
 40
1
 10
73.540001
 20
173.051495
 30
0.0
 10
72.912472
 20
173.051495
 30
0.0
 10
72.346733
 20
172.673481
 30
0.0
 10
72.106588
 20
172.093719
 30
0.0
  0
SPLINE
  5
115
100
AcDbEntity
  8
panel_edge_cuts
 62
7
100
AcDbSpline
 70
8
 71
3
 72
8
 73
4
 74
0
 40
0
 40
0
 40
0
 40
0
 40
1
 40
1
 40
1
 40
1
 10
72.106588
 20
172.093719
 30
0.0
 10
71.866443
 20
171.513958
 30
0.0
 10
71.999184
 20
170.846623
 30
0.0
 10
72.442914
 20
170.402893
 30
0.0
  0
SPLINE
  5
116
100
AcDbEntity
  8
panel_edge_cuts
 62
7
100
AcDbSpline
 70
8
 71
3
 72
8
 73
4
 74
0
 40
0
 40
0
 40
0
 40
0
 40
1
 40
1
 40
1
 40
1
 10
72.442914
 20
170.402893
 30
0.0
 10
72.886644
 20
169.959163
 30
0.0
 10
73.553979
 20
169.826422
 30
0.0
 10
74.133740
 20
170.066567
 30
0.0
  0
SPLINE
  5
117
100
AcDbEntity
  8
panel_edge_cuts
 62
7
100
AcDbSpline
 70
8
 71
3
 72
8
 73
4
 74
0
 40
0
 40
0
 40
0
 40
0
 40
1
 40
1
 40
1
 40
1
 10
74.133740
 20
170.066567
 30
0.0
 10
74.713502
 20
170.306712
 30
0.0
 10
75.091516
 20
170.872451
 30
0.0
 10
75.091516
 20
171.499980
 30
0.0
  0
SPLINE
  5
118
100
AcDbEntity
  8
panel_edge_cuts
 62
7
100
AcDbSpline
 70
8
 71
3
 72
8
 73
4
 74
0
 40
0
 40
0
 40
0
 40
0
 40
1
 40
1
 40
1
 40
1
 10
75.091516
 20
171.499980
 30
0.0
 10
75.091516
 20
171.911467
 30
0.0
 10
74.928053
 20
172.306101
 30
0.0
 10
74.637088
 20
172.597067
 30
0.0
  0
SPLINE
  5
119
100
AcDbEntity
  8
panel_edge_cuts
 62
7
100
AcDbSpline
 70
8
 71
3
 72
8
 73
4
 74
0
 40
0
 40
0
 40
0
 40
0
 40
1
 40
1
 40
1
 40
1
 10
74.637088
 20
172.597067
 30
0.0
 10
74.346122
 20
172.888032
 30
0.0
 10
73.951488
 20
173.051495
 30
0.0
 10
73.540001
 20
173.051495
 30
0.0
  0
LWPOLYLINE
  5
11a
100
AcDbEntity
  8
panel_edge_cuts
 62
7
100
AcDbPolyline
 90
1
 70
1
 10
73.540001
 20
295.551516
 30
0.0
  0
SPLINE
  5
11b
100
AcDbEntity
  8
panel_holes
 62
7
100
AcDbSpline
 70
8
 71
3
 72
8
 73
4
 74
0
 40
0
 40
0
 40
0
 40
0
 40
1
 40
1
 40
1
 40
1
 10
10.440374
 20
270.873113
 30
0.0
 10
9.049109
 20
270.873113
 30
0.0
 10
7.794837
 20
270.035035
 30
0.0
 10
7.262424
 20
268.749674
 30
0.0
  0
SPLINE
  5
11c
100
AcDbEntity
  8
panel_holes
 62
7
100
AcDbSpline
 70
8
 71
3
 72
8
 73
4
 74
0
 40
0
 40
0
 40
0
 40
0
 40
1
 40
1
 40
1
 40
1
 10
7.262424
 20
268.749674
 30
0.0
 10
6.730010
 20
267.464313
 30
0.0
 10
7.024303
 20
265.984799
 30
0.0
 10
8.008076
 20
265.001026
 30
0.0
  0
SPLINE
  5
11d
100
AcDbEntity
  8
panel_holes
 62
7
100
AcDbSpline
 70
8
 71
3
 72
8
 73
4
 74
0
 40
0
 40
0
 40
0
 40
0
 40
1
 40
1
 40
1
 40
1
 10
8.008076
 20
265.001026
 30
0.0
 10
8.991849
 20
264.017253
 30
0.0
 10
10.471363
 20
263.722960
 30
0.0
 10
11.756724
 20
264.255374
 30
0.0
  0
SPLINE
  5
11e
100
AcDbEntity
  8
panel_holes
 62
7
100
AcDbSpline
 70
8
 71
3
 72
8
 73
4
 74
0
 40
0
 40
0
 40
0
 40
0
 40
1
 40
1
 40
1
 40
1
 10
11.756724
 20
264.255374
 30
0.0
 10
13.042085
 20
264.787787
 30
0.0
 10
13.880163
 20
266.042059
 30
0.0
 10
13.880163
 20
267.433324
 30
0.0
  0
SPLINE
  5
11f
100
AcDbEntity
  8
panel_holes
 62
7
100
AcDbSpline
 70
8
 71
3
 72
8
 73
4
 74
0
 40
0
 40
0
 40
0
 40
0
 40
1
 40
1
 40
1
 40
1
 10
13.880163
 20
267.433324
 30
0.0
 10
13.880163
 20
268.345613
 30
0.0
 10
13.517758
 20
269.220536
 30
0.0
 10
12.872672
 20
269.865622
 30
0.0
  0
SPLINE
  5
120
100
AcDbEntity
  8
panel_holes
 62
7
100
AcDbSpline
 70
8
 71
3
 72
8
 73
4
 74
0
 40
0
 40
0
 40
0
 40
0
 40
1
 40
1
 40
1
 40
1
 10
12.872672
 20
269.865622
 30
0.0
 10
12.227586
 20
270.510708
 30
0.0
 10
11.352663
 20
270.873113
 30
0.0
 10
10.440374
 20
270.873113
 30
0.0
  0
LWPOLYLINE
  5
121
100
AcDbEntity
  8
panel_edge_cuts
 62
7
100
AcDbPolyline
 90
1
 70
1
 10
73.540001
 20
173.051495
 30
0.0
  0
LWPOLYLINE
  5
122
100
AcDbEntity
  8
panel_holes
 62
7
100
AcDbPolyline
 90
1
 70
1
 10
10.440374
 20
270.873113
 30
0.0
  0
LWPOLYLINE
  5
123
100
AcDbEntity
  8
panel_holes
 62
7
100
AcDbPolyline
 90
2
 70
0
 10
10.440369
 20
269.289253
 30
0.0
 10
10.440369
 20
265.577321
 30
0.0
  0
SPLINE
  5
124
100
AcDbEntity
  8
panel_holes
 62
7
100
AcDbSpline
 70
8
 71
3
 72
8
 73
4
 74
0
 40
0
 40
0
 40
0
 40
0
 40
1
 40
1
 40
1
 40
1
 10
25.854264
 20
270.873113
 30
0.0
 10
24.462999
 20
270.873113
 30
0.0
 10
23.208727
 20
270.035035
 30
0.0
 10
22.676314
 20
268.749674
 30
0.0
  0
SPLINE
  5
125
100
AcDbEntity
  8
panel_holes
 62
7
100
AcDbSpline
 70
8
 71
3
 72
8
 73
4
 74
0
 40
0
 40
0
 40
0
 40
0
 40
1
 40
1
 40
1
 40
1
 10
22.676314
 20
268.749674
 30
0.0
 10
22.143900
 20
267.464313
 30
0.0
 10
22.438193
 20
265.984799
 30
0.0
 10
23.421966
 20
265.001026
 30
0.0
  0
SPLINE
  5
126
100
AcDbEntity
  8
panel_holes
 62
7
100
AcDbSpline
 70
8
 71
3
 72
8
 73
4
 74
0
 40
0
 40
0
 40
0
 40
0
 40
1
 40
1
 40
1
 40
1
 10
23.421966
 20
265.001026
 30
0.0
 10
24.405739
 20
264.017253
 30
0.0
 10
25.885253
 20
263.722960
 30
0.0
 10
27.170614
 20
264.255374
 30
0.0
  0
SPLINE
  5
127
100
AcDbEntity
  8
panel_holes
 62
7
100
AcDbSpline
 70
8
 71
3
 72
8
 73
4
 74
0
 40
0
 40
0
 40
0
 40
0
 40
1
 40
1
 40
1
 40
1
 10
27.170614
 20
264.255374
 30
0.0
 10
28.455975
 20
264.787787
 30
0.0
 10
29.294053
 20
266.042059
 30
0.0
 10
29.294053
 20
267.433324
 30
0.0
  0
SPLINE
  5
128
100
AcDbEntity
  8
panel_holes
 62
7
100
AcDbSpline
 70
8
 71
3
 72
8
 73
4
 74
0
 40
0
 40
0
 40
0
 40
0
 40
1
 40
1
 40
1
 40
1
 10
29.294053
 20
267.433324
 30
0.0
 10
29.294053
 20
268.345613
 30
0.0
 10
28.931648
 20
269.220536
 30
0.0
 10
28.286562
 20
269.865622
 30
0.0
  0
SPLINE
  5
129
100
AcDbEntity
  8
panel_holes
 62
7
100
AcDbSpline
 70
8
 71
3
 72
8
 73
4
 74
0
 40
0
 40
0
 40
0
 40
0
 40
1
 40
1
 40
1
 40
1
 10
28.286562
 20
269.865622
 30
0.0
 10
27.641476
 20
270.510708
 30
0.0
 10
26.766553
 20
270.873113
 30
0.0
 10
25.854264
 20
270.873113
 30
0.0
  0
LWPOLYLINE
  5
12a
100
AcDbEntity
  8
panel_holes
 62
7
100
AcDbPolyline
 90
2
 70
0
 10
12.296335
 20
267.506581
 30
0.0
 10
8.584403
 20
267.506581
 30
0.0
  0
LWPOLYLINE
  5
12b
100
AcDbEntity
  8
panel_holes
 62
7
100
AcDbPolyline
 90
1
 70
1
 10
25.854264
 20
270.873113
 30
0.0
  0
LWPOLYLINE
  5
12c
100
AcDbEntity
  8
panel_holes
 62
7
100
AcDbPolyline
 90
2
 70
0
 10
25.854259
 20
269.289253
 30
0.0
 10
25.854259
 20
265.577321
 30
0.0
  0
SPLINE
  5
12d
100
AcDbEntity
  8
panel_holes
 62
7
100
AcDbSpline
 70
8
 71
3
 72
8
 73
4
 74
0
 40
0
 40
0
 40
0
 40
0
 40
1
 40
1
 40
1
 40
1
 10
56.682074
 20
270.873113
 30
0.0
 10
55.290809
 20
270.873113
 30
0.0
 10
54.036537
 20
270.035035
 30
0.0
 10
53.504124
 20
268.749674
 30
0.0
  0
SPLINE
  5
12e
100
AcDbEntity
  8
panel_holes
 62
7
100
AcDbSpline
 70
8
 71
3
 72
8
 73
4
 74
0
 40
0
 40
0
 40
0
 40
0
 40
1
 40
1
 40
1
 40
1
 10
53.504124
 20
268.749674
 30
0.0
 10
52.971710
 20
267.464313
 30
0.0
 10
53.266003
 20
265.984799
 30
0.0
 10
54.249776
 20
265.001026
 30
0.0
  0
SPLINE
  5
12f
100
AcDbEntity
  8
panel_holes
 62
7
100
AcDbSpline
 70
8
 71
3
 72
8
 73
4
 74
0
 40
0
 40
0
 40
0
 40
0
 40
1
 40
1
 40
1
 40
1
 10
54.249776
 20
265.001026
 30
0.0
 10
55.233549
 20
264.017253
 30
0.0
 10
56.713063
 20
263.722960
 30
0.0
 10
57.998424
 20
264.255374
 30
0.0
  0
SPLINE
  5
130
100
AcDbEntity
  8
panel_holes
 62
7
100
AcDbSpline
 70
8
 71
3
 72
8
 73
4
 74
0
 40
0
 40
0
 40
0
 40
0
 40
1
 40
1
 40
1
 40
1
 10
57.998424
 20
264.255374
 30
0.0
 10
59.283785
 20
264.787787
 30
0.0
 10
60.121863
 20
266.042059
 30
0.0
 10
60.121863
 20
267.433324
 30
0.0
  0
SPLINE
  5
131
100
AcDbEntity
  8
panel_holes
 62
7
100
AcDbSpline
 70
8
 71
3
 72
8
 73
4
 74
0
 40
0
 40
0
 40
0
 40
0
 40
1
 40
1
 40
1
 40
1
 10
60.121863
 20
267.433324
 30
0.0
 10
60.121863
 20
268.345613
 30
0.0
 10
59.759458
 20
269.220536
 30
0.0
 10
59.114372
 20
269.865622
 30
0.0
  0
SPLINE
  5
132
100
AcDbEntity
  8
panel_holes
 62
7
100
AcDbSpline
 70
8
 71
3
 72
8
 73
4
 74
0
 40
0
 40
0
 40
0
 40
0
 40
1
 40
1
 40
1
 40
1
 10
59.114372
 20
269.865622
 30
0.0
 10
58.469286
 20
270.510708
 30
0.0
 10
57.594363
 20
270.873113
 30
0.0
 10
56.682074
 20
270.873113
 30
0.0
  0
LWPOLYLINE
  5
133
100
AcDbEntity
  8
panel_holes
 62
7
100
AcDbPolyline
 90
2
 70
0
 10
27.710225
 20
267.506581
 30
0.0
 10
23.998293
 20
267.506581
 30
0.0
  0
LWPOLYLINE
  5
134
100
AcDbEntity
  8
panel_holes
 62
7
100
AcDbPolyline
 90
1
 70
1
 10
56.682074
 20
270.873113
 30
0.0
  0
LWPOLYLINE
  5
135
100
AcDbEntity
  8
panel_holes
 62
7
100
AcDbPolyline
 90
2
 70
0
 10
56.682069
 20
269.289253
 30
0.0
 10
56.682069
 20
265.577321
 30
0.0
  0
SPLINE
  5
136
100
AcDbEntity
  8
panel_holes
 62
7
100
AcDbSpline
 70
8
 71
3
 72
8
 73
4
 74
0
 40
0
 40
0
 40
0
 40
0
 40
1
 40
1
 40
1
 40
1
 10
41.268174
 20
270.873113
 30
0.0
 10
39.876909
 20
270.873113
 30
0.0
 10
38.622637
 20
270.035035
 30
0.0
 10
38.090224
 20
268.749674
 30
0.0
  0
SPLINE
  5
137
100
AcDbEntity
  8
panel_holes
 62
7
100
AcDbSpline
 70
8
 71
3
 72
8
 73
4
 74
0
 40
0
 40
0
 40
0
 40
0
 40
1
 40
1
 40
1
 40
1
 10
38.090224
 20
268.749674
 30
0.0
 10
37.557810
 20
267.464313
 30
0.0
 10
37.852103
 20
265.984799
 30
0.0
 10
38.835876
 20
265.001026
 30
0.0
  0
SPLINE
  5
138
100
AcDbEntity
  8
panel_holes
 62
7
100
AcDbSpline
 70
8
 71
3
 72
8
 73
4
 74
0
 40
0
 40
0
 40
0
 40
0
 40
1
 40
1
 40
1
 40
1
 10
38.835876
 20
265.001026
 30
0.0
 10
39.819649
 20
264.017253
 30
0.0
 10
41.299163
 20
263.722960
 30
0.0
 10
42.584524
 20
264.255374
 30
0.0
  0
SPLINE
  5
139
100
AcDbEntity
  8
panel_holes
 62
7
100
AcDbSpline
 70
8
 71
3
 72
8
 73
4
 74
0
 40
0
 40
0
 40
0
 40
0
 40
1
 40
1
 40
1
 40
1
 10
42.584524
 20
264.255374
 30
0.0
 10
43.869885
 20
264.787787
 30
0.0
 10
44.707963
 20
266.042059
 30
0.0
 10
44.707963
 20
267.433324
 30
0.0
  0
SPLINE
  5
13a
100
AcDbEntity
  8
panel_holes
 62
7
100
AcDbSpline
 70
8
 71
3
 72
8
 73
4
 74
0
 40
0
 40
0
 40
0
 40
0
 40
1
 40
1
 40
1
 40
1
 10
44.707963
 20
267.433324
 30
0.0
 10
44.707963
 20
268.345613
 30
0.0
 10
44.345558
 20
269.220536
 30
0.0
 10
43.700472
 20
269.865622
 30
0.0
  0
SPLINE
  5
13b
100
AcDbEntity
  8
panel_holes
 62
7
100
AcDbSpline
 70
8
 71
3
 72
8
 73
4
 74
0
 40
0
 40
0
 40
0
 40
0
 40
1
 40
1
 40
1
 40
1
 10
43.700472
 20
269.865622
 30
0.0
 10
43.055386
 20
270.510708
 30
0.0
 10
42.180463
 20
270.873113
 30
0.0
 10
41.268174
 20
270.873113
 30
0.0
  0
LWPOLYLINE
  5
13c
100
AcDbEntity
  8
panel_holes
 62
7
100
AcDbPolyline
 90
2
 70
0
 10
58.538035
 20
267.506581
 30
0.0
 10
54.826103
 20
267.506581
 30
0.0
  0
LWPOLYLINE
  5
13d
100
AcDbEntity
  8
panel_holes
 62
7
100
AcDbPolyline
 90
1
 70
1
 10
41.268174
 20
270.873113
 30
0.0
  0
LWPOLYLINE
  5
13e
100
AcDbEntity
  8
panel_holes
 62
7
100
AcDbPolyline
 90
2
 70
0
 10
41.268169
 20
269.289253
 30
0.0
 10
41.268169
 20
265.577321
 30
0.0
  0
SPLINE
  5
13f
100
AcDbEntity
  8
panel_holes
 62
7
100
AcDbSpline
 70
8
 71
3
 72
8
 73
4
 74
0
 40
0
 40
0
 40
0
 40
0
 40
1
 40
1
 40
1
 40
1
 10
10.450674
 20
224.525213
 30
0.0
 10
9.059409
 20
224.525213
 30
0.0
 10
7.805137
 20
223.687135
 30
0.0
 10
7.272724
 20
222.401774
 30
0.0
  0
SPLINE
  5
140
100
AcDbEntity
  8
panel_holes
 62
7
100
AcDbSpline
 70
8
 71
3
 72
8
 73
4
 74
0
 40
0
 40
0
 40
0
 40
0
 40
1
 40
1
 40
1
 40
1
 10
7.272724
 20
222.401774
 30
0.0
 10
6.740310
 20
221.116413
 30
0.0
 10
7.034603
 20
219.636899
 30
0.0
 10
8.018376
 20
218.653126
 30
0.0
  0
SPLINE
  5
141
100
AcDbEntity
  8
panel_holes
 62
7
100
AcDbSpline
 70
8
 71
3
 72
8
 73
4
 74
0
 40
0
 40
0
 40
0
 40
0
 40
1
 40
1
 40
1
 40
1
 10
8.018376
 20
218.653126
 30
0.0
 10
9.002149
 20
217.669353
 30
0.0
 10
10.481663
 20
217.375060
 30
0.0
 10
11.767024
 20
217.907474
 30
0.0
  0
SPLINE
  5
142
100
AcDbEntity
  8
panel_holes
 62
7
100
AcDbSpline
 70
8
 71
3
 72
8
 73
4
 74
0
 40
0
 40
0
 40
0
 40
0
 40
1
 40
1
 40
1
 40
1
 10
11.767024
 20
217.907474
 30
0.0
 10
13.052385
 20
218.439887
 30
0.0
 10
13.890463
 20
219.694159
 30
0.0
 10
13.890463
 20
221.085424
 30
0.0
  0
SPLINE
  5
143
100
AcDbEntity
  8
panel_holes
 62
7
100
AcDbSpline
 70
8
 71
3
 72
8
 73
4
 74
0
 40
0
 40
0
 40
0
 40
0
 40
1
 40
1
 40
1
 40
1
 10
13.890463
 20
221.085424
 30
0.0
 10
13.890463
 20
221.997713
 30
0.0
 10
13.528058
 20
222.872636
 30
0.0
 10
12.882972
 20
223.517722
 30
0.0
  0
SPLINE
  5
144
100
AcDbEntity
  8
panel_holes
 62
7
100
AcDbSpline
 70
8
 71
3
 72
8
 73
4
 74
0
 40
0
 40
0
 40
0
 40
0
 40
1
 40
1
 40
1
 40
1
 10
12.882972
 20
223.517722
 30
0.0
 10
12.237886
 20
224.162808
 30
0.0
 10
11.362963
 20
224.525213
 30
0.0
 10
10.450674
 20
224.525213
 30
0.0
  0
LWPOLYLINE
  5
145
100
AcDbEntity
  8
panel_holes
 62
7
100
AcDbPolyline
 90
2
 70
0
 10
43.124135
 20
267.506581
 30
0.0
 10
39.412203
 20
267.506581
 30
0.0
  0
LWPOLYLINE
  5
146
100
AcDbEntity
  8
panel_holes
 62
7
100
AcDbPolyline
 90
1
 70
1
 10
10.450674
 20
224.525213
 30
0.0
  0
LWPOLYLINE
  5
147
100
AcDbEntity
  8
panel_holes
 62
7
100
AcDbPolyline
 90
2
 70
0
 10
10.450669
 20
222.941353
 30
0.0
 10
10.450669
 20
219.229421
 30
0.0
  0
SPLINE
  5
148
100
AcDbEntity
  8
panel_holes
 62
7
100
AcDbSpline
 70
8
 71
3
 72
8
 73
4
 74
0
 40
0
 40
0
 40
0
 40
0
 40
1
 40
1
 40
1
 40
1
 10
10.450674
 20
202.414813
 30
0.0
 10
9.059409
 20
202.414813
 30
0.0
 10
7.805137
 20
201.576735
 30
0.0
 10
7.272724
 20
200.291374
 30
0.0
  0
SPLINE
  5
149
100
AcDbEntity
  8
panel_holes
 62
7
100
AcDbSpline
 70
8
 71
3
 72
8
 73
4
 74
0
 40
0
 40
0
 40
0
 40
0
 40
1
 40
1
 40
1
 40
1
 10
7.272724
 20
200.291374
 30
0.0
 10
6.740310
 20
199.006013
 30
0.0
 10
7.034603
 20
197.526499
 30
0.0
 10
8.018376
 20
196.542726
 30
0.0
  0
SPLINE
  5
14a
100
AcDbEntity
  8
panel_holes
 62
7
100
AcDbSpline
 70
8
 71
3
 72
8
 73
4
 74
0
 40
0
 40
0
 40
0
 40
0
 40
1
 40
1
 40
1
 40
1
 10
8.018376
 20
196.542726
 30
0.0
 10
9.002149
 20
195.558953
 30
0.0
 10
10.481663
 20
195.264660
 30
0.0
 10
11.767024
 20
195.797074
 30
0.0
  0
SPLINE
  5
14b
100
AcDbEntity
  8
panel_holes
 62
7
100
AcDbSpline
 70
8
 71
3
 72
8
 73
4
 74
0
 40
0
 40
0
 40
0
 40
0
 40
1
 40
1
 40
1
 40
1
 10
11.767024
 20
195.797074
 30
0.0
 10
13.052385
 20
196.329487
 30
0.0
 10
13.890463
 20
197.583759
 30
0.0
 10
13.890463
 20
198.975024
 30
0.0
  0
SPLINE
  5
14c
100
AcDbEntity
  8
panel_holes
 62
7
100
AcDbSpline
 70
8
 71
3
 72
8
 73
4
 74
0
 40
0
 40
0
 40
0
 40
0
 40
1
 40
1
 40
1
 40
1
 10
13.890463
 20
198.975024
 30
0.0
 10
13.890463
 20
199.887313
 30
0.0
 10
13.528058
 20
200.762236
 30
0.0
 10
12.882972
 20
201.407322
 30
0.0
  0
SPLINE
  5
14d
100
AcDbEntity
  8
panel_holes
 62
7
100
AcDbSpline
 70
8
 71
3
 72
8
 73
4
 74
0
 40
0
 40
0
 40
0
 40
0
 40
1
 40
1
 40
1
 40
1
 10
12.882972
 20
201.407322
 30
0.0
 10
12.237886
 20
202.052408
 30
0.0
 10
11.362963
 20
202.414813
 30
0.0
 10
10.450674
 20
202.414813
 30
0.0
  0
LWPOLYLINE
  5
14e
100
AcDbEntity
  8
panel_holes
 62
7
100
AcDbPolyline
 90
2
 70
0
 10
12.306635
 20
221.158681
 30
0.0
 10
8.594703
 20
221.158681
 30
0.0
  0
LWPOLYLINE
  5
14f
100
AcDbEntity
  8
panel_holes
 62
7
100
AcDbPolyline
 90
1
 70
1
 10
10.450674
 20
202.414813
 30
0.0
  0
LWPOLYLINE
  5
150
100
AcDbEntity
  8
panel_holes
 62
7
100
AcDbPolyline
 90
2
 70
0
 10
10.450669
 20
200.830953
 30
0.0
 10
10.450669
 20
197.119021
 30
0.0
  0
SPLINE
  5
151
100
AcDbEntity
  8
panel_holes
 62
7
100
AcDbSpline
 70
8
 71
3
 72
8
 73
4
 74
0
 40
0
 40
0
 40
0
 40
0
 40
1
 40
1
 40
1
 40
1
 10
72.543678
 20
218.863646
 30
0.0
 10
71.348366
 20
218.863646
 30
0.0
 10
70.270752
 20
218.143607
 30
0.0
 10
69.813326
 20
217.039283
 30
0.0
  0
SPLINE
  5
152
100
AcDbEntity
  8
panel_holes
 62
7
100
AcDbSpline
 70
8
 71
3
 72
8
 73
4
 74
0
 40
0
 40
0
 40
0
 40
0
 40
1
 40
1
 40
1
 40
1
 10
69.813326
 20
217.039283
 30
0.0
 10
69.355900
 20
215.934959
 30
0.0
 10
69.608744
 20
214.663826
 30
0.0
 10
70.453957
 20
213.818613
 30
0.0
  0
SPLINE
  5
153
100
AcDbEntity
  8
panel_holes
 62
7
100
AcDbSpline
 70
8
 71
3
 72
8
 73
4
 74
0
 40
0
 40
0
 40
0
 40
0
 40
1
 40
1
 40
1
 40
1
 10
70.453957
 20
213.818613
 30
0.0
 10
71.299170
 20
212.973400
 30
0.0
 10
72.570303
 20
212.720556
 30
0.0
 10
73.674627
 20
213.177982
 30
0.0
  0
SPLINE
  5
154
100
AcDbEntity
  8
panel_holes
 62
7
100
AcDbSpline
 70
8
 71
3
 72
8
 73
4
 74
0
 40
0
 40
0
 40
0
 40
0
 40
1
 40
1
 40
1
 40
1
 10
73.674627
 20
213.177982
 30
0.0
 10
74.778951
 20
213.635408
 30
0.0
 10
75.498990
 20
214.713022
 30
0.0
 10
75.498990
 20
215.908334
 30
0.0
  0
SPLINE
  5
155
100
AcDbEntity
  8
panel_holes
 62
7
100
AcDbSpline
 70
8
 71
3
 72
8
 73
4
 74
0
 40
0
 40
0
 40
0
 40
0
 40
1
 40
1
 40
1
 40
1
 10
75.498990
 20
215.908334
 30
0.0
 10
75.498990
 20
216.692131
 30
0.0
 10
75.187628
 20
217.443826
 30
0.0
 10
74.633399
 20
217.998055
 30
0.0
  0
SPLINE
  5
156
100
AcDbEntity
  8
panel_holes
 62
7
100
AcDbSpline
 70
8
 71
3
 72
8
 73
4
 74
0
 40
0
 40
0
 40
0
 40
0
 40
1
 40
1
 40
1
 40
1
 10
74.633399
 20
217.998055
 30
0.0
 10
74.079171
 20
218.552283
 30
0.0
 10
73.327475
 20
218.863646
 30
0.0
 10
72.543678
 20
218.863646
 30
0.0
  0
LWPOLYLINE
  5
157
100
AcDbEntity
  8
panel_holes
 62
7
100
AcDbPolyline
 90
2
 70
0
 10
12.306635
 20
199.048281
 30
0.0
 10
8.594703
 20
199.048281
 30
0.0
  0
LWPOLYLINE
  5
158
100
AcDbEntity
  8
panel_holes
 62
7
100
AcDbPolyline
 90
1
 70
1
 10
72.543678
 20
218.863646
 30
0.0
  0
LWPOLYLINE
  5
159
100
AcDbEntity
  8
panel_holes
 62
7
100
AcDbPolyline
 90
2
 70
0
 10
72.543669
 20
217.764293
 30
0.0
 10
72.543669
 20
214.052361
 30
0.0
  0
SPLINE
  5
15a
100
AcDbEntity
  8
panel_holes
 62
7
100
AcDbSpline
 70
8
 71
3
 72
8
 73
4
 74
0
 40
0
 40
0
 40
0
 40
0
 40
1
 40
1
 40
1
 40
1
 10
72.543678
 20
262.980305
 30
0.0
 10
71.348366
 20
262.980305
 30
0.0
 10
70.270752
 20
262.260267
 30
0.0
 10
69.813326
 20
261.155943
 30
0.0
  0
SPLINE
  5
15b
100
AcDbEntity
  8
panel_holes
 62
7
100
AcDbSpline
 70
8
 71
3
 72
8
 73
4
 74
0
 40
0
 40
0
 40
0
 40
0
 40
1
 40
1
 40
1
 40
1
 10
69.813326
 20
261.155943
 30
0.0
 10
69.355900
 20
260.051619
 30
0.0
 10
69.608744
 20
258.780486
 30
0.0
 10
70.453957
 20
257.935273
 30
0.0
  0
SPLINE
  5
15c
100
AcDbEntity
  8
panel_holes
 62
7
100
AcDbSpline
 70
8
 71
3
 72
8
 73
4
 74
0
 40
0
 40
0
 40
0
 40
0
 40
1
 40
1
 40
1
 40
1
 10
70.453957
 20
257.935273
 30
0.0
 10
71.299170
 20
257.090060
 30
0.0
 10
72.570303
 20
256.837216
 30
0.0
 10
73.674627
 20
257.294642
 30
0.0
  0
SPLINE
  5
15d
100
AcDbEntity
  8
panel_holes
 62
7
100
AcDbSpline
 70
8
 71
3
 72
8
 73
4
 74
0
 40
0
 40
0
 40
0
 40
0
 40
1
 40
1
 40
1
 40
1
 10
73.674627
 20
257.294642
 30
0.0
 10
74.778951
 20
257.752068
 30
0.0
 10
75.498990
 20
258.829682
 30
0.0
 10
75.498990
 20
260.024994
 30
0.0
  0
SPLINE
  5
15e
100
AcDbEntity
  8
panel_holes
 62
7
100
AcDbSpline
 70
8
 71
3
 72
8
 73
4
 74
0
 40
0
 40
0
 40
0
 40
0
 40
1
 40
1
 40
1
 40
1
 10
75.498990
 20
260.024994
 30
0.0
 10
75.498990
 20
260.808791
 30
0.0
 10
75.187628
 20
261.560486
 30
0.0
 10
74.633399
 20
262.114715
 30
0.0
  0
SPLINE
  5
15f
100
AcDbEntity
  8
panel_holes
 62
7
100
AcDbSpline
 70
8
 71
3
 72
8
 73
4
 74
0
 40
0
 40
0
 40
0
 40
0
 40
1
 40
1
 40
1
 40
1
 10
74.633399
 20
262.114715
 30
0.0
 10
74.079171
 20
262.668943
 30
0.0
 10
73.327475
 20
262.980305
 30
0.0
 10
72.543678
 20
262.980305
 30
0.0
  0
LWPOLYLINE
  5
160
100
AcDbEntity
  8
panel_holes
 62
7
100
AcDbPolyline
 90
2
 70
0
 10
74.399635
 20
215.981621
 30
0.0
 10
70.687703
 20
215.981621
 30
0.0
  0
LWPOLYLINE
  5
161
100
AcDbEntity
  8
panel_holes
 62
7
100
AcDbPolyline
 90
1
 70
1
 10
72.543678
 20
262.980305
 30
0.0
  0
LWPOLYLINE
  5
162
100
AcDbEntity
  8
panel_holes
 62
7
100
AcDbPolyline
 90
2
 70
0
 10
72.543669
 20
261.880953
 30
0.0
 10
72.543669
 20
258.169021
 30
0.0
  0
SPLINE
  5
163
100
AcDbEntity
  8
panel_holes
 62
7
100
AcDbSpline
 70
8
 71
3
 72
8
 73
4
 74
0
 40
0
 40
0
 40
0
 40
0
 40
1
 40
1
 40
1
 40
1
 10
72.543678
 20
233.569206
 30
0.0
 10
71.348366
 20
233.569206
 30
0.0
 10
70.270752
 20
232.849167
 30
0.0
 10
69.813326
 20
231.744843
 30
0.0
  0
SPLINE
  5
164
100
AcDbEntity
  8
panel_holes
 62
7
100
AcDbSpline
 70
8
 71
3
 72
8
 73
4
 74
0
 40
0
 40
0
 40
0
 40
0
 40
1
 40
1
 40
1
 40
1
 10
69.813326
 20
231.744843
 30
0.0
 10
69.355900
 20
230.640519
 30
0.0
 10
69.608744
 20
229.369386
 30
0.0
 10
70.453957
 20
228.524173
 30
0.0
  0
SPLINE
  5
165
100
AcDbEntity
  8
panel_holes
 62
7
100
AcDbSpline
 70
8
 71
3
 72
8
 73
4
 74
0
 40
0
 40
0
 40
0
 40
0
 40
1
 40
1
 40
1
 40
1
 10
70.453957
 20
228.524173
 30
0.0
 10
71.299170
 20
227.678960
 30
0.0
 10
72.570303
 20
227.426116
 30
0.0
 10
73.674627
 20
227.883542
 30
0.0
  0
SPLINE
  5
166
100
AcDbEntity
  8
panel_holes
 62
7
100
AcDbSpline
 70
8
 71
3
 72
8
 73
4
 74
0
 40
0
 40
0
 40
0
 40
0
 40
1
 40
1
 40
1
 40
1
 10
73.674627
 20
227.883542
 30
0.0
 10
74.778951
 20
228.340968
 30
0.0
 10
75.498990
 20
229.418582
 30
0.0
 10
75.498990
 20
230.613894
 30
0.0
  0
SPLINE
  5
167
100
AcDbEntity
  8
panel_holes
 62
7
100
AcDbSpline
 70
8
 71
3
 72
8
 73
4
 74
0
 40
0
 40
0
 40
0
 40
0
 40
1
 40
1
 40
1
 40
1
 10
75.498990
 20
230.613894
 30
0.0
 10
75.498990
 20
231.397691
 30
0.0
 10
75.187628
 20
232.149386
 30
0.0
 10
74.633399
 20
232.703615
 30
0.0
  0
SPLINE
  5
168
100
AcDbEntity
  8
panel_holes
 62
7
100
AcDbSpline
 70
8
 71
3
 72
8
 73
4
 74
0
 40
0
 40
0
 40
0
 40
0
 40
1
 40
1
 40
1
 40
1
 10
74.633399
 20
232.703615
 30
0.0
 10
74.079171
 20
233.257843
 30
0.0
 10
73.327475
 20
233.569206
 30
0.0
 10
72.543678
 20
233.569206
 30
0.0
  0
LWPOLYLINE
  5
169
100
AcDbEntity
  8
panel_holes
 62
7
100
AcDbPolyline
 90
2
 70
0
 10
74.399635
 20
260.098281
 30
0.0
 10
70.687703
 20
260.098281
 30
0.0
  0
LWPOLYLINE
  5
16a
100
AcDbEntity
  8
panel_holes
 62
7
100
AcDbPolyline
 90
1
 70
1
 10
72.543678
 20
233.569206
 30
0.0
  0
LWPOLYLINE
  5
16b
100
AcDbEntity
  8
panel_holes
 62
7
100
AcDbPolyline
 90
2
 70
0
 10
72.543669
 20
232.469853
 30
0.0
 10
72.543669
 20
228.757921
 30
0.0
  0
SPLINE
  5
16c
100
AcDbEntity
  8
panel_holes
 62
7
100
AcDbSpline
 70
8
 71
3
 72
8
 73
4
 74
0
 40
0
 40
0
 40
0
 40
0
 40
1
 40
1
 40
1
 40
1
 10
10.450674
 20
246.635613
 30
0.0
 10
9.059409
 20
246.635613
 30
0.0
 10
7.805137
 20
245.797535
 30
0.0
 10
7.272724
 20
244.512174
 30
0.0
  0
SPLINE
  5
16d
100
AcDbEntity
  8
panel_holes
 62
7
100
AcDbSpline
 70
8
 71
3
 72
8
 73
4
 74
0
 40
0
 40
0
 40
0
 40
0
 40
1
 40
1
 40
1
 40
1
 10
7.272724
 20
244.512174
 30
0.0
 10
6.740310
 20
243.226813
 30
0.0
 10
7.034603
 20
241.747299
 30
0.0
 10
8.018376
 20
240.763526
 30
0.0
  0
SPLINE
  5
16e
100
AcDbEntity
  8
panel_holes
 62
7
100
AcDbSpline
 70
8
 71
3
 72
8
 73
4
 74
0
 40
0
 40
0
 40
0
 40
0
 40
1
 40
1
 40
1
 40
1
 10
8.018376
 20
240.763526
 30
0.0
 10
9.002149
 20
239.779753
 30
0.0
 10
10.481663
 20
239.485460
 30
0.0
 10
11.767024
 20
240.017874
 30
0.0
  0
SPLINE
  5
16f
100
AcDbEntity
  8
panel_holes
 62
7
100
AcDbSpline
 70
8
 71
3
 72
8
 73
4
 74
0
 40
0
 40
0
 40
0
 40
0
 40
1
 40
1
 40
1
 40
1
 10
11.767024
 20
240.017874
 30
0.0
 10
13.052385
 20
240.550287
 30
0.0
 10
13.890463
 20
241.804559
 30
0.0
 10
13.890463
 20
243.195824
 30
0.0
  0
SPLINE
  5
170
100
AcDbEntity
  8
panel_holes
 62
7
100
AcDbSpline
 70
8
 71
3
 72
8
 73
4
 74
0
 40
0
 40
0
 40
0
 40
0
 40
1
 40
1
 40
1
 40
1
 10
13.890463
 20
243.195824
 30
0.0
 10
13.890463
 20
244.108113
 30
0.0
 10
13.528058
 20
244.983036
 30
0.0
 10
12.882972
 20
245.628122
 30
0.0
  0
SPLINE
  5
171
100
AcDbEntity
  8
panel_holes
 62
7
100
AcDbSpline
 70
8
 71
3
 72
8
 73
4
 74
0
 40
0
 40
0
 40
0
 40
0
 40
1
 40
1
 40
1
 40
1
 10
12.882972
 20
245.628122
 30
0.0
 10
12.237886
 20
246.273208
 30
0.0
 10
11.362963
 20
246.635613
 30
0.0
 10
10.450674
 20
246.635613
 30
0.0
  0
LWPOLYLINE
  5
172
100
AcDbEntity
  8
panel_holes
 62
7
100
AcDbPolyline
 90
2
 70
0
 10
74.399635
 20
230.687181
 30
0.0
 10
70.687703
 20
230.687181
 30
0.0
  0
LWPOLYLINE
  5
173
100
AcDbEntity
  8
panel_holes
 62
7
100
AcDbPolyline
 90
1
 70
1
 10
10.450674
 20
246.635613
 30
0.0
  0
LWPOLYLINE
  5
174
100
AcDbEntity
  8
panel_holes
 62
7
100
AcDbPolyline
 90
2
 70
0
 10
10.450669
 20
245.051753
 30
0.0
 10
10.450669
 20
241.339821
 30
0.0
  0
SPLINE
  5
175
100
AcDbEntity
  8
panel_holes
 62
7
100
AcDbSpline
 70
8
 71
3
 72
8
 73
4
 74
0
 40
0
 40
0
 40
0
 40
0
 40
1
 40
1
 40
1
 40
1
 10
25.864604
 20
246.635613
 30
0.0
 10
24.473339
 20
246.635613
 30
0.0
 10
23.219067
 20
245.797535
 30
0.0
 10
22.686654
 20
244.512174
 30
0.0
  0
SPLINE
  5
176
100
AcDbEntity
  8
panel_holes
 62
7
100
AcDbSpline
 70
8
 71
3
 72
8
 73
4
 74
0
 40
0
 40
0
 40
0
 40
0
 40
1
 40
1
 40
1
 40
1
 10
22.686654
 20
244.512174
 30
0.0
 10
22.154240
 20
243.226813
 30
0.0
 10
22.448533
 20
241.747299
 30
0.0
 10
23.432306
 20
240.763526
 30
0.0
  0
SPLINE
  5
177
100
AcDbEntity
  8
panel_holes
 62
7
100
AcDbSpline
 70
8
 71
3
 72
8
 73
4
 74
0
 40
0
 40
0
 40
0
 40
0
 40
1
 40
1
 40
1
 40
1
 10
23.432306
 20
240.763526
 30
0.0
 10
24.416079
 20
239.779753
 30
0.0
 10
25.895593
 20
239.485460
 30
0.0
 10
27.180954
 20
240.017874
 30
0.0
  0
SPLINE
  5
178
100
AcDbEntity
  8
panel_holes
 62
7
100
AcDbSpline
 70
8
 71
3
 72
8
 73
4
 74
0
 40
0
 40
0
 40
0
 40
0
 40
1
 40
1
 40
1
 40
1
 10
27.180954
 20
240.017874
 30
0.0
 10
28.466315
 20
240.550287
 30
0.0
 10
29.304393
 20
241.804559
 30
0.0
 10
29.304393
 20
243.195824
 30
0.0
  0
SPLINE
  5
179
100
AcDbEntity
  8
panel_holes
 62
7
100
AcDbSpline
 70
8
 71
3
 72
8
 73
4
 74
0
 40
0
 40
0
 40
0
 40
0
 40
1
 40
1
 40
1
 40
1
 10
29.304393
 20
243.195824
 30
0.0
 10
29.304393
 20
244.108113
 30
0.0
 10
28.941988
 20
244.983036
 30
0.0
 10
28.296902
 20
245.628122
 30
0.0
  0
SPLINE
  5
17a
100
AcDbEntity
  8
panel_holes
 62
7
100
AcDbSpline
 70
8
 71
3
 72
8
 73
4
 74
0
 40
0
 40
0
 40
0
 40
0
 40
1
 40
1
 40
1
 40
1
 10
28.296902
 20
245.628122
 30
0.0
 10
27.651816
 20
246.273208
 30
0.0
 10
26.776893
 20
246.635613
 30
0.0
 10
25.864604
 20
246.635613
 30
0.0
  0
LWPOLYLINE
  5
17b
100
AcDbEntity
  8
panel_holes
 62
7
100
AcDbPolyline
 90
2
 70
0
 10
12.306635
 20
243.269081
 30
0.0
 10
8.594703
 20
243.269081
 30
0.0
  0
LWPOLYLINE
  5
17c
100
AcDbEntity
  8
panel_holes
 62
7
100
AcDbPolyline
 90
1
 70
1
 10
25.864604
 20
246.635613
 30
0.0
  0
LWPOLYLINE
  5
17d
100
AcDbEntity
  8
panel_holes
 62
7
100
AcDbPolyline
 90
2
 70
0
 10
25.864599
 20
245.051753
 30
0.0
 10
25.864599
 20
241.339821
 30
0.0
  0
SPLINE
  5
17e
100
AcDbEntity
  8
panel_holes
 62
7
100
AcDbSpline
 70
8
 71
3
 72
8
 73
4
 74
0
 40
0
 40
0
 40
0
 40
0
 40
1
 40
1
 40
1
 40
1
 10
56.692374
 20
246.635613
 30
0.0
 10
55.301109
 20
246.635613
 30
0.0
 10
54.046837
 20
245.797535
 30
0.0
 10
53.514424
 20
244.512174
 30
0.0
  0
SPLINE
  5
17f
100
AcDbEntity
  8
panel_holes
 62
7
100
AcDbSpline
 70
8
 71
3
 72
8
 73
4
 74
0
 40
0
 40
0
 40
0
 40
0
 40
1
 40
1
 40
1
 40
1
 10
53.514424
 20
244.512174
 30
0.0
 10
52.982010
 20
243.226813
 30
0.0
 10
53.276303
 20
241.747299
 30
0.0
 10
54.260076
 20
240.763526
 30
0.0
  0
SPLINE
  5
180
100
AcDbEntity
  8
panel_holes
 62
7
100
AcDbSpline
 70
8
 71
3
 72
8
 73
4
 74
0
 40
0
 40
0
 40
0
 40
0
 40
1
 40
1
 40
1
 40
1
 10
54.260076
 20
240.763526
 30
0.0
 10
55.243849
 20
239.779753
 30
0.0
 10
56.723363
 20
239.485460
 30
0.0
 10
58.008724
 20
240.017874
 30
0.0
  0
SPLINE
  5
181
100
AcDbEntity
  8
panel_holes
 62
7
100
AcDbSpline
 70
8
 71
3
 72
8
 73
4
 74
0
 40
0
 40
0
 40
0
 40
0
 40
1
 40
1
 40
1
 40
1
 10
58.008724
 20
240.017874
 30
0.0
 10
59.294085
 20
240.550287
 30
0.0
 10
60.132163
 20
241.804559
 30
0.0
 10
60.132163
 20
243.195824
 30
0.0
  0
SPLINE
  5
182
100
AcDbEntity
  8
panel_holes
 62
7
100
AcDbSpline
 70
8
 71
3
 72
8
 73
4
 74
0
 40
0
 40
0
 40
0
 40
0
 40
1
 40
1
 40
1
 40
1
 10
60.132163
 20
243.195824
 30
0.0
 10
60.132163
 20
244.108113
 30
0.0
 10
59.769758
 20
244.983036
 30
0.0
 10
59.124672
 20
245.628122
 30
0.0
  0
SPLINE
  5
183
100
AcDbEntity
  8
panel_holes
 62
7
100
AcDbSpline
 70
8
 71
3
 72
8
 73
4
 74
0
 40
0
 40
0
 40
0
 40
0
 40
1
 40
1
 40
1
 40
1
 10
59.124672
 20
245.628122
 30
0.0
 10
58.479586
 20
246.273208
 30
0.0
 10
57.604663
 20
246.635613
 30
0.0
 10
56.692374
 20
246.635613
 30
0.0
  0
LWPOLYLINE
  5
184
100
AcDbEntity
  8
panel_holes
 62
7
100
AcDbPolyline
 90
2
 70
0
 10
27.720565
 20
243.269081
 30
0.0
 10
24.008633
 20
243.269081
 30
0.0
  0
LWPOLYLINE
  5
185
100
AcDbEntity
  8
panel_holes
 62
7
100
AcDbPolyline
 90
1
 70
1
 10
56.692374
 20
246.635613
 30
0.0
  0
LWPOLYLINE
  5
186
100
AcDbEntity
  8
panel_holes
 62
7
100
AcDbPolyline
 90
2
 70
0
 10
56.692369
 20
245.051753
 30
0.0
 10
56.692369
 20
241.339821
 30
0.0
  0
SPLINE
  5
187
100
AcDbEntity
  8
panel_holes
 62
7
100
AcDbSpline
 70
8
 71
3
 72
8
 73
4
 74
0
 40
0
 40
0
 40
0
 40
0
 40
1
 40
1
 40
1
 40
1
 10
41.278474
 20
246.635613
 30
0.0
 10
39.887209
 20
246.635613
 30
0.0
 10
38.632937
 20
245.797535
 30
0.0
 10
38.100524
 20
244.512174
 30
0.0
  0
SPLINE
  5
188
100
AcDbEntity
  8
panel_holes
 62
7
100
AcDbSpline
 70
8
 71
3
 72
8
 73
4
 74
0
 40
0
 40
0
 40
0
 40
0
 40
1
 40
1
 40
1
 40
1
 10
38.100524
 20
244.512174
 30
0.0
 10
37.568110
 20
243.226813
 30
0.0
 10
37.862403
 20
241.747299
 30
0.0
 10
38.846176
 20
240.763526
 30
0.0
  0
SPLINE
  5
189
100
AcDbEntity
  8
panel_holes
 62
7
100
AcDbSpline
 70
8
 71
3
 72
8
 73
4
 74
0
 40
0
 40
0
 40
0
 40
0
 40
1
 40
1
 40
1
 40
1
 10
38.846176
 20
240.763526
 30
0.0
 10
39.829949
 20
239.779753
 30
0.0
 10
41.309463
 20
239.485460
 30
0.0
 10
42.594824
 20
240.017874
 30
0.0
  0
SPLINE
  5
18a
100
AcDbEntity
  8
panel_holes
 62
7
100
AcDbSpline
 70
8
 71
3
 72
8
 73
4
 74
0
 40
0
 40
0
 40
0
 40
0
 40
1
 40
1
 40
1
 40
1
 10
42.594824
 20
240.017874
 30
0.0
 10
43.880185
 20
240.550287
 30
0.0
 10
44.718263
 20
241.804559
 30
0.0
 10
44.718263
 20
243.195824
 30
0.0
  0
SPLINE
  5
18b
100
AcDbEntity
  8
panel_holes
 62
7
100
AcDbSpline
 70
8
 71
3
 72
8
 73
4
 74
0
 40
0
 40
0
 40
0
 40
0
 40
1
 40
1
 40
1
 40
1
 10
44.718263
 20
243.195824
 30
0.0
 10
44.718263
 20
244.108113
 30
0.0
 10
44.355858
 20
244.983036
 30
0.0
 10
43.710772
 20
245.628122
 30
0.0
  0
SPLINE
  5
18c
100
AcDbEntity
  8
panel_holes
 62
7
100
AcDbSpline
 70
8
 71
3
 72
8
 73
4
 74
0
 40
0
 40
0
 40
0
 40
0
 40
1
 40
1
 40
1
 40
1
 10
43.710772
 20
245.628122
 30
0.0
 10
43.065686
 20
246.273208
 30
0.0
 10
42.190763
 20
246.635613
 30
0.0
 10
41.278474
 20
246.635613
 30
0.0
  0
LWPOLYLINE
  5
18d
100
AcDbEntity
  8
panel_holes
 62
7
100
AcDbPolyline
 90
2
 70
0
 10
58.548335
 20
243.269081
 30
0.0
 10
54.836403
 20
243.269081
 30
0.0
  0
LWPOLYLINE
  5
18e
100
AcDbEntity
  8
panel_holes
 62
7
100
AcDbPolyline
 90
1
 70
1
 10
41.278474
 20
246.635613
 30
0.0
  0
LWPOLYLINE
  5
18f
100
AcDbEntity
  8
panel_holes
 62
7
100
AcDbPolyline
 90
2
 70
0
 10
41.278469
 20
245.051753
 30
0.0
 10
41.278469
 20
241.339821
 30
0.0
  0
SPLINE
  5
190
100
AcDbEntity
  8
panel_holes
 62
7
100
AcDbSpline
 70
8
 71
3
 72
8
 73
4
 74
0
 40
0
 40
0
 40
0
 40
0
 40
1
 40
1
 40
1
 40
1
 10
15.202837
 20
279.932477
 30
0.0
 10
14.714804
 20
279.932477
 30
0.0
 10
14.274826
 20
279.641332
 30
0.0
 10
14.088064
 20
279.194802
 30
0.0
  0
SPLINE
  5
191
100
AcDbEntity
  8
panel_holes
 62
7
100
AcDbSpline
 70
8
 71
3
 72
8
 73
4
 74
0
 40
0
 40
0
 40
0
 40
0
 40
1
 40
1
 40
1
 40
1
 10
14.088064
 20
279.194802
 30
0.0
 10
13.901301
 20
278.748272
 30
0.0
 10
14.004535
 20
278.234294
 30
0.0
 10
14.349626
 20
277.892535
 30
0.0
  0
SPLINE
  5
192
100
AcDbEntity
  8
panel_holes
 62
7
100
AcDbSpline
 70
8
 71
3
 72
8
 73
4
 74
0
 40
0
 40
0
 40
0
 40
0
 40
1
 40
1
 40
1
 40
1
 10
14.349626
 20
277.892535
 30
0.0
 10
14.694718
 20
277.550776
 30
0.0
 10
15.213708
 20
277.448539
 30
0.0
 10
15.664592
 20
277.633498
 30
0.0
  0
SPLINE
  5
193
100
AcDbEntity
  8
panel_holes
 62
7
100
AcDbSpline
 70
8
 71
3
 72
8
 73
4
 74
0
 40
0
 40
0
 40
0
 40
0
 40
1
 40
1
 40
1
 40
1
 10
15.664592
 20
277.633498
 30
0.0
 10
16.115475
 20
277.818457
 30
0.0
 10
16.409459
 20
278.254186
 30
0.0
 10
16.409459
 20
278.737507
 30
0.0
  0
SPLINE
  5
194
100
AcDbEntity
  8
panel_holes
 62
7
100
AcDbSpline
 70
8
 71
3
 72
8
 73
4
 74
0
 40
0
 40
0
 40
0
 40
0
 40
1
 40
1
 40
1
 40
1
 10
16.409459
 20
278.737507
 30
0.0
 10
16.409459
 20
279.054433
 30
0.0
 10
16.282333
 20
279.358378
 30
0.0
 10
16.056048
 20
279.582479
 30
0.0
  0
SPLINE
  5
195
100
AcDbEntity
  8
panel_holes
 62
7
100
AcDbSpline
 70
8
 71
3
 72
8
 73
4
 74
0
 40
0
 40
0
 40
0
 40
0
 40
1
 40
1
 40
1
 40
1
 10
16.056048
 20
279.582479
 30
0.0
 10
15.829762
 20
279.806579
 30
0.0
 10
15.522853
 20
279.932477
 30
0.0
 10
15.202837
 20
279.932477
 30
0.0
  0
LWPOLYLINE
  5
196
100
AcDbEntity
  8
panel_holes
 62
7
100
AcDbPolyline
 90
2
 70
0
 10
43.134435
 20
243.269081
 30
0.0
 10
39.422503
 20
243.269081
 30
0.0
  0
LWPOLYLINE
  5
197
100
AcDbEntity
  8
panel_holes
 62
7
100
AcDbPolyline
 90
1
 70
1
 10
15.202837
 20
279.932477
 30
0.0
  0
LWPOLYLINE
  5
198
100
AcDbEntity
  8
panel_holes
 62
7
100
AcDbPolyline
 90
2
 70
0
 10
15.202837
 20
279.616904
 30
0.0
 10
15.202837
 20
277.785797
 30
0.0
  0
SPLINE
  5
199
100
AcDbEntity
  8
panel_holes
 62
7
100
AcDbSpline
 70
8
 71
3
 72
8
 73
4
 74
0
 40
0
 40
0
 40
0
 40
0
 40
1
 40
1
 40
1
 40
1
 10
30.616737
 20
279.932477
 30
0.0
 10
30.128704
 20
279.932477
 30
0.0
 10
29.688726
 20
279.641332
 30
0.0
 10
29.501964
 20
279.194802
 30
0.0
  0
SPLINE
  5
19a
100
AcDbEntity
  8
panel_holes
 62
7
100
AcDbSpline
 70
8
 71
3
 72
8
 73
4
 74
0
 40
0
 40
0
 40
0
 40
0
 40
1
 40
1
 40
1
 40
1
 10
29.501964
 20
279.194802
 30
0.0
 10
29.315201
 20
278.748272
 30
0.0
 10
29.418435
 20
278.234294
 30
0.0
 10
29.763526
 20
277.892535
 30
0.0
  0
SPLINE
  5
19b
100
AcDbEntity
  8
panel_holes
 62
7
100
AcDbSpline
 70
8
 71
3
 72
8
 73
4
 74
0
 40
0
 40
0
 40
0
 40
0
 40
1
 40
1
 40
1
 40
1
 10
29.763526
 20
277.892535
 30
0.0
 10
30.108618
 20
277.550776
 30
0.0
 10
30.627608
 20
277.448539
 30
0.0
 10
31.078492
 20
277.633498
 30
0.0
  0
SPLINE
  5
19c
100
AcDbEntity
  8
panel_holes
 62
7
100
AcDbSpline
 70
8
 71
3
 72
8
 73
4
 74
0
 40
0
 40
0
 40
0
 40
0
 40
1
 40
1
 40
1
 40
1
 10
31.078492
 20
277.633498
 30
0.0
 10
31.529375
 20
277.818457
 30
0.0
 10
31.823359
 20
278.254186
 30
0.0
 10
31.823359
 20
278.737507
 30
0.0
  0
SPLINE
  5
19d
100
AcDbEntity
  8
panel_holes
 62
7
100
AcDbSpline
 70
8
 71
3
 72
8
 73
4
 74
0
 40
0
 40
0
 40
0
 40
0
 40
1
 40
1
 40
1
 40
1
 10
31.823359
 20
278.737507
 30
0.0
 10
31.823359
 20
279.054433
 30
0.0
 10
31.696233
 20
279.358378
 30
0.0
 10
31.469948
 20
279.582479
 30
0.0
  0
SPLINE
  5
19e
100
AcDbEntity
  8
panel_holes
 62
7
100
AcDbSpline
 70
8
 71
3
 72
8
 73
4
 74
0
 40
0
 40
0
 40
0
 40
0
 40
1
 40
1
 40
1
 40
1
 10
31.469948
 20
279.582479
 30
0.0
 10
31.243662
 20
279.806579
 30
0.0
 10
30.936753
 20
279.932477
 30
0.0
 10
30.616737
 20
279.932477
 30
0.0
  0
LWPOLYLINE
  5
19f
100
AcDbEntity
  8
panel_holes
 62
7
100
AcDbPolyline
 90
2
 70
0
 10
16.127318
 20
278.737507
 30
0.0
 10
14.278357
 20
278.737507
 30
0.0
  0
LWPOLYLINE
  5
1a0
100
AcDbEntity
  8
panel_holes
 62
7
100
AcDbPolyline
 90
1
 70
1
 10
30.616737
 20
279.932477
 30
0.0
  0
LWPOLYLINE
  5
1a1
100
AcDbEntity
  8
panel_holes
 62
7
100
AcDbPolyline
 90
2
 70
0
 10
30.616737
 20
279.616904
 30
0.0
 10
30.616737
 20
277.785797
 30
0.0
  0
SPLINE
  5
1a2
100
AcDbEntity
  8
panel_holes
 62
7
100
AcDbSpline
 70
8
 71
3
 72
8
 73
4
 74
0
 40
0
 40
0
 40
0
 40
0
 40
1
 40
1
 40
1
 40
1
 10
46.030637
 20
279.932477
 30
0.0
 10
45.542604
 20
279.932477
 30
0.0
 10
45.102626
 20
279.641332
 30
0.0
 10
44.915864
 20
279.194802
 30
0.0
  0
SPLINE
  5
1a3
100
AcDbEntity
  8
panel_holes
 62
7
100
AcDbSpline
 70
8
 71
3
 72
8
 73
4
 74
0
 40
0
 40
0
 40
0
 40
0
 40
1
 40
1
 40
1
 40
1
 10
44.915864
 20
279.194802
 30
0.0
 10
44.729101
 20
278.748272
 30
0.0
 10
44.832335
 20
278.234294
 30
0.0
 10
45.177426
 20
277.892535
 30
0.0
  0
SPLINE
  5
1a4
100
AcDbEntity
  8
panel_holes
 62
7
100
AcDbSpline
 70
8
 71
3
 72
8
 73
4
 74
0
 40
0
 40
0
 40
0
 40
0
 40
1
 40
1
 40
1
 40
1
 10
45.177426
 20
277.892535
 30
0.0
 10
45.522518
 20
277.550776
 30
0.0
 10
46.041508
 20
277.448539
 30
0.0
 10
46.492392
 20
277.633498
 30
0.0
  0
SPLINE
  5
1a5
100
AcDbEntity
  8
panel_holes
 62
7
100
AcDbSpline
 70
8
 71
3
 72
8
 73
4
 74
0
 40
0
 40
0
 40
0
 40
0
 40
1
 40
1
 40
1
 40
1
 10
46.492392
 20
277.633498
 30
0.0
 10
46.943275
 20
277.818457
 30
0.0
 10
47.237259
 20
278.254186
 30
0.0
 10
47.237259
 20
278.737507
 30
0.0
  0
SPLINE
  5
1a6
100
AcDbEntity
  8
panel_holes
 62
7
100
AcDbSpline
 70
8
 71
3
 72
8
 73
4
 74
0
 40
0
 40
0
 40
0
 40
0
 40
1
 40
1
 40
1
 40
1
 10
47.237259
 20
278.737507
 30
0.0
 10
47.237259
 20
279.054433
 30
0.0
 10
47.110133
 20
279.358378
 30
0.0
 10
46.883848
 20
279.582479
 30
0.0
  0
SPLINE
  5
1a7
100
AcDbEntity
  8
panel_holes
 62
7
100
AcDbSpline
 70
8
 71
3
 72
8
 73
4
 74
0
 40
0
 40
0
 40
0
 40
0
 40
1
 40
1
 40
1
 40
1
 10
46.883848
 20
279.582479
 30
0.0
 10
46.657562
 20
279.806579
 30
0.0
 10
46.350653
 20
279.932477
 30
0.0
 10
46.030637
 20
279.932477
 30
0.0
  0
LWPOLYLINE
  5
1a8
100
AcDbEntity
  8
panel_holes
 62
7
100
AcDbPolyline
 90
2
 70
0
 10
31.541218
 20
278.737507
 30
0.0
 10
29.692257
 20
278.737507
 30
0.0
  0
LWPOLYLINE
  5
1a9
100
AcDbEntity
  8
panel_holes
 62
7
100
AcDbPolyline
 90
1
 70
1
 10
46.030637
 20
279.932477
 30
0.0
  0
LWPOLYLINE
  5
1aa
100
AcDbEntity
  8
panel_holes
 62
7
100
AcDbPolyline
 90
2
 70
0
 10
46.030637
 20
279.616904
 30
0.0
 10
46.030637
 20
277.785797
 30
0.0
  0
SPLINE
  5
1ab
100
AcDbEntity
  8
panel_holes
 62
7
100
AcDbSpline
 70
8
 71
3
 72
8
 73
4
 74
0
 40
0
 40
0
 40
0
 40
0
 40
1
 40
1
 40
1
 40
1
 10
61.444537
 20
279.932477
 30
0.0
 10
60.956504
 20
279.932477
 30
0.0
 10
60.516526
 20
279.641332
 30
0.0
 10
60.329764
 20
279.194802
 30
0.0
  0
SPLINE
  5
1ac
100
AcDbEntity
  8
panel_holes
 62
7
100
AcDbSpline
 70
8
 71
3
 72
8
 73
4
 74
0
 40
0
 40
0
 40
0
 40
0
 40
1
 40
1
 40
1
 40
1
 10
60.329764
 20
279.194802
 30
0.0
 10
60.143001
 20
278.748272
 30
0.0
 10
60.246235
 20
278.234294
 30
0.0
 10
60.591326
 20
277.892535
 30
0.0
  0
SPLINE
  5
1ad
100
AcDbEntity
  8
panel_holes
 62
7
100
AcDbSpline
 70
8
 71
3
 72
8
 73
4
 74
0
 40
0
 40
0
 40
0
 40
0
 40
1
 40
1
 40
1
 40
1
 10
60.591326
 20
277.892535
 30
0.0
 10
60.936418
 20
277.550776
 30
0.0
 10
61.455408
 20
277.448539
 30
0.0
 10
61.906292
 20
277.633498
 30
0.0
  0
SPLINE
  5
1ae
100
AcDbEntity
  8
panel_holes
 62
7
100
AcDbSpline
 70
8
 71
3
 72
8
 73
4
 74
0
 40
0
 40
0
 40
0
 40
0
 40
1
 40
1
 40
1
 40
1
 10
61.906292
 20
277.633498
 30
0.0
 10
62.357175
 20
277.818457
 30
0.0
 10
62.651159
 20
278.254186
 30
0.0
 10
62.651159
 20
278.737507
 30
0.0
  0
SPLINE
  5
1af
100
AcDbEntity
  8
panel_holes
 62
7
100
AcDbSpline
 70
8
 71
3
 72
8
 73
4
 74
0
 40
0
 40
0
 40
0
 40
0
 40
1
 40
1
 40
1
 40
1
 10
62.651159
 20
278.737507
 30
0.0
 10
62.651159
 20
279.054433
 30
0.0
 10
62.524033
 20
279.358378
 30
0.0
 10
62.297748
 20
279.582479
 30
0.0
  0
SPLINE
  5
1b0
100
AcDbEntity
  8
panel_holes
 62
7
100
AcDbSpline
 70
8
 71
3
 72
8
 73
4
 74
0
 40
0
 40
0
 40
0
 40
0
 40
1
 40
1
 40
1
 40
1
 10
62.297748
 20
279.582479
 30
0.0
 10
62.071462
 20
279.806579
 30
0.0
 10
61.764553
 20
279.932477
 30
0.0
 10
61.444537
 20
279.932477
 30
0.0
  0
LWPOLYLINE
  5
1b1
100
AcDbEntity
  8
panel_holes
 62
7
100
AcDbPolyline
 90
2
 70
0
 10
46.955118
 20
278.737507
 30
0.0
 10
45.106157
 20
278.737507
 30
0.0
  0
LWPOLYLINE
  5
1b2
100
AcDbEntity
  8
panel_holes
 62
7
100
AcDbPolyline
 90
1
 70
1
 10
61.444537
 20
279.932477
 30
0.0
  0
LWPOLYLINE
  5
1b3
100
AcDbEntity
  8
panel_holes
 62
7
100
AcDbPolyline
 90
2
 70
0
 10
61.444537
 20
279.616904
 30
0.0
 10
61.444537
 20
277.785797
 30
0.0
  0
SPLINE
  5
1b4
100
AcDbEntity
  8
panel_holes
 62
7
100
AcDbSpline
 70
8
 71
3
 72
8
 73
4
 74
0
 40
0
 40
0
 40
0
 40
0
 40
1
 40
1
 40
1
 40
1
 10
15.213237
 20
255.694987
 30
0.0
 10
14.725204
 20
255.694987
 30
0.0
 10
14.285226
 20
255.403842
 30
0.0
 10
14.098464
 20
254.957312
 30
0.0
  0
SPLINE
  5
1b5
100
AcDbEntity
  8
panel_holes
 62
7
100
AcDbSpline
 70
8
 71
3
 72
8
 73
4
 74
0
 40
0
 40
0
 40
0
 40
0
 40
1
 40
1
 40
1
 40
1
 10
14.098464
 20
254.957312
 30
0.0
 10
13.911701
 20
254.510782
 30
0.0
 10
14.014935
 20
253.996804
 30
0.0
 10
14.360026
 20
253.655045
 30
0.0
  0
SPLINE
  5
1b6
100
AcDbEntity
  8
panel_holes
 62
7
100
AcDbSpline
 70
8
 71
3
 72
8
 73
4
 74
0
 40
0
 40
0
 40
0
 40
0
 40
1
 40
1
 40
1
 40
1
 10
14.360026
 20
253.655045
 30
0.0
 10
14.705118
 20
253.313286
 30
0.0
 10
15.224108
 20
253.211049
 30
0.0
 10
15.674992
 20
253.396008
 30
0.0
  0
SPLINE
  5
1b7
100
AcDbEntity
  8
panel_holes
 62
7
100
AcDbSpline
 70
8
 71
3
 72
8
 73
4
 74
0
 40
0
 40
0
 40
0
 40
0
 40
1
 40
1
 40
1
 40
1
 10
15.674992
 20
253.396008
 30
0.0
 10
16.125875
 20
253.580967
 30
0.0
 10
16.419859
 20
254.016696
 30
0.0
 10
16.419859
 20
254.500017
 30
0.0
  0
SPLINE
  5
1b8
100
AcDbEntity
  8
panel_holes
 62
7
100
AcDbSpline
 70
8
 71
3
 72
8
 73
4
 74
0
 40
0
 40
0
 40
0
 40
0
 40
1
 40
1
 40
1
 40
1
 10
16.419859
 20
254.500017
 30
0.0
 10
16.419859
 20
254.816943
 30
0.0
 10
16.292733
 20
255.120888
 30
0.0
 10
16.066448
 20
255.344989
 30
0.0
  0
SPLINE
  5
1b9
100
AcDbEntity
  8
panel_holes
 62
7
100
AcDbSpline
 70
8
 71
3
 72
8
 73
4
 74
0
 40
0
 40
0
 40
0
 40
0
 40
1
 40
1
 40
1
 40
1
 10
16.066448
 20
255.344989
 30
0.0
 10
15.840162
 20
255.569089
 30
0.0
 10
15.533253
 20
255.694987
 30
0.0
 10
15.213237
 20
255.694987
 30
0.0
  0
LWPOLYLINE
  5
1ba
100
AcDbEntity
  8
panel_holes
 62
7
100
AcDbPolyline
 90
2
 70
0
 10
62.369018
 20
278.737507
 30
0.0
 10
60.520057
 20
278.737507
 30
0.0
  0
LWPOLYLINE
  5
1bb
100
AcDbEntity
  8
panel_holes
 62
7
100
AcDbPolyline
 90
1
 70
1
 10
15.213237
 20
255.694987
 30
0.0
  0
LWPOLYLINE
  5
1bc
100
AcDbEntity
  8
panel_holes
 62
7
100
AcDbPolyline
 90
2
 70
0
 10
15.213237
 20
255.379414
 30
0.0
 10
15.213237
 20
253.548307
 30
0.0
  0
SPLINE
  5
1bd
100
AcDbEntity
  8
panel_holes
 62
7
100
AcDbSpline
 70
8
 71
3
 72
8
 73
4
 74
0
 40
0
 40
0
 40
0
 40
0
 40
1
 40
1
 40
1
 40
1
 10
30.627137
 20
255.694987
 30
0.0
 10
30.139104
 20
255.694987
 30
0.0
 10
29.699126
 20
255.403842
 30
0.0
 10
29.512364
 20
254.957312
 30
0.0
  0
SPLINE
  5
1be
100
AcDbEntity
  8
panel_holes
 62
7
100
AcDbSpline
 70
8
 71
3
 72
8
 73
4
 74
0
 40
0
 40
0
 40
0
 40
0
 40
1
 40
1
 40
1
 40
1
 10
29.512364
 20
254.957312
 30
0.0
 10
29.325601
 20
254.510782
 30
0.0
 10
29.428835
 20
253.996804
 30
0.0
 10
29.773926
 20
253.655045
 30
0.0
  0
SPLINE
  5
1bf
100
AcDbEntity
  8
panel_holes
 62
7
100
AcDbSpline
 70
8
 71
3
 72
8
 73
4
 74
0
 40
0
 40
0
 40
0
 40
0
 40
1
 40
1
 40
1
 40
1
 10
29.773926
 20
253.655045
 30
0.0
 10
30.119018
 20
253.313286
 30
0.0
 10
30.638008
 20
253.211049
 30
0.0
 10
31.088892
 20
253.396008
 30
0.0
  0
SPLINE
  5
1c0
100
AcDbEntity
  8
panel_holes
 62
7
100
AcDbSpline
 70
8
 71
3
 72
8
 73
4
 74
0
 40
0
 40
0
 40
0
 40
0
 40
1
 40
1
 40
1
 40
1
 10
31.088892
 20
253.396008
 30
0.0
 10
31.539775
 20
253.580967
 30
0.0
 10
31.833759
 20
254.016696
 30
0.0
 10
31.833759
 20
254.500017
 30
0.0
  0
SPLINE
  5
1c1
100
AcDbEntity
  8
panel_holes
 62
7
100
AcDbSpline
 70
8
 71
3
 72
8
 73
4
 74
0
 40
0
 40
0
 40
0
 40
0
 40
1
 40
1
 40
1
 40
1
 10
31.833759
 20
254.500017
 30
0.0
 10
31.833759
 20
254.816943
 30
0.0
 10
31.706633
 20
255.120888
 30
0.0
 10
31.480348
 20
255.344989
 30
0.0
  0
SPLINE
  5
1c2
100
AcDbEntity
  8
panel_holes
 62
7
100
AcDbSpline
 70
8
 71
3
 72
8
 73
4
 74
0
 40
0
 40
0
 40
0
 40
0
 40
1
 40
1
 40
1
 40
1
 10
31.480348
 20
255.344989
 30
0.0
 10
31.254062
 20
255.569089
 30
0.0
 10
30.947153
 20
255.694987
 30
0.0
 10
30.627137
 20
255.694987
 30
0.0
  0
LWPOLYLINE
  5
1c3
100
AcDbEntity
  8
panel_holes
 62
7
100
AcDbPolyline
 90
2
 70
0
 10
16.137718
 20
254.500017
 30
0.0
 10
14.288757
 20
254.500017
 30
0.0
  0
LWPOLYLINE
  5
1c4
100
AcDbEntity
  8
panel_holes
 62
7
100
AcDbPolyline
 90
1
 70
1
 10
30.627137
 20
255.694987
 30
0.0
  0
LWPOLYLINE
  5
1c5
100
AcDbEntity
  8
panel_holes
 62
7
100
AcDbPolyline
 90
2
 70
0
 10
30.627137
 20
255.379414
 30
0.0
 10
30.627137
 20
253.548307
 30
0.0
  0
SPLINE
  5
1c6
100
AcDbEntity
  8
panel_holes
 62
7
100
AcDbSpline
 70
8
 71
3
 72
8
 73
4
 74
0
 40
0
 40
0
 40
0
 40
0
 40
1
 40
1
 40
1
 40
1
 10
46.041037
 20
255.694987
 30
0.0
 10
45.553004
 20
255.694987
 30
0.0
 10
45.113026
 20
255.403842
 30
0.0
 10
44.926264
 20
254.957312
 30
0.0
  0
SPLINE
  5
1c7
100
AcDbEntity
  8
panel_holes
 62
7
100
AcDbSpline
 70
8
 71
3
 72
8
 73
4
 74
0
 40
0
 40
0
 40
0
 40
0
 40
1
 40
1
 40
1
 40
1
 10
44.926264
 20
254.957312
 30
0.0
 10
44.739501
 20
254.510782
 30
0.0
 10
44.842735
 20
253.996804
 30
0.0
 10
45.187826
 20
253.655045
 30
0.0
  0
SPLINE
  5
1c8
100
AcDbEntity
  8
panel_holes
 62
7
100
AcDbSpline
 70
8
 71
3
 72
8
 73
4
 74
0
 40
0
 40
0
 40
0
 40
0
 40
1
 40
1
 40
1
 40
1
 10
45.187826
 20
253.655045
 30
0.0
 10
45.532918
 20
253.313286
 30
0.0
 10
46.051908
 20
253.211049
 30
0.0
 10
46.502792
 20
253.396008
 30
0.0
  0
SPLINE
  5
1c9
100
AcDbEntity
  8
panel_holes
 62
7
100
AcDbSpline
 70
8
 71
3
 72
8
 73
4
 74
0
 40
0
 40
0
 40
0
 40
0
 40
1
 40
1
 40
1
 40
1
 10
46.502792
 20
253.396008
 30
0.0
 10
46.953675
 20
253.580967
 30
0.0
 10
47.247659
 20
254.016696
 30
0.0
 10
47.247659
 20
254.500017
 30
0.0
  0
SPLINE
  5
1ca
100
AcDbEntity
  8
panel_holes
 62
7
100
AcDbSpline
 70
8
 71
3
 72
8
 73
4
 74
0
 40
0
 40
0
 40
0
 40
0
 40
1
 40
1
 40
1
 40
1
 10
47.247659
 20
254.500017
 30
0.0
 10
47.247659
 20
254.816943
 30
0.0
 10
47.120533
 20
255.120888
 30
0.0
 10
46.894248
 20
255.344989
 30
0.0
  0
SPLINE
  5
1cb
100
AcDbEntity
  8
panel_holes
 62
7
100
AcDbSpline
 70
8
 71
3
 72
8
 73
4
 74
0
 40
0
 40
0
 40
0
 40
0
 40
1
 40
1
 40
1
 40
1
 10
46.894248
 20
255.344989
 30
0.0
 10
46.667962
 20
255.569089
 30
0.0
 10
46.361053
 20
255.694987
 30
0.0
 10
46.041037
 20
255.694987
 30
0.0
  0
LWPOLYLINE
  5
1cc
100
AcDbEntity
  8
panel_holes
 62
7
100
AcDbPolyline
 90
2
 70
0
 10
31.551618
 20
254.500017
 30
0.0
 10
29.702657
 20
254.500017
 30
0.0
  0
LWPOLYLINE
  5
1cd
100
AcDbEntity
  8
panel_holes
 62
7
100
AcDbPolyline
 90
1
 70
1
 10
46.041037
 20
255.694987
 30
0.0
  0
LWPOLYLINE
  5
1ce
100
AcDbEntity
  8
panel_holes
 62
7
100
AcDbPolyline
 90
2
 70
0
 10
46.041037
 20
255.379414
 30
0.0
 10
46.041037
 20
253.548307
 30
0.0
  0
SPLINE
  5
1cf
100
AcDbEntity
  8
panel_holes
 62
7
100
AcDbSpline
 70
8
 71
3
 72
8
 73
4
 74
0
 40
0
 40
0
 40
0
 40
0
 40
1
 40
1
 40
1
 40
1
 10
61.454837
 20
255.694987
 30
0.0
 10
60.966804
 20
255.694987
 30
0.0
 10
60.526826
 20
255.403842
 30
0.0
 10
60.340064
 20
254.957312
 30
0.0
  0
SPLINE
  5
1d0
100
AcDbEntity
  8
panel_holes
 62
7
100
AcDbSpline
 70
8
 71
3
 72
8
 73
4
 74
0
 40
0
 40
0
 40
0
 40
0
 40
1
 40
1
 40
1
 40
1
 10
60.340064
 20
254.957312
 30
0.0
 10
60.153301
 20
254.510782
 30
0.0
 10
60.256535
 20
253.996804
 30
0.0
 10
60.601626
 20
253.655045
 30
0.0
  0
SPLINE
  5
1d1
100
AcDbEntity
  8
panel_holes
 62
7
100
AcDbSpline
 70
8
 71
3
 72
8
 73
4
 74
0
 40
0
 40
0
 40
0
 40
0
 40
1
 40
1
 40
1
 40
1
 10
60.601626
 20
253.655045
 30
0.0
 10
60.946718
 20
253.313286
 30
0.0
 10
61.465708
 20
253.211049
 30
0.0
 10
61.916592
 20
253.396008
 30
0.0
  0
SPLINE
  5
1d2
100
AcDbEntity
  8
panel_holes
 62
7
100
AcDbSpline
 70
8
 71
3
 72
8
 73
4
 74
0
 40
0
 40
0
 40
0
 40
0
 40
1
 40
1
 40
1
 40
1
 10
61.916592
 20
253.396008
 30
0.0
 10
62.367475
 20
253.580967
 30
0.0
 10
62.661459
 20
254.016696
 30
0.0
 10
62.661459
 20
254.500017
 30
0.0
  0
SPLINE
  5
1d3
100
AcDbEntity
  8
panel_holes
 62
7
100
AcDbSpline
 70
8
 71
3
 72
8
 73
4
 74
0
 40
0
 40
0
 40
0
 40
0
 40
1
 40
1
 40
1
 40
1
 10
62.661459
 20
254.500017
 30
0.0
 10
62.661459
 20
254.816943
 30
0.0
 10
62.534333
 20
255.120888
 30
0.0
 10
62.308048
 20
255.344989
 30
0.0
  0
SPLINE
  5
1d4
100
AcDbEntity
  8
panel_holes
 62
7
100
AcDbSpline
 70
8
 71
3
 72
8
 73
4
 74
0
 40
0
 40
0
 40
0
 40
0
 40
1
 40
1
 40
1
 40
1
 10
62.308048
 20
255.344989
 30
0.0
 10
62.081762
 20
255.569089
 30
0.0
 10
61.774853
 20
255.694987
 30
0.0
 10
61.454837
 20
255.694987
 30
0.0
  0
LWPOLYLINE
  5
1d5
100
AcDbEntity
  8
panel_holes
 62
7
100
AcDbPolyline
 90
2
 70
0
 10
46.965518
 20
254.500017
 30
0.0
 10
45.116557
 20
254.500017
 30
0.0
  0
LWPOLYLINE
  5
1d6
100
AcDbEntity
  8
panel_holes
 62
7
100
AcDbPolyline
 90
1
 70
1
 10
61.454837
 20
255.694987
 30
0.0
  0
LWPOLYLINE
  5
1d7
100
AcDbEntity
  8
panel_holes
 62
7
100
AcDbPolyline
 90
2
 70
0
 10
61.454837
 20
255.379414
 30
0.0
 10
61.454837
 20
253.548307
 30
0.0
  0
SPLINE
  5
1d8
100
AcDbEntity
  8
panel_holes
 62
7
100
AcDbSpline
 70
8
 71
3
 72
8
 73
4
 74
0
 40
0
 40
0
 40
0
 40
0
 40
1
 40
1
 40
1
 40
1
 10
72.543714
 20
276.117550
 30
0.0
 10
71.563930
 20
276.117550
 30
0.0
 10
70.680622
 20
275.524137
 30
0.0
 10
70.305675
 20
274.614019
 30
0.0
  0
SPLINE
  5
1d9
100
AcDbEntity
  8
panel_holes
 62
7
100
AcDbSpline
 70
8
 71
3
 72
8
 73
4
 74
0
 40
0
 40
0
 40
0
 40
0
 40
1
 40
1
 40
1
 40
1
 10
70.305675
 20
274.614019
 30
0.0
 10
69.930727
 20
273.703902
 30
0.0
 10
70.137981
 20
272.656311
 30
0.0
 10
70.830793
 20
271.959737
 30
0.0
  0
SPLINE
  5
1da
100
AcDbEntity
  8
panel_holes
 62
7
100
AcDbSpline
 70
8
 71
3
 72
8
 73
4
 74
0
 40
0
 40
0
 40
0
 40
0
 40
1
 40
1
 40
1
 40
1
 10
70.830793
 20
271.959737
 30
0.0
 10
71.523605
 20
271.263163
 30
0.0
 10
72.565538
 20
271.054784
 30
0.0
 10
73.470741
 20
271.431767
 30
0.0
  0
SPLINE
  5
1db
100
AcDbEntity
  8
panel_holes
 62
7
100
AcDbSpline
 70
8
 71
3
 72
8
 73
4
 74
0
 40
0
 40
0
 40
0
 40
0
 40
1
 40
1
 40
1
 40
1
 10
73.470741
 20
271.431767
 30
0.0
 10
74.375943
 20
271.808750
 30
0.0
 10
74.966151
 20
272.696855
 30
0.0
 10
74.966151
 20
273.681959
 30
0.0
  0
SPLINE
  5
1dc
100
AcDbEntity
  8
panel_holes
 62
7
100
AcDbSpline
 70
8
 71
3
 72
8
 73
4
 74
0
 40
0
 40
0
 40
0
 40
0
 40
1
 40
1
 40
1
 40
1
 10
74.966151
 20
273.681959
 30
0.0
 10
74.966151
 20
274.327918
 30
0.0
 10
74.710931
 20
274.947420
 30
0.0
 10
74.256636
 20
275.404182
 30
0.0
  0
SPLINE
  5
1dd
100
AcDbEntity
  8
panel_holes
 62
7
100
AcDbSpline
 70
8
 71
3
 72
8
 73
4
 74
0
 40
0
 40
0
 40
0
 40
0
 40
1
 40
1
 40
1
 40
1
 10
74.256636
 20
275.404182
 30
0.0
 10
73.802341
 20
275.860943
 30
0.0
 10
73.186184
 20
276.117550
 30
0.0
 10
72.543714
 20
276.117550
 30
0.0
  0
LWPOLYLINE
  5
1de
100
AcDbEntity
  8
panel_holes
 62
7
100
AcDbPolyline
 90
2
 70
0
 10
62.379318
 20
254.500017
 30
0.0
 10
60.530357
 20
254.500017
 30
0.0
  0
LWPOLYLINE
  5
1df
100
AcDbEntity
  8
panel_holes
 62
7
100
AcDbPolyline
 90
1
 70
1
 10
72.543714
 20
276.117550
 30
0.0
  0
LWPOLYLINE
  5
1e0
100
AcDbEntity
  8
panel_holes
 62
7
100
AcDbPolyline
 90
2
 70
0
 10
72.543707
 20
275.211529
 30
0.0
 10
72.543707
 20
272.152378
 30
0.0
  0
LWPOLYLINE
  5
1e1
100
AcDbEntity
  8
panel_holes
 62
7
100
AcDbPolyline
 90
2
 70
0
 10
74.065022
 20
273.742358
 30
0.0
 10
71.022392
 20
273.742358
 30
0.0
  0
ENDSEC
  0
SECTION
  2
OBJECTS
  0
DICTIONARY
  5
C
330
0
100
AcDbDictionary
  3
ACAD_GROUP
350
D
  3
ACAD_MLINESTYLE
350
17
  0
DICTIONARY
  5
D
330
C
100
AcDbDictionary
  0
DICTIONARY
  5
1A
330
C
100
AcDbDictionary
  0
DICTIONARY
  5
17
330
C
100
AcDbDictionary
  3
STANDARD
350
18
  0
DICTIONARY
  5
19
330
C
100
AcDbDictionary
  0
ENDSEC
  0
EOF
