  0
SECTION
  2
HEADER
  9
$ACADVER
  1
AC1014
  9
$HANDSEED
  5
FFFF
  9
$MEASUREMENT
 70
     1
  0
ENDSEC
  0
SECTION
  2
TABLES
  0
TABLE
  2
VPORT
  5
8
330
0
100
AcDbSymbolTable
 70
     4
  0
VPORT
  5
2E
330
8
100
AcDbSymbolTableRecord
100
AcDbViewportTableRecord
  2
*ACTIVE
 70
     0
 10
0.0
 20
0.0
 11
1.0
 21
1.0
 12
210.0
 22
148.5
 13
0.0
 23
0.0
 14
10.0
 24
10.0
 15
10.0
 25
10.0
 16
0.0
 26
0.0
 36
1.0
 17
0.0
 27
0.0
 37
0.0
 40
341.0
 41
1.24
 42
50.0
 43
0.0
 44
0.0
 50
0.0
 51
0.0
 71
     0
 72
   100
 73
     1
 74
     3
 75
     0
 76
     0
 77
     0
 78
     0
  0
ENDTAB
  0
TABLE
  2
LTYPE
  5
5
330
0
100
AcDbSymbolTable
 70
     1
  0
LTYPE
  5
14
330
5
100
AcDbSymbolTableRecord
100
AcDbLinetypeTableRecord
  2
BYBLOCK
 70
     0
  3

 72
    65
 73
     0
 40
0.0
  0
LTYPE
  5
15
330
5
100
AcDbSymbolTableRecord
100
AcDbLinetypeTableRecord
  2
BYLAYER
 70
     0
  3

 72
    65
 73
     0
 40
0.0
  0
LTYPE
  5
16
330
5
100
AcDbSymbolTableRecord
100
AcDbLinetypeTableRecord
  2
CONTINUOUS
 70
     0
  3
Solid line
 72
    65
 73
     0
 40
0.0
  0
ENDTAB
  0
TABLE
  2
LAYER
  5
2
100
AcDbSymbolTable
 70
6
  0
LAYER
  5
50
100
AcDbSymbolTableRecord
100
AcDbLayerTableRecord
  2
0
 70
0
  6
CONTINUOUS
  0
LAYER
  5
51
100
AcDbSymbolTableRecord
100
AcDbLayerTableRecord
  2
panel_edge_cuts
 70
0
  6
CONTINUOUS
  0
LAYER
  5
52
100
AcDbSymbolTableRecord
100
AcDbLayerTableRecord
  2
pcb_edge_cuts
 70
0
  6
CONTINUOUS
  0
LAYER
  5
53
100
AcDbSymbolTableRecord
100
AcDbLayerTableRecord
  2
panel_holes
 70
0
  6
CONTINUOUS
  0
LAYER
  5
54
100
AcDbSymbolTableRecord
100
AcDbLayerTableRecord
  2
components
 70
0
  6
CONTINUOUS
  0
LAYER
  5
55
100
AcDbSymbolTableRecord
100
AcDbLayerTableRecord
  2
silkscreen
 70
0
  6
CONTINUOUS
  0
ENDTAB
  0
TABLE
  2
STYLE
  5
3
330
0
100
AcDbSymbolTable
 70
     1
  0
STYLE
  5
11
330
3
100
AcDbSymbolTableRecord
100
AcDbTextStyleTableRecord
  2
STANDARD
 70
     0
 40
0.0
 41
1.0
 50
0.0
 71
     0
 42
2.5
  3
txt
  4

  0
ENDTAB
  0
TABLE
  2
VIEW
  5
6
330
0
100
AcDbSymbolTable
 70
     0
  0
ENDTAB
  0
TABLE
  2
UCS
  5
7
330
0
100
AcDbSymbolTable
 70
     0
  0
ENDTAB
  0
TABLE
  2
APPID
  5
9
330
0
100
AcDbSymbolTable
 70
     2
  0
APPID
  5
12
330
9
100
AcDbSymbolTableRecord
100
AcDbRegAppTableRecord
  2
ACAD
 70
     0
  0
ENDTAB
  0
TABLE
  2
DIMSTYLE
  5
A
330
0
100
AcDbSymbolTable
 70
     1
  0
DIMSTYLE
105
27
330
A
100
AcDbSymbolTableRecord
100
AcDbDimStyleTableRecord
  2
ISO-25
 70
     0
  3

  4

  5

  6

  7

 40
1.0
 41
2.5
 42
0.625
 43
3.75
 44
1.25
 45
0.0
 46
0.0
 47
0.0
 48
0.0
140
2.5
141
2.5
142
0.0
143
0.03937007874016
144
1.0
145
0.0
146
1.0
147
0.625
 71
     0
 72
     0
 73
     0
 74
     0
 75
     0
 76
     0
 77
     1
 78
     8
170
     0
171
     3
172
     1
173
     0
174
     0
175
     0
176
     0
177
     0
178
     0
270
     2
271
     2
272
     2
273
     2
274
     3
340
11
275
     0
280
     0
281
     0
282
     0
283
     0
284
     8
285
     0
286
     0
287
     3
288
     0
  0
ENDTAB
  0
TABLE
  2
BLOCK_RECORD
  5
1
330
0
100
AcDbSymbolTable
 70
     1
  0
BLOCK_RECORD
  5
1F
330
1
100
AcDbSymbolTableRecord
100
AcDbBlockTableRecord
  2
*MODEL_SPACE
  0
BLOCK_RECORD
  5
1B
330
1
100
AcDbSymbolTableRecord
100
AcDbBlockTableRecord
  2
*PAPER_SPACE
  0
ENDTAB
  0
ENDSEC
  0
SECTION
  2
BLOCKS
  0
BLOCK
  5
20
330
1F
100
AcDbEntity
  8
0
100
AcDbBlockBegin
  2
*MODEL_SPACE
 70
     0
 10
0.0
 20
0.0
 30
0.0
  3
*MODEL_SPACE
  1

  0
ENDBLK
  5
21
330
1F
100
AcDbEntity
  8
0
100
AcDbBlockEnd
  0
BLOCK
  5
1C
330
1B
100
AcDbEntity
 67
     1
  8
0
100
AcDbBlockBegin
  2
*PAPER_SPACE
  1

  0
ENDBLK
  5
1D
330
1B
100
AcDbEntity
 67
     1
  8
0
100
AcDbBlockEnd
  0
ENDSEC
  0
SECTION
  2
ENTITIES
  0
SPLINE
  5
100
100
AcDbEntity
  8
panel_holes
 62
7
100
AcDbSpline
 70
8
 71
3
 72
8
 73
4
 74
0
 40
0
 40
0
 40
0
 40
0
 40
1
 40
1
 40
1
 40
1
 10
15.202879
 20
281.159867
 30
0.0
 10
14.223115
 20
281.159867
 30
0.0
 10
13.339825
 20
280.569672
 30
0.0
 10
12.964886
 20
279.664488
 30
0.0
  0
SPLINE
  5
101
100
AcDbEntity
  8
panel_holes
 62
7
100
AcDbSpline
 70
8
 71
3
 72
8
 73
4
 74
0
 40
0
 40
0
 40
0
 40
0
 40
1
 40
1
 40
1
 40
1
 10
12.964886
 20
279.664488
 30
0.0
 10
12.589946
 20
278.759304
 30
0.0
 10
12.797195
 20
277.717393
 30
0.0
 10
13.489993
 20
277.024595
 30
0.0
  0
SPLINE
  5
102
100
AcDbEntity
  8
panel_holes
 62
7
100
AcDbSpline
 70
8
 71
3
 72
8
 73
4
 74
0
 40
0
 40
0
 40
0
 40
0
 40
1
 40
1
 40
1
 40
1
 10
13.489993
 20
277.024595
 30
0.0
 10
14.182791
 20
276.331797
 30
0.0
 10
15.224702
 20
276.124548
 30
0.0
 10
16.129886
 20
276.499488
 30
0.0
  0
SPLINE
  5
103
100
AcDbEntity
  8
panel_holes
 62
7
100
AcDbSpline
 70
8
 71
3
 72
8
 73
4
 74
0
 40
0
 40
0
 40
0
 40
0
 40
1
 40
1
 40
1
 40
1
 10
16.129886
 20
276.499488
 30
0.0
 10
17.035070
 20
276.874427
 30
0.0
 10
17.625265
 20
277.757717
 30
0.0
 10
17.625265
 20
278.737481
 30
0.0
  0
SPLINE
  5
104
100
AcDbEntity
  8
panel_holes
 62
7
100
AcDbSpline
 70
8
 71
3
 72
8
 73
4
 74
0
 40
0
 40
0
 40
0
 40
0
 40
1
 40
1
 40
1
 40
1
 10
17.625265
 20
278.737481
 30
0.0
 10
17.625265
 20
279.379938
 30
0.0
 10
17.370050
 20
279.996081
 30
0.0
 10
16.915765
 20
280.450367
 30
0.0
  0
SPLINE
  5
105
100
AcDbEntity
  8
panel_holes
 62
7
100
AcDbSpline
 70
8
 71
3
 72
8
 73
4
 74
0
 40
0
 40
0
 40
0
 40
0
 40
1
 40
1
 40
1
 40
1
 10
16.915765
 20
280.450367
 30
0.0
 10
16.461479
 20
280.904652
 30
0.0
 10
15.845336
 20
281.159867
 30
0.0
 10
15.202879
 20
281.159867
 30
0.0
  0
LWPOLYLINE
  5
106
100
AcDbEntity
  8
pcb_edge_cuts
 62
7
100
AcDbPolyline
 90
4
 70
1
 10
0.051157
 20
282.701893
 30
0.0
 10
80.848848
 20
282.701893
 30
0.0
 10
80.848848
 20
182.798115
 30
0.0
 10
0.051157
 20
182.798115
 30
0.0
  0
LWPOLYLINE
  5
107
100
AcDbEntity
  8
panel_holes
 62
7
100
AcDbPolyline
 90
1
 70
1
 10
15.202879
 20
281.159867
 30
0.0
  0
LWPOLYLINE
  5
108
100
AcDbEntity
  8
panel_holes
 62
7
100
AcDbPolyline
 90
2
 70
0
 10
15.202879
 20
280.520153
 30
0.0
 10
15.202879
 20
276.808221
 30
0.0
  0
SPLINE
  5
109
100
AcDbEntity
  8
panel_holes
 62
7
100
AcDbSpline
 70
8
 71
3
 72
8
 73
4
 74
0
 40
0
 40
0
 40
0
 40
0
 40
1
 40
1
 40
1
 40
1
 10
10.440374
 20
270.873113
 30
0.0
 10
9.049109
 20
270.873113
 30
0.0
 10
7.794837
 20
270.035035
 30
0.0
 10
7.262424
 20
268.749674
 30
0.0
  0
SPLINE
  5
10a
100
AcDbEntity
  8
panel_holes
 62
7
100
AcDbSpline
 70
8
 71
3
 72
8
 73
4
 74
0
 40
0
 40
0
 40
0
 40
0
 40
1
 40
1
 40
1
 40
1
 10
7.262424
 20
268.749674
 30
0.0
 10
6.730010
 20
267.464313
 30
0.0
 10
7.024303
 20
265.984799
 30
0.0
 10
8.008076
 20
265.001026
 30
0.0
  0
SPLINE
  5
10b
100
AcDbEntity
  8
panel_holes
 62
7
100
AcDbSpline
 70
8
 71
3
 72
8
 73
4
 74
0
 40
0
 40
0
 40
0
 40
0
 40
1
 40
1
 40
1
 40
1
 10
8.008076
 20
265.001026
 30
0.0
 10
8.991849
 20
264.017253
 30
0.0
 10
10.471363
 20
263.722960
 30
0.0
 10
11.756724
 20
264.255374
 30
0.0
  0
SPLINE
  5
10c
100
AcDbEntity
  8
panel_holes
 62
7
100
AcDbSpline
 70
8
 71
3
 72
8
 73
4
 74
0
 40
0
 40
0
 40
0
 40
0
 40
1
 40
1
 40
1
 40
1
 10
11.756724
 20
264.255374
 30
0.0
 10
13.042085
 20
264.787787
 30
0.0
 10
13.880163
 20
266.042059
 30
0.0
 10
13.880163
 20
267.433324
 30
0.0
  0
SPLINE
  5
10d
100
AcDbEntity
  8
panel_holes
 62
7
100
AcDbSpline
 70
8
 71
3
 72
8
 73
4
 74
0
 40
0
 40
0
 40
0
 40
0
 40
1
 40
1
 40
1
 40
1
 10
13.880163
 20
267.433324
 30
0.0
 10
13.880163
 20
268.345613
 30
0.0
 10
13.517758
 20
269.220536
 30
0.0
 10
12.872672
 20
269.865622
 30
0.0
  0
SPLINE
  5
10e
100
AcDbEntity
  8
panel_holes
 62
7
100
AcDbSpline
 70
8
 71
3
 72
8
 73
4
 74
0
 40
0
 40
0
 40
0
 40
0
 40
1
 40
1
 40
1
 40
1
 10
12.872672
 20
269.865622
 30
0.0
 10
12.227586
 20
270.510708
 30
0.0
 10
11.352663
 20
270.873113
 30
0.0
 10
10.440374
 20
270.873113
 30
0.0
  0
LWPOLYLINE
  5
10f
100
AcDbEntity
  8
panel_holes
 62
7
100
AcDbPolyline
 90
2
 70
0
 10
17.058845
 20
278.737481
 30
0.0
 10
13.346913
 20
278.737481
 30
0.0
  0
LWPOLYLINE
  5
110
100
AcDbEntity
  8
panel_holes
 62
7
100
AcDbPolyline
 90
1
 70
1
 10
10.440374
 20
270.873113
 30
0.0
  0
LWPOLYLINE
  5
111
100
AcDbEntity
  8
panel_holes
 62
7
100
AcDbPolyline
 90
2
 70
0
 10
10.440369
 20
269.289253
 30
0.0
 10
10.440369
 20
265.577321
 30
0.0
  0
SPLINE
  5
112
100
AcDbEntity
  8
panel_holes
 62
7
100
AcDbSpline
 70
8
 71
3
 72
8
 73
4
 74
0
 40
0
 40
0
 40
0
 40
0
 40
1
 40
1
 40
1
 40
1
 10
72.543678
 20
248.274806
 30
0.0
 10
71.348366
 20
248.274806
 30
0.0
 10
70.270752
 20
247.554767
 30
0.0
 10
69.813326
 20
246.450443
 30
0.0
  0
SPLINE
  5
113
100
AcDbEntity
  8
panel_holes
 62
7
100
AcDbSpline
 70
8
 71
3
 72
8
 73
4
 74
0
 40
0
 40
0
 40
0
 40
0
 40
1
 40
1
 40
1
 40
1
 10
69.813326
 20
246.450443
 30
0.0
 10
69.355900
 20
245.346119
 30
0.0
 10
69.608744
 20
244.074986
 30
0.0
 10
70.453957
 20
243.229773
 30
0.0
  0
SPLINE
  5
114
100
AcDbEntity
  8
panel_holes
 62
7
100
AcDbSpline
 70
8
 71
3
 72
8
 73
4
 74
0
 40
0
 40
0
 40
0
 40
0
 40
1
 40
1
 40
1
 40
1
 10
70.453957
 20
243.229773
 30
0.0
 10
71.299170
 20
242.384560
 30
0.0
 10
72.570303
 20
242.131716
 30
0.0
 10
73.674627
 20
242.589142
 30
0.0
  0
SPLINE
  5
115
100
AcDbEntity
  8
panel_holes
 62
7
100
AcDbSpline
 70
8
 71
3
 72
8
 73
4
 74
0
 40
0
 40
0
 40
0
 40
0
 40
1
 40
1
 40
1
 40
1
 10
73.674627
 20
242.589142
 30
0.0
 10
74.778951
 20
243.046568
 30
0.0
 10
75.498990
 20
244.124182
 30
0.0
 10
75.498990
 20
245.319494
 30
0.0
  0
SPLINE
  5
116
100
AcDbEntity
  8
panel_holes
 62
7
100
AcDbSpline
 70
8
 71
3
 72
8
 73
4
 74
0
 40
0
 40
0
 40
0
 40
0
 40
1
 40
1
 40
1
 40
1
 10
75.498990
 20
245.319494
 30
0.0
 10
75.498990
 20
246.103291
 30
0.0
 10
75.187628
 20
246.854986
 30
0.0
 10
74.633399
 20
247.409215
 30
0.0
  0
SPLINE
  5
117
100
AcDbEntity
  8
panel_holes
 62
7
100
AcDbSpline
 70
8
 71
3
 72
8
 73
4
 74
0
 40
0
 40
0
 40
0
 40
0
 40
1
 40
1
 40
1
 40
1
 10
74.633399
 20
247.409215
 30
0.0
 10
74.079171
 20
247.963443
 30
0.0
 10
73.327475
 20
248.274806
 30
0.0
 10
72.543678
 20
248.274806
 30
0.0
  0
LWPOLYLINE
  5
118
100
AcDbEntity
  8
panel_holes
 62
7
100
AcDbPolyline
 90
2
 70
0
 10
12.296335
 20
267.506581
 30
0.0
 10
8.584403
 20
267.506581
 30
0.0
  0
LWPOLYLINE
  5
119
100
AcDbEntity
  8
panel_holes
 62
7
100
AcDbPolyline
 90
1
 70
1
 10
72.543678
 20
248.274806
 30
0.0
  0
LWPOLYLINE
  5
11a
100
AcDbEntity
  8
panel_holes
 62
7
100
AcDbPolyline
 90
2
 70
0
 10
72.543669
 20
247.175453
 30
0.0
 10
72.543669
 20
243.463521
 30
0.0
  0
SPLINE
  5
11b
100
AcDbEntity
  8
panel_holes
 62
7
100
AcDbSpline
 70
8
 71
3
 72
8
 73
4
 74
0
 40
0
 40
0
 40
0
 40
0
 40
1
 40
1
 40
1
 40
1
 10
25.854264
 20
270.873113
 30
0.0
 10
24.462999
 20
270.873113
 30
0.0
 10
23.208727
 20
270.035035
 30
0.0
 10
22.676314
 20
268.749674
 30
0.0
  0
SPLINE
  5
11c
100
AcDbEntity
  8
panel_holes
 62
7
100
AcDbSpline
 70
8
 71
3
 72
8
 73
4
 74
0
 40
0
 40
0
 40
0
 40
0
 40
1
 40
1
 40
1
 40
1
 10
22.676314
 20
268.749674
 30
0.0
 10
22.143900
 20
267.464313
 30
0.0
 10
22.438193
 20
265.984799
 30
0.0
 10
23.421966
 20
265.001026
 30
0.0
  0
SPLINE
  5
11d
100
AcDbEntity
  8
panel_holes
 62
7
100
AcDbSpline
 70
8
 71
3
 72
8
 73
4
 74
0
 40
0
 40
0
 40
0
 40
0
 40
1
 40
1
 40
1
 40
1
 10
23.421966
 20
265.001026
 30
0.0
 10
24.405739
 20
264.017253
 30
0.0
 10
25.885253
 20
263.722960
 30
0.0
 10
27.170614
 20
264.255374
 30
0.0
  0
SPLINE
  5
11e
100
AcDbEntity
  8
panel_holes
 62
7
100
AcDbSpline
 70
8
 71
3
 72
8
 73
4
 74
0
 40
0
 40
0
 40
0
 40
0
 40
1
 40
1
 40
1
 40
1
 10
27.170614
 20
264.255374
 30
0.0
 10
28.455975
 20
264.787787
 30
0.0
 10
29.294053
 20
266.042059
 30
0.0
 10
29.294053
 20
267.433324
 30
0.0
  0
SPLINE
  5
11f
100
AcDbEntity
  8
panel_holes
 62
7
100
AcDbSpline
 70
8
 71
3
 72
8
 73
4
 74
0
 40
0
 40
0
 40
0
 40
0
 40
1
 40
1
 40
1
 40
1
 10
29.294053
 20
267.433324
 30
0.0
 10
29.294053
 20
268.345613
 30
0.0
 10
28.931648
 20
269.220536
 30
0.0
 10
28.286562
 20
269.865622
 30
0.0
  0
SPLINE
  5
120
100
AcDbEntity
  8
panel_holes
 62
7
100
AcDbSpline
 70
8
 71
3
 72
8
 73
4
 74
0
 40
0
 40
0
 40
0
 40
0
 40
1
 40
1
 40
1
 40
1
 10
28.286562
 20
269.865622
 30
0.0
 10
27.641476
 20
270.510708
 30
0.0
 10
26.766553
 20
270.873113
 30
0.0
 10
25.854264
 20
270.873113
 30
0.0
  0
LWPOLYLINE
  5
121
100
AcDbEntity
  8
panel_holes
 62
7
100
AcDbPolyline
 90
2
 70
0
 10
74.399635
 20
245.392781
 30
0.0
 10
70.687703
 20
245.392781
 30
0.0
  0
LWPOLYLINE
  5
122
100
AcDbEntity
  8
panel_holes
 62
7
100
AcDbPolyline
 90
1
 70
1
 10
25.854264
 20
270.873113
 30
0.0
  0
LWPOLYLINE
  5
123
100
AcDbEntity
  8
panel_holes
 62
7
100
AcDbPolyline
 90
2
 70
0
 10
25.854259
 20
269.289253
 30
0.0
 10
25.854259
 20
265.577321
 30
0.0
  0
SPLINE
  5
124
100
AcDbEntity
  8
panel_holes
 62
7
100
AcDbSpline
 70
8
 71
3
 72
8
 73
4
 74
0
 40
0
 40
0
 40
0
 40
0
 40
1
 40
1
 40
1
 40
1
 10
56.682074
 20
270.873113
 30
0.0
 10
55.290809
 20
270.873113
 30
0.0
 10
54.036537
 20
270.035035
 30
0.0
 10
53.504124
 20
268.749674
 30
0.0
  0
SPLINE
  5
125
100
AcDbEntity
  8
panel_holes
 62
7
100
AcDbSpline
 70
8
 71
3
 72
8
 73
4
 74
0
 40
0
 40
0
 40
0
 40
0
 40
1
 40
1
 40
1
 40
1
 10
53.504124
 20
268.749674
 30
0.0
 10
52.971710
 20
267.464313
 30
0.0
 10
53.266003
 20
265.984799
 30
0.0
 10
54.249776
 20
265.001026
 30
0.0
  0
SPLINE
  5
126
100
AcDbEntity
  8
panel_holes
 62
7
100
AcDbSpline
 70
8
 71
3
 72
8
 73
4
 74
0
 40
0
 40
0
 40
0
 40
0
 40
1
 40
1
 40
1
 40
1
 10
54.249776
 20
265.001026
 30
0.0
 10
55.233549
 20
264.017253
 30
0.0
 10
56.713063
 20
263.722960
 30
0.0
 10
57.998424
 20
264.255374
 30
0.0
  0
SPLINE
  5
127
100
AcDbEntity
  8
panel_holes
 62
7
100
AcDbSpline
 70
8
 71
3
 72
8
 73
4
 74
0
 40
0
 40
0
 40
0
 40
0
 40
1
 40
1
 40
1
 40
1
 10
57.998424
 20
264.255374
 30
0.0
 10
59.283785
 20
264.787787
 30
0.0
 10
60.121863
 20
266.042059
 30
0.0
 10
60.121863
 20
267.433324
 30
0.0
  0
SPLINE
  5
128
100
AcDbEntity
  8
panel_holes
 62
7
100
AcDbSpline
 70
8
 71
3
 72
8
 73
4
 74
0
 40
0
 40
0
 40
0
 40
0
 40
1
 40
1
 40
1
 40
1
 10
60.121863
 20
267.433324
 30
0.0
 10
60.121863
 20
268.345613
 30
0.0
 10
59.759458
 20
269.220536
 30
0.0
 10
59.114372
 20
269.865622
 30
0.0
  0
SPLINE
  5
129
100
AcDbEntity
  8
panel_holes
 62
7
100
AcDbSpline
 70
8
 71
3
 72
8
 73
4
 74
0
 40
0
 40
0
 40
0
 40
0
 40
1
 40
1
 40
1
 40
1
 10
59.114372
 20
269.865622
 30
0.0
 10
58.469286
 20
270.510708
 30
0.0
 10
57.594363
 20
270.873113
 30
0.0
 10
56.682074
 20
270.873113
 30
0.0
  0
LWPOLYLINE
  5
12a
100
AcDbEntity
  8
panel_holes
 62
7
100
AcDbPolyline
 90
2
 70
0
 10
27.710225
 20
267.506581
 30
0.0
 10
23.998293
 20
267.506581
 30
0.0
  0
LWPOLYLINE
  5
12b
100
AcDbEntity
  8
panel_holes
 62
7
100
AcDbPolyline
 90
1
 70
1
 10
56.682074
 20
270.873113
 30
0.0
  0
LWPOLYLINE
  5
12c
100
AcDbEntity
  8
panel_holes
 62
7
100
AcDbPolyline
 90
2
 70
0
 10
56.682069
 20
269.289253
 30
0.0
 10
56.682069
 20
265.577321
 30
0.0
  0
SPLINE
  5
12d
100
AcDbEntity
  8
panel_holes
 62
7
100
AcDbSpline
 70
8
 71
3
 72
8
 73
4
 74
0
 40
0
 40
0
 40
0
 40
0
 40
1
 40
1
 40
1
 40
1
 10
41.268174
 20
270.873113
 30
0.0
 10
39.876909
 20
270.873113
 30
0.0
 10
38.622637
 20
270.035035
 30
0.0
 10
38.090224
 20
268.749674
 30
0.0
  0
SPLINE
  5
12e
100
AcDbEntity
  8
panel_holes
 62
7
100
AcDbSpline
 70
8
 71
3
 72
8
 73
4
 74
0
 40
0
 40
0
 40
0
 40
0
 40
1
 40
1
 40
1
 40
1
 10
38.090224
 20
268.749674
 30
0.0
 10
37.557810
 20
267.464313
 30
0.0
 10
37.852103
 20
265.984799
 30
0.0
 10
38.835876
 20
265.001026
 30
0.0
  0
SPLINE
  5
12f
100
AcDbEntity
  8
panel_holes
 62
7
100
AcDbSpline
 70
8
 71
3
 72
8
 73
4
 74
0
 40
0
 40
0
 40
0
 40
0
 40
1
 40
1
 40
1
 40
1
 10
38.835876
 20
265.001026
 30
0.0
 10
39.819649
 20
264.017253
 30
0.0
 10
41.299163
 20
263.722960
 30
0.0
 10
42.584524
 20
264.255374
 30
0.0
  0
SPLINE
  5
130
100
AcDbEntity
  8
panel_holes
 62
7
100
AcDbSpline
 70
8
 71
3
 72
8
 73
4
 74
0
 40
0
 40
0
 40
0
 40
0
 40
1
 40
1
 40
1
 40
1
 10
42.584524
 20
264.255374
 30
0.0
 10
43.869885
 20
264.787787
 30
0.0
 10
44.707963
 20
266.042059
 30
0.0
 10
44.707963
 20
267.433324
 30
0.0
  0
SPLINE
  5
131
100
AcDbEntity
  8
panel_holes
 62
7
100
AcDbSpline
 70
8
 71
3
 72
8
 73
4
 74
0
 40
0
 40
0
 40
0
 40
0
 40
1
 40
1
 40
1
 40
1
 10
44.707963
 20
267.433324
 30
0.0
 10
44.707963
 20
268.345613
 30
0.0
 10
44.345558
 20
269.220536
 30
0.0
 10
43.700472
 20
269.865622
 30
0.0
  0
SPLINE
  5
132
100
AcDbEntity
  8
panel_holes
 62
7
100
AcDbSpline
 70
8
 71
3
 72
8
 73
4
 74
0
 40
0
 40
0
 40
0
 40
0
 40
1
 40
1
 40
1
 40
1
 10
43.700472
 20
269.865622
 30
0.0
 10
43.055386
 20
270.510708
 30
0.0
 10
42.180463
 20
270.873113
 30
0.0
 10
41.268174
 20
270.873113
 30
0.0
  0
LWPOLYLINE
  5
133
100
AcDbEntity
  8
panel_holes
 62
7
100
AcDbPolyline
 90
2
 70
0
 10
58.538035
 20
267.506581
 30
0.0
 10
54.826103
 20
267.506581
 30
0.0
  0
LWPOLYLINE
  5
134
100
AcDbEntity
  8
panel_holes
 62
7
100
AcDbPolyline
 90
1
 70
1
 10
41.268174
 20
270.873113
 30
0.0
  0
LWPOLYLINE
  5
135
100
AcDbEntity
  8
panel_holes
 62
7
100
AcDbPolyline
 90
2
 70
0
 10
41.268169
 20
269.289253
 30
0.0
 10
41.268169
 20
265.577321
 30
0.0
  0
SPLINE
  5
136
100
AcDbEntity
  8
panel_holes
 62
7
100
AcDbSpline
 70
8
 71
3
 72
8
 73
4
 74
0
 40
0
 40
0
 40
0
 40
0
 40
1
 40
1
 40
1
 40
1
 10
10.450674
 20
224.525213
 30
0.0
 10
9.059409
 20
224.525213
 30
0.0
 10
7.805137
 20
223.687135
 30
0.0
 10
7.272724
 20
222.401774
 30
0.0
  0
SPLINE
  5
137
100
AcDbEntity
  8
panel_holes
 62
7
100
AcDbSpline
 70
8
 71
3
 72
8
 73
4
 74
0
 40
0
 40
0
 40
0
 40
0
 40
1
 40
1
 40
1
 40
1
 10
7.272724
 20
222.401774
 30
0.0
 10
6.740310
 20
221.116413
 30
0.0
 10
7.034603
 20
219.636899
 30
0.0
 10
8.018376
 20
218.653126
 30
0.0
  0
SPLINE
  5
138
100
AcDbEntity
  8
panel_holes
 62
7
100
AcDbSpline
 70
8
 71
3
 72
8
 73
4
 74
0
 40
0
 40
0
 40
0
 40
0
 40
1
 40
1
 40
1
 40
1
 10
8.018376
 20
218.653126
 30
0.0
 10
9.002149
 20
217.669353
 30
0.0
 10
10.481663
 20
217.375060
 30
0.0
 10
11.767024
 20
217.907474
 30
0.0
  0
SPLINE
  5
139
100
AcDbEntity
  8
panel_holes
 62
7
100
AcDbSpline
 70
8
 71
3
 72
8
 73
4
 74
0
 40
0
 40
0
 40
0
 40
0
 40
1
 40
1
 40
1
 40
1
 10
11.767024
 20
217.907474
 30
0.0
 10
13.052385
 20
218.439887
 30
0.0
 10
13.890463
 20
219.694159
 30
0.0
 10
13.890463
 20
221.085424
 30
0.0
  0
SPLINE
  5
13a
100
AcDbEntity
  8
panel_holes
 62
7
100
AcDbSpline
 70
8
 71
3
 72
8
 73
4
 74
0
 40
0
 40
0
 40
0
 40
0
 40
1
 40
1
 40
1
 40
1
 10
13.890463
 20
221.085424
 30
0.0
 10
13.890463
 20
221.997713
 30
0.0
 10
13.528058
 20
222.872636
 30
0.0
 10
12.882972
 20
223.517722
 30
0.0
  0
SPLINE
  5
13b
100
AcDbEntity
  8
panel_holes
 62
7
100
AcDbSpline
 70
8
 71
3
 72
8
 73
4
 74
0
 40
0
 40
0
 40
0
 40
0
 40
1
 40
1
 40
1
 40
1
 10
12.882972
 20
223.517722
 30
0.0
 10
12.237886
 20
224.162808
 30
0.0
 10
11.362963
 20
224.525213
 30
0.0
 10
10.450674
 20
224.525213
 30
0.0
  0
LWPOLYLINE
  5
13c
100
AcDbEntity
  8
panel_holes
 62
7
100
AcDbPolyline
 90
2
 70
0
 10
43.124135
 20
267.506581
 30
0.0
 10
39.412203
 20
267.506581
 30
0.0
  0
LWPOLYLINE
  5
13d
100
AcDbEntity
  8
panel_holes
 62
7
100
AcDbPolyline
 90
1
 70
1
 10
10.450674
 20
224.525213
 30
0.0
  0
LWPOLYLINE
  5
13e
100
AcDbEntity
  8
panel_holes
 62
7
100
AcDbPolyline
 90
2
 70
0
 10
10.450669
 20
222.941353
 30
0.0
 10
10.450669
 20
219.229421
 30
0.0
  0
SPLINE
  5
13f
100
AcDbEntity
  8
panel_holes
 62
7
100
AcDbSpline
 70
8
 71
3
 72
8
 73
4
 74
0
 40
0
 40
0
 40
0
 40
0
 40
1
 40
1
 40
1
 40
1
 10
10.450674
 20
202.414813
 30
0.0
 10
9.059409
 20
202.414813
 30
0.0
 10
7.805137
 20
201.576735
 30
0.0
 10
7.272724
 20
200.291374
 30
0.0
  0
SPLINE
  5
140
100
AcDbEntity
  8
panel_holes
 62
7
100
AcDbSpline
 70
8
 71
3
 72
8
 73
4
 74
0
 40
0
 40
0
 40
0
 40
0
 40
1
 40
1
 40
1
 40
1
 10
7.272724
 20
200.291374
 30
0.0
 10
6.740310
 20
199.006013
 30
0.0
 10
7.034603
 20
197.526499
 30
0.0
 10
8.018376
 20
196.542726
 30
0.0
  0
SPLINE
  5
141
100
AcDbEntity
  8
panel_holes
 62
7
100
AcDbSpline
 70
8
 71
3
 72
8
 73
4
 74
0
 40
0
 40
0
 40
0
 40
0
 40
1
 40
1
 40
1
 40
1
 10
8.018376
 20
196.542726
 30
0.0
 10
9.002149
 20
195.558953
 30
0.0
 10
10.481663
 20
195.264660
 30
0.0
 10
11.767024
 20
195.797074
 30
0.0
  0
SPLINE
  5
142
100
AcDbEntity
  8
panel_holes
 62
7
100
AcDbSpline
 70
8
 71
3
 72
8
 73
4
 74
0
 40
0
 40
0
 40
0
 40
0
 40
1
 40
1
 40
1
 40
1
 10
11.767024
 20
195.797074
 30
0.0
 10
13.052385
 20
196.329487
 30
0.0
 10
13.890463
 20
197.583759
 30
0.0
 10
13.890463
 20
198.975024
 30
0.0
  0
SPLINE
  5
143
100
AcDbEntity
  8
panel_holes
 62
7
100
AcDbSpline
 70
8
 71
3
 72
8
 73
4
 74
0
 40
0
 40
0
 40
0
 40
0
 40
1
 40
1
 40
1
 40
1
 10
13.890463
 20
198.975024
 30
0.0
 10
13.890463
 20
199.887313
 30
0.0
 10
13.528058
 20
200.762236
 30
0.0
 10
12.882972
 20
201.407322
 30
0.0
  0
SPLINE
  5
144
100
AcDbEntity
  8
panel_holes
 62
7
100
AcDbSpline
 70
8
 71
3
 72
8
 73
4
 74
0
 40
0
 40
0
 40
0
 40
0
 40
1
 40
1
 40
1
 40
1
 10
12.882972
 20
201.407322
 30
0.0
 10
12.237886
 20
202.052408
 30
0.0
 10
11.362963
 20
202.414813
 30
0.0
 10
10.450674
 20
202.414813
 30
0.0
  0
LWPOLYLINE
  5
145
100
AcDbEntity
  8
panel_holes
 62
7
100
AcDbPolyline
 90
2
 70
0
 10
12.306635
 20
221.158681
 30
0.0
 10
8.594703
 20
221.158681
 30
0.0
  0
LWPOLYLINE
  5
146
100
AcDbEntity
  8
panel_holes
 62
7
100
AcDbPolyline
 90
1
 70
1
 10
10.450674
 20
202.414813
 30
0.0
  0
LWPOLYLINE
  5
147
100
AcDbEntity
  8
panel_holes
 62
7
100
AcDbPolyline
 90
2
 70
0
 10
10.450669
 20
200.830953
 30
0.0
 10
10.450669
 20
197.119021
 30
0.0
  0
SPLINE
  5
148
100
AcDbEntity
  8
panel_holes
 62
7
100
AcDbSpline
 70
8
 71
3
 72
8
 73
4
 74
0
 40
0
 40
0
 40
0
 40
0
 40
1
 40
1
 40
1
 40
1
 10
30.616769
 20
281.159867
 30
0.0
 10
29.637005
 20
281.159867
 30
0.0
 10
28.753715
 20
280.569672
 30
0.0
 10
28.378776
 20
279.664488
 30
0.0
  0
SPLINE
  5
149
100
AcDbEntity
  8
panel_holes
 62
7
100
AcDbSpline
 70
8
 71
3
 72
8
 73
4
 74
0
 40
0
 40
0
 40
0
 40
0
 40
1
 40
1
 40
1
 40
1
 10
28.378776
 20
279.664488
 30
0.0
 10
28.003836
 20
278.759304
 30
0.0
 10
28.211085
 20
277.717393
 30
0.0
 10
28.903883
 20
277.024595
 30
0.0
  0
SPLINE
  5
14a
100
AcDbEntity
  8
panel_holes
 62
7
100
AcDbSpline
 70
8
 71
3
 72
8
 73
4
 74
0
 40
0
 40
0
 40
0
 40
0
 40
1
 40
1
 40
1
 40
1
 10
28.903883
 20
277.024595
 30
0.0
 10
29.596681
 20
276.331797
 30
0.0
 10
30.638592
 20
276.124548
 30
0.0
 10
31.543776
 20
276.499488
 30
0.0
  0
SPLINE
  5
14b
100
AcDbEntity
  8
panel_holes
 62
7
100
AcDbSpline
 70
8
 71
3
 72
8
 73
4
 74
0
 40
0
 40
0
 40
0
 40
0
 40
1
 40
1
 40
1
 40
1
 10
31.543776
 20
276.499488
 30
0.0
 10
32.448960
 20
276.874427
 30
0.0
 10
33.039155
 20
277.757717
 30
0.0
 10
33.039155
 20
278.737481
 30
0.0
  0
SPLINE
  5
14c
100
AcDbEntity
  8
panel_holes
 62
7
100
AcDbSpline
 70
8
 71
3
 72
8
 73
4
 74
0
 40
0
 40
0
 40
0
 40
0
 40
1
 40
1
 40
1
 40
1
 10
33.039155
 20
278.737481
 30
0.0
 10
33.039155
 20
279.379938
 30
0.0
 10
32.783940
 20
279.996081
 30
0.0
 10
32.329655
 20
280.450367
 30
0.0
  0
SPLINE
  5
14d
100
AcDbEntity
  8
panel_holes
 62
7
100
AcDbSpline
 70
8
 71
3
 72
8
 73
4
 74
0
 40
0
 40
0
 40
0
 40
0
 40
1
 40
1
 40
1
 40
1
 10
32.329655
 20
280.450367
 30
0.0
 10
31.875369
 20
280.904652
 30
0.0
 10
31.259226
 20
281.159867
 30
0.0
 10
30.616769
 20
281.159867
 30
0.0
  0
LWPOLYLINE
  5
14e
100
AcDbEntity
  8
panel_holes
 62
7
100
AcDbPolyline
 90
2
 70
0
 10
12.306635
 20
199.048281
 30
0.0
 10
8.594703
 20
199.048281
 30
0.0
  0
LWPOLYLINE
  5
14f
100
AcDbEntity
  8
panel_holes
 62
7
100
AcDbPolyline
 90
1
 70
1
 10
30.616769
 20
281.159867
 30
0.0
  0
LWPOLYLINE
  5
150
100
AcDbEntity
  8
panel_holes
 62
7
100
AcDbPolyline
 90
2
 70
0
 10
30.616769
 20
280.520153
 30
0.0
 10
30.616769
 20
276.808221
 30
0.0
  0
SPLINE
  5
151
100
AcDbEntity
  8
panel_holes
 62
7
100
AcDbSpline
 70
8
 71
3
 72
8
 73
4
 74
0
 40
0
 40
0
 40
0
 40
0
 40
1
 40
1
 40
1
 40
1
 10
46.030669
 20
281.159867
 30
0.0
 10
45.050905
 20
281.159867
 30
0.0
 10
44.167615
 20
280.569672
 30
0.0
 10
43.792676
 20
279.664488
 30
0.0
  0
SPLINE
  5
152
100
AcDbEntity
  8
panel_holes
 62
7
100
AcDbSpline
 70
8
 71
3
 72
8
 73
4
 74
0
 40
0
 40
0
 40
0
 40
0
 40
1
 40
1
 40
1
 40
1
 10
43.792676
 20
279.664488
 30
0.0
 10
43.417736
 20
278.759304
 30
0.0
 10
43.624985
 20
277.717393
 30
0.0
 10
44.317783
 20
277.024595
 30
0.0
  0
SPLINE
  5
153
100
AcDbEntity
  8
panel_holes
 62
7
100
AcDbSpline
 70
8
 71
3
 72
8
 73
4
 74
0
 40
0
 40
0
 40
0
 40
0
 40
1
 40
1
 40
1
 40
1
 10
44.317783
 20
277.024595
 30
0.0
 10
45.010581
 20
276.331797
 30
0.0
 10
46.052492
 20
276.124548
 30
0.0
 10
46.957676
 20
276.499488
 30
0.0
  0
SPLINE
  5
154
100
AcDbEntity
  8
panel_holes
 62
7
100
AcDbSpline
 70
8
 71
3
 72
8
 73
4
 74
0
 40
0
 40
0
 40
0
 40
0
 40
1
 40
1
 40
1
 40
1
 10
46.957676
 20
276.499488
 30
0.0
 10
47.862860
 20
276.874427
 30
0.0
 10
48.453055
 20
277.757717
 30
0.0
 10
48.453055
 20
278.737481
 30
0.0
  0
SPLINE
  5
155
100
AcDbEntity
  8
panel_holes
 62
7
100
AcDbSpline
 70
8
 71
3
 72
8
 73
4
 74
0
 40
0
 40
0
 40
0
 40
0
 40
1
 40
1
 40
1
 40
1
 10
48.453055
 20
278.737481
 30
0.0
 10
48.453055
 20
279.379938
 30
0.0
 10
48.197840
 20
279.996081
 30
0.0
 10
47.743555
 20
280.450367
 30
0.0
  0
SPLINE
  5
156
100
AcDbEntity
  8
panel_holes
 62
7
100
AcDbSpline
 70
8
 71
3
 72
8
 73
4
 74
0
 40
0
 40
0
 40
0
 40
0
 40
1
 40
1
 40
1
 40
1
 10
47.743555
 20
280.450367
 30
0.0
 10
47.289269
 20
280.904652
 30
0.0
 10
46.673126
 20
281.159867
 30
0.0
 10
46.030669
 20
281.159867
 30
0.0
  0
LWPOLYLINE
  5
157
100
AcDbEntity
  8
panel_holes
 62
7
100
AcDbPolyline
 90
2
 70
0
 10
32.472735
 20
278.737481
 30
0.0
 10
28.760803
 20
278.737481
 30
0.0
  0
LWPOLYLINE
  5
158
100
AcDbEntity
  8
panel_holes
 62
7
100
AcDbPolyline
 90
1
 70
1
 10
46.030669
 20
281.159867
 30
0.0
  0
LWPOLYLINE
  5
159
100
AcDbEntity
  8
panel_holes
 62
7
100
AcDbPolyline
 90
2
 70
0
 10
46.030669
 20
280.520153
 30
0.0
 10
46.030669
 20
276.808221
 30
0.0
  0
SPLINE
  5
15a
100
AcDbEntity
  8
panel_holes
 62
7
100
AcDbSpline
 70
8
 71
3
 72
8
 73
4
 74
0
 40
0
 40
0
 40
0
 40
0
 40
1
 40
1
 40
1
 40
1
 10
61.444569
 20
281.159867
 30
0.0
 10
60.464805
 20
281.159867
 30
0.0
 10
59.581515
 20
280.569672
 30
0.0
 10
59.206576
 20
279.664488
 30
0.0
  0
SPLINE
  5
15b
100
AcDbEntity
  8
panel_holes
 62
7
100
AcDbSpline
 70
8
 71
3
 72
8
 73
4
 74
0
 40
0
 40
0
 40
0
 40
0
 40
1
 40
1
 40
1
 40
1
 10
59.206576
 20
279.664488
 30
0.0
 10
58.831636
 20
278.759304
 30
0.0
 10
59.038885
 20
277.717393
 30
0.0
 10
59.731683
 20
277.024595
 30
0.0
  0
SPLINE
  5
15c
100
AcDbEntity
  8
panel_holes
 62
7
100
AcDbSpline
 70
8
 71
3
 72
8
 73
4
 74
0
 40
0
 40
0
 40
0
 40
0
 40
1
 40
1
 40
1
 40
1
 10
59.731683
 20
277.024595
 30
0.0
 10
60.424481
 20
276.331797
 30
0.0
 10
61.466392
 20
276.124548
 30
0.0
 10
62.371576
 20
276.499488
 30
0.0
  0
SPLINE
  5
15d
100
AcDbEntity
  8
panel_holes
 62
7
100
AcDbSpline
 70
8
 71
3
 72
8
 73
4
 74
0
 40
0
 40
0
 40
0
 40
0
 40
1
 40
1
 40
1
 40
1
 10
62.371576
 20
276.499488
 30
0.0
 10
63.276760
 20
276.874427
 30
0.0
 10
63.866955
 20
277.757717
 30
0.0
 10
63.866955
 20
278.737481
 30
0.0
  0
SPLINE
  5
15e
100
AcDbEntity
  8
panel_holes
 62
7
100
AcDbSpline
 70
8
 71
3
 72
8
 73
4
 74
0
 40
0
 40
0
 40
0
 40
0
 40
1
 40
1
 40
1
 40
1
 10
63.866955
 20
278.737481
 30
0.0
 10
63.866955
 20
279.379938
 30
0.0
 10
63.611740
 20
279.996081
 30
0.0
 10
63.157455
 20
280.450367
 30
0.0
  0
SPLINE
  5
15f
100
AcDbEntity
  8
panel_holes
 62
7
100
AcDbSpline
 70
8
 71
3
 72
8
 73
4
 74
0
 40
0
 40
0
 40
0
 40
0
 40
1
 40
1
 40
1
 40
1
 10
63.157455
 20
280.450367
 30
0.0
 10
62.703169
 20
280.904652
 30
0.0
 10
62.087026
 20
281.159867
 30
0.0
 10
61.444569
 20
281.159867
 30
0.0
  0
LWPOLYLINE
  5
160
100
AcDbEntity
  8
panel_holes
 62
7
100
AcDbPolyline
 90
2
 70
0
 10
47.886635
 20
278.737481
 30
0.0
 10
44.174703
 20
278.737481
 30
0.0
  0
LWPOLYLINE
  5
161
100
AcDbEntity
  8
panel_holes
 62
7
100
AcDbPolyline
 90
1
 70
1
 10
61.444569
 20
281.159867
 30
0.0
  0
LWPOLYLINE
  5
162
100
AcDbEntity
  8
panel_holes
 62
7
100
AcDbPolyline
 90
2
 70
0
 10
61.444569
 20
280.520153
 30
0.0
 10
61.444569
 20
276.808221
 30
0.0
  0
SPLINE
  5
163
100
AcDbEntity
  8
panel_holes
 62
7
100
AcDbSpline
 70
8
 71
3
 72
8
 73
4
 74
0
 40
0
 40
0
 40
0
 40
0
 40
1
 40
1
 40
1
 40
1
 10
72.543678
 20
218.863646
 30
0.0
 10
71.348366
 20
218.863646
 30
0.0
 10
70.270752
 20
218.143607
 30
0.0
 10
69.813326
 20
217.039283
 30
0.0
  0
SPLINE
  5
164
100
AcDbEntity
  8
panel_holes
 62
7
100
AcDbSpline
 70
8
 71
3
 72
8
 73
4
 74
0
 40
0
 40
0
 40
0
 40
0
 40
1
 40
1
 40
1
 40
1
 10
69.813326
 20
217.039283
 30
0.0
 10
69.355900
 20
215.934959
 30
0.0
 10
69.608744
 20
214.663826
 30
0.0
 10
70.453957
 20
213.818613
 30
0.0
  0
SPLINE
  5
165
100
AcDbEntity
  8
panel_holes
 62
7
100
AcDbSpline
 70
8
 71
3
 72
8
 73
4
 74
0
 40
0
 40
0
 40
0
 40
0
 40
1
 40
1
 40
1
 40
1
 10
70.453957
 20
213.818613
 30
0.0
 10
71.299170
 20
212.973400
 30
0.0
 10
72.570303
 20
212.720556
 30
0.0
 10
73.674627
 20
213.177982
 30
0.0
  0
SPLINE
  5
166
100
AcDbEntity
  8
panel_holes
 62
7
100
AcDbSpline
 70
8
 71
3
 72
8
 73
4
 74
0
 40
0
 40
0
 40
0
 40
0
 40
1
 40
1
 40
1
 40
1
 10
73.674627
 20
213.177982
 30
0.0
 10
74.778951
 20
213.635408
 30
0.0
 10
75.498990
 20
214.713022
 30
0.0
 10
75.498990
 20
215.908334
 30
0.0
  0
SPLINE
  5
167
100
AcDbEntity
  8
panel_holes
 62
7
100
AcDbSpline
 70
8
 71
3
 72
8
 73
4
 74
0
 40
0
 40
0
 40
0
 40
0
 40
1
 40
1
 40
1
 40
1
 10
75.498990
 20
215.908334
 30
0.0
 10
75.498990
 20
216.692131
 30
0.0
 10
75.187628
 20
217.443826
 30
0.0
 10
74.633399
 20
217.998055
 30
0.0
  0
SPLINE
  5
168
100
AcDbEntity
  8
panel_holes
 62
7
100
AcDbSpline
 70
8
 71
3
 72
8
 73
4
 74
0
 40
0
 40
0
 40
0
 40
0
 40
1
 40
1
 40
1
 40
1
 10
74.633399
 20
217.998055
 30
0.0
 10
74.079171
 20
218.552283
 30
0.0
 10
73.327475
 20
218.863646
 30
0.0
 10
72.543678
 20
218.863646
 30
0.0
  0
LWPOLYLINE
  5
169
100
AcDbEntity
  8
panel_holes
 62
7
100
AcDbPolyline
 90
2
 70
0
 10
63.300535
 20
278.737481
 30
0.0
 10
59.588603
 20
278.737481
 30
0.0
  0
LWPOLYLINE
  5
16a
100
AcDbEntity
  8
panel_holes
 62
7
100
AcDbPolyline
 90
1
 70
1
 10
72.543678
 20
218.863646
 30
0.0
  0
LWPOLYLINE
  5
16b
100
AcDbEntity
  8
panel_holes
 62
7
100
AcDbPolyline
 90
2
 70
0
 10
72.543669
 20
217.764293
 30
0.0
 10
72.543669
 20
214.052361
 30
0.0
  0
SPLINE
  5
16c
100
AcDbEntity
  8
panel_holes
 62
7
100
AcDbSpline
 70
8
 71
3
 72
8
 73
4
 74
0
 40
0
 40
0
 40
0
 40
0
 40
1
 40
1
 40
1
 40
1
 10
72.543678
 20
262.980305
 30
0.0
 10
71.348366
 20
262.980305
 30
0.0
 10
70.270752
 20
262.260267
 30
0.0
 10
69.813326
 20
261.155943
 30
0.0
  0
SPLINE
  5
16d
100
AcDbEntity
  8
panel_holes
 62
7
100
AcDbSpline
 70
8
 71
3
 72
8
 73
4
 74
0
 40
0
 40
0
 40
0
 40
0
 40
1
 40
1
 40
1
 40
1
 10
69.813326
 20
261.155943
 30
0.0
 10
69.355900
 20
260.051619
 30
0.0
 10
69.608744
 20
258.780486
 30
0.0
 10
70.453957
 20
257.935273
 30
0.0
  0
SPLINE
  5
16e
100
AcDbEntity
  8
panel_holes
 62
7
100
AcDbSpline
 70
8
 71
3
 72
8
 73
4
 74
0
 40
0
 40
0
 40
0
 40
0
 40
1
 40
1
 40
1
 40
1
 10
70.453957
 20
257.935273
 30
0.0
 10
71.299170
 20
257.090060
 30
0.0
 10
72.570303
 20
256.837216
 30
0.0
 10
73.674627
 20
257.294642
 30
0.0
  0
SPLINE
  5
16f
100
AcDbEntity
  8
panel_holes
 62
7
100
AcDbSpline
 70
8
 71
3
 72
8
 73
4
 74
0
 40
0
 40
0
 40
0
 40
0
 40
1
 40
1
 40
1
 40
1
 10
73.674627
 20
257.294642
 30
0.0
 10
74.778951
 20
257.752068
 30
0.0
 10
75.498990
 20
258.829682
 30
0.0
 10
75.498990
 20
260.024994
 30
0.0
  0
SPLINE
  5
170
100
AcDbEntity
  8
panel_holes
 62
7
100
AcDbSpline
 70
8
 71
3
 72
8
 73
4
 74
0
 40
0
 40
0
 40
0
 40
0
 40
1
 40
1
 40
1
 40
1
 10
75.498990
 20
260.024994
 30
0.0
 10
75.498990
 20
260.808791
 30
0.0
 10
75.187628
 20
261.560486
 30
0.0
 10
74.633399
 20
262.114715
 30
0.0
  0
SPLINE
  5
171
100
AcDbEntity
  8
panel_holes
 62
7
100
AcDbSpline
 70
8
 71
3
 72
8
 73
4
 74
0
 40
0
 40
0
 40
0
 40
0
 40
1
 40
1
 40
1
 40
1
 10
74.633399
 20
262.114715
 30
0.0
 10
74.079171
 20
262.668943
 30
0.0
 10
73.327475
 20
262.980305
 30
0.0
 10
72.543678
 20
262.980305
 30
0.0
  0
LWPOLYLINE
  5
172
100
AcDbEntity
  8
panel_holes
 62
7
100
AcDbPolyline
 90
2
 70
0
 10
74.399635
 20
215.981621
 30
0.0
 10
70.687703
 20
215.981621
 30
0.0
  0
LWPOLYLINE
  5
173
100
AcDbEntity
  8
panel_holes
 62
7
100
AcDbPolyline
 90
1
 70
1
 10
72.543678
 20
262.980305
 30
0.0
  0
LWPOLYLINE
  5
174
100
AcDbEntity
  8
panel_holes
 62
7
100
AcDbPolyline
 90
2
 70
0
 10
72.543669
 20
261.880953
 30
0.0
 10
72.543669
 20
258.169021
 30
0.0
  0
SPLINE
  5
175
100
AcDbEntity
  8
panel_holes
 62
7
100
AcDbSpline
 70
8
 71
3
 72
8
 73
4
 74
0
 40
0
 40
0
 40
0
 40
0
 40
1
 40
1
 40
1
 40
1
 10
72.543678
 20
233.569206
 30
0.0
 10
71.348366
 20
233.569206
 30
0.0
 10
70.270752
 20
232.849167
 30
0.0
 10
69.813326
 20
231.744843
 30
0.0
  0
SPLINE
  5
176
100
AcDbEntity
  8
panel_holes
 62
7
100
AcDbSpline
 70
8
 71
3
 72
8
 73
4
 74
0
 40
0
 40
0
 40
0
 40
0
 40
1
 40
1
 40
1
 40
1
 10
69.813326
 20
231.744843
 30
0.0
 10
69.355900
 20
230.640519
 30
0.0
 10
69.608744
 20
229.369386
 30
0.0
 10
70.453957
 20
228.524173
 30
0.0
  0
SPLINE
  5
177
100
AcDbEntity
  8
panel_holes
 62
7
100
AcDbSpline
 70
8
 71
3
 72
8
 73
4
 74
0
 40
0
 40
0
 40
0
 40
0
 40
1
 40
1
 40
1
 40
1
 10
70.453957
 20
228.524173
 30
0.0
 10
71.299170
 20
227.678960
 30
0.0
 10
72.570303
 20
227.426116
 30
0.0
 10
73.674627
 20
227.883542
 30
0.0
  0
SPLINE
  5
178
100
AcDbEntity
  8
panel_holes
 62
7
100
AcDbSpline
 70
8
 71
3
 72
8
 73
4
 74
0
 40
0
 40
0
 40
0
 40
0
 40
1
 40
1
 40
1
 40
1
 10
73.674627
 20
227.883542
 30
0.0
 10
74.778951
 20
228.340968
 30
0.0
 10
75.498990
 20
229.418582
 30
0.0
 10
75.498990
 20
230.613894
 30
0.0
  0
SPLINE
  5
179
100
AcDbEntity
  8
panel_holes
 62
7
100
AcDbSpline
 70
8
 71
3
 72
8
 73
4
 74
0
 40
0
 40
0
 40
0
 40
0
 40
1
 40
1
 40
1
 40
1
 10
75.498990
 20
230.613894
 30
0.0
 10
75.498990
 20
231.397691
 30
0.0
 10
75.187628
 20
232.149386
 30
0.0
 10
74.633399
 20
232.703615
 30
0.0
  0
SPLINE
  5
17a
100
AcDbEntity
  8
panel_holes
 62
7
100
AcDbSpline
 70
8
 71
3
 72
8
 73
4
 74
0
 40
0
 40
0
 40
0
 40
0
 40
1
 40
1
 40
1
 40
1
 10
74.633399
 20
232.703615
 30
0.0
 10
74.079171
 20
233.257843
 30
0.0
 10
73.327475
 20
233.569206
 30
0.0
 10
72.543678
 20
233.569206
 30
0.0
  0
LWPOLYLINE
  5
17b
100
AcDbEntity
  8
panel_holes
 62
7
100
AcDbPolyline
 90
2
 70
0
 10
74.399635
 20
260.098281
 30
0.0
 10
70.687703
 20
260.098281
 30
0.0
  0
LWPOLYLINE
  5
17c
100
AcDbEntity
  8
panel_holes
 62
7
100
AcDbPolyline
 90
1
 70
1
 10
72.543678
 20
233.569206
 30
0.0
  0
LWPOLYLINE
  5
17d
100
AcDbEntity
  8
panel_holes
 62
7
100
AcDbPolyline
 90
2
 70
0
 10
72.543669
 20
232.469853
 30
0.0
 10
72.543669
 20
228.757921
 30
0.0
  0
SPLINE
  5
17e
100
AcDbEntity
  8
panel_holes
 62
7
100
AcDbSpline
 70
8
 71
3
 72
8
 73
4
 74
0
 40
0
 40
0
 40
0
 40
0
 40
1
 40
1
 40
1
 40
1
 10
72.543733
 20
275.360154
 30
0.0
 10
71.859537
 20
275.360154
 30
0.0
 10
71.242712
 20
274.951301
 30
0.0
 10
70.980882
 20
274.324242
 30
0.0
  0
SPLINE
  5
17f
100
AcDbEntity
  8
panel_holes
 62
7
100
AcDbSpline
 70
8
 71
3
 72
8
 73
4
 74
0
 40
0
 40
0
 40
0
 40
0
 40
1
 40
1
 40
1
 40
1
 10
70.980882
 20
274.324242
 30
0.0
 10
70.719052
 20
273.697184
 30
0.0
 10
70.863779
 20
272.975408
 30
0.0
 10
71.347578
 20
272.495479
 30
0.0
  0
SPLINE
  5
180
100
AcDbEntity
  8
panel_holes
 62
7
100
AcDbSpline
 70
8
 71
3
 72
8
 73
4
 74
0
 40
0
 40
0
 40
0
 40
0
 40
1
 40
1
 40
1
 40
1
 10
71.347578
 20
272.495479
 30
0.0
 10
71.831378
 20
272.015549
 30
0.0
 10
72.558973
 20
271.871979
 30
0.0
 10
73.191087
 20
272.131715
 30
0.0
  0
SPLINE
  5
181
100
AcDbEntity
  8
panel_holes
 62
7
100
AcDbSpline
 70
8
 71
3
 72
8
 73
4
 74
0
 40
0
 40
0
 40
0
 40
0
 40
1
 40
1
 40
1
 40
1
 10
73.191087
 20
272.131715
 30
0.0
 10
73.823201
 20
272.391451
 30
0.0
 10
74.235350
 20
273.003343
 30
0.0
 10
74.235350
 20
273.682066
 30
0.0
  0
SPLINE
  5
182
100
AcDbEntity
  8
panel_holes
 62
7
100
AcDbSpline
 70
8
 71
3
 72
8
 73
4
 74
0
 40
0
 40
0
 40
0
 40
0
 40
1
 40
1
 40
1
 40
1
 10
74.235350
 20
273.682066
 30
0.0
 10
74.235350
 20
274.127122
 30
0.0
 10
74.057127
 20
274.553951
 30
0.0
 10
73.739887
 20
274.868653
 30
0.0
  0
SPLINE
  5
183
100
AcDbEntity
  8
panel_holes
 62
7
100
AcDbSpline
 70
8
 71
3
 72
8
 73
4
 74
0
 40
0
 40
0
 40
0
 40
0
 40
1
 40
1
 40
1
 40
1
 10
73.739887
 20
274.868653
 30
0.0
 10
73.422647
 20
275.183356
 30
0.0
 10
72.992378
 20
275.360154
 30
0.0
 10
72.543733
 20
275.360154
 30
0.0
  0
LWPOLYLINE
  5
184
100
AcDbEntity
  8
panel_holes
 62
7
100
AcDbPolyline
 90
2
 70
0
 10
74.399635
 20
230.687181
 30
0.0
 10
70.687703
 20
230.687181
 30
0.0
  0
LWPOLYLINE
  5
185
100
AcDbEntity
  8
panel_holes
 62
7
100
AcDbPolyline
 90
1
 70
1
 10
72.543733
 20
275.360154
 30
0.0
  0
LWPOLYLINE
  5
186
100
AcDbEntity
  8
panel_holes
 62
7
100
AcDbPolyline
 90
2
 70
0
 10
72.543728
 20
274.735918
 30
0.0
 10
72.543728
 20
272.628205
 30
0.0
  0
SPLINE
  5
187
100
AcDbEntity
  8
panel_holes
 62
7
100
AcDbSpline
 70
8
 71
3
 72
8
 73
4
 74
0
 40
0
 40
0
 40
0
 40
0
 40
1
 40
1
 40
1
 40
1
 10
15.213219
 20
256.922367
 30
0.0
 10
14.233455
 20
256.922367
 30
0.0
 10
13.350165
 20
256.332172
 30
0.0
 10
12.975226
 20
255.426988
 30
0.0
  0
SPLINE
  5
188
100
AcDbEntity
  8
panel_holes
 62
7
100
AcDbSpline
 70
8
 71
3
 72
8
 73
4
 74
0
 40
0
 40
0
 40
0
 40
0
 40
1
 40
1
 40
1
 40
1
 10
12.975226
 20
255.426988
 30
0.0
 10
12.600286
 20
254.521804
 30
0.0
 10
12.807535
 20
253.479893
 30
0.0
 10
13.500333
 20
252.787095
 30
0.0
  0
SPLINE
  5
189
100
AcDbEntity
  8
panel_holes
 62
7
100
AcDbSpline
 70
8
 71
3
 72
8
 73
4
 74
0
 40
0
 40
0
 40
0
 40
0
 40
1
 40
1
 40
1
 40
1
 10
13.500333
 20
252.787095
 30
0.0
 10
14.193131
 20
252.094297
 30
0.0
 10
15.235042
 20
251.887048
 30
0.0
 10
16.140226
 20
252.261988
 30
0.0
  0
SPLINE
  5
18a
100
AcDbEntity
  8
panel_holes
 62
7
100
AcDbSpline
 70
8
 71
3
 72
8
 73
4
 74
0
 40
0
 40
0
 40
0
 40
0
 40
1
 40
1
 40
1
 40
1
 10
16.140226
 20
252.261988
 30
0.0
 10
17.045410
 20
252.636927
 30
0.0
 10
17.635605
 20
253.520217
 30
0.0
 10
17.635605
 20
254.499981
 30
0.0
  0
SPLINE
  5
18b
100
AcDbEntity
  8
panel_holes
 62
7
100
AcDbSpline
 70
8
 71
3
 72
8
 73
4
 74
0
 40
0
 40
0
 40
0
 40
0
 40
1
 40
1
 40
1
 40
1
 10
17.635605
 20
254.499981
 30
0.0
 10
17.635605
 20
255.142438
 30
0.0
 10
17.380390
 20
255.758581
 30
0.0
 10
16.926105
 20
256.212867
 30
0.0
  0
SPLINE
  5
18c
100
AcDbEntity
  8
panel_holes
 62
7
100
AcDbSpline
 70
8
 71
3
 72
8
 73
4
 74
0
 40
0
 40
0
 40
0
 40
0
 40
1
 40
1
 40
1
 40
1
 10
16.926105
 20
256.212867
 30
0.0
 10
16.471819
 20
256.667152
 30
0.0
 10
15.855676
 20
256.922367
 30
0.0
 10
15.213219
 20
256.922367
 30
0.0
  0
LWPOLYLINE
  5
18d
100
AcDbEntity
  8
panel_holes
 62
7
100
AcDbPolyline
 90
2
 70
0
 10
73.606081
 20
273.723680
 30
0.0
 10
71.481375
 20
273.723680
 30
0.0
  0
LWPOLYLINE
  5
18e
100
AcDbEntity
  8
panel_holes
 62
7
100
AcDbPolyline
 90
1
 70
1
 10
15.213219
 20
256.922367
 30
0.0
  0
LWPOLYLINE
  5
18f
100
AcDbEntity
  8
panel_holes
 62
7
100
AcDbPolyline
 90
2
 70
0
 10
15.213219
 20
256.282653
 30
0.0
 10
15.213219
 20
252.570721
 30
0.0
  0
SPLINE
  5
190
100
AcDbEntity
  8
panel_holes
 62
7
100
AcDbSpline
 70
8
 71
3
 72
8
 73
4
 74
0
 40
0
 40
0
 40
0
 40
0
 40
1
 40
1
 40
1
 40
1
 10
10.450674
 20
246.635613
 30
0.0
 10
9.059409
 20
246.635613
 30
0.0
 10
7.805137
 20
245.797535
 30
0.0
 10
7.272724
 20
244.512174
 30
0.0
  0
SPLINE
  5
191
100
AcDbEntity
  8
panel_holes
 62
7
100
AcDbSpline
 70
8
 71
3
 72
8
 73
4
 74
0
 40
0
 40
0
 40
0
 40
0
 40
1
 40
1
 40
1
 40
1
 10
7.272724
 20
244.512174
 30
0.0
 10
6.740310
 20
243.226813
 30
0.0
 10
7.034603
 20
241.747299
 30
0.0
 10
8.018376
 20
240.763526
 30
0.0
  0
SPLINE
  5
192
100
AcDbEntity
  8
panel_holes
 62
7
100
AcDbSpline
 70
8
 71
3
 72
8
 73
4
 74
0
 40
0
 40
0
 40
0
 40
0
 40
1
 40
1
 40
1
 40
1
 10
8.018376
 20
240.763526
 30
0.0
 10
9.002149
 20
239.779753
 30
0.0
 10
10.481663
 20
239.485460
 30
0.0
 10
11.767024
 20
240.017874
 30
0.0
  0
SPLINE
  5
193
100
AcDbEntity
  8
panel_holes
 62
7
100
AcDbSpline
 70
8
 71
3
 72
8
 73
4
 74
0
 40
0
 40
0
 40
0
 40
0
 40
1
 40
1
 40
1
 40
1
 10
11.767024
 20
240.017874
 30
0.0
 10
13.052385
 20
240.550287
 30
0.0
 10
13.890463
 20
241.804559
 30
0.0
 10
13.890463
 20
243.195824
 30
0.0
  0
SPLINE
  5
194
100
AcDbEntity
  8
panel_holes
 62
7
100
AcDbSpline
 70
8
 71
3
 72
8
 73
4
 74
0
 40
0
 40
0
 40
0
 40
0
 40
1
 40
1
 40
1
 40
1
 10
13.890463
 20
243.195824
 30
0.0
 10
13.890463
 20
244.108113
 30
0.0
 10
13.528058
 20
244.983036
 30
0.0
 10
12.882972
 20
245.628122
 30
0.0
  0
SPLINE
  5
195
100
AcDbEntity
  8
panel_holes
 62
7
100
AcDbSpline
 70
8
 71
3
 72
8
 73
4
 74
0
 40
0
 40
0
 40
0
 40
0
 40
1
 40
1
 40
1
 40
1
 10
12.882972
 20
245.628122
 30
0.0
 10
12.237886
 20
246.273208
 30
0.0
 10
11.362963
 20
246.635613
 30
0.0
 10
10.450674
 20
246.635613
 30
0.0
  0
LWPOLYLINE
  5
196
100
AcDbEntity
  8
panel_holes
 62
7
100
AcDbPolyline
 90
2
 70
0
 10
17.069185
 20
254.499981
 30
0.0
 10
13.357253
 20
254.499981
 30
0.0
  0
LWPOLYLINE
  5
197
100
AcDbEntity
  8
panel_holes
 62
7
100
AcDbPolyline
 90
1
 70
1
 10
10.450674
 20
246.635613
 30
0.0
  0
LWPOLYLINE
  5
198
100
AcDbEntity
  8
panel_holes
 62
7
100
AcDbPolyline
 90
2
 70
0
 10
10.450669
 20
245.051753
 30
0.0
 10
10.450669
 20
241.339821
 30
0.0
  0
SPLINE
  5
199
100
AcDbEntity
  8
panel_holes
 62
7
100
AcDbSpline
 70
8
 71
3
 72
8
 73
4
 74
0
 40
0
 40
0
 40
0
 40
0
 40
1
 40
1
 40
1
 40
1
 10
25.864604
 20
246.635613
 30
0.0
 10
24.473339
 20
246.635613
 30
0.0
 10
23.219067
 20
245.797535
 30
0.0
 10
22.686654
 20
244.512174
 30
0.0
  0
SPLINE
  5
19a
100
AcDbEntity
  8
panel_holes
 62
7
100
AcDbSpline
 70
8
 71
3
 72
8
 73
4
 74
0
 40
0
 40
0
 40
0
 40
0
 40
1
 40
1
 40
1
 40
1
 10
22.686654
 20
244.512174
 30
0.0
 10
22.154240
 20
243.226813
 30
0.0
 10
22.448533
 20
241.747299
 30
0.0
 10
23.432306
 20
240.763526
 30
0.0
  0
SPLINE
  5
19b
100
AcDbEntity
  8
panel_holes
 62
7
100
AcDbSpline
 70
8
 71
3
 72
8
 73
4
 74
0
 40
0
 40
0
 40
0
 40
0
 40
1
 40
1
 40
1
 40
1
 10
23.432306
 20
240.763526
 30
0.0
 10
24.416079
 20
239.779753
 30
0.0
 10
25.895593
 20
239.485460
 30
0.0
 10
27.180954
 20
240.017874
 30
0.0
  0
SPLINE
  5
19c
100
AcDbEntity
  8
panel_holes
 62
7
100
AcDbSpline
 70
8
 71
3
 72
8
 73
4
 74
0
 40
0
 40
0
 40
0
 40
0
 40
1
 40
1
 40
1
 40
1
 10
27.180954
 20
240.017874
 30
0.0
 10
28.466315
 20
240.550287
 30
0.0
 10
29.304393
 20
241.804559
 30
0.0
 10
29.304393
 20
243.195824
 30
0.0
  0
SPLINE
  5
19d
100
AcDbEntity
  8
panel_holes
 62
7
100
AcDbSpline
 70
8
 71
3
 72
8
 73
4
 74
0
 40
0
 40
0
 40
0
 40
0
 40
1
 40
1
 40
1
 40
1
 10
29.304393
 20
243.195824
 30
0.0
 10
29.304393
 20
244.108113
 30
0.0
 10
28.941988
 20
244.983036
 30
0.0
 10
28.296902
 20
245.628122
 30
0.0
  0
SPLINE
  5
19e
100
AcDbEntity
  8
panel_holes
 62
7
100
AcDbSpline
 70
8
 71
3
 72
8
 73
4
 74
0
 40
0
 40
0
 40
0
 40
0
 40
1
 40
1
 40
1
 40
1
 10
28.296902
 20
245.628122
 30
0.0
 10
27.651816
 20
246.273208
 30
0.0
 10
26.776893
 20
246.635613
 30
0.0
 10
25.864604
 20
246.635613
 30
0.0
  0
LWPOLYLINE
  5
19f
100
AcDbEntity
  8
panel_holes
 62
7
100
AcDbPolyline
 90
2
 70
0
 10
12.306635
 20
243.269081
 30
0.0
 10
8.594703
 20
243.269081
 30
0.0
  0
LWPOLYLINE
  5
1a0
100
AcDbEntity
  8
panel_holes
 62
7
100
AcDbPolyline
 90
1
 70
1
 10
25.864604
 20
246.635613
 30
0.0
  0
LWPOLYLINE
  5
1a1
100
AcDbEntity
  8
panel_holes
 62
7
100
AcDbPolyline
 90
2
 70
0
 10
25.864599
 20
245.051753
 30
0.0
 10
25.864599
 20
241.339821
 30
0.0
  0
SPLINE
  5
1a2
100
AcDbEntity
  8
panel_holes
 62
7
100
AcDbSpline
 70
8
 71
3
 72
8
 73
4
 74
0
 40
0
 40
0
 40
0
 40
0
 40
1
 40
1
 40
1
 40
1
 10
56.692374
 20
246.635613
 30
0.0
 10
55.301109
 20
246.635613
 30
0.0
 10
54.046837
 20
245.797535
 30
0.0
 10
53.514424
 20
244.512174
 30
0.0
  0
SPLINE
  5
1a3
100
AcDbEntity
  8
panel_holes
 62
7
100
AcDbSpline
 70
8
 71
3
 72
8
 73
4
 74
0
 40
0
 40
0
 40
0
 40
0
 40
1
 40
1
 40
1
 40
1
 10
53.514424
 20
244.512174
 30
0.0
 10
52.982010
 20
243.226813
 30
0.0
 10
53.276303
 20
241.747299
 30
0.0
 10
54.260076
 20
240.763526
 30
0.0
  0
SPLINE
  5
1a4
100
AcDbEntity
  8
panel_holes
 62
7
100
AcDbSpline
 70
8
 71
3
 72
8
 73
4
 74
0
 40
0
 40
0
 40
0
 40
0
 40
1
 40
1
 40
1
 40
1
 10
54.260076
 20
240.763526
 30
0.0
 10
55.243849
 20
239.779753
 30
0.0
 10
56.723363
 20
239.485460
 30
0.0
 10
58.008724
 20
240.017874
 30
0.0
  0
SPLINE
  5
1a5
100
AcDbEntity
  8
panel_holes
 62
7
100
AcDbSpline
 70
8
 71
3
 72
8
 73
4
 74
0
 40
0
 40
0
 40
0
 40
0
 40
1
 40
1
 40
1
 40
1
 10
58.008724
 20
240.017874
 30
0.0
 10
59.294085
 20
240.550287
 30
0.0
 10
60.132163
 20
241.804559
 30
0.0
 10
60.132163
 20
243.195824
 30
0.0
  0
SPLINE
  5
1a6
100
AcDbEntity
  8
panel_holes
 62
7
100
AcDbSpline
 70
8
 71
3
 72
8
 73
4
 74
0
 40
0
 40
0
 40
0
 40
0
 40
1
 40
1
 40
1
 40
1
 10
60.132163
 20
243.195824
 30
0.0
 10
60.132163
 20
244.108113
 30
0.0
 10
59.769758
 20
244.983036
 30
0.0
 10
59.124672
 20
245.628122
 30
0.0
  0
SPLINE
  5
1a7
100
AcDbEntity
  8
panel_holes
 62
7
100
AcDbSpline
 70
8
 71
3
 72
8
 73
4
 74
0
 40
0
 40
0
 40
0
 40
0
 40
1
 40
1
 40
1
 40
1
 10
59.124672
 20
245.628122
 30
0.0
 10
58.479586
 20
246.273208
 30
0.0
 10
57.604663
 20
246.635613
 30
0.0
 10
56.692374
 20
246.635613
 30
0.0
  0
LWPOLYLINE
  5
1a8
100
AcDbEntity
  8
panel_holes
 62
7
100
AcDbPolyline
 90
2
 70
0
 10
27.720565
 20
243.269081
 30
0.0
 10
24.008633
 20
243.269081
 30
0.0
  0
LWPOLYLINE
  5
1a9
100
AcDbEntity
  8
panel_holes
 62
7
100
AcDbPolyline
 90
1
 70
1
 10
56.692374
 20
246.635613
 30
0.0
  0
LWPOLYLINE
  5
1aa
100
AcDbEntity
  8
panel_holes
 62
7
100
AcDbPolyline
 90
2
 70
0
 10
56.692369
 20
245.051753
 30
0.0
 10
56.692369
 20
241.339821
 30
0.0
  0
SPLINE
  5
1ab
100
AcDbEntity
  8
panel_holes
 62
7
100
AcDbSpline
 70
8
 71
3
 72
8
 73
4
 74
0
 40
0
 40
0
 40
0
 40
0
 40
1
 40
1
 40
1
 40
1
 10
41.278474
 20
246.635613
 30
0.0
 10
39.887209
 20
246.635613
 30
0.0
 10
38.632937
 20
245.797535
 30
0.0
 10
38.100524
 20
244.512174
 30
0.0
  0
SPLINE
  5
1ac
100
AcDbEntity
  8
panel_holes
 62
7
100
AcDbSpline
 70
8
 71
3
 72
8
 73
4
 74
0
 40
0
 40
0
 40
0
 40
0
 40
1
 40
1
 40
1
 40
1
 10
38.100524
 20
244.512174
 30
0.0
 10
37.568110
 20
243.226813
 30
0.0
 10
37.862403
 20
241.747299
 30
0.0
 10
38.846176
 20
240.763526
 30
0.0
  0
SPLINE
  5
1ad
100
AcDbEntity
  8
panel_holes
 62
7
100
AcDbSpline
 70
8
 71
3
 72
8
 73
4
 74
0
 40
0
 40
0
 40
0
 40
0
 40
1
 40
1
 40
1
 40
1
 10
38.846176
 20
240.763526
 30
0.0
 10
39.829949
 20
239.779753
 30
0.0
 10
41.309463
 20
239.485460
 30
0.0
 10
42.594824
 20
240.017874
 30
0.0
  0
SPLINE
  5
1ae
100
AcDbEntity
  8
panel_holes
 62
7
100
AcDbSpline
 70
8
 71
3
 72
8
 73
4
 74
0
 40
0
 40
0
 40
0
 40
0
 40
1
 40
1
 40
1
 40
1
 10
42.594824
 20
240.017874
 30
0.0
 10
43.880185
 20
240.550287
 30
0.0
 10
44.718263
 20
241.804559
 30
0.0
 10
44.718263
 20
243.195824
 30
0.0
  0
SPLINE
  5
1af
100
AcDbEntity
  8
panel_holes
 62
7
100
AcDbSpline
 70
8
 71
3
 72
8
 73
4
 74
0
 40
0
 40
0
 40
0
 40
0
 40
1
 40
1
 40
1
 40
1
 10
44.718263
 20
243.195824
 30
0.0
 10
44.718263
 20
244.108113
 30
0.0
 10
44.355858
 20
244.983036
 30
0.0
 10
43.710772
 20
245.628122
 30
0.0
  0
SPLINE
  5
1b0
100
AcDbEntity
  8
panel_holes
 62
7
100
AcDbSpline
 70
8
 71
3
 72
8
 73
4
 74
0
 40
0
 40
0
 40
0
 40
0
 40
1
 40
1
 40
1
 40
1
 10
43.710772
 20
245.628122
 30
0.0
 10
43.065686
 20
246.273208
 30
0.0
 10
42.190763
 20
246.635613
 30
0.0
 10
41.278474
 20
246.635613
 30
0.0
  0
LWPOLYLINE
  5
1b1
100
AcDbEntity
  8
panel_holes
 62
7
100
AcDbPolyline
 90
2
 70
0
 10
58.548335
 20
243.269081
 30
0.0
 10
54.836403
 20
243.269081
 30
0.0
  0
LWPOLYLINE
  5
1b2
100
AcDbEntity
  8
panel_holes
 62
7
100
AcDbPolyline
 90
1
 70
1
 10
41.278474
 20
246.635613
 30
0.0
  0
LWPOLYLINE
  5
1b3
100
AcDbEntity
  8
panel_holes
 62
7
100
AcDbPolyline
 90
2
 70
0
 10
41.278469
 20
245.051753
 30
0.0
 10
41.278469
 20
241.339821
 30
0.0
  0
SPLINE
  5
1b4
100
AcDbEntity
  8
panel_holes
 62
7
100
AcDbSpline
 70
8
 71
3
 72
8
 73
4
 74
0
 40
0
 40
0
 40
0
 40
0
 40
1
 40
1
 40
1
 40
1
 10
30.627069
 20
256.922367
 30
0.0
 10
29.647305
 20
256.922367
 30
0.0
 10
28.764015
 20
256.332172
 30
0.0
 10
28.389076
 20
255.426988
 30
0.0
  0
SPLINE
  5
1b5
100
AcDbEntity
  8
panel_holes
 62
7
100
AcDbSpline
 70
8
 71
3
 72
8
 73
4
 74
0
 40
0
 40
0
 40
0
 40
0
 40
1
 40
1
 40
1
 40
1
 10
28.389076
 20
255.426988
 30
0.0
 10
28.014136
 20
254.521804
 30
0.0
 10
28.221385
 20
253.479893
 30
0.0
 10
28.914183
 20
252.787095
 30
0.0
  0
SPLINE
  5
1b6
100
AcDbEntity
  8
panel_holes
 62
7
100
AcDbSpline
 70
8
 71
3
 72
8
 73
4
 74
0
 40
0
 40
0
 40
0
 40
0
 40
1
 40
1
 40
1
 40
1
 10
28.914183
 20
252.787095
 30
0.0
 10
29.606981
 20
252.094297
 30
0.0
 10
30.648892
 20
251.887048
 30
0.0
 10
31.554076
 20
252.261988
 30
0.0
  0
SPLINE
  5
1b7
100
AcDbEntity
  8
panel_holes
 62
7
100
AcDbSpline
 70
8
 71
3
 72
8
 73
4
 74
0
 40
0
 40
0
 40
0
 40
0
 40
1
 40
1
 40
1
 40
1
 10
31.554076
 20
252.261988
 30
0.0
 10
32.459260
 20
252.636927
 30
0.0
 10
33.049455
 20
253.520217
 30
0.0
 10
33.049455
 20
254.499981
 30
0.0
  0
SPLINE
  5
1b8
100
AcDbEntity
  8
panel_holes
 62
7
100
AcDbSpline
 70
8
 71
3
 72
8
 73
4
 74
0
 40
0
 40
0
 40
0
 40
0
 40
1
 40
1
 40
1
 40
1
 10
33.049455
 20
254.499981
 30
0.0
 10
33.049455
 20
255.142438
 30
0.0
 10
32.794240
 20
255.758581
 30
0.0
 10
32.339955
 20
256.212867
 30
0.0
  0
SPLINE
  5
1b9
100
AcDbEntity
  8
panel_holes
 62
7
100
AcDbSpline
 70
8
 71
3
 72
8
 73
4
 74
0
 40
0
 40
0
 40
0
 40
0
 40
1
 40
1
 40
1
 40
1
 10
32.339955
 20
256.212867
 30
0.0
 10
31.885669
 20
256.667152
 30
0.0
 10
31.269526
 20
256.922367
 30
0.0
 10
30.627069
 20
256.922367
 30
0.0
  0
LWPOLYLINE
  5
1ba
100
AcDbEntity
  8
panel_holes
 62
7
100
AcDbPolyline
 90
2
 70
0
 10
43.134435
 20
243.269081
 30
0.0
 10
39.422503
 20
243.269081
 30
0.0
  0
LWPOLYLINE
  5
1bb
100
AcDbEntity
  8
panel_holes
 62
7
100
AcDbPolyline
 90
1
 70
1
 10
30.627069
 20
256.922367
 30
0.0
  0
LWPOLYLINE
  5
1bc
100
AcDbEntity
  8
panel_holes
 62
7
100
AcDbPolyline
 90
2
 70
0
 10
30.627069
 20
256.282653
 30
0.0
 10
30.627069
 20
252.570721
 30
0.0
  0
SPLINE
  5
1bd
100
AcDbEntity
  8
panel_holes
 62
7
100
AcDbSpline
 70
8
 71
3
 72
8
 73
4
 74
0
 40
0
 40
0
 40
0
 40
0
 40
1
 40
1
 40
1
 40
1
 10
46.040969
 20
256.922367
 30
0.0
 10
45.061205
 20
256.922367
 30
0.0
 10
44.177915
 20
256.332172
 30
0.0
 10
43.802976
 20
255.426988
 30
0.0
  0
SPLINE
  5
1be
100
AcDbEntity
  8
panel_holes
 62
7
100
AcDbSpline
 70
8
 71
3
 72
8
 73
4
 74
0
 40
0
 40
0
 40
0
 40
0
 40
1
 40
1
 40
1
 40
1
 10
43.802976
 20
255.426988
 30
0.0
 10
43.428036
 20
254.521804
 30
0.0
 10
43.635285
 20
253.479893
 30
0.0
 10
44.328083
 20
252.787095
 30
0.0
  0
SPLINE
  5
1bf
100
AcDbEntity
  8
panel_holes
 62
7
100
AcDbSpline
 70
8
 71
3
 72
8
 73
4
 74
0
 40
0
 40
0
 40
0
 40
0
 40
1
 40
1
 40
1
 40
1
 10
44.328083
 20
252.787095
 30
0.0
 10
45.020881
 20
252.094297
 30
0.0
 10
46.062792
 20
251.887048
 30
0.0
 10
46.967976
 20
252.261988
 30
0.0
  0
SPLINE
  5
1c0
100
AcDbEntity
  8
panel_holes
 62
7
100
AcDbSpline
 70
8
 71
3
 72
8
 73
4
 74
0
 40
0
 40
0
 40
0
 40
0
 40
1
 40
1
 40
1
 40
1
 10
46.967976
 20
252.261988
 30
0.0
 10
47.873160
 20
252.636927
 30
0.0
 10
48.463355
 20
253.520217
 30
0.0
 10
48.463355
 20
254.499981
 30
0.0
  0
SPLINE
  5
1c1
100
AcDbEntity
  8
panel_holes
 62
7
100
AcDbSpline
 70
8
 71
3
 72
8
 73
4
 74
0
 40
0
 40
0
 40
0
 40
0
 40
1
 40
1
 40
1
 40
1
 10
48.463355
 20
254.499981
 30
0.0
 10
48.463355
 20
255.142438
 30
0.0
 10
48.208140
 20
255.758581
 30
0.0
 10
47.753855
 20
256.212867
 30
0.0
  0
SPLINE
  5
1c2
100
AcDbEntity
  8
panel_holes
 62
7
100
AcDbSpline
 70
8
 71
3
 72
8
 73
4
 74
0
 40
0
 40
0
 40
0
 40
0
 40
1
 40
1
 40
1
 40
1
 10
47.753855
 20
256.212867
 30
0.0
 10
47.299569
 20
256.667152
 30
0.0
 10
46.683426
 20
256.922367
 30
0.0
 10
46.040969
 20
256.922367
 30
0.0
  0
LWPOLYLINE
  5
1c3
100
AcDbEntity
  8
panel_holes
 62
7
100
AcDbPolyline
 90
2
 70
0
 10
32.483035
 20
254.499981
 30
0.0
 10
28.771103
 20
254.499981
 30
0.0
  0
LWPOLYLINE
  5
1c4
100
AcDbEntity
  8
panel_holes
 62
7
100
AcDbPolyline
 90
1
 70
1
 10
46.040969
 20
256.922367
 30
0.0
  0
LWPOLYLINE
  5
1c5
100
AcDbEntity
  8
panel_holes
 62
7
100
AcDbPolyline
 90
2
 70
0
 10
46.040969
 20
256.282653
 30
0.0
 10
46.040969
 20
252.570721
 30
0.0
  0
SPLINE
  5
1c6
100
AcDbEntity
  8
panel_holes
 62
7
100
AcDbSpline
 70
8
 71
3
 72
8
 73
4
 74
0
 40
0
 40
0
 40
0
 40
0
 40
1
 40
1
 40
1
 40
1
 10
61.454869
 20
256.922367
 30
0.0
 10
60.475105
 20
256.922367
 30
0.0
 10
59.591815
 20
256.332172
 30
0.0
 10
59.216876
 20
255.426988
 30
0.0
  0
SPLINE
  5
1c7
100
AcDbEntity
  8
panel_holes
 62
7
100
AcDbSpline
 70
8
 71
3
 72
8
 73
4
 74
0
 40
0
 40
0
 40
0
 40
0
 40
1
 40
1
 40
1
 40
1
 10
59.216876
 20
255.426988
 30
0.0
 10
58.841936
 20
254.521804
 30
0.0
 10
59.049185
 20
253.479893
 30
0.0
 10
59.741983
 20
252.787095
 30
0.0
  0
SPLINE
  5
1c8
100
AcDbEntity
  8
panel_holes
 62
7
100
AcDbSpline
 70
8
 71
3
 72
8
 73
4
 74
0
 40
0
 40
0
 40
0
 40
0
 40
1
 40
1
 40
1
 40
1
 10
59.741983
 20
252.787095
 30
0.0
 10
60.434781
 20
252.094297
 30
0.0
 10
61.476692
 20
251.887048
 30
0.0
 10
62.381876
 20
252.261988
 30
0.0
  0
SPLINE
  5
1c9
100
AcDbEntity
  8
panel_holes
 62
7
100
AcDbSpline
 70
8
 71
3
 72
8
 73
4
 74
0
 40
0
 40
0
 40
0
 40
0
 40
1
 40
1
 40
1
 40
1
 10
62.381876
 20
252.261988
 30
0.0
 10
63.287060
 20
252.636927
 30
0.0
 10
63.877255
 20
253.520217
 30
0.0
 10
63.877255
 20
254.499981
 30
0.0
  0
SPLINE
  5
1ca
100
AcDbEntity
  8
panel_holes
 62
7
100
AcDbSpline
 70
8
 71
3
 72
8
 73
4
 74
0
 40
0
 40
0
 40
0
 40
0
 40
1
 40
1
 40
1
 40
1
 10
63.877255
 20
254.499981
 30
0.0
 10
63.877255
 20
255.142438
 30
0.0
 10
63.622040
 20
255.758581
 30
0.0
 10
63.167755
 20
256.212867
 30
0.0
  0
SPLINE
  5
1cb
100
AcDbEntity
  8
panel_holes
 62
7
100
AcDbSpline
 70
8
 71
3
 72
8
 73
4
 74
0
 40
0
 40
0
 40
0
 40
0
 40
1
 40
1
 40
1
 40
1
 10
63.167755
 20
256.212867
 30
0.0
 10
62.713469
 20
256.667152
 30
0.0
 10
62.097326
 20
256.922367
 30
0.0
 10
61.454869
 20
256.922367
 30
0.0
  0
LWPOLYLINE
  5
1cc
100
AcDbEntity
  8
panel_holes
 62
7
100
AcDbPolyline
 90
2
 70
0
 10
47.896935
 20
254.499981
 30
0.0
 10
44.185003
 20
254.499981
 30
0.0
  0
LWPOLYLINE
  5
1cd
100
AcDbEntity
  8
panel_holes
 62
7
100
AcDbPolyline
 90
1
 70
1
 10
61.454869
 20
256.922367
 30
0.0
  0
LWPOLYLINE
  5
1ce
100
AcDbEntity
  8
panel_holes
 62
7
100
AcDbPolyline
 90
2
 70
0
 10
61.454869
 20
256.282653
 30
0.0
 10
61.454869
 20
252.570721
 30
0.0
  0
LWPOLYLINE
  5
1cf
100
AcDbEntity
  8
panel_holes
 62
7
100
AcDbPolyline
 90
2
 70
0
 10
63.310835
 20
254.499981
 30
0.0
 10
59.598903
 20
254.499981
 30
0.0
  0
ENDSEC
  0
SECTION
  2
OBJECTS
  0
DICTIONARY
  5
C
330
0
100
AcDbDictionary
  3
ACAD_GROUP
350
D
  3
ACAD_MLINESTYLE
350
17
  0
DICTIONARY
  5
D
330
C
100
AcDbDictionary
  0
DICTIONARY
  5
1A
330
C
100
AcDbDictionary
  0
DICTIONARY
  5
17
330
C
100
AcDbDictionary
  3
STANDARD
350
18
  0
DICTIONARY
  5
19
330
C
100
AcDbDictionary
  0
ENDSEC
  0
EOF
